<?xml version="1.0" encoding="UTF-8" standalone="no"?>
<!-- Created with Inkscape (http://www.inkscape.org/) -->
<svg
   xmlns:dc="http://purl.org/dc/elements/1.1/"
   xmlns:cc="http://creativecommons.org/ns#"
   xmlns:rdf="http://www.w3.org/1999/02/22-rdf-syntax-ns#"
   xmlns:svg="http://www.w3.org/2000/svg"
   xmlns="http://www.w3.org/2000/svg"
   xmlns:sodipodi="http://sodipodi.sourceforge.net/DTD/sodipodi-0.dtd"
   xmlns:inkscape="http://www.inkscape.org/namespaces/inkscape"
   width="744.09448819"
   height="1052.3622047"
   id="svg2"
   sodipodi:version="0.32"
   inkscape:version="0.46"
   sodipodi:docname="back to reality.svg"
   inkscape:output_extension="org.inkscape.output.svg.inkscape">
  <defs
     id="defs4">
    <inkscape:perspective
       sodipodi:type="inkscape:persp3d"
       inkscape:vp_x="0 : 526.18109 : 1"
       inkscape:vp_y="0 : 1000 : 0"
       inkscape:vp_z="744.09448 : 526.18109 : 1"
       inkscape:persp3d-origin="372.04724 : 350.78739 : 1"
       id="perspective10" />
  </defs>
  <sodipodi:namedview
     id="base"
     pagecolor="#ffffff"
     bordercolor="#666666"
     borderopacity="1.0"
     gridtolerance="10000"
     guidetolerance="10"
     objecttolerance="10"
     inkscape:pageopacity="0.0"
     inkscape:pageshadow="2"
     inkscape:zoom="0.89903352"
     inkscape:cx="290.92037"
     inkscape:cy="526.18109"
     inkscape:document-units="px"
     inkscape:current-layer="layer1"
     showgrid="false"
     inkscape:window-width="1280"
     inkscape:window-height="885"
     inkscape:window-x="0"
     inkscape:window-y="25" />
  <metadata
     id="metadata7">
    <rdf:RDF>
      <cc:Work
         rdf:about="">
        <dc:format>image/svg+xml</dc:format>
        <dc:type
           rdf:resource="http://purl.org/dc/dcmitype/StillImage" />
      </cc:Work>
    </rdf:RDF>
  </metadata>
  <g
     inkscape:label="Layer 1"
     inkscape:groupmode="layer"
     id="layer1">
    <g
       id="g3371"
       transform="translate(-18.909195,48.941446)">
      <path
         id="path3327"
         d="M 441.58532,518.4555 C 447.35172,519.8971 429.55483,518.7848 423.78843,517.3432 C 418.83285,516.1043 413.80844,511.81243 410.44076,508.44475 C 406.72173,504.72573 408.36172,497.85172 409.32845,493.98478 C 410.3693,489.82139 417.71361,486.71193 420.45151,483.97403 C 425.57719,478.84835 428.49265,479.61711 430.46226,471.73867 C 431.78274,466.45676 433.79918,463.88872 433.79918,457.2787 C 433.79918,449.67037 429.22409,451.96378 423.78843,450.60486 C 418.13725,449.19207 415.61885,454.1335 411.55307,456.16639 C 408.49416,457.69584 403.75248,467.31834 402.65462,469.51406 C 399.94788,474.92755 398.59677,478.74206 395.98079,483.97403 C 393.70021,488.53519 392.64387,494.0564 392.64387,499.54631 C 392.64387,504.68699 396.87253,509.3365 399.3177,511.78167 C 403.15071,515.61467 404.48279,517.70113 410.44076,520.68011 C 415.10407,523.01177 419.6157,524.08615 423.78843,525.12934 C 431.40379,527.03318 435.18104,521.01721 441.58532,518.4555 z"
         style="opacity:1;fill:#985262;fill-opacity:1;fill-rule:evenodd;stroke:#000000;stroke-width:3;stroke-linecap:butt;stroke-linejoin:miter;marker:none;marker-start:none;marker-mid:none;marker-end:none;stroke-miterlimit:4;stroke-dasharray:none;stroke-dashoffset:0;stroke-opacity:1;visibility:visible;display:inline;overflow:visible;enable-background:accumulate" />
      <path
         id="path3311"
         d="M 482.74062,519.56781 C 488.3145,519.56781 471.46349,522.03198 466.05604,520.68011 C 462.48896,519.78834 458.03313,515.99412 456.04529,514.00628 C 452.75482,510.71581 450.47343,507.31177 448.25915,502.88322 C 445.88387,498.13267 444.92223,495.87666 444.92223,489.53556 C 444.92223,482.75428 447.858,480.7374 452.70837,479.52481 C 457.37262,478.35875 460.83507,477.3002 467.16835,477.3002 C 472.06664,477.3002 476.13879,480.70912 478.2914,482.86172 C 481.88335,486.45367 482.60447,488.99094 483.85293,493.98478 C 485.16427,499.23013 485.01035,504.176 486.07754,508.44475 C 487.15723,512.76352 484.85231,516.04833 482.74062,519.56781 z"
         style="opacity:1;fill:#ff8484;fill-opacity:1;fill-rule:evenodd;stroke:#000000;stroke-width:3;stroke-linecap:butt;stroke-linejoin:miter;marker:none;marker-start:none;marker-mid:none;marker-end:none;stroke-miterlimit:4;stroke-dasharray:none;stroke-dashoffset:0;stroke-opacity:1;visibility:visible;display:inline;overflow:visible;enable-background:accumulate" />
      <path
         sodipodi:nodetypes="cccccccccccc"
         id="path3309"
         d="M 593.97119,450.60486 C 613.81092,454.37831 626.39555,475.35303 625.95292,494.62524 C 626.08717,508.65093 616.04765,519.82757 605.9084,528.26736 C 583.21759,546.17353 553.04489,551.2886 524.81264,549.81943 C 510.06854,550.53076 495.99468,541.9032 488.89891,529.15024 C 482.86915,519.37356 481.13139,507.75968 481.05588,496.47692 C 480.28916,487.62111 467.18545,479.33316 457.26386,481.68712 C 449.76967,484.70156 450.6152,490.86262 450.02132,498.69778 C 449.61669,508.29388 459.04707,514.18537 467.40145,515.92079 C 471.39172,516.27827 476.66588,521.14967 469.20829,519.70943 C 456.53338,517.91925 443.34089,509.50769 441.4086,495.95777 C 438.25543,478.62363 451.1495,459.31471 469.39296,458.391"
         style="fill:#985262;fill-opacity:1;fill-rule:evenodd;stroke:#000000;stroke-width:3;stroke-linecap:butt;stroke-linejoin:miter;stroke-miterlimit:4;stroke-dasharray:none;stroke-opacity:1" />
      <path
         id="path3297"
         d="M 542.80513,483.97403 C 538.05697,481.59995 553.06881,487.31095 558.3774,487.31095 C 565.19714,487.31095 568.61042,486.42115 573.94968,485.08633 C 579.18165,483.77834 583.42928,477.83135 586.18504,475.07558 C 589.71452,471.54611 591.19509,466.1678 592.85888,462.84022 C 594.63922,459.27953 593.90787,451.97043 595.08349,447.26794 C 596.23705,442.65368 593.70423,435.07706 592.85888,431.69567 C 591.32425,425.55717 585.61488,421.25729 581.73582,418.348 C 577.1956,414.94283 571.42849,413.75048 567.27585,411.67417 C 563.40581,409.73915 556.51718,410.47076 551.70357,411.67417 C 545.71957,413.17017 542.74782,416.1807 539.46821,419.46031 C 534.79308,424.13543 532.07374,429.80001 529.45746,435.03258 C 526.97694,439.99362 527.23285,446.06551 527.23285,451.71717 C 527.23285,457.17437 529.79336,462.39972 531.68207,466.17714 C 534.02899,470.87098 536.378,475.40453 539.46821,479.52481 C 540.58051,481.00788 541.69282,482.49096 542.80513,483.97403 z"
         style="opacity:1;fill:#fffffe;fill-opacity:1;fill-rule:evenodd;stroke:#000000;stroke-width:3;stroke-linecap:butt;stroke-linejoin:miter;marker:none;marker-start:none;marker-mid:none;marker-end:none;stroke-miterlimit:4;stroke-dasharray:none;stroke-dashoffset:0;stroke-opacity:1;visibility:visible;display:inline;overflow:visible;enable-background:accumulate" />
      <path
         id="path3299"
         d="M 563.93893,445.04333 C 566.96473,449.07773 551.73426,444.98196 549.47896,449.49256 C 546.38387,455.68273 548.89716,458.65625 552.81588,460.61561 C 558.4442,463.42978 564.98005,456.23758 567.27585,453.94178 C 572.07567,449.14196 565.61259,446.04753 563.93893,445.04333 z"
         style="opacity:1;fill:#000000;fill-opacity:1;fill-rule:evenodd;stroke:#000000;stroke-width:3;stroke-linecap:butt;stroke-linejoin:miter;marker:none;marker-start:none;marker-mid:none;marker-end:none;stroke-miterlimit:4;stroke-dasharray:none;stroke-dashoffset:0;stroke-opacity:1;visibility:visible;display:inline;overflow:visible;enable-background:accumulate" />
      <path
         id="path3295"
         d="M 514.9975,417.23569 C 491.50957,419.08708 467.44062,439.67518 472.91896,465.00259 C 479.68416,492.71279 516.09926,502.31442 538.85655,488.67714 C 558.59515,475.17251 558.29187,441.7101 538.37189,428.28157 C 531.54763,422.97984 523.66541,418.47181 514.9975,417.23569 z"
         style="opacity:1;fill:#fffffe;fill-opacity:1;fill-rule:evenodd;stroke:#000000;stroke-width:3;stroke-linecap:butt;stroke-linejoin:miter;marker:none;marker-start:none;marker-mid:none;marker-end:none;stroke-miterlimit:4;stroke-dasharray:none;stroke-dashoffset:0;stroke-opacity:1;visibility:visible;display:inline;overflow:visible;enable-background:accumulate" />
      <path
         id="path3301"
         d="M 510.54826,445.04333 C 513.90571,441.68588 501.54865,449.6949 499.42521,453.94178 C 496.10861,460.57496 504.19776,463.19913 507.21135,463.95253 C 514.18745,465.69656 516.54997,467.75332 518.3344,460.61561 C 520.62861,451.4388 518.11266,451.09485 510.54826,445.04333 z"
         style="opacity:1;fill:#000000;fill-opacity:1;fill-rule:evenodd;stroke:#000000;stroke-width:3;stroke-linecap:butt;stroke-linejoin:miter;marker:none;marker-start:none;marker-mid:none;marker-end:none;stroke-miterlimit:4;stroke-dasharray:none;stroke-dashoffset:0;stroke-opacity:1;visibility:visible;display:inline;overflow:visible;enable-background:accumulate" />
      <path
         id="path3305"
         d="M 444.92223,431.69567 C 444.63309,431.76795 457.44416,438.44114 461.60682,439.48181 C 466.5488,440.7173 476.00275,445.04333 466.05604,445.04333 C 459.83937,445.04333 454.32089,443.93103 448.25915,443.93103 C 444.92223,443.93103 441.58532,443.93103 438.2484,443.93103"
         style="fill:none;fill-opacity:0.75;fill-rule:evenodd;stroke:#000000;stroke-width:3;stroke-linecap:butt;stroke-linejoin:miter;stroke-miterlimit:4;stroke-dasharray:none;stroke-opacity:1" />
      <path
         id="path3307"
         d="M 562.82663,392.76497 C 557.42815,392.76497 565.96653,403.09996 567.27585,408.33725 C 569.53726,417.38292 572.34779,405.48992 576.17429,401.66342 C 580.09258,397.74513 582.66868,394.05672 586.18504,390.54036"
         style="fill:none;fill-opacity:0.75;fill-rule:evenodd;stroke:#000000;stroke-width:3;stroke-linecap:butt;stroke-linejoin:miter;stroke-miterlimit:4;stroke-dasharray:none;stroke-opacity:1" />
      <path
         sodipodi:nodetypes="cssssssc"
         id="path3313"
         d="M 482.74062,503.99553 C 484.02815,509.14563 486.07754,493.73185 486.07754,488.42325 C 486.07754,482.81565 479.40371,488.33473 479.40371,480.63711 C 479.40371,474.52452 471.43342,476.512 468.28065,477.3002 C 465.38067,478.02519 458.159,477.4111 456.04529,479.52481 C 452.80239,482.76771 469.7402,483.03534 473.84218,485.08633 C 477.46532,486.89791 478.51016,492.63521 479.40371,496.20939 C 480.44651,500.38061 481.29618,496.77332 482.74062,503.99553 z"
         style="fill:#ff0700;fill-opacity:1;fill-rule:evenodd;stroke:#7b0000;stroke-width:3;stroke-linecap:butt;stroke-linejoin:miter;stroke-miterlimit:4;stroke-dasharray:none;stroke-opacity:1" />
      <path
         id="path3317"
         d="M 504.98674,419.46031 C 506.43143,419.46031 503.87443,405.457 503.87443,401.66342 C 503.87443,397.02539 496.42795,388.65541 494.97598,387.20344 C 490.46112,382.68857 489.5051,379.46263 484.96523,377.19269 C 479.97581,374.69798 477.76183,372.2139 473.84218,368.29425 C 472.27587,366.72794 470.43516,378.44521 469.39296,380.52961 C 467.0801,385.15532 470.87745,393.14143 471.61757,396.10189 C 472.76456,400.68985 478.96038,403.4447 481.62832,406.11264 C 485.94769,410.43201 489.16723,411.33428 494.97598,412.78647 C 498.58105,413.68774 501.41696,416.60448 504.98674,419.46031 z"
         style="opacity:1;fill:#985262;fill-opacity:1;fill-rule:evenodd;stroke:#000000;stroke-width:3;stroke-linecap:butt;stroke-linejoin:miter;marker:none;marker-start:none;marker-mid:none;marker-end:none;stroke-miterlimit:4;stroke-dasharray:none;stroke-dashoffset:0;stroke-opacity:1;visibility:visible;display:inline;overflow:visible;enable-background:accumulate" />
      <path
         id="path3319"
         d="M 476.06679,433.92028 C 473.48245,430.30957 468.40929,425.08615 463.83143,422.79722 C 459.43738,420.6002 456.39185,417.58226 453.82068,415.01108 C 450.6945,411.88491 443.94292,411.18451 440.47301,409.44955 C 436.55543,407.49077 431.30537,407.09034 427.12534,405.00033 C 421.38725,402.13129 416.80278,402.06366 411.55307,399.4388 C 406.05421,396.68938 409.32845,407.04333 409.32845,411.67417 C 409.32845,415.58881 414.28762,419.36788 416.00229,422.79722 C 417.71417,426.22098 425.37855,428.75628 428.23765,429.47106 C 433.28549,430.73301 435.4044,432.80797 441.58532,432.80797 C 445.33994,432.80797 451.7939,433.92028 457.1576,433.92028 C 464.52715,433.92028 467.7855,435.57654 476.06679,433.92028 z"
         style="opacity:1;fill:#985262;fill-opacity:1;fill-rule:evenodd;stroke:#000000;stroke-width:3;stroke-linecap:butt;stroke-linejoin:miter;marker:none;marker-start:none;marker-mid:none;marker-end:none;stroke-miterlimit:4;stroke-dasharray:none;stroke-dashoffset:0;stroke-opacity:1;visibility:visible;display:inline;overflow:visible;enable-background:accumulate" />
      <path
         id="path3321"
         d="M 587.29735,507.33245 C 592.77168,507.33245 576.70831,511.24765 572.83738,515.11859 C 567.78162,520.17434 578.42404,524.58575 579.51121,525.12934 C 582.33766,526.54256 590.88544,521.54124 592.85888,519.56781 C 599.13643,513.29025 595.17949,504.17959 587.29735,507.33245 z"
         style="opacity:1;fill:#000000;fill-opacity:1;fill-rule:evenodd;stroke:#000000;stroke-width:3;stroke-linecap:butt;stroke-linejoin:miter;marker:none;marker-start:none;marker-mid:none;marker-end:none;stroke-miterlimit:4;stroke-dasharray:none;stroke-dashoffset:0;stroke-opacity:1;visibility:visible;display:inline;overflow:visible;enable-background:accumulate" />
      <path
         id="path3323"
         d="M 449.37146,512.89397 C 453.51677,508.74866 437.93033,515.83377 432.68687,518.4555 C 427.40835,521.09476 421.29488,523.03919 417.11459,525.12934 C 412.60943,527.38192 408.29305,529.54011 403.76693,531.80317 C 399.22086,534.0762 394.73544,539.72235 391.53157,542.92623 C 386.9153,547.54249 384.39264,552.75485 382.63312,556.27389 C 380.40664,560.72684 383.74543,567.2658 383.74543,571.84617 C 383.74543,577.22762 385.98163,580.7678 388.19465,585.19384 C 390.37256,589.54967 395.41942,592.14314 399.3177,594.09228 C 403.90649,596.38667 407.52797,598.36946 412.66537,599.65381 C 418.44849,601.09959 424.19577,597.32736 428.23765,596.31689 C 433.16727,595.08449 436.21211,591.77351 440.47301,589.64306 C 444.11319,587.82297 445.59992,582.72617 447.14684,579.63231 C 449.38101,575.16398 450.461,571.93722 451.59607,567.39695 C 452.92146,562.09538 454.77979,557.99898 456.04529,552.93698 C 457.33157,547.79183 458.2699,543.96959 458.2699,537.3647 C 458.2699,532.94737 455.95419,526.98956 454.93298,522.90472 C 453.23577,516.11586 458.33371,516.47888 449.37146,512.89397 z"
         style="opacity:1;fill:#985262;fill-opacity:1;fill-rule:evenodd;stroke:#000000;stroke-width:3;stroke-linecap:butt;stroke-linejoin:miter;marker:none;marker-start:none;marker-mid:none;marker-end:none;stroke-miterlimit:4;stroke-dasharray:none;stroke-dashoffset:0;stroke-opacity:1;visibility:visible;display:inline;overflow:visible;enable-background:accumulate" />
      <path
         id="path3329"
         d="M 456.04529,537.3647 C 460.38918,538.45067 462.79476,543.07751 464.94373,547.37545 C 467.51372,552.51542 473.63533,558.29165 477.1791,561.83542 C 480.94773,565.60406 484.16521,569.02154 489.41446,572.95848 C 494.03628,576.42484 498.16479,577.09259 503.87443,578.52 C 510.22507,580.10766 512.35749,580.95231 517.2221,578.52 C 521.93996,576.16107 521.67132,572.35873 521.67132,566.28464 C 521.67132,559.03731 519.52146,558.57326 516.10979,555.16159 C 512.8884,551.9402 506.45335,550.52287 502.76212,549.60006 C 496.38503,548.00579 493.81382,546.26314 487.18985,546.26314 C 481.71106,546.26314 475.64417,543.82722 471.61757,541.81392 C 466.90524,539.45775 461.08896,538.62562 456.04529,537.3647 z"
         style="opacity:1;fill:#985262;fill-opacity:1;fill-rule:evenodd;stroke:#000000;stroke-width:3;stroke-linecap:butt;stroke-linejoin:miter;marker:none;marker-start:none;marker-mid:none;marker-end:none;stroke-miterlimit:4;stroke-dasharray:none;stroke-dashoffset:0;stroke-opacity:1;visibility:visible;display:inline;overflow:visible;enable-background:accumulate" />
      <path
         id="path3331"
         d="M 383.74543,580.74461 C 382.95576,580.34978 371.38327,584.08153 367.06084,584.08153 C 361.49931,584.08153 355.93779,584.08153 350.37626,584.08153 C 345.75788,584.08153 341.53921,588.46936 339.2532,590.75537 C 334.73882,595.26974 339.95897,601.47188 341.47781,602.99073 C 345.62211,607.13503 351.07708,606.32764 357.05009,606.32764 C 363.93484,606.32764 366.40176,604.98872 370.39776,602.99073 C 374.60012,600.88954 377.60359,598.0095 380.40851,595.20459 C 385.51018,590.10291 386.35852,587.27734 383.74543,580.74461 z"
         style="opacity:1;fill:#985262;fill-opacity:1;fill-rule:evenodd;stroke:#000000;stroke-width:3;stroke-linecap:butt;stroke-linejoin:miter;marker:none;marker-start:none;marker-mid:none;marker-end:none;stroke-miterlimit:4;stroke-dasharray:none;stroke-dashoffset:0;stroke-opacity:1;visibility:visible;display:inline;overflow:visible;enable-background:accumulate" />
      <path
         id="path3333"
         d="M 409.32845,589.64306 C 413.32175,585.64976 405.18021,600.16417 402.65462,605.21534 C 400.48772,609.54914 401.54232,616.73847 401.54232,621.89992 C 401.54232,627.84246 405.78696,629.25455 409.32845,631.91067 C 413.93676,635.3669 416.80862,635.95673 422.67612,633.02298 C 426.63258,631.04475 427.28472,624.59933 428.23765,620.78762 C 429.7836,614.6038 425.25144,610.36597 423.78843,607.43995 C 421.7082,603.27949 420.13605,600.13519 418.2269,596.31689 C 416.52065,592.9044 413.45449,590.46827 409.32845,589.64306 z"
         style="opacity:1;fill:#985262;fill-opacity:1;fill-rule:evenodd;stroke:#000000;stroke-width:3;stroke-linecap:butt;stroke-linejoin:miter;marker:none;marker-start:none;marker-mid:none;marker-end:none;stroke-miterlimit:4;stroke-dasharray:none;stroke-dashoffset:0;stroke-opacity:1;visibility:visible;display:inline;overflow:visible;enable-background:accumulate" />
      <path
         id="path3335"
         d="M 443.80993,510.66936 C 442.564,508.1775 432.94079,515.97697 431.57457,517.3432 C 427.78263,521.13514 419.29743,522.92561 414.88998,525.12934 C 409.22047,527.96409 405.76379,529.8063 402.65462,532.91547 C 400.45569,535.11441 394.12176,538.29421 391.53157,539.58931 C 387.62127,541.54446 383.29072,546.4905 379.2962,548.48775 C 374.09233,551.08969 372.9305,554.04928 365.94854,554.04928 C 362.29689,554.04928 359.20392,556.86544 355.93779,558.4985 C 352.41256,560.26112 360.93699,564.61001 363.72393,567.39695 C 367.79356,571.46658 369.37669,575.36556 371.51007,579.63231 C 374.03046,584.67309 376.45907,586.80592 380.40851,590.75537 C 383.65537,594.00223 387.55469,597.26921 392.64387,598.5415 C 398.18083,599.92574 402.10849,603.27381 405.99154,605.21534 C 409.83049,607.13481 414.72695,609.58304 419.33921,611.88917 C 423.72029,614.07971 428.08585,616.02237 433.79918,617.4507 C 438.8848,618.7221 442.06906,621.02949 446.03454,623.01223 C 449.01305,624.50148 446.03454,611.88556 446.03454,609.66456 C 446.03454,605.37344 447.21144,599.39542 448.25915,595.20459 C 449.46086,590.39773 450.21934,585.1392 451.59607,579.63231 C 452.72575,575.11356 454.86288,571.01429 456.04529,566.28464 C 457.32435,561.1684 458.2699,558.31763 458.2699,551.82467 C 458.2699,545.74231 459.38221,542.69844 459.38221,536.25239 C 459.38221,529.5353 458.29214,526.3306 457.1576,521.79242 C 455.85861,516.59649 447.93172,512.73026 443.80993,510.66936 z"
         style="fill:#f1ef2a;fill-opacity:1;fill-rule:evenodd;stroke:#000000;stroke-width:3;stroke-linecap:butt;stroke-linejoin:miter;stroke-miterlimit:4;stroke-dasharray:none;stroke-opacity:1" />
      <path
         id="path3337"
         d="M 392.64387,536.25239 C 391.42076,531.35997 397.97638,544.92182 401.54232,548.48775 C 405.02372,551.96916 407.71965,556.8897 410.44076,559.61081 C 414.74447,563.91452 416.56244,567.81706 420.45151,570.73386 C 424.0744,573.45103 429.40002,574.65197 432.68687,576.29539 C 437.68984,578.79688 441.40418,580.42125 447.14684,581.85692 C 451.66272,582.98589 453.11246,574.67904 453.82068,571.84617 C 454.9897,567.17009 445.14909,567.45366 440.47301,566.28464 C 435.35419,565.00494 432.58701,561.78549 428.23765,559.61081 C 423.77754,557.38075 420.96733,554.5651 417.11459,550.71236 C 412.39719,545.99496 410.03449,545.4506 407.10384,539.58931 C 404.26443,533.91048 399.6195,533.46214 392.64387,536.25239 z"
         style="fill:#a2a10c;fill-opacity:1;fill-rule:evenodd;stroke:#000000;stroke-width:3;stroke-linecap:butt;stroke-linejoin:miter;stroke-miterlimit:4;stroke-dasharray:none;stroke-opacity:1" />
    </g>
    <g
       id="g3352"
       transform="translate(-21.133808,45.604529)">
      <path
         id="path3285"
         d="M 309.22095,423.90953 C 307.82495,418.32551 298.29224,419.4603 292.53637,419.4603 C 288.47769,419.4603 283.23748,415.92317 279.1887,413.89878 C 275.23459,411.92172 270.4349,411.67416 264.72873,411.67416 C 257.952,411.67416 254.41057,412.58524 249.15645,413.89878 C 244.85479,414.97419 240.70754,417.89846 238.03339,420.57261 C 234.31473,424.29127 233.31973,429.52559 234.69648,435.03258 C 235.10682,436.67394 247.17093,438.3695 249.15645,438.3695 C 254.71798,438.3695 260.2795,438.3695 265.84103,438.3695 C 269.71714,438.3695 277.24954,436.00216 281.41331,433.92028 C 285.07483,432.08952 292.13734,431.79542 296.98559,430.58336 C 303.03375,429.07132 302.78258,426.48488 309.22095,423.90953 z"
         style="opacity:1;fill:#d88f14;fill-opacity:1;fill-rule:evenodd;stroke:#000000;stroke-width:3;stroke-linecap:butt;stroke-linejoin:miter;marker:none;marker-start:none;marker-mid:none;marker-end:none;stroke-miterlimit:4;stroke-dasharray:none;stroke-dashoffset:0;stroke-opacity:1;visibility:visible;display:inline;overflow:visible;enable-background:accumulate" />
      <path
         id="path3281"
         d="M 308.10864,390.54036 C 304.6603,393.9887 317.69192,392.76497 322.56862,392.76497 C 328.93662,392.76497 331.78255,391.65266 338.1409,391.65266 C 342.07721,391.65266 347.68794,388.1536 351.48856,387.20344 C 356.92355,385.8447 357.05009,379.12829 357.05009,373.85577 C 357.05009,366.87962 355.89514,364.87203 353.71317,360.50811 C 351.71078,356.50331 348.52534,353.09566 345.92703,350.49736 C 343.97121,348.54153 334.8761,348.27275 331.46706,348.27275 C 325.24991,348.27275 321.77056,352.40772 319.2317,354.94658 C 315.99388,358.1844 314.73077,361.82725 313.67017,366.06964 C 312.54765,370.55971 310.40636,374.67565 309.22095,379.4173 C 308.03375,384.16608 306.9648,384.82113 308.10864,390.54036 z"
         style="fill:#ff8484;fill-opacity:1;fill-rule:evenodd;stroke:#000000;stroke-width:3;stroke-linecap:butt;stroke-linejoin:miter;stroke-miterlimit:4;stroke-dasharray:none;stroke-opacity:1" />
      <path
         id="path3266"
         d="M 216.8093,280.73132 C 203.89085,273.62599 188.80467,278.56308 175.36508,281.19174 C 156.27663,287.5981 146.46664,306.80329 137.9994,323.60674 C 132.24327,345.12526 133.11231,371.33137 150.42517,387.52181 C 162.85536,400.63715 177.00689,412.51136 192.84966,421.20502 C 215.18,430.1278 240.53453,431.09613 263.3145,423.25038 C 281.39141,418.8226 301.75805,410.45543 309.09186,391.88381 C 313.08482,380.04204 313.14835,365.04415 324.83165,357.553 C 335.67645,349.17387 355.71064,357.08969 354.32264,371.87649 C 354.12862,386.08299 337.47475,392.5019 325.25667,391.10399 C 321.12761,389.85344 309.9804,392.20399 320.58801,392.18108 C 330.86122,391.87985 340.51974,398.50742 350.68831,396.27773 C 361.55506,392.65999 364.22324,379.52769 364.75306,369.45856 C 365.01686,352.17901 354.81393,337.12393 344.24934,324.36683 C 335.03061,314.00327 322.09654,308.446 309.51776,303.45763 C 287.01398,292.20954 263.06141,281.44861 237.37386,281.88899 C 230.52539,281.99783 223.59298,279.85823 216.8093,280.73132 z"
         style="fill:#d88f14;fill-opacity:1;fill-rule:evenodd;stroke:#000000;stroke-width:3;stroke-linecap:butt;stroke-linejoin:miter;stroke-miterlimit:4;stroke-dasharray:none;stroke-opacity:1" />
      <path
         id="path3258"
         d="M 260.85436,263.42791 C 261.0657,262.58255 243.63065,269.6802 240.40487,271.2931 C 232.97847,275.00629 227.97863,277.4667 221.52841,282.30436 C 213.63643,288.22335 207.43149,296.22005 205.79804,302.75385 C 204.14898,309.35009 202.65196,314.24673 202.65196,323.20334 C 202.65196,328.90169 213.44633,337.14378 216.8093,340.50675 C 221.60785,345.3053 233.1568,345.22586 240.40487,345.22586 C 246.08871,345.22586 255.60427,342.21253 262.42739,340.50675 C 266.93699,339.37935 274.15167,331.92855 278.15777,327.92245 C 282.5661,323.51412 286.55158,315.85394 289.16903,310.61904 C 292.49333,303.97044 292.31511,296.85889 292.31511,288.59651 C 292.31511,278.64904 289.40119,272.19569 281.30385,268.14702 C 274.54143,264.76581 268.65386,264.98781 260.85436,263.42791 z"
         style="fill:#fffffe;fill-opacity:1;fill-rule:evenodd;stroke:#000000;stroke-width:3;stroke-linecap:butt;stroke-linejoin:miter;stroke-miterlimit:4;stroke-dasharray:none;stroke-opacity:1" />
      <path
         id="path3279"
         d="M 292.53637,295.99438 C 292.23776,295.99438 293.83892,282.99803 294.76098,279.3098 C 296.21415,273.49711 298.09789,270.28133 298.09789,264.84983 C 298.09789,261.77519 306.1849,253.42591 306.99634,252.61447 C 310.446,249.16481 314.34897,247.16132 319.2317,245.94063 C 325.08692,244.47683 329.51427,243.71602 335.91628,243.71602 C 342.6995,243.71602 343.70242,249.88091 343.70242,255.95138 C 343.70242,260.56003 337.2434,263.52271 334.80398,265.96213 C 330.7584,270.00771 323.90386,273.58107 319.2317,277.08519 C 315.27329,280.05399 310.92591,282.05407 308.10864,284.87133 C 302.88989,290.09008 298.7493,293.50921 292.53637,295.99438 z"
         style="opacity:1;fill:#d88f14;fill-opacity:1;fill-rule:evenodd;stroke:#000000;stroke-width:3;stroke-linecap:butt;stroke-linejoin:miter;marker:none;marker-start:none;marker-mid:none;marker-end:none;stroke-miterlimit:4;stroke-dasharray:none;stroke-dashoffset:0;stroke-opacity:1;visibility:visible;display:inline;overflow:visible;enable-background:accumulate" />
      <path
         id="path3260"
         d="M 304.89941,283.8774 C 301.83641,282.3459 289.03087,288.73467 284.44992,293.31562 C 278.80968,298.95586 275.22059,300.97191 270.29258,305.89992 C 267.33734,308.85517 263.18685,318.53836 260.85436,323.20334 C 257.38921,330.13363 256.29054,339.88557 254.56221,346.7989 C 252.74339,354.07417 252.74339,361.54616 254.56221,368.82143 C 256.42253,376.26272 261.99798,379.72534 268.71954,381.40573 C 276.99148,383.47371 281.19517,381.4329 287.596,379.83269 C 293.75575,378.29275 300.88716,372.83367 304.89941,368.82143 C 309.50855,364.21229 312.5922,359.728 315.91067,353.09105 C 318.87138,347.16963 323.60638,344.33076 325.3489,337.36068 C 327.42708,329.04797 330.06801,322.69604 330.06801,313.76511 C 330.06801,305.00461 325.30025,301.08351 322.20282,294.88866 C 318.48828,287.45958 316.84044,286.2656 304.89941,283.8774 z"
         style="opacity:1;fill:#fffffe;fill-opacity:1;fill-rule:evenodd;stroke:#000000;stroke-width:3;stroke-linecap:butt;stroke-linejoin:miter;marker:none;marker-start:none;marker-mid:none;marker-end:none;stroke-miterlimit:4;stroke-dasharray:none;stroke-dashoffset:0;stroke-opacity:1;visibility:visible;display:inline;overflow:visible;enable-background:accumulate" />
      <path
         id="path3262"
         d="M 293.88815,318.48422 C 290.44227,311.59248 280.46045,329.72301 279.73081,332.64156 C 277.02966,343.44616 287.0425,341.8249 292.31511,340.50675 C 298.74561,338.89913 299.90185,332.18229 301.75333,324.77637 C 303.46012,317.94923 303.25753,318.48422 293.88815,318.48422 z"
         style="opacity:1;fill:#000000;fill-opacity:1;fill-rule:evenodd;stroke:#000000;stroke-width:3;stroke-linecap:butt;stroke-linejoin:miter;marker:none;marker-start:none;marker-mid:none;marker-end:none;stroke-miterlimit:4;stroke-dasharray:none;stroke-dashoffset:0;stroke-opacity:1;visibility:visible;display:inline;overflow:visible;enable-background:accumulate" />
      <path
         id="path3264"
         d="M 264.00043,291.74258 C 265.12268,287.25359 243.82262,295.53934 241.9779,296.4617 C 233.66327,300.61901 233.86344,305.65064 238.83183,310.61904 C 245.03227,316.81948 253.89499,309.37961 257.70828,307.47296 C 260.68502,305.98459 263.45033,294.49311 264.00043,291.74258 z"
         style="fill:#000000;fill-opacity:1;fill-rule:evenodd;stroke:#000000;stroke-width:3;stroke-linecap:butt;stroke-linejoin:miter;stroke-miterlimit:4;stroke-dasharray:none;stroke-opacity:1" />
      <path
         id="path3271"
         d="M 156.83509,337.14969 C 156.62771,340.3108 155.63824,349.0469 156.83509,353.83427 C 158.46563,360.35647 161.54887,360.77267 165.73353,364.95733 C 171.69558,370.91938 174.23358,357.65245 174.63197,356.05888 C 176.04737,350.39729 173.04953,345.10786 171.29506,341.59891 C 169.2024,337.4136 159.70256,336.5762 156.83509,337.14969 z"
         style="opacity:1;fill:#000000;fill-opacity:1;fill-rule:evenodd;stroke:#000000;stroke-width:3;stroke-linecap:butt;stroke-linejoin:miter;marker:none;marker-start:none;marker-mid:none;marker-end:none;stroke-miterlimit:4;stroke-dasharray:none;stroke-dashoffset:0;stroke-opacity:1;visibility:visible;display:inline;overflow:visible;enable-background:accumulate" />
      <path
         id="path3273"
         d="M 152.38586,327.13894 C 150.32286,323.01294 145.10776,312.48648 143.48742,306.00513 C 143.20305,304.86767 142.74588,303.78052 142.37511,302.66822"
         style="fill:none;fill-opacity:0.75;fill-rule:evenodd;stroke:#000000;stroke-width:3;stroke-linecap:butt;stroke-linejoin:miter;stroke-miterlimit:4;stroke-dasharray:none;stroke-opacity:1" />
      <path
         id="path3275"
         d="M 180.1935,374.96808 C 178.92178,369.88118 187.60887,382.38345 191.31656,386.09114 C 195.05921,389.83379 195.59205,392.6781 200.215,394.98958 C 200.68399,395.22407 200.95654,395.73112 201.32731,396.10189"
         style="fill:none;fill-opacity:0.75;fill-rule:evenodd;stroke:#000000;stroke-width:3;stroke-linecap:butt;stroke-linejoin:miter;stroke-miterlimit:4;stroke-dasharray:none;stroke-opacity:1" />
      <path
         id="path3277"
         d="M 331.46706,318.2405 C 332.95006,318.98199 341.79829,313.82899 344.81473,311.56666 C 349.52309,308.03539 357.45634,306.35816 362.61162,303.78052 C 368.93972,300.61647 374.25014,300.44361 381.52081,300.44361 C 386.77792,300.44361 392.39318,299.3313 398.2054,299.3313 C 405.00844,299.3313 407.45687,301.73243 411.55306,303.78052 C 415.94407,305.97603 418.28077,310.66986 419.3392,314.90358 C 420.73679,320.49392 419.13355,323.10102 417.11459,327.13894 C 415.02768,331.31277 408.74645,332.70047 403.76692,332.70047 C 397.56537,332.70047 394.93585,330.4927 390.41926,329.36355 C 385.87031,328.22631 379.06004,327.35798 373.73467,326.02663 C 368.25442,324.65657 364.02143,321.92986 358.1624,320.46511 C 352.8664,319.14111 347.18955,319.3528 341.47781,319.3528 C 337.70577,319.3528 335.28258,319.19438 331.46706,318.2405 z"
         style="opacity:1;fill:#d88f14;fill-opacity:1;fill-rule:evenodd;stroke:#000000;stroke-width:3;stroke-linecap:butt;stroke-linejoin:miter;marker:none;marker-start:none;marker-mid:none;marker-end:none;stroke-miterlimit:4;stroke-dasharray:none;stroke-dashoffset:0;stroke-opacity:1;visibility:visible;display:inline;overflow:visible;enable-background:accumulate" />
      <path
         id="path3291"
         d="M 325.90554,518.4555 C 323.74997,514.14437 334.43321,524.01703 339.2532,524.01703 C 343.9431,524.01703 335.94145,515.21922 334.80398,510.66936 C 332.79232,502.6227 327.11392,503.89945 323.68093,507.33244 C 321.88787,509.1255 325.5624,517.08294 325.90554,518.4555 z"
         style="opacity:1;fill:#d88f14;fill-opacity:1;fill-rule:evenodd;stroke:#000000;stroke-width:3;stroke-linecap:butt;stroke-linejoin:miter;marker:none;marker-start:none;marker-mid:none;marker-end:none;stroke-miterlimit:4;stroke-dasharray:none;stroke-dashoffset:0;stroke-opacity:1;visibility:visible;display:inline;overflow:visible;enable-background:accumulate" />
      <path
         id="path3287"
         d="M 281.41331,510.66936 C 286.76061,509.33254 273.59738,518.49523 270.29025,522.90472 C 266.67993,527.71848 263.30547,531.31277 260.2795,537.3647 C 258.04156,541.84058 256.05197,544.26408 254.71798,549.60006 C 253.42126,554.78693 253.60567,560.49066 253.60567,566.28464 C 253.60567,574.07668 256.34839,574.88599 261.39181,577.4077 C 267.37139,580.39749 272.97711,576.06427 276.96409,574.07078 C 281.31795,571.89385 283.04634,565.2432 284.75023,561.83542 C 286.8282,557.67946 285.86253,550.10567 285.86253,545.15083 C 285.86253,539.68411 285.71137,533.42312 284.75023,529.57856 C 282.97489,522.47722 282.90692,518.13739 281.41331,510.66936 z"
         style="opacity:1;fill:#d88f14;fill-opacity:1;fill-rule:evenodd;stroke:#000000;stroke-width:3;stroke-linecap:butt;stroke-linejoin:miter;marker:none;marker-start:none;marker-mid:none;marker-end:none;stroke-miterlimit:4;stroke-dasharray:none;stroke-dashoffset:0;stroke-opacity:1;visibility:visible;display:inline;overflow:visible;enable-background:accumulate" />
      <path
         id="path3283"
         d="M 340.36551,392.76497 C 339.61504,395.76685 333.19888,403.26851 330.35476,406.11264 C 325.84304,410.62435 319.47579,414.76699 315.89478,418.348 C 311.60481,422.63797 308.19446,426.04832 304.77173,429.47105 C 300.93177,433.31101 298.99049,435.47201 296.98559,439.4818 C 295.03306,443.38686 291.15883,444.46148 289.19945,448.38025 C 286.5807,453.61775 281.94938,453.98195 279.1887,459.5033 C 276.34314,465.19442 275.30415,468.3847 272.51487,473.96328 C 269.92007,479.15287 269.17795,482.11568 269.17795,488.42325 C 269.17795,492.17788 268.06564,498.63183 268.06564,503.99553 C 268.06564,505.50662 274.8127,511.92812 275.85178,514.00628 C 277.54994,517.40259 284.14418,519.69437 288.08714,520.68011 C 292.22309,521.7141 299.43021,522.1255 302.54712,522.90472 C 307.48175,524.13838 314.68343,522.65141 318.11939,521.79242 C 323.55506,520.4335 325.55001,517.69872 329.24245,514.00628 C 332.66551,510.58322 334.35475,506.00628 335.91628,502.88322 C 338.60899,497.4978 339.72383,495.26814 342.59012,489.53555 C 345.03552,484.64475 347.1275,480.28446 348.15165,476.18789 C 349.40206,471.18622 350.37626,468.13849 350.37626,461.72792 C 350.37626,455.66412 349.26395,450.8133 349.26395,445.04333 C 349.26395,440.63986 350.37626,435.23733 350.37626,429.47105 C 350.37626,424.73602 348.0997,419.25253 347.03934,415.01108 C 345.8074,410.0833 345.86647,404.75807 344.81473,400.55111 C 344.08973,397.65113 341.90345,395.32821 340.36551,392.76497 z"
         style="opacity:1;fill:#d88f14;fill-opacity:1;fill-rule:evenodd;stroke:#000000;stroke-width:3;stroke-linecap:butt;stroke-linejoin:miter;marker:none;marker-start:none;marker-mid:none;marker-end:none;stroke-miterlimit:4;stroke-dasharray:none;stroke-dashoffset:0;stroke-opacity:1;visibility:visible;display:inline;overflow:visible;enable-background:accumulate" />
      <path
         id="path3289"
         d="M 315.89478,509.55706 C 314.41991,503.65756 309.07168,519.71707 304.77173,524.01703 C 302.63868,526.15008 300.15909,532.45682 299.2102,536.25239 C 297.72386,542.19776 295.87328,547.85598 295.87328,554.04928 C 295.87328,560.8539 295.88965,565.19416 299.2102,569.62156 C 302.36377,573.82632 307.18761,572.91066 311.44556,571.84617 C 317.37097,570.36482 319.88312,566.74553 322.56862,564.06003 C 326.54292,560.08572 326.88138,554.59511 328.13014,549.60006 C 329.3295,544.80264 327.8083,537.18962 327.01784,534.02778 C 325.42435,527.65382 323.16829,525.21637 320.34401,519.56781 C 318.17483,515.22946 319.70578,515.90872 315.89478,509.55706 z"
         style="opacity:1;fill:#d88f14;fill-opacity:1;fill-rule:evenodd;stroke:#000000;stroke-width:3;stroke-linecap:butt;stroke-linejoin:miter;marker:none;marker-start:none;marker-mid:none;marker-end:none;stroke-miterlimit:4;stroke-dasharray:none;stroke-dashoffset:0;stroke-opacity:1;visibility:visible;display:inline;overflow:visible;enable-background:accumulate" />
      <path
         id="path3293"
         d="M 343.70242,432.80797 C 343.35699,433.1534 353.3181,443.07857 355.93778,445.04333 C 361.44493,449.17369 363.80141,451.19976 369.28545,453.94178 C 374.7333,456.6657 378.22152,458.96596 383.74542,461.72792 C 388.40836,464.05938 393.44829,465.46704 397.09309,467.28944 C 401.61393,469.54986 405.29116,470.83232 409.32845,472.85097 C 414.62746,475.50048 420.53721,470.54066 422.67612,468.40175 C 426.66566,464.41221 427.12534,463.46328 427.12534,456.16639 C 427.12534,451.00094 424.61442,446.98163 420.45151,442.81872 C 416.59993,438.96715 414.77924,437.78566 408.21615,436.14489 C 403.06001,434.85585 399.01761,433.92028 393.75617,433.92028 C 388.19465,433.92028 382.63312,433.92028 377.07159,433.92028 C 371.09677,433.92028 365.93294,432.80797 360.38701,432.80797 C 355.03734,432.80797 350.5425,431.09795 343.70242,432.80797 z"
         style="opacity:1;fill:#d88f14;fill-opacity:1;fill-rule:evenodd;stroke:#000000;stroke-width:3;stroke-linecap:butt;stroke-linejoin:miter;marker:none;marker-start:none;marker-mid:none;marker-end:none;stroke-miterlimit:4;stroke-dasharray:none;stroke-dashoffset:0;stroke-opacity:1;visibility:visible;display:inline;overflow:visible;enable-background:accumulate" />
    </g>
    <rect
       style="opacity:1;fill:none;fill-opacity:1;fill-rule:evenodd;stroke:#020202;stroke-width:0.93286228;stroke-linecap:butt;stroke-linejoin:miter;marker:none;marker-start:none;marker-mid:none;marker-end:none;stroke-miterlimit:4;stroke-dasharray:none;stroke-dashoffset:0;stroke-opacity:1;visibility:visible;display:inline;overflow:visible;enable-background:accumulate"
       id="rect3392"
       width="558.44452"
       height="530.6369"
       x="74.490906"
       y="173.60721" />
  </g>
</svg>
