<?xml version="1.0" encoding="UTF-8" standalone="no"?>
<!-- Created with Inkscape (http://www.inkscape.org/) -->
<svg
   xmlns:dc="http://purl.org/dc/elements/1.1/"
   xmlns:cc="http://creativecommons.org/ns#"
   xmlns:rdf="http://www.w3.org/1999/02/22-rdf-syntax-ns#"
   xmlns:svg="http://www.w3.org/2000/svg"
   xmlns="http://www.w3.org/2000/svg"
   xmlns:sodipodi="http://sodipodi.sourceforge.net/DTD/sodipodi-0.dtd"
   xmlns:inkscape="http://www.inkscape.org/namespaces/inkscape"
   width="744.09448819"
   height="1052.3622047"
   id="svg2"
   sodipodi:version="0.32"
   inkscape:version="0.46"
   sodipodi:docname="Bob1.svg"
   inkscape:output_extension="org.inkscape.output.svg.inkscape">
  <defs
     id="defs4">
    <inkscape:perspective
       sodipodi:type="inkscape:persp3d"
       inkscape:vp_x="0 : 526.18109 : 1"
       inkscape:vp_y="0 : 1000 : 0"
       inkscape:vp_z="744.09448 : 526.18109 : 1"
       inkscape:persp3d-origin="372.04724 : 350.78739 : 1"
       id="perspective10" />
  </defs>
  <sodipodi:namedview
     id="base"
     pagecolor="#ffffff"
     bordercolor="#666666"
     borderopacity="1.0"
     gridtolerance="10000"
     guidetolerance="10"
     objecttolerance="10"
     inkscape:pageopacity="0.0"
     inkscape:pageshadow="2"
     inkscape:zoom="0.6357127"
     inkscape:cx="379.3379"
     inkscape:cy="526.18109"
     inkscape:document-units="px"
     inkscape:current-layer="layer1"
     showgrid="false"
     inkscape:window-width="1280"
     inkscape:window-height="885"
     inkscape:window-x="0"
     inkscape:window-y="25" />
  <metadata
     id="metadata7">
    <rdf:RDF>
      <cc:Work
         rdf:about="">
        <dc:format>image/svg+xml</dc:format>
        <dc:type
           rdf:resource="http://purl.org/dc/dcmitype/StillImage" />
      </cc:Work>
    </rdf:RDF>
  </metadata>
  <g
     inkscape:label="Layer 1"
     inkscape:groupmode="layer"
     id="layer1">
    <g
       id="g3221">
      <path
         id="path3195"
         d="M 213.93312,487.64167 C 213.93312,480.50979 221.47442,499.90209 226.51742,504.94508 C 233.49941,511.92707 235.08894,516.66268 240.67476,522.2485 C 246.65129,528.22502 248.72317,531.86995 253.25906,536.40584 C 259.7244,542.87118 263.84993,545.42366 268.98944,550.56317 C 272.73939,554.31313 279.29748,558.64582 284.71981,560.0014 C 290.81871,561.52612 297.50701,567.52405 305.1693,569.43963 C 311.27825,570.96686 319.18291,572.54977 325.61879,574.15874 C 334.44718,576.36584 337.5495,569.17377 339.77613,564.72051 C 342.63812,558.99654 342.82823,550.18727 341.34917,544.27102 C 340.32669,540.18111 329.43057,534.37913 327.19183,533.25976 C 318.99087,529.15928 313.70439,525.95531 305.1693,523.82153 C 298.23207,522.08723 291.32232,520.04412 286.29285,517.52938 C 279.70571,514.23582 271.0612,510.96866 265.84336,509.6642 C 258.55148,507.84123 252.83466,506.51812 245.39387,506.51812 C 239.60152,506.51812 232.87507,500.66836 228.09046,497.07989 C 222.704,493.04005 221.24132,492.02659 213.93312,487.64167 z"
         style="fill:#ea8f00;fill-opacity:1;fill-rule:evenodd;stroke:#000000;stroke-width:3;stroke-linecap:butt;stroke-linejoin:miter;stroke-opacity:1;stroke-miterlimit:4;stroke-dasharray:none;opacity:1;color:#000000;marker:none;marker-start:none;marker-mid:none;marker-end:none;stroke-dashoffset:0;visibility:visible;display:inline;overflow:visible;enable-background:accumulate" />
      <path
         id="path3191"
         d="M 110.11263,602.47342 C 108.34133,609.55865 96.195409,607.07247 89.663146,610.33861 C 79.077697,615.63133 79.891243,612.14997 81.797957,619.77683 C 82.926087,624.28935 97.929616,626.56256 102.24745,627.64202 C 109.54476,629.46635 116.87018,629.49197 124.26997,627.64202 C 133.04919,625.44721 128.05522,614.46833 127.41605,611.91164 C 125.47623,604.15238 119.97031,604.44495 110.11263,602.47342 z"
         style="fill:#ea8f00;fill-opacity:1;fill-rule:evenodd;stroke:#000000;stroke-width:3;stroke-linecap:butt;stroke-linejoin:miter;stroke-opacity:1;stroke-miterlimit:4;stroke-dasharray:none;opacity:1;color:#000000;marker:none;marker-start:none;marker-mid:none;marker-end:none;stroke-dashoffset:0;visibility:visible;display:inline;overflow:visible;enable-background:accumulate" />
      <path
         id="path3179"
         d="M 176.18022,418.42801 C 174.35938,411.14468 168.56282,431.59417 166.74199,438.8775 C 164.83696,446.49763 162.2734,448.88669 160.44984,456.18092 C 158.93358,462.24594 152.88175,471.31709 151.01161,475.05737 C 147.63807,481.80445 145.94997,491.47281 143.14643,497.07989 C 139.39703,504.57869 136.76125,511.60931 135.28124,517.52938 C 133.50441,524.63669 129.05441,529.85238 127.41605,536.40584 C 125.39614,544.48546 122.63083,550.82758 121.1239,556.85533 C 119.08819,564.99816 118.37806,572.55781 116.40479,580.45089 C 114.38168,588.54329 113.25871,594.01998 113.25871,602.47342 C 113.25871,612.66292 116.18739,616.19597 119.55086,622.92291 C 123.23507,630.29132 121.43369,634.24397 127.41605,640.22632 C 133.61125,646.42152 134.22608,648.35045 143.14643,652.81062 C 149.54888,656.01185 154.0159,657.10103 162.02288,659.10277 C 169.22889,660.90428 177.4712,660.67581 185.61844,660.67581 C 193.48363,660.67581 201.34882,660.67581 209.21401,660.67581 C 219.14225,660.67581 224.10297,657.95044 231.23653,654.38366 C 237.64831,651.17777 241.55338,644.76122 243.82083,640.22632 C 246.75308,634.36183 245.37208,624.58311 246.96691,618.20379 C 248.8846,610.53305 246.6947,601.98921 248.53995,594.60823 C 250.25482,587.74875 248.53995,578.12509 248.53995,571.01266 C 248.53995,563.12645 247.2076,554.672 245.39387,547.4171 C 243.81116,541.08625 241.06373,534.81564 239.10172,526.96761 C 237.34958,519.95905 236.39868,514.58241 234.38261,506.51812 C 232.65443,499.6054 230.38413,493.37586 228.09046,487.64167 C 225.41655,480.95691 222.8437,472.42905 220.22527,467.19218 C 217.70216,462.14595 215.27335,455.24968 213.93312,449.88877 C 211.87205,441.64449 209.50679,436.90256 207.64097,429.43928 C 205.96843,422.74911 200.35483,415.86099 196.62971,412.13586 C 191.2394,406.74555 188.16417,406.9304 180.89933,410.56282 C 178.16468,411.93015 177.75325,415.80628 176.18022,418.42801 z"
         style="fill:#ea8f00;fill-opacity:1;fill-rule:evenodd;stroke:#000000;stroke-width:3;stroke-linecap:butt;stroke-linejoin:miter;stroke-opacity:1;stroke-miterlimit:4;stroke-dasharray:none;opacity:1;color:#000000;marker:none;marker-start:none;marker-mid:none;marker-end:none;stroke-dashoffset:0;visibility:visible;display:inline;overflow:visible;enable-background:accumulate" />
      <path
         id="path3181"
         d="M 206.06793,420.00104 C 200.00437,421.86667 194.75667,417.22636 189.27118,415.51304 C 183.24854,413.44384 177.00212,411.63145 171.78797,407.83695 C 167.20663,405.45823 162.48267,402.33664 160.77616,397.18257 C 158.60211,391.77696 157.25997,386.07391 155.32262,380.59102 C 153.43178,372.23482 153.53625,363.21494 156.36312,355.09206 C 159.571,347.5205 166.93489,342.20716 174.93422,340.7564 C 182.80494,338.2309 190.58169,332.82617 199.20704,334.94559 C 206.68734,335.91313 214.41463,334.27734 221.77928,336.2314 C 223.57739,337.86522 220.71319,341.6181 220.47131,344.07899 C 215.17745,360.50652 207.54998,376.20211 203.94659,393.1536 C 202.90776,402.15089 204.46829,411.1675 206.06793,420.00104 z"
         style="fill:#ff0017;fill-opacity:1;fill-rule:evenodd;stroke:#000000;stroke-width:3;stroke-linecap:butt;stroke-linejoin:miter;stroke-opacity:1;stroke-miterlimit:4;stroke-dasharray:none;opacity:1;color:#000000;marker:none;marker-start:none;marker-mid:none;marker-end:none;stroke-dashoffset:0;visibility:visible;display:inline;overflow:visible;enable-background:accumulate" />
      <path
         id="path3161"
         d="M 405.84372,358.65259 C 420.50239,364.7566 434.39971,373.25488 446.87543,382.97323 C 465.21993,398.72107 477.72994,422.72858 473.77726,447.3618 C 470.40879,480.04128 452.5171,514.00756 420.18005,525.83847 C 401.72784,530.77072 383.60911,539.02066 364.18643,538.18376 C 343.66106,536.8027 322.27215,541.30071 302.74959,532.60934 C 285.63298,528.02185 271.18241,518.18512 257.97817,506.51812 C 244.64528,496.37431 234.35542,483.08997 227.34776,467.9861 C 213.21294,443.35583 201.48785,415.52244 202.30731,386.64372 C 203.39199,373.32727 205.90756,359.48809 214.45296,348.83416 C 220.57889,331.75319 189.12711,335.09662 179.88862,340.01556 C 159.53641,346.17757 152.79176,369.26299 159.15047,387.93519 C 163.84947,406.35496 183.02751,415.4484 199.59202,420.91299 C 214.05662,422.37163 188.66628,423.0741 184.08121,421.88845 C 162.36633,414.61746 143.82068,394.26684 141.64073,371.08329 C 142.10422,352.79747 152.72015,334.8812 166.49475,323.20491 C 181.93911,314.02525 200.88974,314.93043 218.29699,314.16215 C 235.91208,313.51668 253.61454,314.47313 270.55698,319.7535 C 295.15838,325.79766 320.22691,330.41181 344.14247,338.84399 C 365.21598,343.6146 386.79168,348.00223 405.84372,358.65259 z"
         style="fill:#ea8f00;fill-opacity:1;fill-rule:evenodd;stroke:#000000;stroke-width:3;stroke-linecap:butt;stroke-linejoin:miter;stroke-miterlimit:4;stroke-dasharray:none;stroke-opacity:1" />
      <path
         id="path3165"
         d="M 317.7536,297.30411 C 323.89091,303.44143 325.54139,281.76723 328.76487,273.70855 C 331.56152,266.71691 331.62145,259.13616 333.48398,251.68602 C 335.3564,244.19636 335.05702,236.16808 335.05702,228.09046 C 335.05702,218.9269 333.4828,213.93075 330.3379,207.64097 C 326.70146,200.36807 324.42797,196.82081 317.7536,193.48363 C 310.05105,189.63235 301.27613,197.37681 298.87715,199.77578 C 293.76875,204.88419 294.22926,212.07522 292.585,218.65223 C 290.68628,226.24712 295.8397,231.67102 297.30411,237.52868 C 299.26197,245.3601 301.80383,249.23539 303.59626,256.40514 C 305.3539,263.43567 306.74695,270.58091 308.31538,276.85463 C 310.64941,286.19077 310.62493,288.39327 317.7536,297.30411 z"
         style="fill:#ea8f00;fill-opacity:1;fill-rule:evenodd;stroke:#000000;stroke-width:3;stroke-linecap:butt;stroke-linejoin:miter;stroke-opacity:1;stroke-miterlimit:4;stroke-dasharray:none;opacity:1;color:#000000;marker:none;marker-start:none;marker-mid:none;marker-end:none;stroke-dashoffset:0;visibility:visible;display:inline;overflow:visible;enable-background:accumulate" />
      <path
         id="path3155"
         d="M 352.36043,281.57374 C 347.22442,281.57374 337.00402,290.638 331.91094,295.73108 C 327.20826,300.43376 322.13768,305.83938 319.32664,311.46145 C 316.64956,316.81562 314.60753,323.42675 314.60753,331.91094 C 314.60753,339.87645 313.03449,344.94118 313.03449,353.93347 C 313.03449,363.38751 314.13712,367.7822 316.18057,375.956 C 317.93169,382.96051 324.51312,389.47504 327.19183,394.83245 C 330.15178,400.75235 335.99778,405.21144 339.77613,408.98979 C 345.72149,414.93515 350.66146,416.43023 358.65258,418.42801 C 369.0066,421.01652 380.97564,416.10555 386.96726,413.7089 C 392.8799,411.34384 398.79914,403.17652 402.69764,397.97852 C 406.82944,392.46945 408.86499,384.32036 410.56282,377.52903 C 412.39666,370.19369 412.13586,362.12739 412.13586,353.93347 C 412.13586,346.17411 410.69019,336.88478 407.41675,330.3379 C 403.81658,323.13756 401.4581,316.84756 397.97852,309.88842 C 394.51338,302.95813 389.08479,297.84861 383.82118,292.585 C 378.66239,287.42621 375.23153,284.35758 369.66385,281.57374 C 364.81283,279.14823 359.45234,280.15536 352.36043,281.57374 z"
         style="fill:#ffffff;fill-opacity:1;fill-rule:evenodd;stroke:#000000;stroke-width:3;stroke-linecap:butt;stroke-linejoin:miter;stroke-opacity:1;stroke-miterlimit:4;stroke-dasharray:none" />
      <path
         id="path3153"
         d="M 272.13551,284.71981 C 264.9578,286.6072 256.84663,293.71654 250.11299,300.45019 C 244.06739,306.49579 242.12302,313.28404 237.52868,322.47272 C 232.76294,332.00419 229.6635,341.43365 229.6635,352.36043 C 229.6635,360.44108 227.55929,367.53918 229.6635,375.956 C 231.26493,382.36174 232.46292,390.99307 235.95565,397.97852 C 239.99328,406.0538 246.38832,409.98424 251.68602,415.28194 C 256.9016,420.49752 267.71302,420.00105 275.28159,420.00105 C 287.04458,420.00105 295.60473,420.06422 305.1693,415.28194 C 312.97398,411.3796 320.36262,406.55979 325.61879,399.55156 C 331.2872,391.99369 334.25563,383.85093 338.20309,375.956 C 342.17363,368.01493 341.34917,358.31351 341.34917,349.21436 C 341.34917,339.09513 340.82071,329.28099 336.63006,320.89968 C 332.50768,312.65494 330.24937,304.94798 327.19183,297.30411 C 324.2744,290.01053 318.45173,286.99097 314.60753,283.14678 C 310.28532,278.82457 298.85799,278.42766 292.585,278.42766 C 281.62264,278.42766 281.75106,278.95048 272.13551,284.71981 z"
         style="fill:#ffffff;fill-opacity:1;fill-rule:evenodd;stroke:#000000;stroke-width:3;stroke-linecap:butt;stroke-linejoin:miter;stroke-opacity:1;stroke-miterlimit:4;stroke-dasharray:none;opacity:1;color:#000000;marker:none;marker-start:none;marker-mid:none;marker-end:none;stroke-dashoffset:0;visibility:visible;display:inline;overflow:visible;enable-background:accumulate" />
      <path
         id="path3157"
         d="M 379.10207,335.05702 C 373.9854,332.49868 369.23994,350.90999 368.09081,355.50651 C 365.71066,365.02712 370.90191,369.5801 377.52903,371.23688 C 382.30796,372.43162 389.57777,358.15067 391.68637,353.93347 C 396.04204,345.22215 389.26656,338.56622 385.39422,336.63006 C 383.46053,335.66321 381.19946,335.58136 379.10207,335.05702 z"
         style="fill:#000000;fill-opacity:1;fill-rule:evenodd;stroke:#000000;stroke-width:3;stroke-linecap:butt;stroke-linejoin:miter;stroke-opacity:1;stroke-miterlimit:4;stroke-dasharray:none" />
      <path
         id="path3159"
         d="M 309.88842,328.76487 C 304.90866,326.27499 292.71441,336.50065 289.43893,339.77613 C 284.65515,344.55991 286.96218,353.69908 289.43893,358.65258 C 292.80425,365.38323 299.67552,366.51777 308.31538,366.51777 C 313.64073,366.51777 319.61611,350.20846 320.89968,347.64132 C 326.01424,337.4122 316.58863,330.43992 309.88842,328.76487 z"
         style="fill:#000000;fill-opacity:1;fill-rule:evenodd;stroke:#000000;stroke-width:3;stroke-linecap:butt;stroke-linejoin:miter;stroke-opacity:1;stroke-miterlimit:4;stroke-dasharray:none;opacity:1;color:#000000;marker:none;marker-start:none;marker-mid:none;marker-end:none;stroke-dashoffset:0;visibility:visible;display:inline;overflow:visible;enable-background:accumulate" />
      <path
         id="path3163"
         d="M 245.39387,311.46145 C 246.97548,311.85686 237.88419,293.29602 235.95565,289.43893 C 231.96532,281.45827 228.26013,275.62092 224.94438,268.98944 C 221.81614,262.73296 214.71998,255.3569 210.78704,250.11299 C 206.58453,244.50963 201.96747,239.72038 196.62971,234.38261 C 189.55302,227.30592 184.1302,222.60603 174.60718,220.22527 C 168.01094,218.57621 163.11429,217.07919 154.15769,217.07919 C 143.90841,217.07919 143.25214,220.11955 138.42731,224.94438 C 133.20012,230.17158 135.52792,240.08843 136.85427,245.39387 C 138.45495,251.79658 146.33311,255.23551 151.01161,256.40514 C 158.86008,258.36725 171.56628,265.89595 177.75325,268.98944 C 185.08474,272.65518 190.70981,273.89468 196.62971,276.85463 C 203.71517,280.39736 211.3942,281.87731 217.07919,284.71981 C 223.9898,288.17511 227.4603,290.38181 232.80957,295.73108 C 238.46247,301.38398 243.00904,301.92213 245.39387,311.46145 z"
         style="fill:#ea8f00;fill-opacity:1;fill-rule:evenodd;stroke:#000000;stroke-width:3;stroke-linecap:butt;stroke-linejoin:miter;stroke-opacity:1;stroke-miterlimit:4;stroke-dasharray:none;opacity:1;color:#000000;marker:none;marker-start:none;marker-mid:none;marker-end:none;stroke-dashoffset:0;visibility:visible;display:inline;overflow:visible;enable-background:accumulate" />
      <path
         id="path3167"
         d="M 426.2932,457.75395 C 428.21767,465.45183 410.39552,458.97556 402.69764,460.90003 C 393.9308,463.09174 391.25782,467.62073 386.96726,471.91129 C 380.20846,478.6701 385.00429,485.6787 388.5403,489.21471 C 393.16223,493.83664 405.74302,492.36078 412.13586,492.36078 C 419.36586,492.36078 427.36734,483.42145 431.01231,479.77648 C 437.96648,472.82232 433.69568,463.67594 426.2932,457.75395 z"
         style="fill:#000000;fill-opacity:1;fill-rule:evenodd;stroke:#000000;stroke-width:3;stroke-linecap:butt;stroke-linejoin:miter;stroke-opacity:1;stroke-miterlimit:4;stroke-dasharray:none;opacity:1;color:#000000;marker:none;marker-start:none;marker-mid:none;marker-end:none;stroke-dashoffset:0;visibility:visible;display:inline;overflow:visible;enable-background:accumulate" />
      <path
         id="path3169"
         d="M 355.50651,486.06863 C 361.45038,480.12476 338.74381,487.64167 330.3379,487.64167 C 322.47272,487.64167 314.60753,487.64167 306.74234,487.64167 C 305.1693,487.64167 303.59626,487.64167 302.02323,487.64167"
         style="fill:none;fill-opacity:0.75000000000000000;fill-rule:evenodd;stroke:#000000;stroke-width:3;stroke-linecap:butt;stroke-linejoin:miter;stroke-opacity:1;stroke-miterlimit:4;stroke-dasharray:none" />
      <path
         id="path3171"
         d="M 449.88877,457.75395 C 442.58547,457.75395 465.17405,455.05297 470.33826,449.88877 C 477.1155,443.11152 482.78456,440.58853 487.64167,435.73143"
         style="fill:none;fill-opacity:0.75000000000000000;fill-rule:evenodd;stroke:#000000;stroke-width:3;stroke-linecap:butt;stroke-linejoin:miter;stroke-opacity:1;stroke-miterlimit:4;stroke-dasharray:none" />
      <path
         id="path3187"
         d="M 182.47237,635.50721 C 178.74693,632.47293 175.34424,622.08693 169.88807,616.63076 C 164.88525,611.62794 155.66547,607.94642 151.01161,605.61949 C 146.33447,603.28092 132.61671,604.04645 127.41605,604.04645 C 117.96694,604.04645 111.80137,608.70772 105.39352,611.91164 C 100.85507,614.18087 97.947115,625.23142 95.955296,629.21506 C 92.692039,635.74157 94.382259,645.51755 94.382259,652.81062 C 94.382259,656.66644 101.92788,665.07535 103.82048,666.96796 C 108.6806,671.82807 117.06484,674.37666 124.26997,677.97922 C 131.53964,681.61406 139.78811,681.07224 146.2925,682.69834 C 154.38937,684.72255 162.78792,681.52929 166.74199,679.55226 C 175.07219,675.38716 177.96057,669.83761 182.47237,663.82188 C 185.25423,660.11274 185.61844,648.43609 185.61844,643.3724 C 185.61844,640.54871 183.52106,638.12894 182.47237,635.50721 z"
         style="fill:#ea8f00;fill-opacity:1;fill-rule:evenodd;stroke:#000000;stroke-width:3;stroke-linecap:butt;stroke-linejoin:miter;stroke-opacity:1;stroke-miterlimit:4;stroke-dasharray:none;opacity:1;color:#000000;marker:none;marker-start:none;marker-mid:none;marker-end:none;stroke-dashoffset:0;visibility:visible;display:inline;overflow:visible;enable-background:accumulate" />
      <path
         id="path3189"
         d="M 232.80957,652.81062 C 232.80957,644.40472 249.57227,654.38366 257.97817,654.38366 C 265.84336,654.38366 273.70855,654.38366 281.57374,654.38366 C 288.49706,654.38366 295.39494,649.0461 300.45019,646.51847 C 306.36567,643.56073 312.58153,634.8401 316.18057,627.64202 C 319.36613,621.2709 319.32664,615.98032 319.32664,607.19253 C 319.32664,596.40577 317.62745,594.51361 311.46145,589.88912 C 305.07686,585.10067 298.8861,585.5655 291.01196,583.59697 C 281.8673,581.3108 275.80288,586.61272 268.98944,588.31608 C 260.58751,590.41656 259.87066,599.0079 254.8321,604.04645 C 250.59123,608.28732 247.33813,615.88832 245.39387,619.77683 C 242.37109,625.82239 240.77616,631.95555 239.10172,638.65328 C 237.96104,643.21599 235.50363,648.32053 232.80957,652.81062 z"
         style="fill:#ea8f00;fill-opacity:1;fill-rule:evenodd;stroke:#000000;stroke-width:3;stroke-linecap:butt;stroke-linejoin:miter;stroke-opacity:1;stroke-miterlimit:4;stroke-dasharray:none;opacity:1;color:#000000;marker:none;marker-start:none;marker-mid:none;marker-end:none;stroke-dashoffset:0;visibility:visible;display:inline;overflow:visible;enable-background:accumulate" />
      <path
         id="path3193"
         d="M 147.86554,471.91129 C 147.6675,471.11914 133.84046,488.95018 132.13516,492.36078 C 128.48287,499.66537 124.86839,505.69749 122.69694,514.38331 C 120.77957,522.05278 121.1239,529.83159 121.1239,537.97887 C 121.1239,547.02972 127.06851,551.44114 130.56212,558.42836 C 133.65436,564.61283 137.29951,568.31182 141.57339,572.5857 C 145.35283,576.36514 158.39166,577.30481 163.59591,577.30481 C 172.78882,577.30481 178.10289,575.64437 184.0454,574.15874 C 191.73032,572.23751 197.31514,564.92269 199.77578,560.0014 C 203.88827,551.77643 201.97542,550.87648 195.05667,547.4171 C 188.38451,544.08102 182.33644,539.48395 176.18022,536.40584 C 169.9661,533.29878 165.65907,529.03076 162.02288,525.39457 C 157.27821,520.6499 153.5296,516.2732 151.01161,511.23723 C 147.57698,504.36796 144.71946,504.43414 144.71946,493.93382 C 144.71946,485.4649 144.60373,480.06582 147.86554,471.91129 z"
         style="fill:#ea8f00;fill-opacity:1;fill-rule:evenodd;stroke:#000000;stroke-width:3;stroke-linecap:butt;stroke-linejoin:miter;stroke-opacity:1;stroke-miterlimit:4;stroke-dasharray:none;opacity:1;color:#000000;marker:none;marker-start:none;marker-mid:none;marker-end:none;stroke-dashoffset:0;visibility:visible;display:inline;overflow:visible;enable-background:accumulate" />
      <path
         id="path3197"
         d="M 162.02288,390.11334 C 156.70901,386.12794 166.65082,372.99226 168.31503,369.66385 C 173.01154,360.27082 183.93121,369.54965 187.19148,372.80992 C 195.38285,381.0013 183.00563,385.65417 177.75325,386.96726 C 167.60901,389.50332 175.76885,381.86575 162.02288,390.11334 z"
         style="fill:#ff8baa;fill-opacity:1;fill-rule:evenodd;stroke:#000000;stroke-width:3;stroke-linecap:butt;stroke-linejoin:miter;stroke-opacity:1;stroke-miterlimit:4;stroke-dasharray:none" />
    </g>
  </g>
</svg>
