<?xml version="1.0" encoding="UTF-8" standalone="no"?>
<!-- Created with Inkscape (http://www.inkscape.org/) -->

<svg
   xmlns:dc="http://purl.org/dc/elements/1.1/"
   xmlns:cc="http://creativecommons.org/ns#"
   xmlns:rdf="http://www.w3.org/1999/02/22-rdf-syntax-ns#"
   xmlns:svg="http://www.w3.org/2000/svg"
   xmlns="http://www.w3.org/2000/svg"
   xmlns:sodipodi="http://sodipodi.sourceforge.net/DTD/sodipodi-0.dtd"
   xmlns:inkscape="http://www.inkscape.org/namespaces/inkscape"
   width="744.09448819"
   height="1052.3622047"
   id="svg2400"
   sodipodi:version="0.32"
   inkscape:version="0.48.3.1 r9886"
   sodipodi:docname="different park.svg"
   inkscape:output_extension="org.inkscape.output.svg.inkscape"
   version="1.1">
  <defs
     id="defs2402">
    <inkscape:perspective
       sodipodi:type="inkscape:persp3d"
       inkscape:vp_x="0 : 526.18109 : 1"
       inkscape:vp_y="0 : 1000 : 0"
       inkscape:vp_z="744.09448 : 526.18109 : 1"
       inkscape:persp3d-origin="372.04724 : 350.78739 : 1"
       id="perspective2408" />
    <inkscape:perspective
       id="perspective10"
       inkscape:persp3d-origin="372.04724 : 350.78739 : 1"
       inkscape:vp_z="744.09448 : 526.18109 : 1"
       inkscape:vp_y="0 : 1000 : 0"
       inkscape:vp_x="0 : 526.18109 : 1"
       sodipodi:type="inkscape:persp3d" />
  </defs>
  <sodipodi:namedview
     id="base"
     pagecolor="#ffffff"
     bordercolor="#666666"
     borderopacity="1.0"
     gridtolerance="10000"
     guidetolerance="10"
     objecttolerance="10"
     inkscape:pageopacity="0.0"
     inkscape:pageshadow="2"
     inkscape:zoom="0.7"
     inkscape:cx="402.04018"
     inkscape:cy="796.88905"
     inkscape:document-units="px"
     inkscape:current-layer="layer1"
     showgrid="false"
     inkscape:window-width="1270"
     inkscape:window-height="693"
     inkscape:window-x="0"
     inkscape:window-y="24"
     inkscape:window-maximized="0" />
  <metadata
     id="metadata2405">
    <rdf:RDF>
      <cc:Work
         rdf:about="">
        <dc:format>image/svg+xml</dc:format>
        <dc:type
           rdf:resource="http://purl.org/dc/dcmitype/StillImage" />
        <dc:title />
      </cc:Work>
    </rdf:RDF>
  </metadata>
  <g
     inkscape:label="Layer 1"
     inkscape:groupmode="layer"
     id="layer1">
    <rect
       style="opacity:1;fill:none;fill-opacity:1;fill-rule:evenodd;stroke:#000000;stroke-width:0.60846859px;stroke-linecap:butt;stroke-linejoin:miter;marker:none;marker-start:none;marker-mid:none;marker-end:none;stroke-miterlimit:4;stroke-dasharray:none;stroke-dashoffset:0;stroke-opacity:1;visibility:visible;display:inline;overflow:visible;enable-background:accumulate"
       id="rect4845"
       width="423.24866"
       height="443.24872"
       x="12.661369"
       y="76.452118"
       inkscape:export-filename="/home/james/src/ohr/games/baconthulhu/media/storyboard/scene2.png"
       inkscape:export-xdpi="36.498226"
       inkscape:export-ydpi="36.498226" />
    <rect
       style="fill:#83f5f5;fill-opacity:1;fill-rule:evenodd;stroke:none;stroke-width:1;marker:none;visibility:visible;display:inline;overflow:visible;enable-background:accumulate"
       id="rect2429"
       width="928.52991"
       height="795.67279"
       x="-92.836372"
       y="-6.1884818" />
    <path
       style="fill:#85c666;fill-opacity:1;fill-rule:evenodd;stroke:#000000;stroke-width:1.16607594px;stroke-linecap:butt;stroke-linejoin:miter;stroke-opacity:1"
       d="m -132.73526,333.38595 c 4.53175,-5.49091 4.29046,-18.6603 4.29046,-31.04527 0,-11.60081 4.00901,-18.63961 7.15076,-27.16461 3.40376,-9.23597 10.22327,-13.72625 15.73166,-17.46296 6.27773,-4.25859 16.468612,7.02627 20.022134,5.82098 8.327328,-2.82448 7.027625,-15.52263 18.591976,-15.52263 10.493903,0 16.467074,23.39427 11.441215,-3.88066 -4.343959,-23.57429 19.791554,1.62751 22.882431,5.82099 0.603209,0.8184 5.673301,-42.8156 15.731671,-15.52264 4.384183,11.89631 19.9431931,-17.39869 27.172887,-23.28393 5.636661,-4.58846 15.532836,26.62506 18.591975,34.92591 3.337021,9.05487 2.772048,-24.70926 10.011064,-27.16461 10.528457,-3.57105 5.813241,51.53266 24.312582,9.70165 9.945818,-22.48965 18.556167,-13.77662 21.452279,1.94034 4.911782,26.65581 -0.67534,13.16905 8.580912,-7.76133 8.755244,-19.79746 18.798424,19.12997 24.312584,29.10494 5.79167,10.47698 10.76535,-21.75567 15.73167,-32.9856 9.38751,-21.22718 20.10008,17.6745 22.88243,25.22428 0.61994,1.68218 8.52599,-16.45552 15.73167,-21.34362 8.15932,-5.53498 15.75143,24.32111 17.16183,29.10494 0.24236,0.82206 9.20519,-46.81426 18.59197,-21.34361 11.23033,30.47303 -0.61395,8.59427 12.87137,-9.70166 9.43104,-12.79537 17.75398,10.77284 21.45227,17.46298 0.97351,1.76103 11.82151,-44.50414 17.16183,-15.52265 6.59843,35.80915 12.49642,-5.31228 18.59198,-13.58231 5.49046,-7.44907 7.76189,50.316 15.73166,23.28397 4.52483,-15.34744 9.18376,-47.17699 15.73168,-11.64199 5.79095,31.42705 13.06078,-12.02746 18.59197,-23.28393 3.06225,-6.23196 20.71572,24.22495 22.88243,27.16461 6.54511,8.87992 9.18656,-22.16535 15.73168,-31.04528 12.61135,-17.1102 13.66972,5.97166 20.02212,17.46297 6.09924,11.03333 1.12614,-14.65559 10.01107,-11.64198 5.53985,1.87902 10.01106,47.36382 10.01106,19.40328 0,-20.11212 15.43852,-23.68167 22.88243,-13.58229 14.02242,19.02462 13.92983,26.23282 20.02213,9.70165 6.36831,-17.28019 16.15778,2.31247 18.59197,15.52263 4.14363,22.48713 13.90489,-17.54446 21.45228,-25.22428 2.86076,-2.91096 7.78189,41.83094 20.02213,25.22428 12.20586,-16.56005 9.34059,-39.71624 24.31258,-19.40329 10.27047,13.93423 10.07542,8.51319 17.16182,-15.52264 4.56755,-15.49233 9.69248,8.83717 14.30152,21.34361 2.42405,6.57756 9.29179,-39.77558 27.17289,-44.62755 0.28558,-0.0775 13.98709,27.1646 21.45227,27.1646 4.84936,0 4.58244,-21.24459 15.73168,-17.46296 12.17941,4.13104 3.35755,25.81533 14.30151,-3.88066 10.55488,-28.64022 20.61449,-4.21366 25.74274,9.70165 0.24386,0.66169 4.58122,-22.51103 11.44122,-27.16461 7.75003,-5.25735 16.00445,27.90481 18.59197,34.92592 1.99856,5.423 6.90228,-32.09972 21.45228,-27.16461 9.30731,3.15688 7.11511,24.51302 12.87137,34.92593 0.7575,1.37029 7.43834,-43.84725 15.73167,-21.34362 11.72369,31.81174 8.1243,20.83807 28.60304,0 15.11197,-15.37715 24.80488,34.19456 28.60304,13.5823 6.59051,-35.76619 13.5935,-17.12362 22.88243,3.88066 11.88515,26.8749 14.35145,-1.13954 15.73166,-5.82099 0.0206,-0.07 5.44348,18.65129 12.87138,38.80659 0.51627,1.40086 -5.33066,-17.06617 5.7206,-5.821 16.70476,16.99788 32.78125,25.96601 45.76487,52.38889 17.77597,36.17578 5.85336,-13.67237 22.88242,-25.22428 6.68989,-4.53819 18.92137,37.31313 22.88243,42.68724 6.60817,8.96547 5.72061,24.86319 5.72061,36.86626 0,14.70371 -2.4725,29.99298 -5.72061,38.80656 -3.12438,8.47792 -10.86059,20.55589 -15.73166,27.16461 -8.17762,11.09481 -27.77025,5.821 -38.61411,5.821 -23.82315,0 -50.49036,7.76131 -75.79805,7.76131 -22.04071,0 -44.88994,1.94033 -67.21714,1.94033 -20.2649,0 -39.86596,1.94033 -60.06638,1.94033 -34.8861,0 -69.47323,1.94033 -104.40109,1.94033 -33.49163,0 -69.18052,5.82098 -102.97094,5.82098 -20.90466,0 -31.21623,9.70165 -52.91562,9.70165 -32.81886,0 -65.47005,5.82099 -98.68048,5.82099 -52.90903,0 -115.2344,-12.195 -167.32778,1.94033 -23.27828,6.31645 -49.29027,1.23766 -72.937746,5.82099 -33.679777,6.52776 -70.163609,5.82098 -104.4010915,5.82098 -13.3480845,0 -26.6961685,0 -40.0442545,0 -23.864969,0 -60.589768,-4.2357 -80.088508,-17.46296 -11.26851,-7.64416 -25.37716,-1.89675 -28.60303,-19.40329 -2.65033,-14.38308 4.92476,-30.60696 7.15075,-42.68723 1.81021,-9.82386 7.02586,-14.84482 8.58091,-23.28395 1.51057,-8.19773 4.0083,-8.17042 5.72061,-17.46296 z"
       id="path3211"
       inkscape:connector-curvature="0" />
    <path
       style="fill:#439945;fill-opacity:1;fill-rule:evenodd;stroke:#000000;stroke-width:0.74796921px;stroke-linecap:butt;stroke-linejoin:miter;stroke-opacity:1"
       d="m -95.944861,348.91561 c 1.21582,-3.97453 7.09183,-9.52437 7.09183,-17.38749 0,-7.40089 3.69456,-11.10769 9.45577,-4.82986 7.53126,8.20663 13.50358,-7.58216 14.18365,-8.69375 2.04392,-3.34079 0.84918,20.5574 9.45577,13.52361 10.34862,-8.45747 22.45746,-74.10412 22.45746,-34.77498 0,4.40812 11.81971,57.55314 11.81971,33.80901 0,-6.56103 1.54663,-33.21297 8.2738,-22.21735 14.7831076,24.16315 1.56971,28.99449 13.00167857,0.96598 12.42368643,-30.45997 7.21824903,-9.34978 14.18365543,7.72776 0.670941,1.645 1.575962,3.21991 2.363942,4.82986 3.629916,7.41642 7.436816,-13.99351 10.637741,-18.35346 2.270913,-3.09319 -3.103065,16.78344 8.273799,26.08124 1.992421,1.62832 9.266408,22.83638 13.001683,10.62569 8.960292,-29.29138 0.742315,-37.1782 9.45577,-8.69375 3.712153,12.1351 26.030929,-22.2624 28.367308,-26.08123 4.41902,-7.22294 2.363943,16.07381 2.363943,24.14929 0,35.98143 25.579011,2.92769 35.459131,-6.7618 8.04153,-7.88638 8.02854,12.15675 10.63775,16.42152 9.53623,15.58707 17.72956,-76.98002 17.72956,-17.3875 0,47.73609 0.0477,28.92071 16.5476,8.69375 19.88191,-24.37288 14.93578,-6.67406 22.45746,8.69375 3.82286,7.81065 26.13594,-37.13116 29.54927,-23.18333 0.47001,1.92056 0.78799,3.86389 1.18198,5.79583 4.86295,23.84562 14.18192,0.003 18.91154,-9.65971 1.94251,-3.96884 9.08896,8.69374 15.36562,8.69374 13.27397,0 4.05713,11.72206 16.5476,-8.69374 5.80958,-9.49582 7.08404,14.46414 8.2738,18.35346 0.0585,0.19123 -0.29237,-28.96893 7.09183,-4.82986 2.95959,9.67497 10.13674,-11.04573 10.63774,-11.59166 0.0969,-0.10558 -1.09504,22.07526 3.54591,14.48957 0.78798,-1.28796 1.57596,-2.57592 2.36395,-3.86388 11.18605,-18.28371 7.3441,6.62054 9.45576,13.52361 0.66484,2.17334 0.58797,-11.10128 5.90985,-24.1493 12.79578,-31.37222 10.63775,-5.85885 10.63775,9.65972 0,3.15105 19.19439,-19.31116 23.63943,-22.21736 0.12792,-0.0836 0.11488,23.67984 -1.18198,28.97916 -1.522,6.21931 5.98507,-11.7146 9.45577,-17.38749 2.39655,-3.91719 3.15192,-8.37175 4.72788,-12.55764 5.52591,-14.67724 -4.64179,16.96533 -5.90985,23.18333 -0.2394,1.17389 -12.9384,26.99549 -1.18197,17.38749 13.85302,-11.32145 7.17067,-20.92923 11.81971,-1.93194 3.76638,15.39046 14.84727,-20.04256 21.27548,-27.04721 1.05719,-1.15199 1.57596,-2.57592 2.36395,-3.86389 1.45637,-2.38045 -0.64077,14.73371 -3.54592,28.97916 -0.63999,3.13821 12.0543,-18.92862 18.91154,-35.74097 14.55814,-35.69312 10.63774,12.60834 10.63774,21.25139 0,13.99429 12.05154,-11.90744 15.36563,-16.42152 5.15224,-7.01782 0.67549,30.35857 -2.36395,50.23054 -0.37273,2.43697 6.68126,-14.68617 18.91155,-28.0132 13.03025,-14.19872 -3.38531,24.72149 5.90985,1.93195 16.19654,-39.7101 14.18365,-37.79803 14.18365,0 0,1.93194 0,3.86389 0,5.79584 0,2.17903 20.95007,-18.95569 26.00337,-39.60485 1.6391,-6.69781 -3.54591,13.45495 -3.54591,20.2854 0,29.48347 3.55,10.29592 13.00168,-7.72776 13.82975,-26.37235 9.45577,4.86054 9.45577,16.42151 0,6.51186 1.35695,-13.05812 3.54592,-19.31943 15.98281,-45.71712 17.72956,-47.12377 17.72956,-2.89792 0,28.02928 8.16079,12.83472 13.00169,0.96597 9.2349,-22.64182 6.49912,7.25183 4.72788,14.48958 -3.20106,13.08041 10.97476,-18.07607 13.00169,-22.21735 0.1753,-0.35819 0,10.573 0,26.08124 0,35.03246 0.24543,-11.05959 16.54759,-27.04721 8.03676,-7.8817 5.90985,15.93028 5.90985,25.11526 0,15.76954 11.44742,-7.57564 21.27549,-11.59165 13.21876,-5.40156 10.63774,8.15878 10.63774,21.25137 0,16.61027 18.57956,-15.18424 20.09351,-16.42152 4.73609,-3.87059 0,10.94768 0,16.42152 0,45.64252 7.84327,-28.23228 20.09351,-35.74096 3.91285,-2.39835 -4.23603,18.45396 9.45577,21.25138 4.63008,0.94599 8.2738,-28.93393 8.2738,-1.93194 0,23.16249 2.41893,14.3997 11.81971,-0.96597 1.57596,-2.57592 3.15192,-5.15185 4.72788,-7.72777 0.80029,-1.30807 1.18197,31.49135 1.18197,31.87707 0,6.10934 4.72789,-11.59167 7.09183,-17.3875 1.4583,-3.5754 3.15193,-7.08379 4.72789,-10.62568 6.47334,-14.54852 4.09264,37.00905 5.90986,44.4347 1.73637,7.09531 5.49621,-13.81348 9.45577,-20.28542 22.63649,-36.99957 19.01114,-20.76293 23.63942,1.93195 0.21628,1.06053 14.18365,-45.70295 14.18365,-24.14929 0,20.65794 -6.13614,21.43631 10.63775,7.72777 13.66886,-11.17095 18.91153,-11.70164 18.91153,1.93194 0,7.71588 0.55828,13.41668 2.36394,19.31944 2.36088,7.71775 4.72789,11.51211 4.72789,20.28541 0,7.58374 -0.27289,8.61952 -8.2738,13.5236 -6.34434,3.88871 -19.46083,1.93194 -27.18534,1.93194 -13.40372,0 -27.6498,0.96598 -41.36899,0.96598 -10.76309,0 -20.4694,0.96597 -30.73125,0.96597 -16.94158,0 -33.88317,0 -50.82476,0 -14.7975,0 -29.28464,0.96597 -43.73294,0.96597 -16.33689,0 -32.10786,0.96597 -48.46082,0.96597 -32.25986,0 -63.57315,1.93195 -95.73966,1.93195 -21.43189,0 -47.74617,-3.28542 -68.55433,0.96597 -23.95406,4.89414 -52.37072,-0.56655 -76.82813,1.93195 -18.14596,1.85373 -37.14708,0.96597 -55.55265,0.96597 -17.82708,0 -36.25593,0.96597 -54.37067,0.96597 -29.54929,0 -59.09857,0 -88.64785,0 -14.443799,0 -29.052745,-0.96597 -43.732931,-0.96597 -10.51224,0 -22.956149,-0.96597 -34.277165,-0.96597 -7.879808,0 -15.759616,0 -23.639425,0 -10.83264643,0 -21.89696,-0.96597 -33.09519,-0.96597 -10.63774,0 -21.27549,0 -31.91323,0 -6.90274,0 -15.84185,-2.51224 -22.45745,-3.8639 -7.95508,-1.62533 -10.37327,-0.74983 -16.5476,-5.79583 -4.69222,-3.83474 -5.90985,-6.98327 -5.90985,-12.55763 0,-5.97021 0.77026,-6.88659 3.54591,-12.55764 z"
       id="path3213"
       inkscape:connector-curvature="0" />
    <path
       style="fill:#008000;stroke:#000000;stroke-width:1.16607594000000003px;stroke-linecap:butt;stroke-linejoin:miter;stroke-opacity:1;color:#000000;fill-opacity:1;fill-rule:evenodd;stroke-miterlimit:4;stroke-dasharray:none;stroke-dashoffset:0;marker:none;visibility:visible;display:inline;overflow:visible;enable-background:accumulate"
       d="m 67.142857,66.647897 c -1.428571,1.904762 -3.060724,3.672636 -4.285714,5.714286 -0.244998,0.40833 0.150585,0.976817 0,1.428571 C 62.183708,75.811059 60.952381,77.600278 60,79.50504 c -1.410091,2.820181 -2.664018,5.868601 -4.285714,8.571428 -0.883353,1.472255 -1.97379,2.81346 -2.857143,4.285715 C 49.1124,98.603422 54.08847,91.3281 50,99.50504 c -0.767834,1.53567 -2.089309,2.75005 -2.857143,4.28571 -0.673435,1.34687 -0.755136,2.93885 -1.428571,4.28572 -1.535668,3.07133 -4.178618,5.50009 -5.714286,8.57143 -0.673435,1.34687 -0.755136,2.93884 -1.428571,4.28571 -1.535669,3.07134 -4.010615,5.59001 -5.714286,8.57143 -1.056572,1.849 -1.800571,3.86528 -2.857143,5.71429 -1.703671,2.98142 -3.809524,5.71428 -5.714286,8.57142 -2.857143,4.28572 -5.714285,8.57143 -8.571428,12.85715 -0.952381,1.42857 -2.089309,2.75004 -2.857143,4.28571 -0.673435,1.34687 -0.755137,2.93885 -1.428572,4.28572 -0.767834,1.53566 -1.9737897,2.81346 -2.8571424,4.28571 -1.0956643,1.82611 -2.0662336,3.73701 -2.8571429,5.71429 -0.5592573,1.39814 -0.8693141,2.88757 -1.4285714,4.28571 -2.5894934,6.47373 -0.1318929,0.19784 -2.8571429,4.28571 C 0.83792984,184.67672 0.59064159,185.76193 0,186.6479 c -0.37355454,0.56033 -1.2156126,0.78969 -1.4285714,1.42857 -0.3011693,0.90351 0.3011693,1.95363 0,2.85714 -0.4259177,1.27775 -2.1100338,1.73648 -2.8571429,2.85714 -3.1473768,0.71942 -0.7551364,2.93885 -1.4285714,4.28572 -0.3011693,0.60234 -0.952381,0.95238 -1.4285714,1.42857 -0.4761905,0.47619 -1.1274022,0.82623 -1.4285715,1.42857 -0.2129588,0.42592 0,0.95238 0,1.42857 0,0.47619 0,0.95238 0,1.42857 0,0.47619 -0.4761904,1.42858 0,1.42858 0.6734351,0 0.8262329,-1.12741 1.4285715,-1.42858 0.4259177,-0.21295 1.0026537,0.21296 1.4285714,0 1.2046772,-0.60233 1.6524656,-2.2548 2.8571428,-2.85714 0.4259178,-0.21296 1.0026538,0.21296 1.4285715,0 0.60233857,-0.30117 0.95238092,-0.95238 1.4285714,-1.42857 0.47619048,-0.47619 1.0550169,-0.86824 1.4285714,-1.42857 0.5906416,-0.88596 0.6756482,-2.10422 1.4285715,-2.85714 0.7529232,-0.75293 1.9711804,-0.83793 2.8571428,-1.42858 0.5603318,-0.37355 0.8682396,-1.05501 1.4285714,-1.42857 0.8859624,-0.59064 1.9711805,-0.83793 2.8571429,-1.42857 0.560332,-0.37355 0.826233,-1.1274 1.428571,-1.42857 0.425918,-0.21296 0.976818,0.15058 1.428572,0 1.010152,-0.33672 1.97118,-0.83793 2.857143,-1.42857 0.334735,-0.22316 1.76669,-2.51903 2.857143,-1.42857 0.336717,0.33671 0,0.95238 0,1.42857 0,0.47619 0.336717,1.09185 0,1.42857 -0.336718,0.33672 -1.091854,-0.33672 -1.428572,0 -0.336717,0.33672 0,0.95238 0,1.42857 0,3.64023 -1.666326,1.90408 -2.857143,4.28572 -0.212959,0.42591 0,0.95238 0,1.42857 -0.952381,0.95238 -2.049021,1.77964 -2.857143,2.85714 -0.638876,0.85184 -0.952381,1.90476 -1.428571,2.85714 -0.952381,1.90476 -1.7614786,3.88818 -2.8571429,5.71429 -10.5309793,15.79647 2.3035023,-3.83917 -4.2857142,7.14286 C 1.9737901,216.69158 0.88335277,218.03279 0,219.50504 c -1.0956643,1.82611 -1.7614786,3.88818 -2.8571429,5.71429 -10.5309791,15.79646 2.30350226,-3.83917 -4.2857142,7.14285 -0.8833528,1.47226 -2.0893088,2.75005 -2.8571429,4.28572 -0.673435,1.34687 -0.65382,2.99446 -1.428571,4.28571 -0.692959,1.15493 -2.164184,1.70221 -2.857143,2.85714 -1.549504,2.58251 -1.30764,5.98893 -2.857143,8.57143 -0.692959,1.15493 -2.164184,1.70221 -2.857143,2.85715 -0.774752,1.29125 -0.869314,2.88757 -1.428571,4.28571 -1.167947,2.91987 -2.878772,5.75754 -4.285715,8.57143 -0.47619,0.95238 -1.091854,1.84699 -1.428571,2.85714 -0.150585,0.45176 0.150585,0.97682 0,1.42857 -3.449246,10.34774 0.411862,-2.25229 -2.857143,4.28572 -0.212959,0.42591 0.212959,1.00265 0,1.42857 -0.301169,0.60234 -1.127402,0.82623 -1.428571,1.42857 -0.425918,0.85184 0.425917,2.00531 0,2.85714 -0.30117,0.60234 -1.428572,0.75514 -1.428572,1.42857 0,0.5579 2.003384,2.28233 2.857143,1.42858 0.336718,-0.33672 -0.336718,-1.09186 0,-1.42858 0.0014,-10e-4 4.279239,0.002 4.285714,0 0.638877,-0.21295 0.86824,-1.05501 1.428572,-1.42857 0.885962,-0.59064 1.97118,-0.83793 2.857143,-1.42857 0.560331,-0.37355 0.868239,-1.05502 1.428571,-1.42857 1.771925,-1.18128 3.809524,-1.90476 5.714286,-2.85714 2.857143,-1.42857 5.7142854,-2.85715 8.5714283,-4.28572 10.3579733,-5.17898 -2.2587698,1.50585 4.2857143,-2.85714 0.88596236,-0.59064 1.97118044,-0.83793 2.8571428,-1.42857 0.5603318,-0.37356 0.8262329,-1.1274 1.4285715,-1.42857 0.4259177,-0.21296 1.0026537,0.21296 1.4285714,0 0.6023386,-0.30117 0.8262328,-1.12741 1.4285714,-1.42857 0.4259177,-0.21296 1.0918539,0.33671 1.4285714,0 0.3367176,-0.33672 -0.3367175,-1.09186 0,-1.42858 0.3367176,-0.33671 1.091854,-0.33671 1.4285715,0 0.3367175,0.33672 0,0.95238 0,1.42858 0,0.47619 0.2129588,1.00265 0,1.42857 -3.2690053,6.53801 0.5921031,-6.06203 -2.8571429,4.28571 -0.1505846,0.45176 0.1505847,0.97682 0,1.42857 -0.3842633,1.15279 -3.5899023,7.64368 -4.2857143,8.57143 -8.7479072,8.74791 1.8070158,-2.40935 -4.2857143,5.71429 -0.808122,1.07749 -2.1641839,1.70221 -2.8571428,2.85714 -0.7747516,1.29125 -0.7551364,2.93884 -1.4285714,4.28571 -2.9313429,5.86269 -2.1709642,2.71371 -5.7142859,7.14286 -3.124515,3.90565 -5.386751,9.03553 -8.571428,12.85714 -1.293368,1.55205 -2.992347,2.73368 -4.285715,4.28572 -1.099151,1.31898 -1.784585,2.94502 -2.857143,4.28571 -0.841383,1.05173 -2.015759,1.80542 -2.857142,2.85715 -1.072558,1.34069 -1.784586,2.94501 -2.857143,4.28571 -0.841383,1.05173 -2.01576,1.80541 -2.857143,2.85714 -1.072557,1.3407 -1.784586,2.94502 -2.857143,4.28572 -0.841383,1.05173 -2.164184,1.70221 -2.857143,2.85714 -0.774751,1.29125 -0.869314,2.88757 -1.428571,4.28571 -1.975951,4.93988 -0.745167,0.99356 -4.285715,5.71429 -0.638876,0.85184 -0.837929,1.97118 -1.428571,2.85714 -2.179337,3.26901 -1.130814,-0.89327 -2.857143,4.28572 -0.150585,0.45175 0.212959,1.00265 0,1.42857 -0.301169,0.60234 -1.127402,0.82623 -1.428571,1.42857 -0.14652,0.29304 -0.201465,4.08425 0,4.28571 1.116751,1.11676 2.485215,-1.2426 2.857143,-1.42857 0.425917,-0.21296 1.002653,0.21296 1.428571,0 1.204677,-0.60234 1.736479,-2.11003 2.857143,-2.85714 0.885962,-0.59064 1.904762,-0.95238 2.857143,-1.42857 0.952381,-0.95238 1.779647,-2.04902 2.857143,-2.85714 0.851835,-0.63888 1.904761,-0.95239 2.857142,-1.42858 1.428572,-0.95238 2.945018,-1.78458 4.285715,-2.85714 1.051729,-0.84138 1.779647,-2.04902 2.857143,-2.85714 0.851835,-0.63888 1.904761,-0.95238 2.857142,-1.42857 0.952381,-0.47619 1.904762,-0.95238 2.857143,-1.42857 0.952381,-0.4762 1.971181,-0.83793 2.857143,-1.42858 2.647934,-1.76528 0.131013,-1.42857 2.857143,-1.42857 0.47619,0 1.428571,-0.47619 1.428571,0 0,0.67344 -1.127402,0.82624 -1.428571,1.42857 -0.212959,0.42592 0.212959,1.00266 0,1.42858 -0.301169,0.60233 -1.127402,0.82623 -1.428571,1.42857 -0.212959,0.42591 0.212958,1.00265 0,1.42857 -0.30117,0.60234 -1.055017,0.86824 -1.428572,1.42857 -0.590641,0.88596 -0.675648,2.10422 -1.428571,2.85714 -0.752924,0.75293 -2.10422,0.67565 -2.857143,1.42857 -0.752923,0.75293 -0.880739,1.94409 -1.428572,2.85715 -0.883352,1.47225 -1.784585,2.94501 -2.857142,4.28571 -0.841383,1.05173 -2.01576,1.80542 -2.857143,2.85714 -1.072557,1.3407 -1.904762,2.85715 -2.857143,4.28572 -0.952381,1.42857 -2.005308,2.795 -2.857143,4.28571 -1.056572,1.849 -1.800571,3.86529 -2.857143,5.71429 -0.851835,1.49071 -2.005307,2.795 -2.857143,4.28571 -0.07763,0.13585 -5.681682,11.38293 -5.714285,11.42857 -1.174279,1.64399 -3.111436,2.64173 -4.285715,4.28572 -0.0326,0.0456 -5.636656,11.29272 -5.714285,11.42857 -0.851836,1.49071 -2.005308,2.795 -2.857143,4.28571 -1.056572,1.849 -1.800571,3.86529 -2.857143,5.71429 -0.851836,1.49071 -2.089309,2.75005 -2.857143,4.28571 -0.673435,1.34687 -0.952381,2.85715 -1.428571,4.28572 -0.952381,1.42857 -1.973791,2.81346 -2.857143,4.28571 -0.547832,0.91306 -0.952381,1.90476 -1.428572,2.85715 -0.47619,0.95238 -0.952381,1.90476 -1.428571,2.85714 -0.476191,0.95238 -1.170321,1.82414 -1.428572,2.85714 -0.230986,0.92395 0.30117,1.95364 0,2.85714 -0.212958,0.63888 -1.127402,0.82624 -1.428571,1.42858 -0.212959,0.42591 0,0.95238 0,1.42857 -0.47619,0.95238 -0.83793,1.97118 -1.428571,2.85714 -0.223157,0.33473 -2.519024,1.76669 -1.428572,2.85714 0.336718,0.33672 1.002654,0.21296 1.428572,0 0.602338,-0.30117 0.826232,-1.1274 1.428571,-1.42857 0.425918,-0.21296 0.952381,0 1.428571,0 0.952381,-0.47619 1.971181,-0.83793 2.857143,-1.42857 0.560332,-0.37355 0.86824,-1.05502 1.428572,-1.42857 2.631089,-1.75406 5.85843,-2.65792 8.571428,-4.28572 15.796469,-10.53098 -3.83917,2.30351 7.142857,-4.28571 1.472255,-0.88335 2.750047,-2.08931 4.285715,-2.85714 1.34687,-0.67344 2.994461,-0.65382 4.285714,-1.42857 1.154932,-0.69296 1.702211,-2.16419 2.857143,-2.85715 1.291253,-0.77475 2.994461,-0.65382 4.285714,-1.42857 3.610066,-3.61006 1.652466,-2.2548 5.714286,-4.28571 0.952381,-0.47619 1.97118,-0.83793 2.857143,-1.42857 0.560332,-0.37356 0.789695,-1.21562 1.428571,-1.42858 0.903508,-0.30117 1.953635,0.30117 2.857143,0 0.418419,-0.13947 1.707517,-2.57819 2.857143,-1.42857 0.336717,0.33672 0,0.95238 0,1.42857 0,0.47619 0.212959,1.00266 0,1.42858 -0.301169,0.60233 -1.127402,0.82623 -1.428572,1.42857 -4.088469,8.17694 0.887601,0.90162 -2.857142,7.14285 -8.188176,12.28227 1.628822,-3.25764 -4.285715,8.57143 -0.767834,1.53567 -2.089309,2.75005 -2.857143,4.28572 -0.673435,1.34687 -0.869314,2.88757 -1.428571,4.28571 -0.395455,0.98864 -1.033117,1.86851 -1.428571,2.85714 -0.559258,1.39815 -0.869315,2.88757 -1.428572,4.28572 -0.395455,0.98863 -1.033117,1.8685 -1.428571,2.85714 -0.559258,1.39814 -0.869314,2.88757 -1.428572,4.28572 -0.395454,0.98863 -1.091854,1.84699 -1.428571,2.85714 -1.417539,4.25262 3.382672,-2.93115 -1.428572,4.28571 -0.373554,0.56033 -1.215612,0.7897 -1.428571,1.42857 0,6.50327 0.673435,0.0817 -1.428571,4.28572 -0.212959,0.42592 0.47619,1.42857 0,1.42857 -0.476191,0 -0.336718,-1.09185 0,-1.42857 0.336717,-0.33672 1.002653,0.21296 1.428571,0 0.602339,-0.30117 0.952381,-0.95238 1.428571,-1.42857 0.476191,-0.47619 0.952381,-0.95238 1.428572,-1.42857 0.47619,-0.4762 0.952381,-0.95239 1.428571,-1.42858 0.476191,-0.47619 0.826233,-1.1274 1.428572,-1.42857 0.425917,-0.21296 1.002653,0.21296 1.428571,0 1.204677,-0.60234 1.736479,-2.11003 2.857143,-2.85714 0.719418,-3.14738 2.938844,-0.75514 4.285714,-1.42857 0.602339,-0.30117 0.789695,-1.21561 1.428572,-1.42857 0.903508,-0.30117 1.953635,0.30117 2.857143,0 0.638876,-0.21296 0.789694,-1.21562 1.428571,-1.42857 0.903508,-0.30117 1.953635,0.30116 2.857143,0 0.638876,-0.21296 0.789695,-1.21562 1.428571,-1.42858 0.903508,-0.30117 1.953635,0.30117 2.857143,0 0.638877,-0.21295 0.86824,-1.05501 1.428572,-1.42857 0.885962,-0.59064 1.84699,-1.09185 2.857142,-1.42857 0.451754,-0.15058 0.976818,0.15059 1.428572,0 0.816389,-0.27213 8.1180174,-3.8323 8.5714284,-4.28571 0.7529233,-0.75293 0.6756482,-2.10422 1.4285715,-2.85715 0.7529232,-0.75292 1.9711804,-0.83793 2.8571428,-1.42857 0.5603318,-0.37355 0.8682396,-1.05501 1.4285714,-1.42857 0.8859624,-0.59064 1.97118051,-0.83793 2.8571429,-1.42857 4.737975,-4.73798 -1.3468701,0.67343 2.8571429,-1.42857 0.6023386,-0.30117 0.8262328,-1.1274 1.4285714,-1.42857 0.4259177,-0.21296 0.9523809,0 1.4285714,0 0.4761905,0 1.0918539,-0.33672 1.4285714,0 0.2920521,0.29205 -0.2832084,3.71929 0,4.28571 0.3011693,0.60234 1.1274022,0.82623 1.4285715,1.42857 0.2129588,0.42592 -0.2129589,1.00266 0,1.42857 0.1896505,0.37931 3.9064134,4.09607 4.2857144,4.28572 0.425918,0.21296 0.952381,0 1.428571,0 0.952381,0 1.904762,0 2.857143,0 0.476191,0 0.952381,0 1.428572,0 0.47619,0 1.002653,0.21296 1.428571,0 0.602339,-0.30117 0.826233,-1.1274 1.428571,-1.42857 0.425918,-0.21296 0.976818,0.15058 1.428572,0 1.010152,-0.33672 1.97118,-0.83793 2.857143,-1.42857 0.586897,-0.39127 3.894449,-3.69882 4.285714,-4.28572 0.47619,-0.95238 0.952381,-1.90476 1.428571,-2.85714 0,-0.47619 -0.212958,-1.00266 0,-1.42857 4.737975,-4.73798 -0.673435,1.34687 1.428572,-2.85715 0.301169,-0.60233 1.127402,-0.82623 1.428571,-1.42857 0.212959,-0.42592 -0.212959,-1.00265 0,-1.42857 0.30117,-0.60234 1.127402,-0.82623 1.428572,-1.42857 0.212959,-0.42592 -0.336718,-1.09185 0,-1.42857 0.336717,-0.33672 1.002653,0.21296 1.428571,0 0.602339,-0.30117 0.755137,-1.42857 1.428572,-1.42857 0.47619,0 -0.336718,1.09185 0,1.42857 0.336717,0.33672 1.002653,-0.21296 1.428571,0 3.15865,1.57932 0.443316,0.88663 1.428571,2.85714 0.30117,0.60234 0.952381,0.95238 1.428572,1.42857 0.47619,0.47619 0.868239,1.05502 1.428571,1.42857 0.885963,0.59065 2.10422,0.67565 2.857143,1.42858 0.752923,0.75292 0.675648,2.10422 1.428572,2.85714 0.752923,0.75292 2.005307,0.78969 2.857142,1.42857 1.077496,0.80812 1.779647,2.04902 2.857143,2.85714 0.851836,0.63888 1.904762,0.95238 2.857143,1.42857 0.952381,0.47619 1.904762,0.95238 2.857143,1.42858 1.904762,0.95238 3.737012,2.06623 5.714286,2.85714 1.398143,0.55926 2.887571,0.86931 4.285714,1.42857 0.988637,0.39545 1.824141,1.17032 2.857143,1.42857 0.923945,0.23099 1.933197,-0.23099 2.857143,0 1.033002,0.25825 1.904762,0.95238 2.857143,1.42857 0.952381,0.47619 1.97118,0.83793 2.857142,1.42857 0.560332,0.37356 0.826233,1.12741 1.428572,1.42858 0.425918,0.21295 0.976817,-0.15059 1.428571,0 10.347738,3.44924 -2.252296,-0.41187 4.285715,2.85714 0.425917,0.21296 1.002653,-0.21296 1.428571,0 0.602339,0.30117 0.826233,1.1274 1.428571,1.42857 0.425918,0.21296 0.952381,0 1.428572,0 0.47619,0 1.091854,0.33672 1.428571,0 0.336718,-0.33672 0,-0.95238 0,-1.42857 0,-0.47619 0.212959,-1.00266 0,-1.42857 -0.301169,-0.60234 -1.127402,-0.82624 -1.428571,-1.42857 -0.212959,-0.42592 0.150585,-0.97682 0,-1.42858 -0.336718,-1.01015 -1.091854,-1.84699 -1.428572,-2.85714 -0.150584,-0.45175 0.212959,-1.00265 0,-1.42857 C 91.127402,458.9027 90.301169,458.67881 90,458.07647 c -0.425918,-0.85184 0.425918,-2.00531 0,-2.85714 -0.301169,-0.60234 -1.428571,-0.75514 -1.428571,-1.42858 0,-0.47619 1.002653,-0.21295 1.428571,0 3.15865,1.57933 0.443316,0.88664 1.428571,2.85715 0.30117,0.60234 0.952381,0.95238 1.428572,1.42857 0.47619,0.47619 0.826233,1.1274 1.428571,1.42857 0.425918,0.21296 1.002654,-0.21296 1.428572,0 1.714285,0.85714 2.571428,3.42857 4.285714,4.28571 0.37563,0.18782 4.96726,0 5.71429,0 0.47619,0 0.95238,0 1.42857,0 0.47619,0 1.09185,0.33672 1.42857,0 0.33672,-0.33671 -0.33672,-1.09185 0,-1.42857 0.33672,-0.33671 1.09185,0.33672 1.42857,0 0.33672,-0.33671 -0.21296,-1.00265 0,-1.42857 1.90476,-3.80952 1.90476,0.95238 0,-2.85714 -0.42592,-0.85184 0.42592,-2.00531 0,-2.85714 -1.76529,-3.53058 -1.42857,0.49311 -1.42857,-2.85715 0,-0.47619 -0.47619,-1.42857 0,-1.42857 2.97268,0 0.57481,2.00339 1.42857,2.85714 0.33672,0.33672 1.00265,-0.21295 1.42857,0 0.60234,0.30117 0.86824,1.05502 1.42857,1.42858 0.88597,0.59064 1.97118,0.83793 2.85715,1.42857 1.12066,0.74711 1.73647,2.11003 2.85714,2.85714 0.95238,0.47619 1.90476,0.95238 2.85714,1.42857 0.47619,0 1.00266,-0.21296 1.42857,0 0.60234,0.30117 0.82624,1.1274 1.42857,1.42857 0.29322,0.14661 6.71862,0.14142 7.14286,0 1.01015,-0.33671 1.84699,-1.09185 2.85714,-1.42857 0.45176,-0.15058 1.00266,0.21296 1.42858,0 0.60233,-0.30117 0.82623,-1.1274 1.42857,-1.42857 0.42591,-0.21296 1.00265,0.21296 1.42857,0 0.60234,-0.30117 0.95238,-0.95238 1.42857,-1.42857 0.47619,-0.47619 1.1274,-0.82623 1.42857,-1.42857 0.21296,-0.42592 -0.21296,-1.00266 0,-1.42857 0.30117,-0.60234 1.1274,-0.82624 1.42857,-1.42858 0.28321,-0.56641 -0.29205,-3.99366 0,-4.28571 0.33672,-0.33672 0.95238,0 1.42857,0 0.47619,0 1.09186,-0.33672 1.42858,0 0.33671,0.33672 -0.33672,1.09185 0,1.42857 0.33671,0.33672 1.00265,-0.21296 1.42857,0 1.20467,0.60234 1.65246,2.25481 2.85714,2.85714 0.42592,0.21296 1.00265,-0.21295 1.42857,0 1.20468,0.60234 1.65247,2.25481 2.85714,2.85715 0.42592,0.21296 0.97682,-0.15059 1.42858,0 10.34773,3.44924 -2.2523,-0.41187 4.28571,2.85714 0.42592,0.21296 0.97682,-0.15058 1.42857,0 1.01015,0.33672 1.84699,1.09185 2.85714,1.42857 0.86631,0.28877 1.99084,-0.28877 2.85715,0 1.01015,0.33672 1.84699,1.09186 2.85714,1.42857 1.14986,0.38329 4.8014,-0.45644 5.71429,0 0.60233,0.30117 0.82623,1.1274 1.42857,1.42857 0.85183,0.42592 2.1837,-0.67343 2.85714,0 0.33672,0.33672 -0.33672,1.09186 0,1.42858 3.80952,0 -0.47619,-0.4762 1.42857,1.42857 0.33672,0.33671 1.09186,-0.33672 1.42857,0 0.33672,0.33671 -0.33671,1.09185 0,1.42857 0.67344,0.67343 2.18371,-0.67344 2.85715,0 0.33671,0.33672 -0.33672,1.09185 0,1.42857 0.14285,0.14286 4.14285,0.14286 4.28571,0 0.33672,-0.33672 0,-0.95238 0,-1.42857 0,-0.47619 0.21296,-1.00266 0,-1.42857 -0.30117,-0.60234 -1.1274,-0.82624 -1.42857,-1.42857 -0.21296,-0.42592 0.33672,-1.09186 0,-1.42858 -1.90476,-1.90476 -1.3708,3.03046 -2.85714,-1.42857 -0.30117,-0.90351 0.30117,-1.95363 0,-2.85714 -0.46793,-1.40378 -3.53563,-2.35708 -4.28572,-2.85714 -0.56033,-0.37356 -0.95238,-0.95238 -1.42857,-1.42857 -0.47619,-0.4762 -1.05502,-0.86824 -1.42857,-1.42858 -0.59064,-0.88596 -0.83793,-1.97118 -1.42857,-2.85714 -1.0707,-1.60605 -1.78644,-1.25109 -2.85715,-2.85714 -0.59064,-0.88596 -0.83793,-1.97118 -1.42857,-2.85714 -0.37355,-0.56034 -1.05501,-0.86824 -1.42857,-1.42858 -1.18128,-1.77192 -1.90476,-3.80952 -2.85714,-5.71428 -0.95238,-1.90476 -2.06623,-3.73701 -2.85714,-5.71429 -0.55926,-1.39814 -0.86932,-2.88757 -1.42858,-4.28571 -0.79091,-1.97727 -2.34064,-3.64828 -2.85714,-5.71429 -0.23098,-0.92394 0.23099,-1.9332 0,-2.85714 -0.25825,-1.033 -1.09185,-1.84699 -1.42857,-2.85714 -0.15058,-0.45176 0.15058,-0.97682 0,-1.42857 -0.33672,-1.01016 -1.09185,-1.84699 -1.42857,-2.85715 -0.30117,-0.90351 0.67343,-2.18371 0,-2.85714 -0.33672,-0.33672 -1.09186,0.33672 -1.42857,0 -0.33672,-0.33672 -0.33672,-1.09185 0,-1.42857 1.11675,-1.11675 2.48521,1.24261 2.85714,1.42857 0.42592,0.21296 1.00265,-0.21296 1.42857,0 0.60234,0.30117 0.82623,1.1274 1.42857,1.42857 0.85184,0.42592 2.00531,-0.42592 2.85715,0 0.60233,0.30117 0.78969,1.21561 1.42857,1.42857 0.90351,0.30117 1.95363,-0.30117 2.85714,0 0.63888,0.21296 0.78969,1.21562 1.42857,1.42857 0.90351,0.30117 1.95364,-0.30117 2.85714,0 0.63888,0.21296 0.7897,1.21562 1.42858,1.42858 0.9035,0.30116 1.90476,0 2.85714,0 0.47619,0 1.00265,-0.21296 1.42857,0 0.60234,0.30116 0.82623,1.1274 1.42857,1.42857 0.42592,0.21296 0.95238,0 1.42857,0 0.95238,0 1.90476,0 2.85715,0 2.51451,0 2.85714,1.18157 2.85714,-1.42857 0,-0.4762 0.21296,-1.00266 0,-1.42858 -0.6331,-1.26619 -3.41875,-2.98526 -4.28572,-4.28571 -0.59064,-0.88596 -0.95238,-1.90476 -1.42857,-2.85714 -0.95238,-0.95238 -2.04902,-1.77965 -2.85714,-2.85715 -0.63888,-0.85183 -0.95238,-1.90476 -1.42857,-2.85714 -0.95238,-1.42857 -1.78459,-2.94502 -2.85714,-4.28571 -0.84139,-1.05173 -2.01576,-1.80542 -2.85715,-2.85715 -1.07255,-1.34069 -1.78458,-2.94501 -2.85714,-4.28571 -0.84138,-1.05173 -2.16418,-1.70221 -2.85714,-2.85714 -0.77475,-1.29126 -0.65382,-2.99446 -1.42857,-4.28572 -1.38592,-2.30986 -4.09805,-3.55929 -5.71429,-5.71428 -0.63888,-0.85184 -0.83793,-1.97118 -1.42857,-2.85715 -0.74711,-1.12066 -1.90476,-1.90476 -2.85714,-2.85714 -0.47619,-0.47619 -0.95239,-0.95238 -1.42858,-1.42857 -0.47619,-0.47619 -1.1274,-0.82623 -1.42857,-1.42857 -0.21296,-0.42592 0.21296,-1.00266 0,-1.42857 -0.30117,-0.60234 -1.1274,-0.82624 -1.42857,-1.42857 -0.21296,-0.42592 0,-0.95239 0,-1.42858 0,-0.47619 0,-0.95238 0,-1.42857 0,-0.47619 -0.33672,-1.09185 0,-1.42857 1.11675,-1.11675 2.48522,1.24261 2.85714,1.42857 0.42592,0.21296 1.00266,-0.21296 1.42858,0 0.60233,0.30117 0.82623,1.1274 1.42857,1.42857 0.42591,0.21296 1.00265,-0.21295 1.42857,0 0.60234,0.30117 0.82623,1.12741 1.42857,1.42858 0.42592,0.21295 1.00265,-0.21296 1.42857,0 0.60234,0.30116 0.82623,1.1274 1.42857,1.42857 0.42592,0.21296 0.97682,-0.15059 1.42857,0 1.01016,0.33671 1.84699,1.09185 2.85715,1.42857 0.89664,0.29888 4.56423,0 5.71428,0 0.47619,0 1.09186,0.33672 1.42857,0 0.33672,-0.33672 0,-0.95238 0,-1.42857 0,-0.47619 0.21296,-1.00266 0,-1.42857 -0.60233,-1.20468 -2.11003,-1.73648 -2.85714,-2.85715 -0.59064,-0.88596 -0.83793,-1.97118 -1.42857,-2.85714 -0.37355,-0.56033 -0.95238,-0.95238 -1.42857,-1.42857 -0.95238,-0.95238 -1.90476,-1.90476 -2.85714,-2.85714 -1.90477,-1.90477 -3.80953,-3.80953 -5.71429,-5.71429 -1.90476,-1.90476 -3.80952,-3.80952 -5.71429,-5.71429 -0.95238,-0.95238 -1.77964,-2.04902 -2.85714,-2.85714 -0.85183,-0.63888 -2.00531,-0.78969 -2.85714,-1.42857 -10.27568,-7.70676 3.01483,1.58626 -4.28572,-5.71429 -0.75292,-0.75292 -1.97118,-0.83793 -2.85714,-1.42857 -0.60552,-0.40368 -3.99018,-3.69464 -4.28571,-4.28571 -0.37966,-0.75931 0.37965,-2.09784 0,-2.85714 -0.30117,-0.60234 -1.1274,-0.82624 -1.42857,-1.42858 -0.14652,-0.29304 -0.20147,-4.08425 0,-4.28571 0.20146,-0.20147 3.99267,-0.14652 4.28571,0 0.60234,0.30117 0.82623,1.1274 1.42857,1.42857 0.42592,0.21296 0.95238,0 1.42857,0 0.95238,0 1.95364,-0.30117 2.85715,0 0.63887,0.21296 0.82623,1.1274 1.42857,1.42857 0.51662,0.25831 6.14923,0 7.14285,0 0.47619,0 1.09186,0.33672 1.42858,0 0.33671,-0.33671 -0.21296,-1.00265 0,-1.42857 0.30117,-0.60234 1.1274,-0.82623 1.42857,-1.42857 0.21296,-0.42592 0,-0.95238 0,-1.42857 0,-0.47619 0,-0.95238 0,-1.42857 0,-0.95238 0.30117,-1.95364 0,-2.85715 -1.19092,-3.57273 -5.95698,-7.38555 -8.57143,-10 -3.80953,-3.80952 -7.61905,-7.61904 -11.42857,-11.42857 -0.95238,-0.95238 -1.90476,-1.90476 -2.85715,-2.85714 -0.47619,-0.47619 -1.05501,-0.86824 -1.42857,-1.42857 -0.59064,-0.88596 -0.83793,-1.97118 -1.42857,-2.85714 -0.86697,-1.30045 -3.65261,-3.01952 -4.28571,-4.28572 -0.14652,-0.29304 -0.20147,-4.08425 0,-4.28571 0.33671,-0.33672 0.95238,0 1.42857,0 0.47619,0 1.09185,-0.33672 1.42857,0 0.33672,0.33671 -0.42592,1.21561 0,1.42857 1.14286,0.57143 3.14286,-0.57143 4.28571,0 6.53801,3.269 -6.06202,-0.5921 4.28572,2.85714 1.28571,0.42857 3,-0.42857 4.28571,0 0.63888,0.21296 0.82624,1.1274 1.42857,1.42857 0.42592,0.21296 0.95239,0 1.42858,0 3.55884,0 2.85714,-1.69633 2.85714,-4.28571 0,-0.47619 0.15058,-0.97682 0,-1.42857 -1.72633,-5.17899 -0.67781,-1.01671 -2.85714,-4.28572 -1.58594,-2.37891 -2.63064,-6.36465 -4.28572,-8.57143 -2.32918,-3.10557 -3.3851,-2.6087 -5.71428,-5.71428 -3.12881,-4.17174 0.71309,-1.96518 -4.28572,-5.71429 -0.85183,-0.63887 -2.10422,-0.67565 -2.85714,-1.42857 -0.75292,-0.75292 -0.83793,-1.97118 -1.42857,-2.85714 -0.86697,-1.30045 -3.65262,-3.01952 -4.28572,-4.28572 -1.12494,-2.24989 1.85234,-1.42857 2.85715,-1.42857 0.74703,0 5.33865,0.18782 5.71428,0 0.60234,-0.30117 1.1274,-0.82623 1.42857,-1.42857 0.0374,-0.0747 0.0374,-4.21098 0,-4.28571 -0.30117,-0.60234 -1.1274,-0.82624 -1.42857,-1.42857 -0.21296,-0.42592 0.21296,-1.00266 0,-1.42858 -0.30117,-0.60233 -1.05502,-0.86824 -1.42857,-1.42857 -5.17899,-10.35797 1.50585,2.25877 -2.85714,-4.28571 -1.32897,-1.99346 -1.52817,-3.72083 -2.85715,-5.71429 -0.37355,-0.56033 -1.05501,-0.86824 -1.42857,-1.42857 -1.75824,-2.63736 -2.52747,-5.93406 -4.28571,-8.57143 -0.74711,-1.12066 -2.43123,-1.57939 -2.85714,-2.85714 -0.30117,-0.90351 0.30117,-1.95364 0,-2.85714 -0.46464,-1.39391 -2.34828,-1.01775 -1.42858,-2.85715 0.30117,-0.60233 0.82624,-1.1274 1.42858,-1.42857 0.0747,-0.0374 4.21097,-0.0374 4.28571,0 0.60234,0.30117 0.82623,1.1274 1.42857,1.42857 0.85184,0.42592 2.00531,-0.42591 2.85714,0 0.60234,0.30117 0.82624,1.12741 1.42858,1.42858 0.29304,0.14652 4.08424,0.20146 4.28571,0 0.33672,-0.33672 0,-0.95239 0,-1.42858 0,-2.1263 0.21296,-1.82341 -1.42857,-4.28571 -0.37356,-0.56033 -1.05502,-0.86824 -1.42857,-1.42857 -0.1774,-0.2661 -2.7656,-5.62275 -2.85715,-5.71429 -0.75292,-0.75292 -2.10422,-0.67565 -2.85714,-1.42857 -5.3593,-5.3593 -0.90383,-2.63368 -4.28571,-7.14286 -0.80812,-1.07749 -1.90476,-1.90476 -2.85715,-2.85714 -0.95238,-0.95238 -1.90476,-1.90476 -2.85714,-2.85714 -0.95238,-0.95238 -2.16418,-1.70221 -2.85714,-2.85714 -0.77475,-1.29126 -0.65382,-2.99447 -1.42857,-4.28572 -0.69296,-1.15493 -2.04902,-1.77965 -2.85715,-2.85714 -0.63887,-0.85184 -0.95238,-1.90476 -1.42857,-2.85714 -0.95238,-0.95239 -2.04902,-1.77965 -2.85714,-2.85715 -0.638877,-0.85183 -0.83793,-1.97118 -1.428571,-2.85714 -0.373555,-0.56033 -1.215613,-0.7897 -1.428572,-1.42857 -1.765289,-5.29587 1.921683,-0.93546 -1.428571,-4.28572 -1.072983,-1.07298 -3.160464,-2.85714 -1.428572,-2.85714 0.476191,0 -0.336717,1.09186 0,1.42857 0.336718,0.33672 1.002654,-0.21296 1.428572,0 0.602338,0.30117 0.826233,1.1274 1.428571,1.42857 0.425918,0.21296 1.002654,-0.21295 1.428572,0 1.204677,0.60234 1.652461,2.25481 2.857141,2.85715 0.42592,0.21296 1.00266,-0.21296 1.42857,0 0.60234,0.30117 0.7897,1.21561 1.42857,1.42857 0.90351,0.30117 1.95364,-0.30117 2.85715,0 0.63887,0.21296 0.82623,1.1274 1.42857,1.42857 0.29304,0.14652 4.08425,0.20146 4.28571,0 0.33672,-0.33672 0,-0.95238 0,-1.42857 0,-0.47619 0.21296,-1.00266 0,-1.42857 -0.30117,-0.60234 -1.1274,-0.82624 -1.42857,-1.42857 -2.10201,-4.20402 3.3094,1.88083 -1.42857,-2.85715 -1.42857,-1.42857 -2.85714,-2.85714 -4.28571,-4.28571 -0.47619,-0.47619 -1.05502,-0.86824 -1.42858,-1.42857 -0.59064,-0.88597 -0.78969,-2.00531 -1.42857,-2.85715 -0.80812,-1.07749 -2.04902,-1.77964 -2.85714,-2.85714 -0.638877,-0.85183 -0.789695,-2.00531 -1.428571,-2.85714 -1.212183,-1.61625 -3.165051,-2.60472 -4.285715,-4.28572 -1.312768,-1.96915 -1.544374,-3.74513 -2.857143,-5.71428 -0.747109,-1.12067 -2.254804,-1.65247 -2.857142,-2.85714 -0.212959,-0.42592 0.212958,-1.00266 0,-1.42858 -0.30117,-0.60233 -1.127403,-0.82623 -1.428572,-1.42857 -0.212959,-0.42592 0.336718,-1.09185 0,-1.42857 -0.336717,-0.33672 -1.091854,0.33672 -1.428571,0 -0.336718,-0.33672 -0.476191,-1.42857 0,-1.42857 0.673435,0 0.826233,1.1274 1.428571,1.42857 0.425918,0.21296 1.002654,-0.21296 1.428572,0 1.204677,0.60234 1.652465,2.25481 2.857142,2.85714 0.425918,0.21296 1.002654,-0.21295 1.428572,0 0.602338,0.30117 0.755136,1.42858 1.428571,1.42858 0.673435,0 1.428572,-0.75514 1.428572,-1.42858 0,-0.67343 -1.127402,-0.82623 -1.428572,-1.42857 -0.425917,-0.85183 0.425918,-2.0053 0,-2.85714 -0.301169,-0.60234 -1.127402,-0.82623 -1.428571,-1.42857 -0.212959,-0.42592 0.212959,-1.00266 0,-1.42857 -0.602339,-1.20468 -2.110034,-1.73648 -2.857143,-2.85715 -0.590642,-0.88596 -0.83793,-1.97118 -1.428571,-2.85714 -0.74711,-1.12066 -2.110034,-1.73648 -2.857143,-2.85714 -0.590642,-0.88596 -0.83793,-1.97118 -1.428572,-2.85714 -0.428509,-0.64277 -2.428633,-2.21438 -2.857143,-2.85715 C 80.83793,101.47622 80.590642,100.391 80,99.50504 79.252891,98.384376 78.095238,97.600278 77.142857,96.647897 76.390765,95.895805 73.238631,93.12516 72.857143,92.362183 c -0.212959,-0.425918 0.336717,-1.091854 0,-1.428572 -0.336718,-0.336717 -1.091854,0.336718 -1.428572,0 -0.336717,-0.336717 0.336718,-1.091854 0,-1.428571 C 70.47619,88.552659 69.047619,89.98123 70,90.933611 c 0.336718,0.336718 1.002654,-0.212959 1.428571,0 0.602339,0.301169 0.826233,1.127402 1.428572,1.428572 0.851835,0.425917 2.183708,-0.673435 2.857143,0 0.336717,0.336717 -0.336718,1.091854 0,1.428571 0.336717,0.336718 1.091854,0.336718 1.428571,0 0.201465,-0.201465 0.14652,-3.992674 0,-4.285714 -0.301169,-0.602339 -1.215612,-0.789695 -1.428571,-1.428572 -0.30117,-0.903508 0.301169,-1.953635 0,-2.857143 -0.212959,-0.638876 -1.055017,-0.868239 -1.428572,-1.428571 -0.590641,-0.885962 -0.83793,-1.97118 -1.428571,-2.857143 -1.677477,-2.516215 -5.23168,-3.764615 -5.714286,-7.142857 -0.336717,-2.357023 1.683588,-5.45927 0,-7.142857 -1.683587,-1.683588 -4.808141,0.466943 -7.142857,0 -0.466943,-0.09339 0.212959,-1.002654 0,-1.428572 -2.972686,-5.945372 0.09862,1.527194 -2.857143,-1.428571 -0.336717,-0.336717 0.336718,-1.091854 0,-1.428571 -0.336717,-0.336718 -1.091854,-0.336718 -1.428571,0 -0.336718,0.336717 0,0.952381 0,1.428571 0,2.739231 -0.645425,2.211719 1.428571,4.285714"
       id="path3077"
       inkscape:connector-curvature="0" />
    <path
       style="fill:#008000;stroke:#000000;stroke-width:1.16607594000000003px;stroke-linecap:butt;stroke-linejoin:miter;stroke-opacity:1;color:#000000;fill-opacity:1;fill-rule:evenodd;stroke-miterlimit:4;stroke-dasharray:none;stroke-dashoffset:0;marker:none;visibility:visible;display:inline;overflow:visible;enable-background:accumulate"
       d="m 451.42857,35.219325 c -0.95238,1.904762 -1.90476,3.809524 -2.85714,5.714286 -0.47619,0.476191 -1.1274,0.826233 -1.42857,1.428572 -0.21296,0.425917 0.21296,1.002653 0,1.428571 -0.30117,0.602339 -1.05502,0.86824 -1.42857,1.428571 -0.59065,0.885963 -0.83793,1.971181 -1.42858,2.857143 -0.37355,0.560332 -1.05501,0.86824 -1.42857,1.428572 -0.59064,0.885962 -0.83793,1.97118 -1.42857,2.857143 -0.37355,0.560331 -1.05502,0.868239 -1.42857,1.428571 -1.67513,2.512691 -1.69555,4.238881 -2.85714,7.142857 -2.13823,5.345563 -0.93175,0.434914 -4.28572,7.142857 -0.67343,1.34687 -0.75513,2.938845 -1.42857,4.285715 -0.76783,1.535668 -2.08931,2.750046 -2.85714,4.285714 -0.67344,1.34687 -0.75514,2.938844 -1.42857,4.285714 -0.76784,1.535668 -1.90476,2.857143 -2.85715,4.285714 -2.84283,4.264254 -5.93497,8.463052 -8.57142,12.857143 -2.6706,4.450992 -0.0733,1.877368 -4.28572,7.142862 -1.26207,1.57759 -3.16505,2.60471 -4.28571,4.28571 -0.59064,0.88596 -0.83793,1.97118 -1.42857,2.85714 -0.74711,1.12067 -1.90477,1.90476 -2.85715,2.85715 -4.73797,4.73797 0.67344,-1.34687 -1.42857,2.85714 -0.30117,0.60234 -1.1274,0.82623 -1.42857,1.42857 -0.21738,0.43476 0,3.64235 0,4.28571 0,0.47619 -0.33672,1.09186 0,1.42858 0.33672,0.33671 1.09185,-0.33672 1.42857,0 0.33672,0.33671 -0.33672,1.09185 0,1.42857 0.67344,0.67343 2.18371,-0.67344 2.85714,0 0.33672,0.33671 -0.33671,1.09185 0,1.42857 0.20147,0.20146 3.99268,0.14652 4.28572,0 0.60234,-0.30117 0.82623,-1.1274 1.42857,-1.42857 0.85184,-0.42592 2.00531,0.42591 2.85714,0 0.60234,-0.30117 0.82624,-1.12741 1.42857,-1.42857 0.42592,-0.21296 1.09186,-0.33672 1.42858,0 0.33671,0.33671 0.33671,1.09185 0,1.42857 -0.33672,0.33671 -1.09186,-0.33672 -1.42858,0 -0.33671,0.33671 0.21296,1.00265 0,1.42857 -0.63309,1.2662 -3.41874,2.98526 -4.28571,4.28571 -0.59064,0.88597 -0.83793,1.97118 -1.42857,2.85715 -0.82181,1.23271 -3.16988,3.16987 -4.28572,4.28571 -0.47619,0.47619 -1.1274,0.82623 -1.42857,1.42857 -0.21296,0.42592 0.21296,1.00265 0,1.42857 -4.73797,4.73798 0.67344,-1.34687 -1.42857,2.85715 -0.30117,0.60233 -1.1274,0.82623 -1.42857,1.42857 -0.42592,0.85183 0.42592,2.0053 0,2.85714 -0.94875,1.8975 -1.90839,0.95964 -2.85714,2.85714 -0.21296,0.42592 0.21296,1.00266 0,1.42857 -0.30117,0.60234 -1.05502,0.86824 -1.42857,1.42858 -0.59065,0.88596 -0.7897,2.0053 -1.42858,2.85714 -0.80812,1.07749 -2.04902,1.77965 -2.85714,2.85714 -0.63888,0.85184 -0.88074,1.94409 -1.42857,2.85714 -0.88335,1.47226 -1.97379,2.81346 -2.85714,4.28572 -1.09567,1.82611 -1.57939,4.01061 -2.85715,5.71428 -0.80812,1.0775 -2.11003,1.73648 -2.85714,2.85715 -0.26414,0.39621 0,0.95238 0,1.42857 -0.47619,0.95238 -0.83793,1.97118 -1.42857,2.85714 -0.37355,0.56033 -1.42857,0.75514 -1.42857,1.42857 0,0.67344 0.95238,0.95238 1.42857,1.42857 2.074,2.074 1.54648,1.42858 4.28571,1.42858 0.64337,0 3.85096,0.21738 4.28572,0 0.60234,-0.30117 0.82623,-1.12741 1.42857,-1.42858 0.42592,-0.21295 1.00265,0.21296 1.42857,0 0.60234,-0.30117 0.86824,-1.05501 1.42857,-1.42857 0.88597,-0.59064 1.97118,-0.83793 2.85715,-1.42857 0.56033,-0.37355 0.86824,-1.05502 1.42857,-1.42857 0.88596,-0.59064 1.97118,-0.83793 2.85714,-1.42857 1.30045,-0.86697 3.01952,-3.65262 4.28571,-4.28572 0.42592,-0.21295 1.00266,0.21296 1.42858,0 0.60233,-0.30117 0.75513,-1.42857 1.42857,-1.42857 0.47619,0 0.21296,1.00266 0,1.42857 -0.30117,0.60234 -1.1274,0.82624 -1.42857,1.42858 -1.75926,3.5185 4.14676,-1.28963 -1.42858,4.28571 -0.75292,0.75292 -1.90476,0.95238 -2.85714,1.42857 -0.47619,0.95238 -0.78969,2.00531 -1.42857,2.85714 -0.80812,1.0775 -1.90476,1.90477 -2.85714,2.85715 -0.47619,1.42857 -0.65382,2.99446 -1.42857,4.28571 -1.38592,2.30986 -4.09805,3.55929 -5.71429,5.71429 -1.43582,1.91443 -2.03398,5.08495 -2.85714,7.14285 -0.39546,0.98864 -0.95238,1.90477 -1.42857,2.85715 -1.42858,2.85714 -2.85715,5.71428 -4.28572,8.57143 -0.47619,0.95238 -1.09185,1.84699 -1.42857,2.85714 -0.31633,0.94897 0.20404,3.67358 0,4.28571 -0.21296,0.63888 -1.1274,0.82624 -1.42857,1.42857 -0.21296,0.42592 0,0.95238 0,1.42858 0,0.47619 -0.21296,1.00265 0,1.42857 2.16775,4.33551 1.14398,0.28458 1.42857,0 0.67344,-0.67344 2.00531,0.42591 2.85714,0 0.60234,-0.30117 0.86824,-1.05502 1.42857,-1.42857 0.88597,-0.59065 1.97118,-0.83793 2.85715,-1.42858 0.56033,-0.37355 0.86824,-1.05501 1.42857,-1.42857 0.88596,-0.59064 1.97118,-0.83793 2.85714,-1.42857 0.56033,-0.37355 0.7897,-1.21561 1.42857,-1.42857 0.90351,-0.30117 1.9332,0.23099 2.85715,0 1.033,-0.25825 1.84699,-1.09185 2.85714,-1.42857 0.45175,-0.15059 1.00265,0.21296 1.42857,0 0.60234,-0.30117 0.75514,-1.42857 1.42857,-1.42857 0.33346,0 0.0434,2.81378 -1.42857,4.28571 -0.75292,0.75292 -2.10422,0.67565 -2.85714,1.42857 -0.75293,0.75293 -0.95238,1.90476 -1.42857,2.85715 -0.95239,0.47619 -2.00531,0.78969 -2.85715,1.42857 -3.4493,2.58697 -2.90279,3.62849 -5.71428,7.14285 -1.68277,2.10346 -4.32837,3.40443 -5.71429,5.71429 -0.77475,1.29125 -0.65382,2.99446 -1.42857,4.28571 -1.08706,1.81177 -4.62723,3.90253 -5.71429,5.71429 -0.77475,1.29125 -0.65382,2.99446 -1.42857,4.28571 -3.61006,3.61007 -2.2548,1.65247 -4.28571,5.71429 -0.95238,1.90476 -1.67586,3.94236 -2.85714,5.71429 -0.37356,0.56033 -1.12741,0.82623 -1.42858,1.42857 -0.21295,0.42591 0.21296,1.00265 0,1.42857 -1.76528,3.53058 -1.42857,-0.49311 -1.42857,2.85714 0,0.47619 -0.33671,1.09186 0,1.42857 0.33672,0.33672 1.09186,-0.33671 1.42857,0 0.33672,0.33672 -0.33671,1.09186 0,1.42857 0.33672,0.33672 0.95239,0 1.42858,0 0.47619,0 0.95238,0 1.42857,0 1.65953,0 5.84779,0.32377 7.14285,0 1.03301,-0.25825 1.84699,-1.09185 2.85715,-1.42857 0.45175,-0.15058 0.97681,0.15059 1.42857,0 1.01015,-0.33671 1.84699,-1.09185 2.85714,-1.42857 0.45176,-0.15058 1.00266,0.21296 1.42857,0 0.60234,-0.30117 0.82624,-1.1274 1.42857,-1.42857 0.85184,-0.42592 2.18371,0.67343 2.85715,0 0.33671,-0.33672 -0.47619,-1.42857 0,-1.42857 0.47619,0 0.33671,1.09185 0,1.42857 -2.95577,2.95576 0.11554,-4.5168 -2.85715,1.42857 -0.21295,0.42592 0.21296,1.00265 0,1.42857 -0.38148,0.76298 -3.53362,3.53362 -4.28571,4.28572 -8.74791,8.7479 1.80702,-2.40936 -4.28571,5.71428 -0.80813,1.0775 -2.16419,1.70221 -2.85715,2.85715 -0.77475,1.29125 -0.65382,2.99446 -1.42857,4.28571 -0.69296,1.15493 -2.01576,1.80541 -2.85714,2.85714 -4.21239,5.26549 -1.61512,2.69187 -4.28572,7.14286 -0.88335,1.47225 -1.97379,2.81346 -2.85714,4.28571 -1.09566,1.82611 -1.90476,3.80953 -2.85714,5.71429 -0.47619,0.95238 -0.83793,1.97118 -1.42857,2.85714 -0.37356,0.56033 -1.21562,0.7897 -1.42857,1.42857 -0.27089,0.81266 0,5.79738 0,7.14286 0,0.52462 -0.0575,5.6568 0,5.71429 1.09045,1.09045 2.5224,-1.20542 2.85714,-1.42857 0.88596,-0.59065 1.97118,-0.83793 2.85714,-1.42858 0.66728,-0.44485 2.18986,-2.41229 2.85714,-2.85714 0.71942,-3.14738 2.93885,-0.75514 4.28572,-1.42857 0.60234,-0.30117 0.82623,-1.1274 1.42857,-1.42857 0.42592,-0.21296 0.95238,0 1.42857,0 0.47619,0 1.42857,-0.47619 1.42857,0 0,0.67343 -1.1274,0.82623 -1.42857,1.42857 -0.21296,0.42592 0.21296,1.00265 0,1.42857 -1.09398,2.18797 -2.54574,1.11717 -4.28571,2.85714 -0.75293,0.75293 -0.7897,2.00531 -1.42857,2.85715 -1.61625,2.15499 -4.03152,3.61082 -5.71429,5.71428 -2.59251,1.67025 -2.61973,4.92154 -4.28571,7.14286 -0.80813,1.0775 -2.01576,1.80541 -2.85715,2.85714 -2.59251,1.67025 -2.61973,4.92154 -4.28571,7.14286 -0.80812,1.0775 -2.16419,1.70221 -2.85714,2.85714 -0.77476,1.29126 -0.75514,2.93885 -1.42858,4.28572 -2.17825,4.35651 -1.13252,-2.61278 -2.85714,4.28571 -0.23098,0.92395 0.30117,1.95364 0,2.85714 -0.21296,0.63888 -1.1274,0.82624 -1.42857,1.42858 -0.21296,0.42591 0,0.95238 0,1.42857 0,0.85376 -0.33672,2.85714 1.42857,2.85714 0.67344,0 0.7897,-1.21561 1.42857,-1.42857 0.90351,-0.30117 1.95364,0.30117 2.85715,0 1.27775,-0.42592 1.73647,-2.11004 2.85714,-2.85714 1.99145,-1.32764 3.72283,-1.52951 5.71428,-2.85715 1.30045,-0.86696 3.01952,-3.65261 4.28572,-4.28571 0.42592,-0.21296 1.00265,0.21296 1.42857,0 0.60234,-0.30117 0.75514,-1.42857 1.42857,-1.42857 0.47619,0 0.21296,1.00265 0,1.42857 -0.30117,0.60234 -1.1274,0.82623 -1.42857,1.42857 -0.21296,0.42592 0.15058,0.97682 0,1.42857 -1.72633,5.17899 -0.67781,1.01671 -2.85714,4.28572 -1.18129,1.77192 -1.90476,3.80952 -2.85715,5.71428 -1.42857,2.85714 -2.85714,5.71429 -4.28571,8.57143 -0.95238,1.90476 -1.67586,3.94236 -2.85714,5.71429 -0.37356,0.56033 -1.1274,0.82623 -1.42857,1.42857 -0.21296,0.42591 0.21295,1.00265 0,1.42857 -0.30117,0.60234 -1.12741,0.82623 -1.42858,1.42857 -0.14652,0.29304 -0.20146,4.08425 0,4.28571 0.33672,0.33672 1.09186,0.33672 1.42858,0 0.33671,-0.33671 -0.33672,-1.09185 0,-1.42857 0.33671,-0.33671 1.00265,0.21296 1.42857,0 0.59107,-0.29553 3.88203,-3.68019 4.28571,-4.28571 0.59064,-0.88596 0.67565,-2.10422 1.42857,-2.85714 0.75293,-0.75293 1.97118,-0.83793 2.85715,-1.42858 0.56033,-0.37355 0.86824,-1.05501 1.42857,-1.42857 0.88596,-0.59064 1.97118,-0.83793 2.85714,-1.42857 0.56033,-0.37355 0.82623,-1.1274 1.42857,-1.42857 0.42592,-0.21296 1.09186,0.33672 1.42857,0 0.33672,-0.33672 0,-1.90476 0,-1.42857 0,0.95238 0.30117,1.95363 0,2.85714 -0.21296,0.63888 -1.05501,0.86824 -1.42857,1.42857 -1.18128,1.77193 -1.57939,4.01062 -2.85714,5.71429 -0.80812,1.07749 -2.04902,1.77965 -2.85714,2.85714 -1.27776,1.70367 -1.76148,3.88818 -2.85715,5.71429 -0.88335,1.47225 -2.08931,2.75004 -2.85714,4.28571 -0.67344,1.34687 -0.65382,2.99446 -1.42857,4.28572 -0.69296,1.15493 -2.16419,1.70221 -2.85714,2.85714 -0.77476,1.29125 -0.86932,2.88757 -1.42858,4.28571 -0.39545,0.98864 -0.95238,1.90476 -1.42857,2.85715 -0.95238,1.90476 -1.67586,3.94236 -2.85714,5.71428 -0.37355,0.56033 -1.21561,0.7897 -1.42857,1.42857 -0.30117,0.90351 0,1.90476 0,2.85715 0,0.47619 0.21296,1.00265 0,1.42857 -0.30117,0.60234 -1.1274,0.82623 -1.42857,1.42857 -0.21738,0.43476 0,3.64234 0,4.28571 0,0.47619 0,0.95238 0,1.42857 0,0.47619 0.21296,1.00266 0,1.42858 -0.30117,0.60233 -1.1274,0.82623 -1.42857,1.42857 -0.14652,0.29304 -0.20147,4.08425 0,4.28571 0.20146,0.20147 3.99267,0.14652 4.28571,0 0.60234,-0.30117 0.82623,-1.1274 1.42857,-1.42857 0.42592,-0.21296 1.00266,0.21296 1.42857,0 0.60234,-0.30117 0.86824,-1.05502 1.42857,-1.42857 0.88597,-0.59064 1.97118,-0.83793 2.85715,-1.42857 0.63661,-0.42441 2.22053,-2.43274 2.85714,-2.85715 0.88596,-0.59064 1.97118,-0.83793 2.85714,-1.42857 0.33474,-0.22315 1.76669,-2.51902 2.85715,-1.42857 0.12166,0.12166 0.23636,3.57663 0,4.28572 -0.33672,1.01015 -0.95239,1.90476 -1.42858,2.85714 -0.95238,1.90476 -2.06623,3.73701 -2.85714,5.71428 -0.55926,1.39815 -0.86931,2.88757 -1.42857,4.28572 -0.79091,1.97727 -1.90476,3.80952 -2.85714,5.71428 -0.47619,0.95238 -0.83793,1.97118 -1.42857,2.85715 -0.37356,0.56033 -1.21562,0.78969 -1.42858,1.42857 -0.30117,0.90351 0.30117,1.95363 0,2.85714 -1.76528,5.29587 -1.42857,-1.74136 -1.42857,2.85714 0,0.34647 -0.0459,4.23978 0,4.28572 1.11675,1.11675 2.48522,-1.24261 2.85715,-1.42857 0.42591,-0.21296 1.00265,0.21296 1.42857,0 0.60234,-0.30117 0.82623,-1.12741 1.42857,-1.42857 0.42592,-0.21296 1.00265,0.21295 1.42857,0 0.60234,-0.30117 0.86824,-1.05502 1.42857,-1.42858 0.88596,-0.59064 1.97118,-0.83793 2.85714,-1.42857 0.56034,-0.37355 0.86824,-1.05501 1.42858,-1.42857 1.77192,-1.18128 4.01061,-1.57939 5.71428,-2.85714 1.0775,-0.80812 1.77965,-2.04902 2.85714,-2.85714 1.70368,-1.27776 3.94237,-1.67586 5.71429,-2.85715 0.56033,-0.37355 0.78969,-1.21561 1.42857,-1.42857 0.90351,-0.30117 1.95364,0.30117 2.85714,0 0.63888,-0.21296 0.82624,-1.1274 1.42858,-1.42857 0.42591,-0.21296 0.95238,0 1.42857,0 0.47619,0 1.09185,-0.33672 1.42857,0 0.33672,0.33672 -0.33672,1.09185 0,1.42857 0.33672,0.33672 1.09185,-0.33672 1.42857,0 1.11675,1.11675 -1.24261,2.48522 -1.42857,2.85714 -0.44895,0.89789 0.44894,4.8164 0,5.71429 -0.30117,0.60234 -1.1274,0.82623 -1.42857,1.42857 -0.21296,0.42592 0,0.95238 0,1.42857 0,1.47789 -0.33672,1.9745 1.42857,2.85715 0.43476,0.21738 3.64234,0 4.28571,0 0.47619,0 1.09186,0.33671 1.42857,0 0.33672,-0.33672 -0.33671,-1.09186 0,-1.42858 0.33672,-0.33671 1.00266,0.21296 1.42858,0 0.60233,-0.30117 0.82623,-1.1274 1.42857,-1.42857 0.42591,-0.21296 1.09185,0.33672 1.42857,0 2.95576,-2.95576 -4.5168,0.11555 1.42857,-2.85714 4.20401,-2.10201 -1.88083,3.3094 2.85714,-1.42857 0.47619,-0.47619 0.82624,-1.1274 1.42857,-1.42857 0.42592,-0.21296 0.95239,0 1.42858,0 0.47619,0 1.09185,-0.33672 1.42857,0 0.33671,0.33671 -0.21296,1.00265 0,1.42857 0.30117,0.60234 1.1274,0.82623 1.42857,1.42857 0.42592,0.85184 -0.67344,2.18371 0,2.85714 0.33672,0.33672 1.09185,-0.33671 1.42857,0 0.33672,0.33672 -0.21296,1.00266 0,1.42857 0.30117,0.60234 1.1274,0.82624 1.42857,1.42858 0.21296,0.42591 -0.21296,1.00265 0,1.42857 0.30117,0.60234 1.1274,0.82623 1.42857,1.42857 0.95238,1.90476 -1.42857,1.42857 1.42857,1.42857 0.47619,0 1.00266,0.21296 1.42858,0 0.66154,-0.33077 4.87408,-4.87408 5.71428,-5.71429 2.38095,-2.38095 4.76191,-4.7619 7.14286,-7.14285 0.47619,-0.47619 0.95238,-0.95238 1.42857,-1.42857 0.47619,-0.4762 0.82623,-1.12741 1.42857,-1.42858 0.42592,-0.21295 1.00266,0.21296 1.42857,0 0.60234,-0.30117 0.82624,-1.1274 1.42857,-1.42857 0.42592,-0.21296 0.95239,0 1.42858,0 0.47619,0 1.09185,-0.33671 1.42857,0 0.33671,0.33672 -0.33672,1.09186 0,1.42857 0.33671,0.33672 1.09185,-0.33671 1.42857,0 0.67343,0.67344 -0.42592,2.00531 0,2.85715 0.30117,0.60234 1.1274,0.82623 1.42857,1.42857 0.45308,0.90616 -0.46402,6.21482 0,7.14286 0.30117,0.60233 1.1274,0.82623 1.42857,1.42857 0.42592,0.85183 -0.67343,2.1837 0,2.85714 0.33672,0.33672 1.09186,-0.33672 1.42857,0 0.33672,0.33672 -0.33671,1.09185 0,1.42857 0.33672,0.33672 1.09186,0.33672 1.42857,0 0.33672,-0.33672 -0.33671,-1.09185 0,-1.42857 0.33672,-0.33672 1.00266,0.21296 1.42858,0 0.27345,-0.13673 5.57755,-5.44083 5.71428,-5.71429 0.21296,-0.42591 -0.21296,-1.00265 0,-1.42857 0.30117,-0.60234 1.05502,-0.86824 1.42857,-1.42857 0.59064,-0.88596 0.83793,-1.97118 1.42857,-2.85714 0.82181,-1.23272 3.16988,-3.16988 4.28572,-4.28572 0.47619,-0.47619 1.1274,-0.82623 1.42857,-1.42857 0.21296,-0.42592 -0.21296,-1.00265 0,-1.42857 0.30117,-0.60234 0.95238,-0.95238 1.42857,-1.42857 0.47619,-0.47619 0.82623,-1.1274 1.42857,-1.42857 0.0747,-0.0374 4.21098,-0.0374 4.28572,0 0.60234,0.30117 1.1274,0.82623 1.42857,1.42857 0.21296,0.42592 -0.21296,1.00265 0,1.42857 0.30117,0.60234 1.21561,0.7897 1.42857,1.42857 0.30117,0.90351 0,1.90476 0,2.85715 0,0.47619 -0.21296,1.00265 0,1.42857 0.30117,0.60234 1.21561,0.78969 1.42857,1.42857 0.002,0.006 -10e-4,4.28435 0,4.28571 0.33672,0.33672 1.09186,-0.33671 1.42857,0 0.33672,0.33672 -0.33671,1.09186 0,1.42857 0.33672,0.33672 0.95238,0 1.42857,0 0.47619,0 0.95239,0 1.42858,0 0.47619,0 0.95238,0 1.42857,0 0.47619,0 1.00265,0.21296 1.42857,0 1.20468,-0.60233 1.65246,-2.2548 2.85714,-2.85714 0.42592,-0.21296 1.00266,0.21296 1.42857,0 0.3793,-0.18965 4.09607,-3.90641 4.28572,-4.28571 0.21296,-0.42592 -0.21296,-1.00266 0,-1.42857 0.18965,-0.37931 3.90641,-4.09607 4.28571,-4.28572 2.53968,-1.26984 0.79365,0.79365 1.42857,1.42857 0.33672,0.33672 1.09186,-0.33671 1.42857,0 0.33672,0.33672 -0.33671,1.09186 0,1.42857 0.33672,0.33672 1.09186,-0.33671 1.42858,0 0.33671,0.33672 -0.33672,1.09186 0,1.42858 0.0459,0.0459 3.93924,0 4.28571,0 0.47619,0 0.95238,0 1.42857,0 0.47619,0 1.09186,0.33671 1.42857,0 0.33672,-0.33672 -0.33671,-1.09186 0,-1.42858 0.33672,-0.33671 1.09186,0.33672 1.42857,0 0.33672,-0.33671 -0.21295,-1.00265 0,-1.42857 0.30117,-0.60234 1.12741,-0.82623 1.42858,-1.42857 0.42591,-0.85183 -0.42592,-2.00531 0,-2.85714 0.30117,-0.60234 1.1274,-0.82623 1.42857,-1.42857 0.21296,-0.42592 0,-0.95238 0,-1.42857 0,-0.4762 0,-0.95239 0,-1.42858 0,-0.47619 0.21296,-1.00265 0,-1.42857 -0.30117,-0.60234 -1.90476,-0.95238 -1.42857,-1.42857 0.59794,-0.59795 1.3668,2.11197 2.85714,2.85714 0.42592,0.21296 1.00265,-0.21295 1.42857,0 1.71429,0.85715 2.57143,3.42858 4.28571,4.28572 0.42592,0.21296 0.97682,-0.15059 1.42858,0 1.01015,0.33672 1.82414,1.17032 2.85714,1.42857 0.92394,0.23099 1.95363,-0.30117 2.85714,0 0.63888,0.21296 0.7897,1.21561 1.42857,1.42857 1.80702,0.60234 3.8664,-0.46197 5.71429,0 1.033,0.25825 1.82414,1.17032 2.85714,1.42857 1.38592,0.34648 2.93045,-0.45175 4.28572,0 1.01015,0.33672 1.82414,1.17032 2.85714,1.42857 1.38592,0.34648 2.93045,-0.45175 4.28571,0 1.01016,0.33672 1.84699,1.09186 2.85715,1.42858 0.9035,0.30116 2.0053,-0.42592 2.85714,0 0.60234,0.30116 0.82623,1.1274 1.42857,1.42857 0.89789,0.44894 4.8164,-0.44895 5.71429,0 1.16159,0.58079 1.18201,2.26613 2.85714,1.42857 0.60234,-0.30117 0.82623,-1.1274 1.42857,-1.42857 0.56642,-0.28321 3.99366,0.29205 4.28571,0 0.33672,-0.33672 -0.33671,-1.09186 0,-1.42857 0.33672,-0.33672 1.09186,0.33671 1.42858,0 0.33671,-0.33672 0,-0.95239 0,-1.42858 0,-0.47619 0,-0.95238 0,-1.42857 0,-0.95238 0.30117,-1.95363 0,-2.85714 -0.33672,-1.01015 -1.09186,-1.84699 -1.42858,-2.85714 -0.15058,-0.45176 0.15059,-0.97682 0,-1.42857 -0.99608,-2.98825 -3.115,-5.64466 -4.28571,-8.57143 -0.55926,-1.39815 -0.65382,-2.99446 -1.42857,-4.28572 -0.69296,-1.15493 -2.16419,-1.70221 -2.85714,-2.85714 -0.77476,-1.29125 -0.65382,-2.99446 -1.42858,-4.28571 -0.69295,-1.15494 -2.04902,-1.77965 -2.85714,-2.85715 -0.63888,-0.85183 -0.83793,-1.97118 -1.42857,-2.85714 -0.37355,-0.56033 -1.05502,-0.86824 -1.42857,-1.42857 -0.59064,-0.88596 -0.67565,-2.10422 -1.42857,-2.85714 -0.33672,-0.33672 -1.09186,0.33671 -1.42857,0 -0.33672,-0.33672 0.33671,-1.09186 0,-1.42858 -0.33672,-0.33671 -1.42858,0.47619 -1.42858,0 0,-0.47619 0.95239,0 1.42858,0 0.47619,0 0.95238,0 1.42857,0 0.47619,0 1.00265,-0.21295 1.42857,0 0.60234,0.30117 0.78969,1.21562 1.42857,1.42858 1.80702,0.60233 3.90727,-0.60234 5.71429,0 0.63887,0.21295 0.78969,1.21561 1.42857,1.42857 0.90351,0.30117 1.93319,-0.23099 2.85714,0 1.033,0.25825 1.82414,1.17032 2.85714,1.42857 1.08638,0.27159 5.94659,0 7.14286,0 0.47619,0 0.95238,0 1.42857,0 0.47619,0 1.00266,0.21296 1.42857,0 0.60234,-0.30117 0.82624,-1.1274 1.42857,-1.42857 0.42592,-0.21296 1.00266,0.21296 1.42858,0 3.15865,-1.57933 0.44331,-0.88664 1.42857,-2.85715 0.30117,-0.60233 1.1274,-0.82623 1.42857,-1.42857 0.21296,-0.42592 0,-0.95238 0,-1.42857 0,-0.47619 0.21296,-1.00265 0,-1.42857 -0.30117,-0.60234 -1.21561,-0.7897 -1.42857,-1.42857 -0.30117,-0.90351 0.30117,-1.95364 0,-2.85714 -0.21296,-0.63888 -1.05502,-0.86824 -1.42857,-1.42858 -0.59065,-0.88596 -0.95239,-1.90476 -1.42858,-2.85714 -0.95238,-0.95238 -2.04902,-1.77965 -2.85714,-2.85714 -0.63888,-0.85184 -0.78969,-2.00531 -1.42857,-2.85714 -0.80812,-1.0775 -1.90476,-1.90477 -2.85714,-2.85715 -2.38096,-2.38095 -4.76191,-4.7619 -7.14286,-7.14285 -1.90476,-1.90477 -3.80952,-3.80953 -5.71429,-5.71429 -0.47619,-0.47619 -1.1274,-0.82623 -1.42857,-1.42857 -0.21296,-0.42592 0,-0.95238 0,-1.42857 -0.47619,-0.47619 -1.1274,-0.82624 -1.42857,-1.42857 -0.21296,-0.42592 0.33672,-1.09186 0,-1.42858 -0.33672,-0.33671 -1.09185,0.33672 -1.42857,0 -0.14286,-0.14285 -0.14286,-4.14285 0,-4.28571 0.33672,-0.33672 1.09185,0.33672 1.42857,0 0.33672,-0.33672 -0.33672,-1.09185 0,-1.42857 0.0459,-0.0459 3.93925,0 4.28572,0 0.47619,0 1.09185,-0.33672 1.42857,0 0.33671,0.33672 -0.47619,1.42857 0,1.42857 0.67343,0 0.82623,-1.1274 1.42857,-1.42857 0.42592,-0.21296 1.09185,0.33672 1.42857,0 0.33672,-0.33672 0,-0.95238 0,-1.42857 0,-0.98646 0.21717,-5.27995 0,-5.71429 -0.30117,-0.60234 -1.05502,-0.86824 -1.42857,-1.42857 -0.59064,-0.88596 -0.95238,-1.90476 -1.42857,-2.85714 -0.95297,-1.90594 -1.90418,-3.80835 -2.85715,-5.71429 -0.47619,-0.95238 -0.78969,-2.00531 -1.42857,-2.85714 -1.61624,-2.15499 -4.32836,-3.40442 -5.71428,-5.71429 -0.77475,-1.29125 -0.65382,-2.99446 -1.42857,-4.28571 -1.38592,-2.30986 -4.09805,-3.5593 -5.71429,-5.71429 -0.63888,-0.85183 -0.95238,-1.90476 -1.42857,-2.85714 -0.47619,-0.95238 -0.83793,-1.97118 -1.42857,-2.85714 -0.86697,-1.30045 -3.65262,-3.01952 -4.28572,-4.28572 -0.21296,-0.42592 0.33672,-1.09185 0,-1.42857 -0.33671,-0.33672 -1.09185,0.33672 -1.42857,0 -0.33672,-0.33672 -0.33672,-1.09185 0,-1.42857 0.33672,-0.33672 1.00266,-0.21296 1.42857,0 0.60234,0.30117 0.82624,1.1274 1.42857,1.42857 0.85184,0.42592 2.00531,-0.42592 2.85715,0 3.53058,1.76529 -0.49311,1.42857 2.85714,1.42857 0.47619,0 0.95238,0 1.42857,0 0.47619,0 1.42857,0.47619 1.42857,0 0,-0.67343 -0.95238,-0.95238 -1.42857,-1.42857 -1.80229,-1.80229 -3.72402,-4.22159 -5.71428,-5.71428 -0.85184,-0.63888 -2.00531,-0.7897 -2.85715,-1.42858 -1.07749,-0.80812 -1.90476,-1.90476 -2.85714,-2.85714 -0.95238,-0.95238 -1.90476,-1.90476 -2.85714,-2.85714 -3.80953,-3.80953 -7.61905,-7.61905 -11.42857,-11.42857 -0.95239,-0.95238 -1.90477,-1.90477 -2.85715,-2.85715 -0.47619,-0.47619 -0.86824,-1.05501 -1.42857,-1.42857 -0.88596,-0.59064 -1.97118,-0.83793 -2.85714,-1.42857 -0.56033,-0.37355 -0.86824,-1.05502 -1.42857,-1.42857 -0.88597,-0.59064 -1.97118,-0.83793 -2.85715,-1.42857 -3.55348,-2.36899 -0.16412,-0.32826 -1.42857,-2.85714 -0.95755,-1.9151 -1.89959,-0.94205 -2.85714,-2.85715 -0.21296,-0.42592 -0.33672,-1.09185 0,-1.42857 0.33672,-0.33672 1.09185,-0.33672 1.42857,0 0.33672,0.33672 -0.33672,1.09186 0,1.42857 0.33672,0.33672 1.00266,-0.21296 1.42857,0 0.60234,0.30117 0.82624,1.1274 1.42857,1.42857 0.42592,0.21296 1.00266,-0.21295 1.42858,0 0.60233,0.30117 0.82623,1.12741 1.42857,1.42858 0.42591,0.21295 0.97681,-0.15059 1.42857,0 1.01015,0.33671 1.84699,1.09185 2.85714,1.42857 0.92387,0.30795 5.583,0 7.14286,0 0.95238,0 1.90476,0 2.85714,0 0.47619,0 1.00266,0.21296 1.42857,0 0.60234,-0.30117 0.82624,-1.12741 1.42857,-1.42857 0.42592,-0.21296 1.09186,0.33671 1.42858,0 0.33671,-0.33672 0,-0.95239 0,-1.42858 0,-0.47619 0.15058,-0.97681 0,-1.42857 -0.33672,-1.01015 -1.09186,-1.84699 -1.42858,-2.85714 -0.15058,-0.45175 0.15059,-0.97682 0,-1.42857 -0.33671,-1.01015 -0.95238,-1.90476 -1.42857,-2.85714 -0.47619,-0.95239 -0.78969,-2.00531 -1.42857,-2.85715 -0.80812,-1.07749 -2.01576,-1.80541 -2.85714,-2.85714 -2.14512,-2.68139 -3.56917,-5.89004 -5.71429,-8.57143 -8.14239,-10.17799 3.07974,6.04819 -5.71428,-7.14286 -0.95238,-1.42857 -1.90476,-2.85714 -2.85715,-4.28571 -0.47619,-1.42857 -0.65382,-2.99446 -1.42857,-4.28571 -0.69296,-1.15494 -2.04902,-1.77965 -2.85714,-2.85715 -0.63888,-0.85183 -0.67565,-2.10422 -1.42857,-2.85714 -0.75292,-0.75292 -1.97118,-0.83793 -2.85714,-1.42857 -1.12067,-0.74711 -1.90477,-1.90476 -2.85715,-2.85714 -0.47619,-0.4762 -1.42857,-0.75514 -1.42857,-1.42858 0,-0.47619 1.00266,-0.21295 1.42857,0 0.60234,0.30117 0.82624,1.12741 1.42857,1.42858 0.42592,0.21295 1.00266,-0.21296 1.42858,0 4.73797,4.73797 -1.34687,-0.67344 2.85714,1.42857 1.20468,0.60234 1.57939,2.43122 2.85714,2.85714 0.90351,0.30117 1.95364,-0.30117 2.85714,0 0.63888,0.21296 0.82624,1.1274 1.42858,1.42857 0.12178,0.0609 5.5925,0.0609 5.71428,0 0.60234,-0.30117 1.1274,-0.82623 1.42857,-1.42857 0.83757,-1.67513 -0.84777,-1.69555 -1.42857,-2.85714 -0.21296,-0.42592 0,-0.95238 0,-1.42857 -0.47619,-0.95239 -0.83793,-1.97118 -1.42857,-2.85715 -0.37355,-0.56033 -1.05502,-0.86824 -1.42857,-1.42857 -1.75406,-2.63109 -2.65792,-5.85843 -4.28572,-8.57143 -0.88335,-1.47225 -1.78458,-2.94502 -2.85714,-4.28571 -0.84138,-1.05173 -2.16418,-1.70221 -2.85714,-2.85714 -0.77475,-1.29126 -0.65382,-2.99447 -1.42857,-4.28572 -0.69296,-1.15493 -2.16419,-1.70221 -2.85715,-2.85714 -0.77475,-1.29125 -0.65382,-2.99446 -1.42857,-4.28572 -0.69296,-1.15493 -2.04902,-1.77964 -2.85714,-2.85714 -0.63888,-0.85183 -0.95238,-1.90476 -1.42857,-2.85714 -0.47619,-0.95238 -1.09186,-1.84699 -1.42857,-2.85714 -0.15059,-0.45176 0.21296,-1.00266 0,-1.42858 -0.30117,-0.60233 -1.1274,-0.82623 -1.42857,-1.42857 -0.42592,-0.85183 0.67343,-2.18371 0,-2.85714 -0.33672,-0.33672 -1.09186,0.33672 -1.42858,0 -0.33671,-0.33672 -0.33671,-1.09185 0,-1.42857 0.33672,-0.33672 0.95239,0 1.42858,0 0.47619,0 1.09185,-0.33672 1.42857,0 0.33671,0.33672 -0.33672,1.09185 0,1.42857 0.67343,0.67343 2.1837,-0.67344 2.85714,0 0.33672,0.33672 -0.33672,1.09185 0,1.42857 0.33672,0.33672 0.95238,0 1.42857,0 1.47788,0 1.9745,0.33672 2.85714,-1.42857 0.18477,-0.36953 0.17612,-8.04307 0,-8.57143 -0.33671,-1.01015 -0.83793,-1.97118 -1.42857,-2.85714 -0.37355,-0.56033 -1.21561,-0.7897 -1.42857,-1.42857 -0.30117,-0.90351 0.30117,-1.95364 0,-2.85715 -0.21296,-0.63887 -1.05502,-0.86824 -1.42857,-1.42857 -0.59064,-0.88596 -0.95238,-1.90476 -1.42857,-2.85714 -0.95238,-0.95238 -2.04902,-1.77965 -2.85714,-2.85714 -0.63888,-0.85184 -0.83793,-1.97118 -1.42858,-2.85715 -0.37355,-0.56033 -1.05501,-0.86824 -1.42857,-1.42857 -1.18128,-1.77192 -1.67586,-3.94236 -2.85714,-5.71428 -0.37355,-0.56033 -0.95238,-0.95238 -1.42857,-1.42857 -0.47619,-0.4762 -0.82623,-1.12741 -1.42857,-1.42858 -0.42592,-0.21295 -1.09186,0.33672 -1.42857,0 -0.33672,-0.33671 -0.47619,-1.42857 0,-1.42857 0.67343,0 0.82623,1.1274 1.42857,1.42857 0.42591,0.21296 1.09185,-0.33671 1.42857,0 2.95576,2.95577 -4.5168,-0.11554 1.42857,2.85715 0.42592,0.21296 1.00265,-0.21296 1.42857,0 4.73798,4.73797 -1.34687,-0.67344 2.85714,1.42857 0.60234,0.30117 0.82624,1.1274 1.42858,1.42857 0.42591,0.21296 1.00265,-0.21296 1.42857,0 0.60234,0.30117 0.75513,1.42857 1.42857,1.42857 0.47619,0 0,-0.95238 0,-1.42857 0,-0.47619 0,-0.95238 0,-1.42857 0,-0.93873 0.26866,-3.47972 0,-4.28572 -0.47619,-0.95238 -0.95238,-1.90476 -1.42857,-2.85714 0,-0.95238 0.30117,-1.95363 0,-2.85714 -0.21296,-0.63888 -0.95238,-0.95238 -1.42857,-1.42857 -0.47619,-0.95238 -1.21975,-1.81303 -1.42858,-2.85715 -0.28016,-1.40083 0.28017,-2.88488 0,-4.28571 -0.20882,-1.04412 -0.95238,-1.90476 -1.42857,-2.85714 -0.95238,-1.90477 -2.06623,-3.73702 -2.85714,-5.71429 -3.53058,-8.82644 0.49311,-0.44235 -2.85714,-7.14286 -0.95238,-1.90476 -1.90476,-3.80952 -2.85715,-5.71428 -0.47619,-0.95238 -0.83793,-1.97118 -1.42857,-2.85714 -0.74711,-1.12067 -2.2548,-1.65247 -2.85714,-2.85715 -0.42592,-0.85183 0.42592,-2.0053 0,-2.85714 -0.30117,-0.60234 -1.42857,-0.75514 -1.42857,-1.42857 0,-0.47619 1.09185,-0.33672 1.42857,0 0.33672,0.33672 -0.33672,1.09185 0,1.42857 0.67344,0.67343 2.18371,-0.67344 2.85714,0 0.33672,0.33672 -0.33671,1.09185 0,1.42857 0.67344,0.67344 2.00531,-0.42592 2.85715,0 0.37192,0.18597 1.74039,2.54532 2.85714,1.42857 0.33672,-0.33671 0,-0.95238 0,-1.42857 0,-0.93872 0.26866,-3.47972 0,-4.28571 -0.33672,-1.01016 -1.09186,-1.84699 -1.42857,-2.85715 -1.41754,-4.252613 3.38267,2.93116 -1.42857,-4.28571 -0.37356,-0.560332 -0.95239,-0.952381 -1.42858,-1.428572 -0.47619,-0.952381 -0.83793,-1.97118 -1.42857,-2.857143 -0.37355,-0.560331 -1.21561,-0.789694 -1.42857,-1.428571 -1.76529,-5.295867 1.92168,-0.93546 -1.42857,-4.285714 -0.47619,-0.476191 -0.95238,-0.952381 -1.42857,-1.428572 0,-0.47619 0.33672,-1.091854 0,-1.428571 -0.33672,-0.336718 -1.09186,0.336717 -1.42857,0 -0.33672,-0.336718 0.33671,-1.091854 0,-1.428572 -0.33672,-0.336717 -1.90476,0 -1.42857,0 6.50326,0 0.0817,-0.673435 4.28571,1.428572 1.14286,0.571428 3.14286,-0.571429 4.28571,0 0.37193,0.185964 1.7404,2.545323 2.85715,1.428571 0.20146,-0.201465 0.14652,-3.992674 0,-4.285714 -0.30117,-0.602339 -1.21562,-0.789695 -1.42857,-1.428571 -0.30117,-0.903508 0.30117,-1.953635 0,-2.857143 -0.21296,-0.638877 -1.12741,-0.826233 -1.42858,-1.428572 -0.21295,-0.425917 0.15059,-0.976817 0,-1.428571 -0.33671,-1.010153 -0.95238,-1.904762 -1.42857,-2.857143 -0.47619,-0.952381 -0.83793,-1.97118 -1.42857,-2.857143 -0.37355,-0.560332 -1.05502,-0.868239 -1.42857,-1.428571 -0.59064,-0.885963 -0.83793,-1.971181 -1.42857,-2.857143 -0.86697,-1.30045 -3.65262,-3.019517 -4.28572,-4.285714 -0.21295,-0.425918 0.33672,-1.091854 0,-1.428572 -0.33671,-0.336717 -1.09185,0.336718 -1.42857,0 -0.33671,-0.336717 -0.47619,-1.428571 0,-1.428571 0.47619,0 -0.33671,1.091854 0,1.428571 0.67344,0.673435 2.18371,-0.673435 2.85715,0 0.33671,0.336718 -0.33672,1.091854 0,1.428572 0.67343,0.673435 2.1837,-0.673435 2.85714,0 0.33672,0.336717 -0.33672,1.091854 0,1.428571 0.14286,0.142857 4.14286,0.142857 4.28571,0 0.33672,-0.336717 0,-0.952381 0,-1.428571 0,-0.476191 0,-0.952381 0,-1.428572 0,-0.47619 0.33672,-1.091854 0,-1.428571 -0.33671,-0.336718 -1.09185,0.336717 -1.42857,0 -0.33672,-0.336718 0.21296,-1.002654 0,-1.428572 -0.95866,-1.917326 -1.89848,-0.939816 -2.85714,-2.857143 -0.21296,-0.425917 0.21296,-1.002653 0,-1.428571 -0.70288,-1.405755 -5.01141,-4.30853 -5.71429,-5.714286 -0.57143,-1.142857 0.57143,-3.142857 0,-4.285714 -3.11216,-6.224318 -1.42857,10.248007 -1.42857,-8.571429 z"
       id="path3079"
       inkscape:connector-curvature="0" />
    <path
       style="fill:#83f58e;fill-opacity:1;fill-rule:evenodd;stroke:#000000;stroke-width:0.67898315px;stroke-linecap:butt;stroke-linejoin:miter;stroke-opacity:1"
       d="m -106.5826,427.15934 c 12.358509,0.48423 33.551209,-2.38801 49.642789,-2.38801 23.97587,0 47.5513596,-4.77602 72.100246,-4.77602 42.655772,0 84.766441,-1.59202 127.652885,-1.59202 42.66616,0 85.99655,-2.388 128.83487,-2.388 58.31058,0 116.62116,0 174.93174,0 61.85649,0 123.71299,0 185.56948,0 65.20609,0 130.75389,-1.59201 196.20722,-1.59201 19.15723,0 17.80714,2.57085 13.00168,-8.75604 -2.22439,-5.24309 -7.75313,-6.55746 -9.45577,-11.14405 -1.74892,-4.71126 0.47508,-8.11615 -3.54591,-13.53206 -4.64619,-6.25799 -15.82401,-7.40768 -23.63943,-4.77602 -7.41462,2.4967 -8.306,-6.13884 -14.18365,-12.73606 -4.06478,-4.56241 -13.83379,-5.57202 -21.27548,-5.57202 -11.12505,0 -27.65092,6.00618 -33.09519,8.75604 -5.13097,2.59159 -7.99343,-6.85378 -13.00169,-9.55205 -7.59852,-4.0938 -18.15047,-4.7302 -27.18534,-7.16404 -1.41272,-0.38055 3.4033,7.49002 -8.2738,1.59202 -17.06816,-8.62096 -46.07087,-14.32807 -62.64447,-14.32807 -1.57596,0 3.15193,0 4.72789,0 9.79985,0 -11.09461,14.68938 -15.36563,3.18401 -2.48905,-6.70505 -41.81438,-28.35618 -63.82645,-13.53205 -7.64716,5.15002 -16.56122,12.75442 -21.27548,19.10408 -0.35916,0.48376 -14.06255,-8.10292 -24.82139,-9.55204 -4.03296,-0.54321 -20.80928,20.5428 -23.63943,23.0841 -8.00879,7.19141 9.66164,0.86532 -16.54759,-7.96003 -13.10054,-4.41131 -44.07653,-13.4025 -49.64279,1.59201 -5.26064,14.17119 0.99812,7.83622 -10.63774,0 -14.65449,-9.86913 -53.83131,-0.83337 -63.82645,4.77602 -11.63084,6.52736 0.5659,15.28084 -7.09183,2.38801 -6.50571,-10.95324 -23.95992,-14.6033 -37.82308,-12.73606 -8.48189,1.14244 -8.55136,10.12892 -13.00168,15.12406 -3.16637,3.55402 -6.69901,-7.253 -11.81972,-9.55203 -18.5799,-8.34181 -40.73271,-11.66443 -59.09856,-2.38801 -11.78428,5.95212 -7.94058,19.26709 -14.18364,8.75603 -5.69574,-9.58953 -42.27806,-17.69588 -54.37069,-9.55205 -8.54203,5.75268 -17.37636,20.89277 -23.63942,10.34806 -5.00093,-8.41974 -23.245591,-18.57331 -34.277165,-11.14406 -9.657538,6.50392 -21.809753,19.30042 -28.367308,11.94006 -8.598762,-9.65146 -28.931263,-29.96329 -47.2788484,-20.6961 -13.228267,6.68149 -24.7160696,22.14623 -31.9132196,31.84015 -3.61528,4.86944 -10.08039,-8.67353 -16.5476,-11.94005 -25.84421,-13.05367 -27.39788,-22.00183 -41.36899,-3.18402 -1.11438,1.50096 -1.57596,3.18402 -2.36394,4.77602 -4.91786,9.93585 -11.74907,-0.77221 -26.003369,-5.57202 -7.98679,-2.68937 -11.19901,8.716 -13.00168,11.14405 -3.54873,4.7798 -1.86488,15.67246 0,20.69609 1.89996,5.11816 3.51624,7.92008 7.09182,12.73605 2.29415,3.09002 2.56621,8.50492 3.54591,11.14405 2.08558,5.61816 1.36151,9.45632 4.72789,15.12408 z"
       id="path2431"
       inkscape:connector-curvature="0" />
    <path
       style="fill:#439945;fill-opacity:1;fill-rule:evenodd;stroke:#000000;stroke-width:1px;stroke-linecap:butt;stroke-linejoin:miter;stroke-opacity:1"
       d="M -124.28571,408.07647 C -124.28571,399.01633 -125.71429,426.15918 -125.71429,435.21933 C -125.71429,457.02052 -125.71429,479.30193 -125.71429,500.93361 C -125.71429,514.6458 -128.47023,528.58245 -125.71429,542.36218 C -123.59479,552.95969 -127.14286,568.07682 -127.14286,579.50504 C -127.14286,591.31412 -127.15143,605.25361 -130,616.6479 C -132.6333,627.18111 -131.42857,644.50454 -131.42857,655.21933 C -131.42857,665.76787 -132.85714,675.88623 -132.85714,686.6479 C -132.85714,695.69552 -132.85714,704.74313 -132.85714,713.79075 C -132.85714,729.61388 -131.42857,744.98813 -131.42857,760.93361 C -131.42857,768.55266 -131.42857,776.17171 -131.42857,783.79075 C -131.42857,794.83877 -128.02687,798.82614 -125.71429,808.07647 C -123.53472,816.79475 -93.651309,813.91763 -87.142857,815.21933 C -84.761905,815.69552 -82.380952,816.17171 -80,816.6479 C -64.834306,819.68104 -45.504228,818.07647 -30,818.07647 C -12.857143,818.07647 4.2857143,818.07647 21.428571,818.07647 C 42.380952,818.07647 63.333333,818.07647 84.285714,818.07647 C 103.99663,818.07647 123.17535,819.50504 142.85714,819.50504 C 176.66667,819.50504 210.47619,819.50504 244.28571,819.50504 C 260,819.50504 275.71429,819.50504 291.42857,819.50504 C 293.80952,819.50504 296.19048,819.50504 298.57143,819.50504 C 322.38095,819.50504 346.19048,819.50504 370,819.50504 C 410.99535,819.50504 450.54964,822.36218 491.42857,822.36218 C 542.838,822.36218 593.31583,825.21933 644.28571,825.21933 C 669.52381,825.21933 694.76191,825.21933 720,825.21933 C 742.74869,825.21933 765.71516,826.6479 788.57143,826.6479 C 800.47629,826.6479 812.89213,827.49804 824.28571,825.21933 C 831.23999,823.82847 840.03076,825.21933 847.14286,825.21933 C 851.96797,825.21933 850,805.86645 850,800.93361 C 850,786.08479 857.14286,775.55121 857.14286,762.36218 C 857.14286,748.75561 858.89264,737.89896 861.42857,725.21933 C 864.53246,709.69991 864.28571,693.99302 864.28571,678.07647 C 864.28571,659.79128 864.28571,642.53991 864.28571,623.79075 C 864.28571,606.75506 865.60378,588.84201 862.85714,572.36218 C 860.90853,560.67048 844.07496,563.41594 851.42857,526.6479 C 854.93043,509.13859 849.33786,489.95858 852.85714,472.36218 C 855.83661,457.46482 854.28571,437.4466 854.28571,422.36218 C 854.28571,410.15492 855.71429,398.5049 855.71429,386.6479 C 855.71429,374.0469 855.03392,373.18986 842.85714,375.21933 C 817.64499,379.42135 795.55528,390.93361 770,390.93361 C 751.53368,390.93361 733.8184,392.36218 715.71429,392.36218 C 680,392.36218 644.28571,392.36218 608.57143,392.36218 C 589.04762,392.36218 569.52381,392.36218 550,392.36218 C 534.28571,392.36218 518.57143,392.36218 502.85714,392.36218 C 490,392.36218 477.14286,392.36218 464.28571,392.36218 C 448.89626,392.36218 431.5422,393.81348 417.14286,390.93361 C 405.0372,388.51248 389.43265,390.93361 377.14286,390.93361 C 366.19048,390.93361 355.2381,390.93361 344.28571,390.93361 C 330.47619,390.93361 316.66667,390.93361 302.85714,390.93361 C 290,390.93361 277.14286,390.93361 264.28571,390.93361 C 244.02549,390.93361 224.56287,389.50504 204.28571,389.50504 C 193.80952,389.50504 183.33333,389.50504 172.85714,389.50504 C 159.52381,389.50504 146.19048,389.50504 132.85714,389.50504 C 117.4013,389.50504 102.37576,390.93361 87.142857,390.93361 C 71.572004,390.93361 57.056266,392.36218 41.428571,392.36218 C 25.091404,392.36218 9.4589367,393.79075 -7.1428571,393.79075 C -19.89693,393.79075 -32.602029,395.21933 -45.714286,395.21933 C -57.241561,395.21933 -70.226673,395.83609 -81.428571,398.07647 C -90.769841,399.94472 -102.11887,399.50504 -111.42857,399.50504 C -122.79623,399.50504 -123.08827,408.47562 -132.85714,405.21933 C -135.71429,404.26694 -127.14286,407.12409 -124.28571,408.07647 z"
       id="path3215" />
  </g>
</svg>
