<?xml version="1.0" encoding="UTF-8" standalone="no"?>
<!-- Created with Inkscape (http://www.inkscape.org/) -->
<svg
   xmlns:dc="http://purl.org/dc/elements/1.1/"
   xmlns:cc="http://creativecommons.org/ns#"
   xmlns:rdf="http://www.w3.org/1999/02/22-rdf-syntax-ns#"
   xmlns:svg="http://www.w3.org/2000/svg"
   xmlns="http://www.w3.org/2000/svg"
   xmlns:sodipodi="http://sodipodi.sourceforge.net/DTD/sodipodi-0.dtd"
   xmlns:inkscape="http://www.inkscape.org/namespaces/inkscape"
   width="744.09448819"
   height="1052.3622047"
   id="svg2"
   sodipodi:version="0.32"
   inkscape:version="0.46"
   sodipodi:docname="Dusty1.svg"
   inkscape:output_extension="org.inkscape.output.svg.inkscape">
  <defs
     id="defs4">
    <inkscape:perspective
       sodipodi:type="inkscape:persp3d"
       inkscape:vp_x="0 : 526.18109 : 1"
       inkscape:vp_y="0 : 1000 : 0"
       inkscape:vp_z="744.09448 : 526.18109 : 1"
       inkscape:persp3d-origin="372.04724 : 350.78739 : 1"
       id="perspective10" />
  </defs>
  <sodipodi:namedview
     id="base"
     pagecolor="#ffffff"
     bordercolor="#666666"
     borderopacity="1.0"
     gridtolerance="10000"
     guidetolerance="10"
     objecttolerance="10"
     inkscape:pageopacity="0.0"
     inkscape:pageshadow="2"
     inkscape:zoom="0.6357127"
     inkscape:cx="372.04724"
     inkscape:cy="526.18109"
     inkscape:document-units="px"
     inkscape:current-layer="g3453"
     showgrid="false"
     inkscape:window-width="1280"
     inkscape:window-height="885"
     inkscape:window-x="0"
     inkscape:window-y="25" />
  <metadata
     id="metadata7">
    <rdf:RDF>
      <cc:Work
         rdf:about="">
        <dc:format>image/svg+xml</dc:format>
        <dc:type
           rdf:resource="http://purl.org/dc/dcmitype/StillImage" />
      </cc:Work>
    </rdf:RDF>
  </metadata>
  <g
     inkscape:label="Layer 1"
     inkscape:groupmode="layer"
     id="layer1">
    <g
       id="g3453">
      <path
         id="path3283"
         d="M 375.956,331.91094 C 372.44512,335.42181 386.18857,324.81923 393.25941,313.03449 C 396.34975,307.88392 398.4701,302.61311 401.1246,297.30411 C 404.92461,289.7041 406.94107,286.62252 408.98979,278.42766 C 410.85852,270.95271 410.56282,263.00589 410.56282,254.8321 C 410.56282,247.03297 405.11618,243.0933 401.1246,239.10172 C 394.30791,232.28503 386.62795,235.33878 382.24815,237.52868 C 376.14513,240.58019 370.9869,245.64385 364.94473,251.68602 C 360.49551,256.13525 351.69615,248.87209 346.06828,251.68602 C 339.14044,255.14994 337.09624,257.68645 335.05702,265.84336 C 333.39857,272.47715 335.57469,283.64445 336.63006,287.86589 C 338.24733,294.33499 341.96628,298.53834 344.49524,303.59626 C 348.07026,310.74629 351.39937,315.2195 355.50651,319.32664 C 361.35871,325.17884 365.44717,327.70741 375.956,331.91094 z"
         style="fill:#eda585;fill-opacity:1;fill-rule:evenodd;stroke:#000000;stroke-width:3;stroke-linecap:butt;stroke-linejoin:miter;stroke-opacity:1;stroke-miterlimit:4;stroke-dasharray:none;opacity:1;color:#000000;marker:none;marker-start:none;marker-mid:none;marker-end:none;stroke-dashoffset:0;visibility:visible;display:inline;overflow:visible;enable-background:accumulate" />
      <path
         id="path3311"
         d="M 442.02358,431.01231 C 443.54188,423.42078 436.48665,445.98747 431.01231,451.4618 C 426.00114,456.47298 419.39708,459.47798 413.7089,460.90003 C 408.69014,462.15472 397.59774,468.95561 391.68637,471.91129 C 384.68783,475.41056 379.37945,476.63041 371.23688,476.63041 C 363.3717,476.63041 355.50651,476.63041 347.64132,476.63041 C 339.91021,476.63041 331.05583,476.41663 325.61879,475.05737 C 316.76847,472.84479 316.59077,470.74846 311.46145,465.61914 C 306.96815,461.12584 298.64105,461.01808 292.585,464.0461 C 283.40855,468.63433 294.43733,478.34309 281.57374,471.91129 C 272.96045,467.60465 275.48422,464.88328 265.84336,462.47307 C 257.75139,460.45008 258.61777,472.89665 259.55121,476.63041 C 261.22016,483.3062 254.96728,475.48442 246.96691,473.48433 C 237.92274,471.22329 242.21048,489.14007 242.2478,489.21471 C 245.05975,494.8386 251.85821,496.37947 256.40514,498.65293 C 263.84106,502.37089 272.55701,501.79901 281.57374,501.79901 C 291.03623,501.79901 296.77859,500.48873 303.59626,497.07989 C 309.96739,493.89433 315.25797,493.93382 324.04575,493.93382 C 332.59645,493.93382 339.09613,495.50686 347.64132,495.50686 C 355.37243,495.50686 364.22681,495.29308 369.66385,493.93382 C 377.38523,492.00347 385.75078,492.6649 393.25941,490.78774 C 402.86941,488.38524 405.70732,487.77806 410.56282,482.92256 C 415.10613,478.37925 422.27789,476.10256 427.86624,471.91129 C 433.50618,467.68134 439.00456,460.64591 442.02358,454.60788 C 446.05923,446.53658 446.09157,441.1823 442.02358,431.01231 z"
         style="fill:#eda585;fill-opacity:1;fill-rule:evenodd;stroke:#000000;stroke-width:3;stroke-linecap:butt;stroke-linejoin:miter;stroke-opacity:1;stroke-miterlimit:4;stroke-dasharray:none;opacity:1;color:#000000;marker:none;marker-start:none;marker-mid:none;marker-end:none;stroke-dashoffset:0;visibility:visible;display:inline;overflow:visible;enable-background:accumulate" />
      <path
         id="path3285"
         d="M 465.61914,349.21436 C 459.64401,353.89318 456.94355,363.46723 454.60788,372.80992 C 452.65892,380.60575 451.82726,388.65152 449.88877,396.40549 C 447.90538,404.33902 447.06481,412.42042 445.16965,420.00105 C 443.04244,428.50989 443.91142,436.04525 442.02358,443.59662 C 440.09253,451.32079 438.84236,459.46757 437.30446,465.61914 C 435.30277,473.6259 434.56884,481.28076 432.58535,489.21471 C 430.77299,496.46414 428.18616,503.6654 426.2932,511.23723 C 424.52035,518.32865 421.83235,525.93455 420.00105,533.25976 C 417.96538,541.40244 415.50388,548.10236 413.7089,555.28229 C 411.77955,562.9997 410.89277,571.26593 408.98979,578.87785 C 407.39474,585.25804 405.57661,591.99635 402.69764,597.7543 C 399.29658,604.55641 399.82814,612.37836 397.97852,619.77683 C 396.12407,627.19465 396.40549,635.16507 396.40549,643.3724 C 396.40549,652.62627 396.48782,654.46599 402.69764,660.67581 C 407.46266,665.44083 411.47807,669.45625 415.28194,673.26011 C 420.48955,678.46772 426.58296,681.19774 432.58535,682.69834 C 439.92938,684.53434 445.99458,685.84441 454.60788,685.84441 C 463.18338,685.84441 470.04348,684.27137 478.20344,684.27137 C 482.70819,684.27137 493.83707,678.0276 497.07989,676.40619 C 506.41927,671.7365 512.78807,674.85535 519.10242,668.541 C 525.38504,662.25838 532.42382,661.51175 537.97887,655.9567 C 541.3765,652.55907 543.88698,642.56744 545.84406,638.65328 C 548.90055,632.5403 550.22812,625.83616 552.13621,618.20379 C 554.05358,610.53432 553.70925,602.75551 553.70925,594.60823 C 553.70925,586.05753 552.13621,579.55786 552.13621,571.01266 C 552.13621,563.48706 548.99014,555.92184 548.99014,547.4171 C 548.99014,539.60313 547.4171,532.24289 547.4171,523.82153 C 547.4171,514.62855 544.49136,508.97251 542.69799,501.79901 C 540.71271,493.8579 536.74257,487.41557 534.8328,479.77648 C 533.37838,473.95879 531.87282,466.36353 530.11369,459.32699 C 528.09701,451.26029 529.00985,445.47342 526.96761,437.30446 C 524.99803,429.42616 524.12488,421.21441 522.2485,413.7089 C 520.23941,405.67255 517.90744,397.9177 515.95635,390.11334 C 514.37601,383.79198 510.52317,379.24697 508.09116,374.38296 C 504.0117,366.22405 502.2654,362.73145 498.65293,355.50651 C 496.11829,350.43723 485.37758,347.64132 479.77648,347.64132 C 474.39199,347.64132 471.37696,348.06279 465.61914,349.21436 z"
         style="fill:#eda585;fill-opacity:1;fill-rule:evenodd;stroke:#000000;stroke-width:3;stroke-linecap:butt;stroke-linejoin:miter;stroke-opacity:1;stroke-miterlimit:4;stroke-dasharray:none;opacity:1;color:#000000;marker:none;marker-start:none;marker-mid:none;marker-end:none;stroke-dashoffset:0;visibility:visible;display:inline;overflow:visible;enable-background:accumulate" />
      <g
         id="g3406"
         transform="translate(223.07922,21.665749)">
        <path
           id="path3313"
           d="M 133.70821,467.19217 C 74.916296,464.36794 -41.635322,433.46335 -53.107633,512.4042 C -13.202403,571.64676 75.328666,546.47508 134.26047,538.34955 C 177.31095,522.44105 197.78633,469.07868 133.70821,467.19217 z"
           style="fill:#cdcdcd;fill-opacity:1;fill-rule:evenodd;stroke:#000000;stroke-width:3;stroke-linecap:butt;stroke-linejoin:miter;stroke-miterlimit:4;stroke-dasharray:none;stroke-opacity:1" />
        <g
           transform="matrix(0.9873947,-0.1582774,0.1582774,0.9873947,-202.47642,-144.05311)"
           id="g3342">
          <path
             style="fill:#cb985d;fill-opacity:1;fill-rule:evenodd;stroke:#000000;stroke-width:2;stroke-linecap:butt;stroke-linejoin:miter;stroke-miterlimit:4;stroke-dasharray:none;stroke-opacity:1"
             d="M 124.26997,633.93417 C 132.47236,635.98477 107.30375,635.02965 99.101371,637.08025 C 90.756132,639.16655 85.212494,639.30557 77.078844,643.3724 C 66.175035,648.8243 65.638529,646.66164 62.921506,657.52973 C 61.450174,663.41506 74.521983,667.11526 80.22492,668.541 C 92.039402,671.49462 81.301601,669.61768 89.663146,677.97922 C 94.842567,683.15865 98.869966,685.61301 103.82048,690.56352 C 109.47766,696.22071 117.5797,695.28264 125.84301,695.28264 C 129.51358,695.28264 136.0307,683.52191 138.42731,681.1253 C 142.69416,676.85845 155.32133,676.50853 162.02288,674.83315 C 170.32102,672.75861 174.49277,670.34285 177.75325,663.82188 C 180.81069,657.70701 166.56471,655.86806 160.44984,652.81062 C 154.00096,649.58618 146.63834,643.71824 141.57339,638.65328 C 137.25921,634.3391 130.35622,633.93417 124.26997,633.93417 z"
             id="path3317" />
          <path
             style="fill:#ff8490;fill-opacity:1;fill-rule:evenodd;stroke:#000000;stroke-width:2;stroke-linecap:butt;stroke-linejoin:miter;stroke-miterlimit:4;stroke-dasharray:none;stroke-opacity:1"
             d="M 168.31503,621.34987 C 163.19895,621.34987 147.96898,628.37682 140.00035,632.36113 C 131.12454,636.79904 122.15745,637.34999 113.25871,641.79936 C 105.76686,645.54528 98.127387,644.94543 89.663146,644.94543 C 82.04246,644.94543 72.366066,646.51689 66.067581,648.09151 C 57.304818,650.2822 53.207637,651.37541 47.191129,654.38366 C 41.706635,657.12591 36.271111,662.1576 33.03379,665.39492 C 28.806379,669.62233 42.963718,672.17877 47.191129,676.40619 C 53.216696,682.43175 58.00475,680.38819 61.348468,679.55226 C 63.880755,678.91919 67.397505,668.99504 75.505807,666.96796 C 84.121917,664.81393 88.157117,663.78838 94.382259,660.67581 C 100.00206,657.86591 107.29209,657.44835 113.25871,655.9567 C 120.73555,654.08749 129.39915,653.10136 136.85427,651.23758 C 142.58432,649.80507 149.22614,645.3918 157.30376,643.3724 C 165.43414,641.3398 171.62337,640.22632 179.32629,640.22632 C 190.50729,640.22632 188.14876,631.74537 184.0454,627.64202 C 182.76122,626.35784 170.71406,622.30948 168.31503,621.34987 z"
             id="path3321" />
          <path
             style="opacity:1;fill:#ff8490;fill-opacity:1;fill-rule:evenodd;stroke:#000000;stroke-width:2;stroke-linecap:butt;stroke-linejoin:miter;marker:none;marker-start:none;marker-mid:none;marker-end:none;stroke-miterlimit:4;stroke-dasharray:none;stroke-dashoffset:0;stroke-opacity:1;visibility:visible;display:inline;overflow:visible;enable-background:accumulate"
             d="M 188.76452,684.27137 C 186.64955,682.15641 172.58995,675.39757 168.31503,673.26011 C 162.59295,670.39907 157.29081,667.748 149.43858,663.82188 C 142.75548,660.48034 136.4212,650.80451 133.7082,648.09151 C 128.15587,642.53918 122.51695,641.61937 117.97782,637.08025 C 114.47794,633.58036 107.63635,630.56228 102.24745,629.21506 C 96.012614,627.65635 91.527584,620.70905 86.51707,618.20379 C 80.449099,615.16981 69.695103,615.33062 64.494543,616.63076 C 58.262933,618.18866 53.172919,624.16435 51.910242,629.21506 C 49.855707,637.4332 67.929054,634.86491 75.505807,638.65328 C 84.860214,643.33049 86.118724,647.10582 94.382259,651.23758 C 101.3315,654.71221 109.44161,659.55378 114.83175,662.24885 C 123.00563,666.33579 127.00389,669.80491 133.7082,674.83315 C 139.8673,679.45247 143.83769,687.9359 149.43858,692.13656 C 154.02795,695.5786 158.85675,701.55473 162.02288,704.72086 C 169.5506,712.24858 171.63825,705.41881 179.32629,701.57479 C 187.86169,697.30709 188.76452,693.29805 188.76452,684.27137 z"
             id="path3323" />
          <path
             style="opacity:1;fill:#f72034;fill-opacity:1;fill-rule:evenodd;stroke:#f2cccc;stroke-width:2;stroke-linecap:butt;stroke-linejoin:miter;marker:none;marker-start:none;marker-mid:none;marker-end:none;stroke-miterlimit:4;stroke-dasharray:none;stroke-dashoffset:0;stroke-opacity:1;visibility:visible;display:inline;overflow:visible;enable-background:accumulate"
             d="M 62.921506,624.49594 C 64.939808,623.48679 80.534562,633.77314 84.944033,637.08025 C 89.040629,640.15269 98.966619,644.09154 103.82048,646.51847 C 110.76576,649.99111 115.44177,651.5426 121.1239,654.38366 C 130.18287,658.91315 133.42296,663.53664 138.42731,668.541 C 143.88195,673.99564 146.99397,678.6807 152.58465,684.27137 C 158.45328,690.14 162.58643,691.31493 166.74199,696.85568 C 171.59832,703.33078 176.34429,695.11856 180.89933,690.56352 C 182.82549,688.63736 165.67361,681.37763 165.16895,681.1253 C 158.17035,677.626 152.50847,677.90305 146.2925,671.68707 C 141.92901,667.32358 135.08203,664.06574 130.56212,660.67581 C 125.57793,656.93766 122.16374,650.70439 117.97782,646.51847 C 112.02547,640.56612 108.05501,635.26491 102.24745,632.36113 C 96.888635,629.68173 91.742447,627.10863 86.51707,624.49594 C 79.498339,620.98658 72.869314,620.51682 62.921506,624.49594 z"
             id="path3325" />
          <path
             style="fill:#f72034;fill-opacity:1;fill-rule:evenodd;stroke:#f2cccc;stroke-width:2;stroke-linecap:butt;stroke-linejoin:miter;stroke-miterlimit:4;stroke-dasharray:none;stroke-opacity:1"
             d="M 37.752903,670.11404 C 35.717193,669.09618 55.67257,658.55545 59.77543,657.52973 C 67.116557,655.69445 73.690992,652.85898 81.797957,651.23758 C 91.041809,649.38881 98.814642,647.37667 108.5396,644.94543 C 118.24876,642.51814 125.46094,643.26569 133.7082,637.08025 C 137.89323,633.94147 148.01527,632.01658 154.15769,630.78809 C 161.70601,629.27843 166.49069,626.06898 176.18022,626.06898 C 188.1038,626.06898 176.78043,634.42058 171.4611,637.08025 C 166.1608,639.73039 156.89936,638.65328 149.43858,638.65328 C 144.49189,638.65328 132.87447,642.00779 127.41605,643.3724 C 120.1349,645.19268 114.37627,648.31925 108.5396,651.23758 C 101.10417,654.9553 91.014403,653.70803 83.370995,657.52973 C 76.765494,660.83248 66.905987,661.04313 61.348468,663.82188 C 54.656016,667.16811 51.535191,671.8746 45.618092,674.83315 C 42.883438,676.20048 40.374633,671.68707 37.752903,670.11404 z"
             id="path3327" />
          <path
             style="fill:#ffdeb8;fill-opacity:1;fill-rule:evenodd;stroke:#000000;stroke-width:2;stroke-linecap:butt;stroke-linejoin:miter;stroke-miterlimit:4;stroke-dasharray:none;stroke-opacity:1"
             d="M 66.011601,654.54227 C 66.793715,654.84279 68.989668,656.02569 70.012304,656.79266 C 71.352642,657.79792 72.466316,658.14469 73.762963,658.79302 C 75.385567,659.60432 76.526417,660.04972 78.01371,660.79337 C 79.52629,661.54966 81.11339,662.18046 82.264457,663.04376 C 83.615399,664.05697 84.98523,664.39672 86.515204,665.5442 C 87.96634,666.63255 88.820014,667.1533 89.515732,668.54473 C 90.1055,669.72427 91.788761,671.0678 92.516259,671.7953 C 93.874553,673.15359 94.567203,674.07099 96.016874,674.79583 C 97.603811,675.5893 98.58463,676.62548 100.26762,677.04622 C 101.55306,677.36758 103.05577,678.69034 104.26832,679.29662 C 105.79715,680.06103 107.38954,681.2323 109.01916,682.0471 C 110.47707,682.77606 112.84486,683.94245 114.27008,684.79759 C 115.31496,685.42451 116.83571,686.50168 118.02074,686.79794 C 119.55913,687.18254 120.45431,686.16047 121.27131,685.54772 C 122.23907,684.8219 123.26466,684.42602 124.52188,683.79741 C 125.48236,683.31717 126.45443,681.84791 127.52241,681.04693 C 128.6242,680.22059 130.38202,680.1313 131.77316,679.29662 C 132.9469,678.59237 134.63651,678.35131 136.02391,677.79636 C 137.85915,677.06226 139.80757,676.40461 141.52487,675.54596 C 143.82378,674.3965 146.3639,674.48941 149.02619,674.0457 C 149.9553,673.89085 151.99926,672.0728 152.77685,671.29521 C 153.89885,670.17322 155.05632,669.90543 156.27746,669.29486 C 157.70671,668.58024 158.53067,667.79319 160.02812,667.04447 C 161.61273,666.25216 163.84993,665.79425 166.27922,665.79425 C 167.80599,665.79425 169.14356,663.89603 170.27993,663.04376 C 171.31114,662.27035 171.83688,661.50098 172.78036,660.79337 C 174.31629,659.64143 175.79894,659.75709 176.53102,658.29293 C 177.44056,656.47386 177.76316,656.52454 176.03094,654.79231 C 175.01183,653.77321 174.00158,653.20778 172.78036,652.29187 C 171.38385,651.24449 169.78615,650.54472 168.27957,649.79143 C 165.74515,648.52422 163.55726,647.40242 160.77826,646.29082 C 157.99995,645.1795 155.20191,643.62767 152.52681,642.29012 C 150.48425,641.26884 148.29959,640.11988 146.52575,638.7895 C 144.83461,637.52114 142.89403,636.50329 141.27483,635.28889 C 139.56692,634.00796 138.26038,632.83288 136.27395,632.03831 C 134.46318,631.31401 132.79126,630.29697 131.27307,629.53787 C 129.61797,628.71032 128.28059,628.41469 126.77228,628.03761 C 125.25815,627.65908 122.94149,628.18267 121.52136,628.5377 C 119.21793,629.11356 116.43938,628.78774 114.02004,628.78774 C 111.99723,628.78774 109.96464,630.05164 108.01898,630.53805 C 105.86949,631.07542 103.95682,632.16292 101.76788,633.03849 C 99.470535,633.95743 97.284358,635.03539 94.766654,635.53893 C 92.506819,635.9909 89.546145,637.4458 87.015292,638.28941 C 86.515204,638.45611 86.015116,638.6228 85.515029,638.7895 C 83.342229,639.51377 82.061206,639.64126 80.264106,640.53981 C 78.518617,641.41255 76.842656,642.30846 75.013183,643.04025 C 73.010717,643.84123 71.079793,644.88192 69.262172,645.79073 C 67.799057,646.52229 66.495006,647.29934 65.011425,648.04113 C 63.4773,648.80819 63.118259,649.14843 62.260942,650.29152 C 61.52019,651.27919 61.51081,652.06101 61.51081,653.54209 C 61.51081,654.8606 63.377455,655.60061 64.261293,656.04253 C 65.925345,656.87456 66.477202,655.70627 66.011601,654.54227 z"
             id="path3329" />
          <path
             style="opacity:1;fill:#cb985d;fill-opacity:1;fill-rule:evenodd;stroke:#000000;stroke-width:2;stroke-linecap:butt;stroke-linejoin:miter;marker:none;marker-start:none;marker-mid:none;marker-end:none;stroke-miterlimit:4;stroke-dasharray:none;stroke-dashoffset:0;stroke-opacity:1;visibility:visible;display:inline;overflow:visible;enable-background:accumulate"
             d="M 62.921506,635.50721 C 58.395699,630.9814 67.723414,649.68524 73.932769,651.23758 C 82.217,653.30864 85.541417,654.8317 91.236183,659.10277 C 96.17821,662.80929 102.25943,666.18743 106.96656,668.541 C 113.51437,671.8149 112.097,676.50902 117.97782,677.97922 C 118.34483,678.07098 130.75094,668.35218 132.13516,666.96796 C 136.12352,662.9796 149.65201,663.82188 155.73073,663.82188 C 166.02614,663.82188 168.52038,662.14617 174.60718,659.10277 C 183.4799,654.66641 181.15453,649.91975 176.18022,644.94543 C 172.69177,641.45699 162.56239,639.57468 158.8768,638.65328 C 153.22362,637.23999 148.83819,630.4879 143.14643,627.64202 C 136.22602,624.18182 132.52976,622.92291 122.69694,622.92291 C 115.00806,622.92291 108.51638,624.10849 100.67441,626.06898 C 92.419564,628.13269 89.306411,630.78809 80.22492,630.78809 C 72.092238,630.78809 70.947479,630.69162 62.921506,635.50721 z"
             id="path3319" />
          <path
             style="opacity:1;fill:#ffdeb8;fill-opacity:1;fill-rule:evenodd;stroke:#000000;stroke-width:2;stroke-linecap:butt;stroke-linejoin:miter;marker:none;marker-start:none;marker-mid:none;marker-end:none;stroke-miterlimit:4;stroke-dasharray:none;stroke-dashoffset:0;stroke-opacity:1;visibility:visible;display:inline;overflow:visible;enable-background:accumulate"
             d="M 66.011601,633.78862 C 66.848004,634.9402 69.233369,636.14964 71.01248,637.03919 C 72.437122,637.75151 73.467387,638.42123 75.013183,639.03954 C 76.23654,639.52889 77.673266,640.61963 79.013886,641.28994 C 80.240084,641.90304 81.255476,643.13498 82.764545,644.04042 C 84.158819,644.87699 85.624255,646.47045 86.765248,647.04095 C 88.439792,647.87822 90.418828,649.08307 92.016171,650.04148 C 92.373523,650.25589 92.682955,650.54157 93.016347,650.79161 C 94.569281,651.95631 96.734184,653.15062 98.517314,654.04218 C 100.1233,654.84517 100.87864,656.098 102.76806,657.04271 C 104.00154,657.65945 105.68456,658.91753 106.51872,659.54315 C 107.97971,660.63889 109.00168,660.90528 110.51942,662.04359 C 111.84332,663.03651 113.96863,663.49244 115.27026,664.79407 C 116.43858,665.96239 118.53369,666.79442 120.27114,666.79442 C 122.03058,666.79442 123.58296,664.88847 124.77193,664.29398 C 126.65929,663.3503 127.57663,662.73287 129.77281,662.29363 C 130.75116,662.09796 132.91169,660.59917 134.02355,660.04324 C 135.52388,659.29307 137.44248,659.33395 138.52434,658.79302 C 140.50224,657.80407 142.61618,657.24719 144.5254,656.29258 C 146.2256,655.44248 148.21183,655.40526 150.02637,655.04236 C 150.18982,655.00967 150.35976,655.04236 150.52645,655.04236 C 153.1424,655.04236 155.01901,654.04424 157.0276,653.54209 C 158.68363,653.12808 160.05798,652.47194 161.77843,652.04183 C 164.31301,651.40818 165.72478,651.55261 168.27957,651.04165 C 169.94054,650.70946 171.21878,649.49421 173.03041,649.0413 C 174.75384,648.61044 176.29688,647.88792 178.03129,647.54104 C 179.82614,647.18207 180.25523,646.9027 178.53138,646.04078 C 177.2848,645.41749 176.27103,644.41051 175.03076,643.79038 C 174.79502,643.67251 174.53067,643.62368 174.28063,643.54034 C 173.26269,643.20102 171.80951,641.56931 171.03006,640.78985 C 170.16194,639.92173 168.20877,639.12917 167.02935,638.53946 C 165.46683,637.7582 163.89756,637.31581 162.52856,636.28906 C 161.47539,635.49918 159.29869,634.80122 158.02777,634.03867 C 156.48479,633.11288 155.06484,632.30715 153.52698,631.53823 C 151.96387,630.75667 150.52665,629.78802 149.02619,629.03779 C 147.63737,628.34338 145.99454,627.6392 144.5254,626.53735 C 143.05965,625.43804 141.05122,624.70289 139.52452,623.78686 C 138.26345,623.03022 136.88195,622.12605 135.52382,621.78651 C 133.81066,621.35822 132.55509,621.03638 130.77298,621.03638 C 128.81471,621.03638 126.91481,620.78634 125.02197,620.78634 C 122.95717,620.78634 121.13553,620.53629 119.02092,620.53629 C 117.03359,620.53629 115.13739,620.56951 113.26991,621.03638 C 111.08505,621.58259 109.04052,621.78651 106.76876,621.78651 C 104.42036,621.78651 102.16164,622.50072 100.01758,623.03673 C 98.244963,623.47989 96.35685,623.7302 94.516611,624.03691 C 92.027961,624.45168 89.710631,625.17589 87.265336,625.78722 C 86.931944,625.87056 86.598552,625.95391 86.26516,626.03726 C 83.871079,626.63578 81.641105,627.56218 79.26393,628.03761 C 77.30158,628.43008 75.656119,628.03048 73.762963,628.78774 C 71.906358,629.53039 70.934883,629.95174 69.262172,630.78809 C 67.922237,631.45806 66.305379,632.31973 66.011601,633.78862 z"
             id="path3331" />
        </g>
        <g
           transform="translate(-6.6891349,-177.43137)"
           id="g3352">
          <path
             style="fill:#cb985d;fill-opacity:1;fill-rule:evenodd;stroke:#000000;stroke-width:2;stroke-linecap:butt;stroke-linejoin:miter;stroke-miterlimit:4;stroke-dasharray:none;stroke-opacity:1"
             d="M 124.26997,633.93417 C 132.47236,635.98477 107.30375,635.02965 99.101371,637.08025 C 90.756132,639.16655 85.212494,639.30557 77.078844,643.3724 C 66.175035,648.8243 65.638529,646.66164 62.921506,657.52973 C 61.450174,663.41506 74.521983,667.11526 80.22492,668.541 C 92.039402,671.49462 81.301601,669.61768 89.663146,677.97922 C 94.842567,683.15865 98.869966,685.61301 103.82048,690.56352 C 109.47766,696.22071 117.5797,695.28264 125.84301,695.28264 C 129.51358,695.28264 136.0307,683.52191 138.42731,681.1253 C 142.69416,676.85845 155.32133,676.50853 162.02288,674.83315 C 170.32102,672.75861 174.49277,670.34285 177.75325,663.82188 C 180.81069,657.70701 166.56471,655.86806 160.44984,652.81062 C 154.00096,649.58618 146.63834,643.71824 141.57339,638.65328 C 137.25921,634.3391 130.35622,633.93417 124.26997,633.93417 z"
             id="path3354" />
          <path
             style="fill:#ff8490;fill-opacity:1;fill-rule:evenodd;stroke:#000000;stroke-width:2;stroke-linecap:butt;stroke-linejoin:miter;stroke-miterlimit:4;stroke-dasharray:none;stroke-opacity:1"
             d="M 168.31503,621.34987 C 163.19895,621.34987 147.96898,628.37682 140.00035,632.36113 C 131.12454,636.79904 122.15745,637.34999 113.25871,641.79936 C 105.76686,645.54528 98.127387,644.94543 89.663146,644.94543 C 82.04246,644.94543 72.366066,646.51689 66.067581,648.09151 C 57.304818,650.2822 53.207637,651.37541 47.191129,654.38366 C 41.706635,657.12591 36.271111,662.1576 33.03379,665.39492 C 28.806379,669.62233 42.963718,672.17877 47.191129,676.40619 C 53.216696,682.43175 58.00475,680.38819 61.348468,679.55226 C 63.880755,678.91919 67.397505,668.99504 75.505807,666.96796 C 84.121917,664.81393 88.157117,663.78838 94.382259,660.67581 C 100.00206,657.86591 107.29209,657.44835 113.25871,655.9567 C 120.73555,654.08749 129.39915,653.10136 136.85427,651.23758 C 142.58432,649.80507 149.22614,645.3918 157.30376,643.3724 C 165.43414,641.3398 171.62337,640.22632 179.32629,640.22632 C 190.50729,640.22632 188.14876,631.74537 184.0454,627.64202 C 182.76122,626.35784 170.71406,622.30948 168.31503,621.34987 z"
             id="path3356" />
          <path
             style="opacity:1;fill:#ff8490;fill-opacity:1;fill-rule:evenodd;stroke:#000000;stroke-width:2;stroke-linecap:butt;stroke-linejoin:miter;marker:none;marker-start:none;marker-mid:none;marker-end:none;stroke-miterlimit:4;stroke-dasharray:none;stroke-dashoffset:0;stroke-opacity:1;visibility:visible;display:inline;overflow:visible;enable-background:accumulate"
             d="M 188.76452,684.27137 C 186.64955,682.15641 172.58995,675.39757 168.31503,673.26011 C 162.59295,670.39907 157.29081,667.748 149.43858,663.82188 C 142.75548,660.48034 136.4212,650.80451 133.7082,648.09151 C 128.15587,642.53918 122.51695,641.61937 117.97782,637.08025 C 114.47794,633.58036 107.63635,630.56228 102.24745,629.21506 C 96.012614,627.65635 91.527584,620.70905 86.51707,618.20379 C 80.449099,615.16981 69.695103,615.33062 64.494543,616.63076 C 58.262933,618.18866 53.172919,624.16435 51.910242,629.21506 C 49.855707,637.4332 67.929054,634.86491 75.505807,638.65328 C 84.860214,643.33049 86.118724,647.10582 94.382259,651.23758 C 101.3315,654.71221 109.44161,659.55378 114.83175,662.24885 C 123.00563,666.33579 127.00389,669.80491 133.7082,674.83315 C 139.8673,679.45247 143.83769,687.9359 149.43858,692.13656 C 154.02795,695.5786 158.85675,701.55473 162.02288,704.72086 C 169.5506,712.24858 171.63825,705.41881 179.32629,701.57479 C 187.86169,697.30709 188.76452,693.29805 188.76452,684.27137 z"
             id="path3358" />
          <path
             style="opacity:1;fill:#f72034;fill-opacity:1;fill-rule:evenodd;stroke:#f2cccc;stroke-width:2;stroke-linecap:butt;stroke-linejoin:miter;marker:none;marker-start:none;marker-mid:none;marker-end:none;stroke-miterlimit:4;stroke-dasharray:none;stroke-dashoffset:0;stroke-opacity:1;visibility:visible;display:inline;overflow:visible;enable-background:accumulate"
             d="M 62.921506,624.49594 C 64.939808,623.48679 80.534562,633.77314 84.944033,637.08025 C 89.040629,640.15269 98.966619,644.09154 103.82048,646.51847 C 110.76576,649.99111 115.44177,651.5426 121.1239,654.38366 C 130.18287,658.91315 133.42296,663.53664 138.42731,668.541 C 143.88195,673.99564 146.99397,678.6807 152.58465,684.27137 C 158.45328,690.14 162.58643,691.31493 166.74199,696.85568 C 171.59832,703.33078 176.34429,695.11856 180.89933,690.56352 C 182.82549,688.63736 165.67361,681.37763 165.16895,681.1253 C 158.17035,677.626 152.50847,677.90305 146.2925,671.68707 C 141.92901,667.32358 135.08203,664.06574 130.56212,660.67581 C 125.57793,656.93766 122.16374,650.70439 117.97782,646.51847 C 112.02547,640.56612 108.05501,635.26491 102.24745,632.36113 C 96.888635,629.68173 91.742447,627.10863 86.51707,624.49594 C 79.498339,620.98658 72.869314,620.51682 62.921506,624.49594 z"
             id="path3360" />
          <path
             style="fill:#f72034;fill-opacity:1;fill-rule:evenodd;stroke:#f2cccc;stroke-width:2;stroke-linecap:butt;stroke-linejoin:miter;stroke-miterlimit:4;stroke-dasharray:none;stroke-opacity:1"
             d="M 37.752903,670.11404 C 35.717193,669.09618 55.67257,658.55545 59.77543,657.52973 C 67.116557,655.69445 73.690992,652.85898 81.797957,651.23758 C 91.041809,649.38881 98.814642,647.37667 108.5396,644.94543 C 118.24876,642.51814 125.46094,643.26569 133.7082,637.08025 C 137.89323,633.94147 148.01527,632.01658 154.15769,630.78809 C 161.70601,629.27843 166.49069,626.06898 176.18022,626.06898 C 188.1038,626.06898 176.78043,634.42058 171.4611,637.08025 C 166.1608,639.73039 156.89936,638.65328 149.43858,638.65328 C 144.49189,638.65328 132.87447,642.00779 127.41605,643.3724 C 120.1349,645.19268 114.37627,648.31925 108.5396,651.23758 C 101.10417,654.9553 91.014403,653.70803 83.370995,657.52973 C 76.765494,660.83248 66.905987,661.04313 61.348468,663.82188 C 54.656016,667.16811 51.535191,671.8746 45.618092,674.83315 C 42.883438,676.20048 40.374633,671.68707 37.752903,670.11404 z"
             id="path3362" />
          <path
             style="fill:#ffdeb8;fill-opacity:1;fill-rule:evenodd;stroke:#000000;stroke-width:2;stroke-linecap:butt;stroke-linejoin:miter;stroke-miterlimit:4;stroke-dasharray:none;stroke-opacity:1"
             d="M 66.011601,654.54227 C 66.793715,654.84279 68.989668,656.02569 70.012304,656.79266 C 71.352642,657.79792 72.466316,658.14469 73.762963,658.79302 C 75.385567,659.60432 76.526417,660.04972 78.01371,660.79337 C 79.52629,661.54966 81.11339,662.18046 82.264457,663.04376 C 83.615399,664.05697 84.98523,664.39672 86.515204,665.5442 C 87.96634,666.63255 88.820014,667.1533 89.515732,668.54473 C 90.1055,669.72427 91.788761,671.0678 92.516259,671.7953 C 93.874553,673.15359 94.567203,674.07099 96.016874,674.79583 C 97.603811,675.5893 98.58463,676.62548 100.26762,677.04622 C 101.55306,677.36758 103.05577,678.69034 104.26832,679.29662 C 105.79715,680.06103 107.38954,681.2323 109.01916,682.0471 C 110.47707,682.77606 112.84486,683.94245 114.27008,684.79759 C 115.31496,685.42451 116.83571,686.50168 118.02074,686.79794 C 119.55913,687.18254 120.45431,686.16047 121.27131,685.54772 C 122.23907,684.8219 123.26466,684.42602 124.52188,683.79741 C 125.48236,683.31717 126.45443,681.84791 127.52241,681.04693 C 128.6242,680.22059 130.38202,680.1313 131.77316,679.29662 C 132.9469,678.59237 134.63651,678.35131 136.02391,677.79636 C 137.85915,677.06226 139.80757,676.40461 141.52487,675.54596 C 143.82378,674.3965 146.3639,674.48941 149.02619,674.0457 C 149.9553,673.89085 151.99926,672.0728 152.77685,671.29521 C 153.89885,670.17322 155.05632,669.90543 156.27746,669.29486 C 157.70671,668.58024 158.53067,667.79319 160.02812,667.04447 C 161.61273,666.25216 163.84993,665.79425 166.27922,665.79425 C 167.80599,665.79425 169.14356,663.89603 170.27993,663.04376 C 171.31114,662.27035 171.83688,661.50098 172.78036,660.79337 C 174.31629,659.64143 175.79894,659.75709 176.53102,658.29293 C 177.44056,656.47386 177.76316,656.52454 176.03094,654.79231 C 175.01183,653.77321 174.00158,653.20778 172.78036,652.29187 C 171.38385,651.24449 169.78615,650.54472 168.27957,649.79143 C 165.74515,648.52422 163.55726,647.40242 160.77826,646.29082 C 157.99995,645.1795 155.20191,643.62767 152.52681,642.29012 C 150.48425,641.26884 148.29959,640.11988 146.52575,638.7895 C 144.83461,637.52114 142.89403,636.50329 141.27483,635.28889 C 139.56692,634.00796 138.26038,632.83288 136.27395,632.03831 C 134.46318,631.31401 132.79126,630.29697 131.27307,629.53787 C 129.61797,628.71032 128.28059,628.41469 126.77228,628.03761 C 125.25815,627.65908 122.94149,628.18267 121.52136,628.5377 C 119.21793,629.11356 116.43938,628.78774 114.02004,628.78774 C 111.99723,628.78774 109.96464,630.05164 108.01898,630.53805 C 105.86949,631.07542 103.95682,632.16292 101.76788,633.03849 C 99.470535,633.95743 97.284358,635.03539 94.766654,635.53893 C 92.506819,635.9909 89.546145,637.4458 87.015292,638.28941 C 86.515204,638.45611 86.015116,638.6228 85.515029,638.7895 C 83.342229,639.51377 82.061206,639.64126 80.264106,640.53981 C 78.518617,641.41255 76.842656,642.30846 75.013183,643.04025 C 73.010717,643.84123 71.079793,644.88192 69.262172,645.79073 C 67.799057,646.52229 66.495006,647.29934 65.011425,648.04113 C 63.4773,648.80819 63.118259,649.14843 62.260942,650.29152 C 61.52019,651.27919 61.51081,652.06101 61.51081,653.54209 C 61.51081,654.8606 63.377455,655.60061 64.261293,656.04253 C 65.925345,656.87456 66.477202,655.70627 66.011601,654.54227 z"
             id="path3364" />
          <path
             style="opacity:1;fill:#cb985d;fill-opacity:1;fill-rule:evenodd;stroke:#000000;stroke-width:2;stroke-linecap:butt;stroke-linejoin:miter;marker:none;marker-start:none;marker-mid:none;marker-end:none;stroke-miterlimit:4;stroke-dasharray:none;stroke-dashoffset:0;stroke-opacity:1;visibility:visible;display:inline;overflow:visible;enable-background:accumulate"
             d="M 62.921506,635.50721 C 58.395699,630.9814 67.723414,649.68524 73.932769,651.23758 C 82.217,653.30864 85.541417,654.8317 91.236183,659.10277 C 96.17821,662.80929 102.25943,666.18743 106.96656,668.541 C 113.51437,671.8149 112.097,676.50902 117.97782,677.97922 C 118.34483,678.07098 130.75094,668.35218 132.13516,666.96796 C 136.12352,662.9796 149.65201,663.82188 155.73073,663.82188 C 166.02614,663.82188 168.52038,662.14617 174.60718,659.10277 C 183.4799,654.66641 181.15453,649.91975 176.18022,644.94543 C 172.69177,641.45699 162.56239,639.57468 158.8768,638.65328 C 153.22362,637.23999 148.83819,630.4879 143.14643,627.64202 C 136.22602,624.18182 132.52976,622.92291 122.69694,622.92291 C 115.00806,622.92291 108.51638,624.10849 100.67441,626.06898 C 92.419564,628.13269 89.306411,630.78809 80.22492,630.78809 C 72.092238,630.78809 70.947479,630.69162 62.921506,635.50721 z"
             id="path3366" />
          <path
             style="opacity:1;fill:#ffdeb8;fill-opacity:1;fill-rule:evenodd;stroke:#000000;stroke-width:2;stroke-linecap:butt;stroke-linejoin:miter;marker:none;marker-start:none;marker-mid:none;marker-end:none;stroke-miterlimit:4;stroke-dasharray:none;stroke-dashoffset:0;stroke-opacity:1;visibility:visible;display:inline;overflow:visible;enable-background:accumulate"
             d="M 66.011601,633.78862 C 66.848004,634.9402 69.233369,636.14964 71.01248,637.03919 C 72.437122,637.75151 73.467387,638.42123 75.013183,639.03954 C 76.23654,639.52889 77.673266,640.61963 79.013886,641.28994 C 80.240084,641.90304 81.255476,643.13498 82.764545,644.04042 C 84.158819,644.87699 85.624255,646.47045 86.765248,647.04095 C 88.439792,647.87822 90.418828,649.08307 92.016171,650.04148 C 92.373523,650.25589 92.682955,650.54157 93.016347,650.79161 C 94.569281,651.95631 96.734184,653.15062 98.517314,654.04218 C 100.1233,654.84517 100.87864,656.098 102.76806,657.04271 C 104.00154,657.65945 105.68456,658.91753 106.51872,659.54315 C 107.97971,660.63889 109.00168,660.90528 110.51942,662.04359 C 111.84332,663.03651 113.96863,663.49244 115.27026,664.79407 C 116.43858,665.96239 118.53369,666.79442 120.27114,666.79442 C 122.03058,666.79442 123.58296,664.88847 124.77193,664.29398 C 126.65929,663.3503 127.57663,662.73287 129.77281,662.29363 C 130.75116,662.09796 132.91169,660.59917 134.02355,660.04324 C 135.52388,659.29307 137.44248,659.33395 138.52434,658.79302 C 140.50224,657.80407 142.61618,657.24719 144.5254,656.29258 C 146.2256,655.44248 148.21183,655.40526 150.02637,655.04236 C 150.18982,655.00967 150.35976,655.04236 150.52645,655.04236 C 153.1424,655.04236 155.01901,654.04424 157.0276,653.54209 C 158.68363,653.12808 160.05798,652.47194 161.77843,652.04183 C 164.31301,651.40818 165.72478,651.55261 168.27957,651.04165 C 169.94054,650.70946 171.21878,649.49421 173.03041,649.0413 C 174.75384,648.61044 176.29688,647.88792 178.03129,647.54104 C 179.82614,647.18207 180.25523,646.9027 178.53138,646.04078 C 177.2848,645.41749 176.27103,644.41051 175.03076,643.79038 C 174.79502,643.67251 174.53067,643.62368 174.28063,643.54034 C 173.26269,643.20102 171.80951,641.56931 171.03006,640.78985 C 170.16194,639.92173 168.20877,639.12917 167.02935,638.53946 C 165.46683,637.7582 163.89756,637.31581 162.52856,636.28906 C 161.47539,635.49918 159.29869,634.80122 158.02777,634.03867 C 156.48479,633.11288 155.06484,632.30715 153.52698,631.53823 C 151.96387,630.75667 150.52665,629.78802 149.02619,629.03779 C 147.63737,628.34338 145.99454,627.6392 144.5254,626.53735 C 143.05965,625.43804 141.05122,624.70289 139.52452,623.78686 C 138.26345,623.03022 136.88195,622.12605 135.52382,621.78651 C 133.81066,621.35822 132.55509,621.03638 130.77298,621.03638 C 128.81471,621.03638 126.91481,620.78634 125.02197,620.78634 C 122.95717,620.78634 121.13553,620.53629 119.02092,620.53629 C 117.03359,620.53629 115.13739,620.56951 113.26991,621.03638 C 111.08505,621.58259 109.04052,621.78651 106.76876,621.78651 C 104.42036,621.78651 102.16164,622.50072 100.01758,623.03673 C 98.244963,623.47989 96.35685,623.7302 94.516611,624.03691 C 92.027961,624.45168 89.710631,625.17589 87.265336,625.78722 C 86.931944,625.87056 86.598552,625.95391 86.26516,626.03726 C 83.871079,626.63578 81.641105,627.56218 79.26393,628.03761 C 77.30158,628.43008 75.656119,628.03048 73.762963,628.78774 C 71.906358,629.53039 70.934883,629.95174 69.262172,630.78809 C 67.922237,631.45806 66.305379,632.31973 66.011601,633.78862 z"
             id="path3368" />
        </g>
        <g
           transform="matrix(-0.9794039,-0.1879941,-0.1874646,0.9821702,287.86231,-171.5958)"
           id="g3370">
          <path
             style="fill:#cb985d;fill-opacity:1;fill-rule:evenodd;stroke:#000000;stroke-width:2;stroke-linecap:butt;stroke-linejoin:miter;stroke-miterlimit:4;stroke-dasharray:none;stroke-opacity:1"
             d="M 124.26997,633.93417 C 132.47236,635.98477 107.30375,635.02965 99.101371,637.08025 C 90.756132,639.16655 85.212494,639.30557 77.078844,643.3724 C 66.175035,648.8243 65.638529,646.66164 62.921506,657.52973 C 61.450174,663.41506 74.521983,667.11526 80.22492,668.541 C 92.039402,671.49462 81.301601,669.61768 89.663146,677.97922 C 94.842567,683.15865 98.869966,685.61301 103.82048,690.56352 C 109.47766,696.22071 117.5797,695.28264 125.84301,695.28264 C 129.51358,695.28264 136.0307,683.52191 138.42731,681.1253 C 142.69416,676.85845 155.32133,676.50853 162.02288,674.83315 C 170.32102,672.75861 174.49277,670.34285 177.75325,663.82188 C 180.81069,657.70701 166.56471,655.86806 160.44984,652.81062 C 154.00096,649.58618 146.63834,643.71824 141.57339,638.65328 C 137.25921,634.3391 130.35622,633.93417 124.26997,633.93417 z"
             id="path3372" />
          <path
             style="fill:#ff8490;fill-opacity:1;fill-rule:evenodd;stroke:#000000;stroke-width:2;stroke-linecap:butt;stroke-linejoin:miter;stroke-miterlimit:4;stroke-dasharray:none;stroke-opacity:1"
             d="M 168.31503,621.34987 C 163.19895,621.34987 147.96898,628.37682 140.00035,632.36113 C 131.12454,636.79904 122.15745,637.34999 113.25871,641.79936 C 105.76686,645.54528 98.127387,644.94543 89.663146,644.94543 C 82.04246,644.94543 72.366066,646.51689 66.067581,648.09151 C 57.304818,650.2822 53.207637,651.37541 47.191129,654.38366 C 41.706635,657.12591 36.271111,662.1576 33.03379,665.39492 C 28.806379,669.62233 42.963718,672.17877 47.191129,676.40619 C 53.216696,682.43175 58.00475,680.38819 61.348468,679.55226 C 63.880755,678.91919 67.397505,668.99504 75.505807,666.96796 C 84.121917,664.81393 88.157117,663.78838 94.382259,660.67581 C 100.00206,657.86591 107.29209,657.44835 113.25871,655.9567 C 120.73555,654.08749 129.39915,653.10136 136.85427,651.23758 C 142.58432,649.80507 149.22614,645.3918 157.30376,643.3724 C 165.43414,641.3398 171.62337,640.22632 179.32629,640.22632 C 190.50729,640.22632 188.14876,631.74537 184.0454,627.64202 C 182.76122,626.35784 170.71406,622.30948 168.31503,621.34987 z"
             id="path3374" />
          <path
             style="opacity:1;fill:#ff8490;fill-opacity:1;fill-rule:evenodd;stroke:#000000;stroke-width:2;stroke-linecap:butt;stroke-linejoin:miter;marker:none;marker-start:none;marker-mid:none;marker-end:none;stroke-miterlimit:4;stroke-dasharray:none;stroke-dashoffset:0;stroke-opacity:1;visibility:visible;display:inline;overflow:visible;enable-background:accumulate"
             d="M 188.76452,684.27137 C 186.64955,682.15641 172.58995,675.39757 168.31503,673.26011 C 162.59295,670.39907 157.29081,667.748 149.43858,663.82188 C 142.75548,660.48034 136.4212,650.80451 133.7082,648.09151 C 128.15587,642.53918 122.51695,641.61937 117.97782,637.08025 C 114.47794,633.58036 107.63635,630.56228 102.24745,629.21506 C 96.012614,627.65635 91.527584,620.70905 86.51707,618.20379 C 80.449099,615.16981 69.695103,615.33062 64.494543,616.63076 C 58.262933,618.18866 53.172919,624.16435 51.910242,629.21506 C 49.855707,637.4332 67.929054,634.86491 75.505807,638.65328 C 84.860214,643.33049 86.118724,647.10582 94.382259,651.23758 C 101.3315,654.71221 109.44161,659.55378 114.83175,662.24885 C 123.00563,666.33579 127.00389,669.80491 133.7082,674.83315 C 139.8673,679.45247 143.83769,687.9359 149.43858,692.13656 C 154.02795,695.5786 158.85675,701.55473 162.02288,704.72086 C 169.5506,712.24858 171.63825,705.41881 179.32629,701.57479 C 187.86169,697.30709 188.76452,693.29805 188.76452,684.27137 z"
             id="path3376" />
          <path
             style="opacity:1;fill:#f72034;fill-opacity:1;fill-rule:evenodd;stroke:#f2cccc;stroke-width:2;stroke-linecap:butt;stroke-linejoin:miter;marker:none;marker-start:none;marker-mid:none;marker-end:none;stroke-miterlimit:4;stroke-dasharray:none;stroke-dashoffset:0;stroke-opacity:1;visibility:visible;display:inline;overflow:visible;enable-background:accumulate"
             d="M 62.921506,624.49594 C 64.939808,623.48679 80.534562,633.77314 84.944033,637.08025 C 89.040629,640.15269 98.966619,644.09154 103.82048,646.51847 C 110.76576,649.99111 115.44177,651.5426 121.1239,654.38366 C 130.18287,658.91315 133.42296,663.53664 138.42731,668.541 C 143.88195,673.99564 146.99397,678.6807 152.58465,684.27137 C 158.45328,690.14 162.58643,691.31493 166.74199,696.85568 C 171.59832,703.33078 176.34429,695.11856 180.89933,690.56352 C 182.82549,688.63736 165.67361,681.37763 165.16895,681.1253 C 158.17035,677.626 152.50847,677.90305 146.2925,671.68707 C 141.92901,667.32358 135.08203,664.06574 130.56212,660.67581 C 125.57793,656.93766 122.16374,650.70439 117.97782,646.51847 C 112.02547,640.56612 108.05501,635.26491 102.24745,632.36113 C 96.888635,629.68173 91.742447,627.10863 86.51707,624.49594 C 79.498339,620.98658 72.869314,620.51682 62.921506,624.49594 z"
             id="path3378" />
          <path
             style="fill:#f72034;fill-opacity:1;fill-rule:evenodd;stroke:#f2cccc;stroke-width:2;stroke-linecap:butt;stroke-linejoin:miter;stroke-miterlimit:4;stroke-dasharray:none;stroke-opacity:1"
             d="M 37.752903,670.11404 C 35.717193,669.09618 55.67257,658.55545 59.77543,657.52973 C 67.116557,655.69445 73.690992,652.85898 81.797957,651.23758 C 91.041809,649.38881 98.814642,647.37667 108.5396,644.94543 C 118.24876,642.51814 125.46094,643.26569 133.7082,637.08025 C 137.89323,633.94147 148.01527,632.01658 154.15769,630.78809 C 161.70601,629.27843 166.49069,626.06898 176.18022,626.06898 C 188.1038,626.06898 176.78043,634.42058 171.4611,637.08025 C 166.1608,639.73039 156.89936,638.65328 149.43858,638.65328 C 144.49189,638.65328 132.87447,642.00779 127.41605,643.3724 C 120.1349,645.19268 114.37627,648.31925 108.5396,651.23758 C 101.10417,654.9553 91.014403,653.70803 83.370995,657.52973 C 76.765494,660.83248 66.905987,661.04313 61.348468,663.82188 C 54.656016,667.16811 51.535191,671.8746 45.618092,674.83315 C 42.883438,676.20048 40.374633,671.68707 37.752903,670.11404 z"
             id="path3380" />
          <path
             style="fill:#ffdeb8;fill-opacity:1;fill-rule:evenodd;stroke:#000000;stroke-width:2;stroke-linecap:butt;stroke-linejoin:miter;stroke-miterlimit:4;stroke-dasharray:none;stroke-opacity:1"
             d="M 66.011601,654.54227 C 66.793715,654.84279 68.989668,656.02569 70.012304,656.79266 C 71.352642,657.79792 72.466316,658.14469 73.762963,658.79302 C 75.385567,659.60432 76.526417,660.04972 78.01371,660.79337 C 79.52629,661.54966 81.11339,662.18046 82.264457,663.04376 C 83.615399,664.05697 84.98523,664.39672 86.515204,665.5442 C 87.96634,666.63255 88.820014,667.1533 89.515732,668.54473 C 90.1055,669.72427 91.788761,671.0678 92.516259,671.7953 C 93.874553,673.15359 94.567203,674.07099 96.016874,674.79583 C 97.603811,675.5893 98.58463,676.62548 100.26762,677.04622 C 101.55306,677.36758 103.05577,678.69034 104.26832,679.29662 C 105.79715,680.06103 107.38954,681.2323 109.01916,682.0471 C 110.47707,682.77606 112.84486,683.94245 114.27008,684.79759 C 115.31496,685.42451 116.83571,686.50168 118.02074,686.79794 C 119.55913,687.18254 120.45431,686.16047 121.27131,685.54772 C 122.23907,684.8219 123.26466,684.42602 124.52188,683.79741 C 125.48236,683.31717 126.45443,681.84791 127.52241,681.04693 C 128.6242,680.22059 130.38202,680.1313 131.77316,679.29662 C 132.9469,678.59237 134.63651,678.35131 136.02391,677.79636 C 137.85915,677.06226 139.80757,676.40461 141.52487,675.54596 C 143.82378,674.3965 146.3639,674.48941 149.02619,674.0457 C 149.9553,673.89085 151.99926,672.0728 152.77685,671.29521 C 153.89885,670.17322 155.05632,669.90543 156.27746,669.29486 C 157.70671,668.58024 158.53067,667.79319 160.02812,667.04447 C 161.61273,666.25216 163.84993,665.79425 166.27922,665.79425 C 167.80599,665.79425 169.14356,663.89603 170.27993,663.04376 C 171.31114,662.27035 171.83688,661.50098 172.78036,660.79337 C 174.31629,659.64143 175.79894,659.75709 176.53102,658.29293 C 177.44056,656.47386 177.76316,656.52454 176.03094,654.79231 C 175.01183,653.77321 174.00158,653.20778 172.78036,652.29187 C 171.38385,651.24449 169.78615,650.54472 168.27957,649.79143 C 165.74515,648.52422 163.55726,647.40242 160.77826,646.29082 C 157.99995,645.1795 155.20191,643.62767 152.52681,642.29012 C 150.48425,641.26884 148.29959,640.11988 146.52575,638.7895 C 144.83461,637.52114 142.89403,636.50329 141.27483,635.28889 C 139.56692,634.00796 138.26038,632.83288 136.27395,632.03831 C 134.46318,631.31401 132.79126,630.29697 131.27307,629.53787 C 129.61797,628.71032 128.28059,628.41469 126.77228,628.03761 C 125.25815,627.65908 122.94149,628.18267 121.52136,628.5377 C 119.21793,629.11356 116.43938,628.78774 114.02004,628.78774 C 111.99723,628.78774 109.96464,630.05164 108.01898,630.53805 C 105.86949,631.07542 103.95682,632.16292 101.76788,633.03849 C 99.470535,633.95743 97.284358,635.03539 94.766654,635.53893 C 92.506819,635.9909 89.546145,637.4458 87.015292,638.28941 C 86.515204,638.45611 86.015116,638.6228 85.515029,638.7895 C 83.342229,639.51377 82.061206,639.64126 80.264106,640.53981 C 78.518617,641.41255 76.842656,642.30846 75.013183,643.04025 C 73.010717,643.84123 71.079793,644.88192 69.262172,645.79073 C 67.799057,646.52229 66.495006,647.29934 65.011425,648.04113 C 63.4773,648.80819 63.118259,649.14843 62.260942,650.29152 C 61.52019,651.27919 61.51081,652.06101 61.51081,653.54209 C 61.51081,654.8606 63.377455,655.60061 64.261293,656.04253 C 65.925345,656.87456 66.477202,655.70627 66.011601,654.54227 z"
             id="path3382" />
          <path
             style="opacity:1;fill:#cb985d;fill-opacity:1;fill-rule:evenodd;stroke:#000000;stroke-width:2;stroke-linecap:butt;stroke-linejoin:miter;marker:none;marker-start:none;marker-mid:none;marker-end:none;stroke-miterlimit:4;stroke-dasharray:none;stroke-dashoffset:0;stroke-opacity:1;visibility:visible;display:inline;overflow:visible;enable-background:accumulate"
             d="M 62.921506,635.50721 C 58.395699,630.9814 67.723414,649.68524 73.932769,651.23758 C 82.217,653.30864 85.541417,654.8317 91.236183,659.10277 C 96.17821,662.80929 102.25943,666.18743 106.96656,668.541 C 113.51437,671.8149 112.097,676.50902 117.97782,677.97922 C 118.34483,678.07098 130.75094,668.35218 132.13516,666.96796 C 136.12352,662.9796 149.65201,663.82188 155.73073,663.82188 C 166.02614,663.82188 168.52038,662.14617 174.60718,659.10277 C 183.4799,654.66641 181.15453,649.91975 176.18022,644.94543 C 172.69177,641.45699 162.56239,639.57468 158.8768,638.65328 C 153.22362,637.23999 148.83819,630.4879 143.14643,627.64202 C 136.22602,624.18182 132.52976,622.92291 122.69694,622.92291 C 115.00806,622.92291 108.51638,624.10849 100.67441,626.06898 C 92.419564,628.13269 89.306411,630.78809 80.22492,630.78809 C 72.092238,630.78809 70.947479,630.69162 62.921506,635.50721 z"
             id="path3384" />
          <path
             style="opacity:1;fill:#ffdeb8;fill-opacity:1;fill-rule:evenodd;stroke:#000000;stroke-width:2;stroke-linecap:butt;stroke-linejoin:miter;marker:none;marker-start:none;marker-mid:none;marker-end:none;stroke-miterlimit:4;stroke-dasharray:none;stroke-dashoffset:0;stroke-opacity:1;visibility:visible;display:inline;overflow:visible;enable-background:accumulate"
             d="M 66.011601,633.78862 C 66.848004,634.9402 69.233369,636.14964 71.01248,637.03919 C 72.437122,637.75151 73.467387,638.42123 75.013183,639.03954 C 76.23654,639.52889 77.673266,640.61963 79.013886,641.28994 C 80.240084,641.90304 81.255476,643.13498 82.764545,644.04042 C 84.158819,644.87699 85.624255,646.47045 86.765248,647.04095 C 88.439792,647.87822 90.418828,649.08307 92.016171,650.04148 C 92.373523,650.25589 92.682955,650.54157 93.016347,650.79161 C 94.569281,651.95631 96.734184,653.15062 98.517314,654.04218 C 100.1233,654.84517 100.87864,656.098 102.76806,657.04271 C 104.00154,657.65945 105.68456,658.91753 106.51872,659.54315 C 107.97971,660.63889 109.00168,660.90528 110.51942,662.04359 C 111.84332,663.03651 113.96863,663.49244 115.27026,664.79407 C 116.43858,665.96239 118.53369,666.79442 120.27114,666.79442 C 122.03058,666.79442 123.58296,664.88847 124.77193,664.29398 C 126.65929,663.3503 127.57663,662.73287 129.77281,662.29363 C 130.75116,662.09796 132.91169,660.59917 134.02355,660.04324 C 135.52388,659.29307 137.44248,659.33395 138.52434,658.79302 C 140.50224,657.80407 142.61618,657.24719 144.5254,656.29258 C 146.2256,655.44248 148.21183,655.40526 150.02637,655.04236 C 150.18982,655.00967 150.35976,655.04236 150.52645,655.04236 C 153.1424,655.04236 155.01901,654.04424 157.0276,653.54209 C 158.68363,653.12808 160.05798,652.47194 161.77843,652.04183 C 164.31301,651.40818 165.72478,651.55261 168.27957,651.04165 C 169.94054,650.70946 171.21878,649.49421 173.03041,649.0413 C 174.75384,648.61044 176.29688,647.88792 178.03129,647.54104 C 179.82614,647.18207 180.25523,646.9027 178.53138,646.04078 C 177.2848,645.41749 176.27103,644.41051 175.03076,643.79038 C 174.79502,643.67251 174.53067,643.62368 174.28063,643.54034 C 173.26269,643.20102 171.80951,641.56931 171.03006,640.78985 C 170.16194,639.92173 168.20877,639.12917 167.02935,638.53946 C 165.46683,637.7582 163.89756,637.31581 162.52856,636.28906 C 161.47539,635.49918 159.29869,634.80122 158.02777,634.03867 C 156.48479,633.11288 155.06484,632.30715 153.52698,631.53823 C 151.96387,630.75667 150.52665,629.78802 149.02619,629.03779 C 147.63737,628.34338 145.99454,627.6392 144.5254,626.53735 C 143.05965,625.43804 141.05122,624.70289 139.52452,623.78686 C 138.26345,623.03022 136.88195,622.12605 135.52382,621.78651 C 133.81066,621.35822 132.55509,621.03638 130.77298,621.03638 C 128.81471,621.03638 126.91481,620.78634 125.02197,620.78634 C 122.95717,620.78634 121.13553,620.53629 119.02092,620.53629 C 117.03359,620.53629 115.13739,620.56951 113.26991,621.03638 C 111.08505,621.58259 109.04052,621.78651 106.76876,621.78651 C 104.42036,621.78651 102.16164,622.50072 100.01758,623.03673 C 98.244963,623.47989 96.35685,623.7302 94.516611,624.03691 C 92.027961,624.45168 89.710631,625.17589 87.265336,625.78722 C 86.931944,625.87056 86.598552,625.95391 86.26516,626.03726 C 83.871079,626.63578 81.641105,627.56218 79.26393,628.03761 C 77.30158,628.43008 75.656119,628.03048 73.762963,628.78774 C 71.906358,629.53039 70.934883,629.95174 69.262172,630.78809 C 67.922237,631.45806 66.305379,632.31973 66.011601,633.78862 z"
             id="path3386" />
        </g>
        <g
           transform="matrix(0.9840922,-0.1776586,0.1776586,0.9840922,-152.41591,-216.48223)"
           id="g3388">
          <path
             style="fill:#cb985d;fill-opacity:1;fill-rule:evenodd;stroke:#000000;stroke-width:2;stroke-linecap:butt;stroke-linejoin:miter;stroke-miterlimit:4;stroke-dasharray:none;stroke-opacity:1"
             d="M 124.26997,633.93417 C 132.47236,635.98477 107.30375,635.02965 99.101371,637.08025 C 90.756132,639.16655 85.212494,639.30557 77.078844,643.3724 C 66.175035,648.8243 65.638529,646.66164 62.921506,657.52973 C 61.450174,663.41506 74.521983,667.11526 80.22492,668.541 C 92.039402,671.49462 81.301601,669.61768 89.663146,677.97922 C 94.842567,683.15865 98.869966,685.61301 103.82048,690.56352 C 109.47766,696.22071 117.5797,695.28264 125.84301,695.28264 C 129.51358,695.28264 136.0307,683.52191 138.42731,681.1253 C 142.69416,676.85845 155.32133,676.50853 162.02288,674.83315 C 170.32102,672.75861 174.49277,670.34285 177.75325,663.82188 C 180.81069,657.70701 166.56471,655.86806 160.44984,652.81062 C 154.00096,649.58618 146.63834,643.71824 141.57339,638.65328 C 137.25921,634.3391 130.35622,633.93417 124.26997,633.93417 z"
             id="path3390" />
          <path
             style="fill:#ff8490;fill-opacity:1;fill-rule:evenodd;stroke:#000000;stroke-width:2;stroke-linecap:butt;stroke-linejoin:miter;stroke-miterlimit:4;stroke-dasharray:none;stroke-opacity:1"
             d="M 168.31503,621.34987 C 163.19895,621.34987 147.96898,628.37682 140.00035,632.36113 C 131.12454,636.79904 122.15745,637.34999 113.25871,641.79936 C 105.76686,645.54528 98.127387,644.94543 89.663146,644.94543 C 82.04246,644.94543 72.366066,646.51689 66.067581,648.09151 C 57.304818,650.2822 53.207637,651.37541 47.191129,654.38366 C 41.706635,657.12591 36.271111,662.1576 33.03379,665.39492 C 28.806379,669.62233 42.963718,672.17877 47.191129,676.40619 C 53.216696,682.43175 58.00475,680.38819 61.348468,679.55226 C 63.880755,678.91919 67.397505,668.99504 75.505807,666.96796 C 84.121917,664.81393 88.157117,663.78838 94.382259,660.67581 C 100.00206,657.86591 107.29209,657.44835 113.25871,655.9567 C 120.73555,654.08749 129.39915,653.10136 136.85427,651.23758 C 142.58432,649.80507 149.22614,645.3918 157.30376,643.3724 C 165.43414,641.3398 171.62337,640.22632 179.32629,640.22632 C 190.50729,640.22632 188.14876,631.74537 184.0454,627.64202 C 182.76122,626.35784 170.71406,622.30948 168.31503,621.34987 z"
             id="path3392" />
          <path
             style="opacity:1;fill:#ff8490;fill-opacity:1;fill-rule:evenodd;stroke:#000000;stroke-width:2;stroke-linecap:butt;stroke-linejoin:miter;marker:none;marker-start:none;marker-mid:none;marker-end:none;stroke-miterlimit:4;stroke-dasharray:none;stroke-dashoffset:0;stroke-opacity:1;visibility:visible;display:inline;overflow:visible;enable-background:accumulate"
             d="M 188.76452,684.27137 C 186.64955,682.15641 172.58995,675.39757 168.31503,673.26011 C 162.59295,670.39907 157.29081,667.748 149.43858,663.82188 C 142.75548,660.48034 136.4212,650.80451 133.7082,648.09151 C 128.15587,642.53918 122.51695,641.61937 117.97782,637.08025 C 114.47794,633.58036 107.63635,630.56228 102.24745,629.21506 C 96.012614,627.65635 91.527584,620.70905 86.51707,618.20379 C 80.449099,615.16981 69.695103,615.33062 64.494543,616.63076 C 58.262933,618.18866 53.172919,624.16435 51.910242,629.21506 C 49.855707,637.4332 67.929054,634.86491 75.505807,638.65328 C 84.860214,643.33049 86.118724,647.10582 94.382259,651.23758 C 101.3315,654.71221 109.44161,659.55378 114.83175,662.24885 C 123.00563,666.33579 127.00389,669.80491 133.7082,674.83315 C 139.8673,679.45247 143.83769,687.9359 149.43858,692.13656 C 154.02795,695.5786 158.85675,701.55473 162.02288,704.72086 C 169.5506,712.24858 171.63825,705.41881 179.32629,701.57479 C 187.86169,697.30709 188.76452,693.29805 188.76452,684.27137 z"
             id="path3394" />
          <path
             style="opacity:1;fill:#f72034;fill-opacity:1;fill-rule:evenodd;stroke:#f2cccc;stroke-width:2;stroke-linecap:butt;stroke-linejoin:miter;marker:none;marker-start:none;marker-mid:none;marker-end:none;stroke-miterlimit:4;stroke-dasharray:none;stroke-dashoffset:0;stroke-opacity:1;visibility:visible;display:inline;overflow:visible;enable-background:accumulate"
             d="M 62.921506,624.49594 C 64.939808,623.48679 80.534562,633.77314 84.944033,637.08025 C 89.040629,640.15269 98.966619,644.09154 103.82048,646.51847 C 110.76576,649.99111 115.44177,651.5426 121.1239,654.38366 C 130.18287,658.91315 133.42296,663.53664 138.42731,668.541 C 143.88195,673.99564 146.99397,678.6807 152.58465,684.27137 C 158.45328,690.14 162.58643,691.31493 166.74199,696.85568 C 171.59832,703.33078 176.34429,695.11856 180.89933,690.56352 C 182.82549,688.63736 165.67361,681.37763 165.16895,681.1253 C 158.17035,677.626 152.50847,677.90305 146.2925,671.68707 C 141.92901,667.32358 135.08203,664.06574 130.56212,660.67581 C 125.57793,656.93766 122.16374,650.70439 117.97782,646.51847 C 112.02547,640.56612 108.05501,635.26491 102.24745,632.36113 C 96.888635,629.68173 91.742447,627.10863 86.51707,624.49594 C 79.498339,620.98658 72.869314,620.51682 62.921506,624.49594 z"
             id="path3396" />
          <path
             style="fill:#f72034;fill-opacity:1;fill-rule:evenodd;stroke:#f2cccc;stroke-width:2;stroke-linecap:butt;stroke-linejoin:miter;stroke-miterlimit:4;stroke-dasharray:none;stroke-opacity:1"
             d="M 37.752903,670.11404 C 35.717193,669.09618 55.67257,658.55545 59.77543,657.52973 C 67.116557,655.69445 73.690992,652.85898 81.797957,651.23758 C 91.041809,649.38881 98.814642,647.37667 108.5396,644.94543 C 118.24876,642.51814 125.46094,643.26569 133.7082,637.08025 C 137.89323,633.94147 148.01527,632.01658 154.15769,630.78809 C 161.70601,629.27843 166.49069,626.06898 176.18022,626.06898 C 188.1038,626.06898 176.78043,634.42058 171.4611,637.08025 C 166.1608,639.73039 156.89936,638.65328 149.43858,638.65328 C 144.49189,638.65328 132.87447,642.00779 127.41605,643.3724 C 120.1349,645.19268 114.37627,648.31925 108.5396,651.23758 C 101.10417,654.9553 91.014403,653.70803 83.370995,657.52973 C 76.765494,660.83248 66.905987,661.04313 61.348468,663.82188 C 54.656016,667.16811 51.535191,671.8746 45.618092,674.83315 C 42.883438,676.20048 40.374633,671.68707 37.752903,670.11404 z"
             id="path3398" />
          <path
             style="fill:#ffdeb8;fill-opacity:1;fill-rule:evenodd;stroke:#000000;stroke-width:2;stroke-linecap:butt;stroke-linejoin:miter;stroke-miterlimit:4;stroke-dasharray:none;stroke-opacity:1"
             d="M 66.011601,654.54227 C 66.793715,654.84279 68.989668,656.02569 70.012304,656.79266 C 71.352642,657.79792 72.466316,658.14469 73.762963,658.79302 C 75.385567,659.60432 76.526417,660.04972 78.01371,660.79337 C 79.52629,661.54966 81.11339,662.18046 82.264457,663.04376 C 83.615399,664.05697 84.98523,664.39672 86.515204,665.5442 C 87.96634,666.63255 88.820014,667.1533 89.515732,668.54473 C 90.1055,669.72427 91.788761,671.0678 92.516259,671.7953 C 93.874553,673.15359 94.567203,674.07099 96.016874,674.79583 C 97.603811,675.5893 98.58463,676.62548 100.26762,677.04622 C 101.55306,677.36758 103.05577,678.69034 104.26832,679.29662 C 105.79715,680.06103 107.38954,681.2323 109.01916,682.0471 C 110.47707,682.77606 112.84486,683.94245 114.27008,684.79759 C 115.31496,685.42451 116.83571,686.50168 118.02074,686.79794 C 119.55913,687.18254 120.45431,686.16047 121.27131,685.54772 C 122.23907,684.8219 123.26466,684.42602 124.52188,683.79741 C 125.48236,683.31717 126.45443,681.84791 127.52241,681.04693 C 128.6242,680.22059 130.38202,680.1313 131.77316,679.29662 C 132.9469,678.59237 134.63651,678.35131 136.02391,677.79636 C 137.85915,677.06226 139.80757,676.40461 141.52487,675.54596 C 143.82378,674.3965 146.3639,674.48941 149.02619,674.0457 C 149.9553,673.89085 151.99926,672.0728 152.77685,671.29521 C 153.89885,670.17322 155.05632,669.90543 156.27746,669.29486 C 157.70671,668.58024 158.53067,667.79319 160.02812,667.04447 C 161.61273,666.25216 163.84993,665.79425 166.27922,665.79425 C 167.80599,665.79425 169.14356,663.89603 170.27993,663.04376 C 171.31114,662.27035 171.83688,661.50098 172.78036,660.79337 C 174.31629,659.64143 175.79894,659.75709 176.53102,658.29293 C 177.44056,656.47386 177.76316,656.52454 176.03094,654.79231 C 175.01183,653.77321 174.00158,653.20778 172.78036,652.29187 C 171.38385,651.24449 169.78615,650.54472 168.27957,649.79143 C 165.74515,648.52422 163.55726,647.40242 160.77826,646.29082 C 157.99995,645.1795 155.20191,643.62767 152.52681,642.29012 C 150.48425,641.26884 148.29959,640.11988 146.52575,638.7895 C 144.83461,637.52114 142.89403,636.50329 141.27483,635.28889 C 139.56692,634.00796 138.26038,632.83288 136.27395,632.03831 C 134.46318,631.31401 132.79126,630.29697 131.27307,629.53787 C 129.61797,628.71032 128.28059,628.41469 126.77228,628.03761 C 125.25815,627.65908 122.94149,628.18267 121.52136,628.5377 C 119.21793,629.11356 116.43938,628.78774 114.02004,628.78774 C 111.99723,628.78774 109.96464,630.05164 108.01898,630.53805 C 105.86949,631.07542 103.95682,632.16292 101.76788,633.03849 C 99.470535,633.95743 97.284358,635.03539 94.766654,635.53893 C 92.506819,635.9909 89.546145,637.4458 87.015292,638.28941 C 86.515204,638.45611 86.015116,638.6228 85.515029,638.7895 C 83.342229,639.51377 82.061206,639.64126 80.264106,640.53981 C 78.518617,641.41255 76.842656,642.30846 75.013183,643.04025 C 73.010717,643.84123 71.079793,644.88192 69.262172,645.79073 C 67.799057,646.52229 66.495006,647.29934 65.011425,648.04113 C 63.4773,648.80819 63.118259,649.14843 62.260942,650.29152 C 61.52019,651.27919 61.51081,652.06101 61.51081,653.54209 C 61.51081,654.8606 63.377455,655.60061 64.261293,656.04253 C 65.925345,656.87456 66.477202,655.70627 66.011601,654.54227 z"
             id="path3400" />
          <path
             style="opacity:1;fill:#cb985d;fill-opacity:1;fill-rule:evenodd;stroke:#000000;stroke-width:2;stroke-linecap:butt;stroke-linejoin:miter;marker:none;marker-start:none;marker-mid:none;marker-end:none;stroke-miterlimit:4;stroke-dasharray:none;stroke-dashoffset:0;stroke-opacity:1;visibility:visible;display:inline;overflow:visible;enable-background:accumulate"
             d="M 62.921506,635.50721 C 58.395699,630.9814 67.723414,649.68524 73.932769,651.23758 C 82.217,653.30864 85.541417,654.8317 91.236183,659.10277 C 96.17821,662.80929 102.25943,666.18743 106.96656,668.541 C 113.51437,671.8149 112.097,676.50902 117.97782,677.97922 C 118.34483,678.07098 130.75094,668.35218 132.13516,666.96796 C 136.12352,662.9796 149.65201,663.82188 155.73073,663.82188 C 166.02614,663.82188 168.52038,662.14617 174.60718,659.10277 C 183.4799,654.66641 181.15453,649.91975 176.18022,644.94543 C 172.69177,641.45699 162.56239,639.57468 158.8768,638.65328 C 153.22362,637.23999 148.83819,630.4879 143.14643,627.64202 C 136.22602,624.18182 132.52976,622.92291 122.69694,622.92291 C 115.00806,622.92291 108.51638,624.10849 100.67441,626.06898 C 92.419564,628.13269 89.306411,630.78809 80.22492,630.78809 C 72.092238,630.78809 70.947479,630.69162 62.921506,635.50721 z"
             id="path3402" />
          <path
             style="opacity:1;fill:#ffdeb8;fill-opacity:1;fill-rule:evenodd;stroke:#000000;stroke-width:2;stroke-linecap:butt;stroke-linejoin:miter;marker:none;marker-start:none;marker-mid:none;marker-end:none;stroke-miterlimit:4;stroke-dasharray:none;stroke-dashoffset:0;stroke-opacity:1;visibility:visible;display:inline;overflow:visible;enable-background:accumulate"
             d="M 66.011601,633.78862 C 66.848004,634.9402 69.233369,636.14964 71.01248,637.03919 C 72.437122,637.75151 73.467387,638.42123 75.013183,639.03954 C 76.23654,639.52889 77.673266,640.61963 79.013886,641.28994 C 80.240084,641.90304 81.255476,643.13498 82.764545,644.04042 C 84.158819,644.87699 85.624255,646.47045 86.765248,647.04095 C 88.439792,647.87822 90.418828,649.08307 92.016171,650.04148 C 92.373523,650.25589 92.682955,650.54157 93.016347,650.79161 C 94.569281,651.95631 96.734184,653.15062 98.517314,654.04218 C 100.1233,654.84517 100.87864,656.098 102.76806,657.04271 C 104.00154,657.65945 105.68456,658.91753 106.51872,659.54315 C 107.97971,660.63889 109.00168,660.90528 110.51942,662.04359 C 111.84332,663.03651 113.96863,663.49244 115.27026,664.79407 C 116.43858,665.96239 118.53369,666.79442 120.27114,666.79442 C 122.03058,666.79442 123.58296,664.88847 124.77193,664.29398 C 126.65929,663.3503 127.57663,662.73287 129.77281,662.29363 C 130.75116,662.09796 132.91169,660.59917 134.02355,660.04324 C 135.52388,659.29307 137.44248,659.33395 138.52434,658.79302 C 140.50224,657.80407 142.61618,657.24719 144.5254,656.29258 C 146.2256,655.44248 148.21183,655.40526 150.02637,655.04236 C 150.18982,655.00967 150.35976,655.04236 150.52645,655.04236 C 153.1424,655.04236 155.01901,654.04424 157.0276,653.54209 C 158.68363,653.12808 160.05798,652.47194 161.77843,652.04183 C 164.31301,651.40818 165.72478,651.55261 168.27957,651.04165 C 169.94054,650.70946 171.21878,649.49421 173.03041,649.0413 C 174.75384,648.61044 176.29688,647.88792 178.03129,647.54104 C 179.82614,647.18207 180.25523,646.9027 178.53138,646.04078 C 177.2848,645.41749 176.27103,644.41051 175.03076,643.79038 C 174.79502,643.67251 174.53067,643.62368 174.28063,643.54034 C 173.26269,643.20102 171.80951,641.56931 171.03006,640.78985 C 170.16194,639.92173 168.20877,639.12917 167.02935,638.53946 C 165.46683,637.7582 163.89756,637.31581 162.52856,636.28906 C 161.47539,635.49918 159.29869,634.80122 158.02777,634.03867 C 156.48479,633.11288 155.06484,632.30715 153.52698,631.53823 C 151.96387,630.75667 150.52665,629.78802 149.02619,629.03779 C 147.63737,628.34338 145.99454,627.6392 144.5254,626.53735 C 143.05965,625.43804 141.05122,624.70289 139.52452,623.78686 C 138.26345,623.03022 136.88195,622.12605 135.52382,621.78651 C 133.81066,621.35822 132.55509,621.03638 130.77298,621.03638 C 128.81471,621.03638 126.91481,620.78634 125.02197,620.78634 C 122.95717,620.78634 121.13553,620.53629 119.02092,620.53629 C 117.03359,620.53629 115.13739,620.56951 113.26991,621.03638 C 111.08505,621.58259 109.04052,621.78651 106.76876,621.78651 C 104.42036,621.78651 102.16164,622.50072 100.01758,623.03673 C 98.244963,623.47989 96.35685,623.7302 94.516611,624.03691 C 92.027961,624.45168 89.710631,625.17589 87.265336,625.78722 C 86.931944,625.87056 86.598552,625.95391 86.26516,626.03726 C 83.871079,626.63578 81.641105,627.56218 79.26393,628.03761 C 77.30158,628.43008 75.656119,628.03048 73.762963,628.78774 C 71.906358,629.53039 70.934883,629.95174 69.262172,630.78809 C 67.922237,631.45806 66.305379,632.31973 66.011601,633.78862 z"
             id="path3404" />
        </g>
      </g>
      <path
         id="path3275"
         d="M 308.31538,298.87715 C 304.55614,291.35868 291.55268,300.45019 283.14678,300.45019 C 275.76503,300.45019 265.87236,302.00873 259.55121,305.1693 C 251.93189,308.97896 244.71104,310.22983 235.95565,314.60753 C 228.41604,318.37733 227.01988,318.82418 221.79831,324.04575 C 215.36573,330.47833 217.07544,338.18809 218.65223,344.49524 C 220.13674,350.43326 224.60578,358.31398 228.09046,361.79866 C 232.41914,366.12734 235.59286,369.30106 240.67476,374.38296 C 246.03814,379.74634 248.40651,381.82153 256.40514,383.82118 C 263.12703,385.50166 270.69844,386.60799 278.42766,388.5403 C 286.68638,390.60498 292.79038,391.68637 302.02323,391.68637 C 309.1189,391.68637 318.98262,393.25941 327.19183,393.25941 C 336.63006,393.25941 346.06828,393.25941 355.50651,393.25941 C 363.89604,393.25941 372.28558,393.25941 380.67511,393.25941 C 390.63768,393.25941 400.60025,393.25941 410.56282,393.25941 C 418.42801,393.25941 426.2932,393.25941 434.15839,393.25941 C 442.41112,393.25941 451.09471,391.77815 457.75395,390.11334 C 462.75318,388.86353 467.07942,386.23712 475.05737,382.24815 C 483.47007,378.04179 488.54469,372.13023 493.93382,364.94473 C 497.58365,360.0783 503.80564,353.49987 508.09116,349.21436 C 512.40534,344.90017 514.38331,336.75438 514.38331,330.3379 C 514.38331,322.47272 514.38331,314.60753 514.38331,306.74234 C 514.38331,297.6864 510.89635,295.39019 506.51812,291.01196 C 502.52845,287.02229 491.09296,286.36916 484.49559,284.71981 C 476.88223,282.81647 469.48377,281.57374 460.90003,281.57374 C 452.5105,281.57374 444.12096,281.57374 435.73143,281.57374 C 427.34189,281.57374 418.95236,281.57374 410.56282,281.57374 C 402.69764,281.57374 394.83245,281.57374 386.96726,281.57374 C 374.3022,281.57374 365.55903,285.54078 353.93347,287.86589 C 345.65379,289.52182 338.6054,293.6642 330.3379,295.73108 C 323.74791,297.37858 315.65993,297.40824 308.31538,298.87715 z"
         style="fill:#eda585;fill-opacity:1;fill-rule:evenodd;stroke:#000000;stroke-width:3;stroke-linecap:butt;stroke-linejoin:miter;stroke-opacity:1;stroke-miterlimit:4;stroke-dasharray:none" />
      <path
         id="path3269"
         d="M 390.11334,276.85463 C 384.22121,275.38159 377.3586,269.73335 368.09081,267.4164 C 361.23133,265.70153 351.60767,267.4164 344.49524,267.4164 C 334.87971,267.4164 330.33965,268.59574 322.47272,270.56247 C 314.51842,272.55105 310.00838,278.79206 306.74234,283.14678 C 302.59489,288.67671 300.45019,292.90336 300.45019,302.02323 C 300.45019,308.8932 308.36509,314.65724 313.03449,319.32664 C 316.42455,322.7167 330.13437,322.47272 335.05702,322.47272 C 344.53459,322.47272 352.4406,323.21915 360.22562,319.32664 C 366.02936,316.42477 374.40732,314.98252 379.10207,311.46145 C 385.30589,306.80859 388.33628,304.41234 390.11334,297.30411 C 392.38911,288.201 394.36314,287.47914 390.11334,276.85463 z"
         style="fill:#ffffff;fill-opacity:1;fill-rule:evenodd;stroke:#000000;stroke-width:3;stroke-linecap:butt;stroke-linejoin:miter;stroke-opacity:1;stroke-miterlimit:4;stroke-dasharray:none;opacity:1;color:#000000;marker:none;marker-start:none;marker-mid:none;marker-end:none;stroke-dashoffset:0;visibility:visible;display:inline;overflow:visible;enable-background:accumulate" />
      <path
         id="path3267"
         d="M 426.2932,257.97817 C 419.88129,256.37519 403.93144,265.22646 396.40549,268.98944 C 387.47712,273.45362 380.87614,279.11366 372.80992,283.14678 C 364.96532,287.06907 363.14719,294.83307 364.94473,302.02323 C 366.50197,308.25216 374.57628,311.65478 377.52903,314.60753 C 383.29716,320.37565 393.38177,319.32664 402.69764,319.32664 C 411.08717,319.32664 419.4767,319.32664 427.86624,319.32664 C 437.47982,319.32664 444.83717,317.91985 451.4618,314.60753 C 459.51219,310.58233 463.61267,310.75528 467.19218,303.59626 C 471.18878,295.60307 472.57077,290.50379 470.33826,281.57374 C 468.66303,274.87283 464.65724,271.17361 459.32699,265.84336 C 454.57279,261.08916 447.77015,261.38111 440.45054,259.55121 C 432.59478,257.58727 436.01251,256.03431 426.2932,257.97817 z"
         style="fill:#ffffff;fill-opacity:1;fill-rule:evenodd;stroke:#000000;stroke-width:3;stroke-linecap:butt;stroke-linejoin:miter;stroke-opacity:1;stroke-miterlimit:4;stroke-dasharray:none" />
      <path
         id="path3271"
         d="M 341.34917,276.85463 C 342.771,271.1673 329.33866,288.43968 333.48398,292.585 C 339.21546,298.31648 351.49692,292.23024 353.93347,291.01196 C 364.40255,285.77742 341.4288,276.87055 341.34917,276.85463 z"
         style="fill:#000000;fill-opacity:1;fill-rule:evenodd;stroke:#000000;stroke-width:3;stroke-linecap:butt;stroke-linejoin:miter;stroke-opacity:1;stroke-miterlimit:4;stroke-dasharray:none" />
      <path
         id="path3273"
         d="M 435.73143,273.70855 C 441.70069,270.72392 422.88293,281.32166 421.57409,287.86589 C 420.1878,294.79733 435.3328,294.15804 440.45054,294.15804 C 449.93779,294.15804 446.13223,283.4989 443.59662,278.42766 C 442.22929,275.69301 438.35316,275.28159 435.73143,273.70855 z"
         style="fill:#000000;fill-opacity:1;fill-rule:evenodd;stroke:#000000;stroke-width:3;stroke-linecap:butt;stroke-linejoin:miter;stroke-opacity:1;stroke-miterlimit:4;stroke-dasharray:none;opacity:1;color:#000000;marker:none;marker-start:none;marker-mid:none;marker-end:none;stroke-dashoffset:0;visibility:visible;display:inline;overflow:visible;enable-background:accumulate" />
      <path
         id="path3279"
         d="M 222.21004,352.71165 C 220.02041,343.32748 212.49909,337.84439 212.49909,321.49782 C 212.49909,312.78788 229.28863,313.17413 235.80537,313.17413 C 246.68474,313.17413 255.60332,313.37557 262.99605,317.33597 C 270.42908,321.31796 268.82262,332.25647 268.82262,342.30703 C 268.82262,350.03433 255.12641,351.17798 249.40072,352.71165 C 242.99565,354.42729 250.18477,336.90434 245.51633,331.90243 C 240.73698,326.78169 239.68976,345.46983 239.68976,352.71165 C 239.68976,363.9311 223.17647,352.73162 228.03661,331.90243 C 228.79664,328.64517 216.69708,327.00373 220.26785,342.30703 C 224.10002,358.73065 222.59377,353.39687 216.38347,342.30703"
         style="fill:#000000;fill-opacity:1;fill-rule:evenodd;stroke:#000000;stroke-width:3;stroke-linecap:butt;stroke-linejoin:miter;stroke-opacity:1;stroke-miterlimit:4;stroke-dasharray:none;opacity:1;color:#000000;marker:none;marker-start:none;marker-mid:none;marker-end:none;stroke-dashoffset:0;visibility:visible;display:inline;overflow:visible;enable-background:accumulate" />
      <path
         id="path3281"
         d="M 501.79901,261.12425 C 497.56009,257.34799 488.8005,252.369 479.77648,250.11299 C 471.11787,247.94834 464.11058,248.50771 457.75395,251.68603 C 451.95097,254.58752 453.03484,267.78329 453.03484,273.70855 C 453.03484,282.55775 455.65693,289.96399 459.32699,297.30412 C 462.83312,304.31638 467.10134,311.37061 471.91129,316.18057 C 478.28026,322.54954 479.01251,326.42787 484.49559,331.91095 C 489.73947,337.15483 491.22113,341.78256 495.50685,346.06828 C 501.80474,352.36617 503.70117,354.47315 512.81027,347.64132 C 519.96936,342.272 529.88126,335.6246 534.8328,331.91095 C 543.32863,325.53907 545.02389,318.57378 550.56317,313.03449 C 555.41421,308.18346 558.57161,295.44459 561.57444,289.43893 C 566.65183,279.28414 564.41832,273.10418 560.0014,264.27033 C 555.46767,255.20287 556.03466,252.4384 550.56317,246.96691 C 545.15993,241.56367 544.29228,239.10173 533.25976,239.10173 C 527.15207,239.10173 516.14298,249.92635 512.81027,253.25906 C 508.51928,257.55006 510.10892,257.80029 501.79901,261.12425 z"
         style="fill:#eda585;fill-opacity:1;fill-rule:evenodd;stroke:#000000;stroke-width:3;stroke-linecap:butt;stroke-linejoin:miter;stroke-opacity:1;stroke-miterlimit:4;stroke-dasharray:none;opacity:1;color:#000000;marker:none;marker-start:none;marker-mid:none;marker-end:none;stroke-dashoffset:0;visibility:visible;display:inline;overflow:visible;enable-background:accumulate" />
      <path
         id="path3301"
         d="M 385.39422,616.63076 C 385.51614,616.79332 365.97289,615.05772 360.22562,615.05772 C 350.85086,615.05772 345.32488,612.28334 336.63006,616.63076 C 329.82491,620.03333 328.5952,627.98135 325.61879,633.93417 C 323.13995,638.89186 325.61879,651.84078 325.61879,657.52973 C 325.61879,663.27257 331.95372,670.28514 333.48398,676.40619 C 333.92665,678.17685 354.68639,678.95397 357.07954,679.55226 C 363.9555,681.27125 371.19772,682.69834 380.67511,682.69834 C 390.41368,682.69834 394.91786,682.61292 399.55156,677.97922 C 403.9816,673.54919 402.5988,664.21722 404.27067,657.52973 C 406.40537,648.99097 400.54524,640.64064 397.97852,635.50721 C 394.20249,627.95514 391.32038,624.03846 385.39422,616.63076 z"
         style="fill:#78a5bf;fill-opacity:1;fill-rule:evenodd;stroke:#000000;stroke-width:3;stroke-linecap:butt;stroke-linejoin:miter;stroke-opacity:1;stroke-miterlimit:4;stroke-dasharray:none;opacity:1;color:#000000;marker:none;marker-start:none;marker-mid:none;marker-end:none;stroke-dashoffset:0;visibility:visible;display:inline;overflow:visible;enable-background:accumulate" />
      <path
         style="opacity:1;fill:#eda585;fill-opacity:1;fill-rule:evenodd;stroke:#000000;stroke-width:3;stroke-linecap:butt;stroke-linejoin:miter;marker:none;marker-start:none;marker-mid:none;marker-end:none;stroke-miterlimit:4;stroke-dasharray:none;stroke-dashoffset:0;stroke-opacity:1;visibility:visible;display:inline;overflow:visible;enable-background:accumulate"
         d="M 541.12494,651.23761 C 552.84712,652.43876 564.342,649.41392 575.92668,648.78488 C 585.33985,650.04585 595.62338,647.91065 601.06584,639.39557 C 613.11713,625.10461 629.23323,612.69699 634.18107,593.77623 C 638.57726,578.09341 636.89895,561.65522 636.86269,545.58987 C 634.08797,534.68953 623.65868,542.38928 623.74363,550.2591 C 609.72301,596.55414 606.35394,612.23431 569.67402,622.14048 C 559.97458,624.37672 543.9468,624.43662 546.47341,638.77662 C 546.69873,643.8278 543.77787,647.35626 541.12494,651.23761 z"
         id="path3516"
         sodipodi:nodetypes="ccccccccc" />
      <path
         id="path3287"
         d="M 404.27067,574.15874 C 396.5288,574.15874 417.79562,581.70773 424.72016,585.17 C 430.28393,587.95189 439.54956,588.31608 446.74269,588.31608 C 455.09322,588.31608 462.62788,588.34704 470.33826,589.88912 C 477.63122,591.34771 487.57864,589.90487 493.93382,588.31608 C 501.79702,586.35028 509.76337,585.53847 517.52938,583.59697 C 526.07098,581.46157 531.40367,578.94861 537.97887,577.30481 C 548.82674,574.59285 543.43348,572.65373 545.84406,569.43963 C 552.0895,561.11237 561.53225,566.283 561.57444,566.29355 C 563.59812,566.79947 560.2398,587.36247 560.0014,588.31608 C 558.20392,595.50599 561.57444,605.65033 561.57444,613.48468 C 561.57444,622.06018 560.0014,628.92028 560.0014,637.08025 C 560.0014,645.37912 556.85533,650.01198 556.85533,659.10277 C 556.85533,666.71814 550.91434,672.60348 545.84406,676.40619 C 539.98736,680.79871 533.01085,683.54708 523.82153,685.84441 C 521.72415,686.36876 519.62677,686.8931 517.52938,687.41745 C 510.32337,689.21895 502.08106,688.99049 493.93382,688.99049 C 485.54429,688.99049 477.15475,688.99049 468.76522,688.99049 C 460.37568,688.99049 451.98615,688.99049 443.59662,688.99049 C 435.42564,688.99049 427.27096,689.23493 420.00105,687.41745 C 412.73888,685.60191 408.21392,682.3104 402.69764,679.55226 C 395.20953,675.80821 390.3457,675.06551 385.39422,670.11404 C 380.28494,665.00475 381.01392,657.31194 379.10207,649.66455 C 377.12841,641.7699 380.67511,633.93153 380.67511,626.06898 C 380.67511,618.54228 384.94039,613.72699 386.96726,605.61949 C 388.62904,598.97239 393.07125,593.41151 396.40549,586.74304 C 399.92056,579.7129 396.66089,583.67097 404.27067,574.15874 z"
         style="fill:#78a5bf;fill-opacity:1;fill-rule:evenodd;stroke:#000000;stroke-width:3;stroke-linecap:butt;stroke-linejoin:miter;stroke-opacity:1;stroke-miterlimit:4;stroke-dasharray:none" />
      <path
         id="path3289"
         d="M 482.92256,594.60823 C 486.56289,587.32756 483.45883,612.44792 489.21471,618.20379 C 495.00628,623.99537 500.71318,626.9773 509.6642,629.21506 C 517.01648,631.05313 525.70184,630.86491 531.68672,632.36113 C 542.20685,634.99116 545.58558,627.10289 542.69799,638.65328 C 539.88946,649.88737 539.17673,649.66455 526.96761,649.66455 C 519.10242,649.66455 511.23723,649.66455 503.37205,649.66455 C 498.53386,649.66455 489.46687,640.47848 487.64167,638.65328 C 482.39806,633.40967 479.03978,629.3147 475.05737,621.34987 C 471.62835,614.49183 470.33826,611.29735 470.33826,602.47342 C 470.33826,597.52675 478.68082,597.15327 482.92256,594.60823 z"
         style="fill:#5385a2;fill-opacity:1;fill-rule:evenodd;stroke:#000000;stroke-width:3;stroke-linecap:butt;stroke-linejoin:miter;stroke-opacity:1;stroke-miterlimit:4;stroke-dasharray:none;opacity:1;color:#000000;marker:none;marker-start:none;marker-mid:none;marker-end:none;stroke-dashoffset:0;visibility:visible;display:inline;overflow:visible;enable-background:accumulate" />
      <path
         id="path3293"
         d="M 397.97852,585.17 C 398.44479,585.17 416.60276,595.26864 421.57409,597.7543 C 429.48605,601.71029 431.26682,603.32356 440.45054,605.61949 C 447.19994,607.30684 454.81681,607.19253 462.47307,607.19253 C 469.7042,607.19253 472.36921,602.47342 481.34952,602.47342 C 489.21471,602.47342 497.07989,602.47342 504.94508,602.47342 C 513.69613,602.47342 521.09079,600.69271 526.96761,597.7543 C 533.53767,594.46927 541.01317,591.93925 545.84406,588.31608 C 553.06461,582.90066 557.14469,585.58559 560.0014,574.15874 C 562.90284,562.55298 553.42898,564.86065 547.4171,567.86659 C 539.65509,571.74759 537.81894,575.3785 530.11369,577.30481 C 522.83813,579.1237 517.09895,582.23914 511.23723,585.17 C 504.63222,588.47251 494.88808,589.88912 487.64167,589.88912 C 479.77648,589.88912 471.91129,589.88912 464.0461,589.88912 C 456.18092,589.88912 448.31573,589.88912 440.45054,589.88912 C 434.92072,589.88912 426.95594,585.50137 423.14713,583.59697 C 414.95885,579.50283 410.39146,578.70649 405.84371,574.15874 C 398.19188,566.50691 397.97852,579.52574 397.97852,585.17 z"
         style="fill:#5385a2;fill-opacity:1;fill-rule:evenodd;stroke:#000000;stroke-width:3;stroke-linecap:butt;stroke-linejoin:miter;stroke-opacity:1;stroke-miterlimit:4;stroke-dasharray:none;opacity:1;color:#000000;marker:none;marker-start:none;marker-mid:none;marker-end:none;stroke-dashoffset:0;visibility:visible;display:inline;overflow:visible;enable-background:accumulate" />
      <path
         id="path3291"
         d="M 437.30446,589.88912 C 437.30446,581.95432 436.08286,605.7868 434.15839,613.48468 C 432.41271,620.4674 432.37838,630.04293 431.01231,635.50721 C 429.10771,643.12564 429.43928,650.06335 429.43928,657.52973 C 429.43928,669.03659 429.90673,671.9208 420.00105,666.96796 C 411.37287,662.65387 412.13586,658.59238 412.13586,648.09151 C 412.13586,640.65684 410.56282,632.71566 410.56282,624.49594 C 410.56282,616.9114 412.50977,609.59078 415.28194,604.04645 C 419.5987,595.41293 418.81607,591.46215 429.43928,591.46215 C 432.11293,591.46215 434.68274,590.41346 437.30446,589.88912 z"
         style="fill:#5385a2;fill-opacity:1;fill-rule:evenodd;stroke:#000000;stroke-width:3;stroke-linecap:butt;stroke-linejoin:miter;stroke-opacity:1;stroke-miterlimit:4;stroke-dasharray:none;opacity:1;color:#000000;marker:none;marker-start:none;marker-mid:none;marker-end:none;stroke-dashoffset:0;visibility:visible;display:inline;overflow:visible;enable-background:accumulate" />
      <path
         id="path3295"
         d="M 526.96761,673.26011 C 521.39153,667.68403 516.2284,662.38487 506.51812,657.52973 C 499.34499,653.94317 492.80521,653.31499 484.49559,651.23758 C 477.41048,649.46631 469.34459,655.66701 465.61914,657.52973 C 459.62897,660.52482 455.79357,663.91872 449.88877,665.39492 C 442.47912,667.24733 435.15756,672.26094 431.01231,676.40619 C 425.28429,682.13421 424.72016,683.16222 424.72016,693.7096 C 424.72016,702.66904 422.54564,707.03404 424.72016,715.73213 C 426.79074,724.01442 427.57783,726.59918 434.15839,729.88947 C 441.7487,733.68462 449.01142,733.03554 457.75395,733.03554 C 466.16258,733.03554 474.19348,731.10793 479.77648,728.31643 C 484.9182,725.74557 492.71658,723.50837 498.65293,722.02428 C 504.50528,720.56119 514.33594,713.01484 519.10242,709.43998 C 526.72726,703.72135 527.68321,698.71238 530.11369,688.99049 C 531.43187,683.71774 528.75988,677.74079 526.96761,673.26011 z"
         style="fill:#78a5bf;fill-opacity:1;fill-rule:evenodd;stroke:#000000;stroke-width:3;stroke-linecap:butt;stroke-linejoin:miter;stroke-opacity:1;stroke-miterlimit:4;stroke-dasharray:none;opacity:1;color:#000000;marker:none;marker-start:none;marker-mid:none;marker-end:none;stroke-dashoffset:0;visibility:visible;display:inline;overflow:visible;enable-background:accumulate" />
      <path
         id="path3303"
         d="M 331.91094,676.40619 C 329.28921,671.16273 345.06904,677.40543 349.21436,673.26011 C 349.97687,672.4976 340.53288,657.47019 339.77613,655.9567 C 335.77708,647.9586 336.49227,642.07494 339.77613,635.50721 C 343.58136,627.89676 342.88895,619.64379 341.34917,613.48468 C 338.78169,603.21478 327.43731,622.43194 327.19183,622.92291 C 323.77821,629.75015 322.47272,635.15613 322.47272,643.3724 C 322.47272,650.38773 324.00415,657.36332 325.61879,663.82188 C 326.48245,667.27654 330.30543,673.73032 331.91094,676.40619 z"
         style="fill:#395c71;fill-opacity:1;fill-rule:evenodd;stroke:#000000;stroke-width:3;stroke-linecap:butt;stroke-linejoin:miter;stroke-opacity:1;stroke-miterlimit:4;stroke-dasharray:none;opacity:1;color:#000000;marker:none;marker-start:none;marker-mid:none;marker-end:none;stroke-dashoffset:0;visibility:visible;display:inline;overflow:visible;enable-background:accumulate" />
      <path
         id="path3307"
         d="M 341.34917,659.10277 C 340.45894,659.993 322.81686,659.10277 316.18057,659.10277 C 308.31538,659.10277 300.45019,659.10277 292.585,659.10277 C 284.71981,659.10277 276.85463,659.10277 268.98944,659.10277 C 260.08999,659.10277 256.2114,654.18993 251.68602,649.66455 C 247.00114,644.97966 245.07226,636.43701 242.2478,630.78809 C 239.76895,625.8304 242.2478,612.88149 242.2478,607.19253 C 242.2478,597.43494 255.50264,604.38173 257.97817,605.61949 C 263.02599,608.1434 260.24179,606.00325 262.69729,596.18127 C 264.99141,587.00477 275.58658,595.82819 276.85463,600.90038 C 279.33347,610.81575 277.79983,599.56364 289.43893,602.47342 C 298.02013,604.61872 292.25221,617.29633 291.01196,619.77683 C 288.19331,625.41413 281.07756,628.05369 280.0007,632.36113 C 279.48963,634.40543 301.15132,633.93417 303.59626,633.93417 C 312.20752,633.93417 318.79373,632.36113 327.19183,632.36113 C 337.34581,632.36113 341.34917,631.17537 341.34917,641.79936 C 341.34917,647.56716 341.34917,653.33497 341.34917,659.10277 z"
         style="fill:#eda585;fill-opacity:1;fill-rule:evenodd;stroke:#000000;stroke-width:3;stroke-linecap:butt;stroke-linejoin:miter;stroke-opacity:1;stroke-miterlimit:4;stroke-dasharray:none;opacity:1;color:#000000;marker:none;marker-start:none;marker-mid:none;marker-end:none;stroke-dashoffset:0;visibility:visible;display:inline;overflow:visible;enable-background:accumulate" />
      <path
         id="path3309"
         d="M 514.38331,435.73143 C 514.38331,440.8067 522.2485,449.13246 522.2485,457.75395 C 522.2485,465.61914 522.2485,473.48433 522.2485,481.34952 C 522.2485,489.87979 518.74237,496.22695 515.95635,501.79901 C 512.29529,509.12112 510.03334,513.64502 506.51812,520.67546 C 502.60007,528.51157 497.876,532.46366 493.93382,536.40584 C 488.99173,541.34793 479.00693,544.6558 473.48433,547.4171 C 465.99773,551.1604 458.01453,553.64411 451.4618,555.28229 C 443.98685,557.15103 436.04003,556.85533 427.86624,556.85533 C 420.00105,556.85533 412.13586,556.85533 404.27067,556.85533 C 399.43895,556.85533 392.93691,564.80114 386.96726,566.29355 C 379.13749,568.25099 369.67827,565.51424 364.94473,563.14748 C 359.00002,560.17512 355.68286,557.56072 353.93347,550.56317 C 352.16943,543.507 363.27388,542.69799 369.66385,542.69799 C 375.95904,542.69799 368.91565,539.70519 366.51777,530.11369 C 364.20257,520.85287 373.59346,520.67546 380.67511,520.67546 C 388.06236,520.67546 381.30071,519.42425 386.96726,508.09116 C 389.80067,502.42434 400.46926,510.88779 404.27067,515.95635 C 406.68057,519.16954 406.1897,527.42892 410.56282,533.25976 C 413.0059,536.5172 427.14569,534.8328 432.58535,534.8328 C 441.61518,534.8328 448.37737,533.63761 456.18092,531.68672 C 465.05545,529.46809 469.64346,526.52849 475.05737,523.82153 C 481.10723,520.79661 483.79219,516.65975 487.64167,512.81027 C 493.28446,507.16748 497.06705,506.54381 500.22597,500.22597 C 503.78395,493.11001 507.66054,492.94084 509.6642,482.92256 C 510.88033,476.84191 514.32602,472.19776 515.95635,464.0461 C 517.97127,453.97151 518.39702,445.76571 514.38331,435.73143 z"
         style="fill:#eda585;fill-opacity:1;fill-rule:evenodd;stroke:#000000;stroke-width:3;stroke-linecap:butt;stroke-linejoin:miter;stroke-opacity:1;stroke-miterlimit:4;stroke-dasharray:none;opacity:1;color:#000000;marker:none;marker-start:none;marker-mid:none;marker-end:none;stroke-dashoffset:0;visibility:visible;display:inline;overflow:visible;enable-background:accumulate" />
      <path
         id="path3333"
         d="M 416.85498,368.09081 C 420.45106,366.55127 432.93701,361.62283 438.8775,358.65258 C 445.15609,355.51329 450.79437,351.45483 454.60788,347.64132 C 461.70313,340.54606 462.64551,337.33035 470.33826,333.48398 C 471.1084,333.09891 477.53153,349.67277 478.20344,352.36043 C 480.3039,360.76227 474.98385,368.16433 470.33826,372.80992 C 464.77762,378.37056 459.18142,378.74521 451.4618,380.67511 C 444.30117,382.46527 437.23856,382.62493 429.43928,380.67511 C 421.72542,378.74665 422.44454,377.40674 416.85498,368.09081 z"
         style="fill:#f55757;fill-opacity:1;fill-rule:evenodd;stroke:#000000;stroke-width:3;stroke-linecap:butt;stroke-linejoin:miter;stroke-opacity:1;stroke-miterlimit:4;stroke-dasharray:none" />
      <path
         id="path3447"
         d="M 425.50668,738.07058 C 434.28532,738.07058 436.98859,736.0269 442.8101,730.20539 C 448.53679,724.4787 449.10225,717.6463 449.10225,709.7559 C 449.10225,701.00742 445.90324,697.11867 441.23706,692.45248 C 435.93303,687.14845 431.80324,686.55469 423.93365,684.5873 C 414.29784,682.17834 409.10281,687.05833 405.05719,692.45248 C 401.39359,697.33729 400.33808,704.84325 400.33808,711.32894 C 400.33808,720.71232 402.61139,724.84693 406.63023,730.20539 C 411.07755,736.13515 417.89747,736.54873 425.50668,738.07058 z"
         style="opacity:1;fill:#395c71;fill-opacity:1;fill-rule:evenodd;stroke:#000000;stroke-width:3;stroke-linecap:butt;stroke-linejoin:miter;marker:none;marker-start:none;marker-mid:none;marker-end:none;stroke-miterlimit:4;stroke-dasharray:none;stroke-dashoffset:0;stroke-opacity:1;visibility:visible;display:inline;overflow:visible;enable-background:accumulate" />
      <path
         id="path3305"
         d="M 451.46181,720.45124 C 453.96682,730.47127 433.16716,730.53053 423.14713,733.03554 C 416.60312,734.67154 406.87985,741.9557 402.69764,744.0468 C 395.35915,747.71605 388.7651,750.28275 382.24815,751.91199 C 375.38867,753.62686 365.76501,751.91199 358.65259,751.91199 C 351.03185,751.91199 344.88114,744.56132 339.77613,737.75465 C 335.42187,731.94897 336.82417,725.94678 335.05702,718.8782 C 334.03172,714.77701 343.86021,718.56068 347.64132,720.45124 C 354.02027,723.64071 341.34917,707.13362 341.34917,700.00175 C 341.34917,691.41119 354.56181,699.36903 355.50651,703.14782 C 356.92834,708.83515 359.85428,692.10734 363.3717,687.41745 C 369.81762,678.82288 377.08326,696.64562 377.52904,698.42871 C 379.22479,705.21171 378.29617,712.6636 377.52904,715.73212 C 375.85634,722.4229 391.28775,714.25874 397.97853,712.58605 C 407.18793,710.2837 410.19356,708.83809 418.42802,704.72086 C 424.51584,701.67695 429.41485,698.43482 435.73143,696.85567 C 441.24362,695.47762 448.74718,690.45566 454.60788,688.99048 C 462.52466,687.01129 465.38597,692.77689 467.19218,700.00175 C 469.28587,708.3765 463.04448,713.58768 459.327,717.30516 C 457.33035,719.30181 454.08354,719.40254 451.46181,720.45124 z"
         style="opacity:1;fill:#eda585;fill-opacity:1;fill-rule:evenodd;stroke:#000000;stroke-width:3;stroke-linecap:butt;stroke-linejoin:miter;marker:none;marker-start:none;marker-mid:none;marker-end:none;stroke-miterlimit:4;stroke-dasharray:none;stroke-dashoffset:0;stroke-opacity:1;visibility:visible;display:inline;overflow:visible;enable-background:accumulate" />
      <path
         id="path3297"
         d="M 432.84375 675.75 C 426.64982 675.82547 420.32827 677.83586 416.875 679.5625 C 412.22164 681.88919 410.28855 685.12342 408.6875 688.78125 C 412.36895 684.97421 417.16428 682.39262 424.71875 684.28125 C 432.58834 686.24866 436.72723 686.82097 442.03125 692.125 C 446.69743 696.79121 449.90625 700.68904 449.90625 709.4375 C 449.90625 717.32792 449.32043 724.14829 443.59375 729.875 C 437.77224 735.69653 435.09115 737.75 426.3125 737.75 C 423.55029 737.19756 420.88446 736.79764 418.40625 736.21875 C 417.22223 737.39895 415.20563 739.16509 413.40625 741.3125 C 416.54466 742.44087 420.54304 742.46875 424.71875 742.46875 C 432.40024 742.46876 439.13263 742.42973 446.75 740.90625 C 447.24839 738.91276 458.59508 732.83844 460.90625 723.59375 C 462.55531 716.99754 464.0625 712.11285 464.0625 703.15625 C 464.06249 695.11028 460.33424 691.01224 457.75 685.84375 C 454.29964 678.94311 447.04774 678.44943 438.875 676.40625 C 436.95635 675.9266 434.90839 675.72485 432.84375 675.75 z "
         style="opacity:1;fill:#5385a2;fill-opacity:1;fill-rule:evenodd;stroke:#000000;stroke-width:3;stroke-linecap:butt;stroke-linejoin:miter;marker:none;marker-start:none;marker-mid:none;marker-end:none;stroke-miterlimit:4;stroke-dasharray:none;stroke-dashoffset:0;stroke-opacity:1;visibility:visible;display:inline;overflow:visible;enable-background:accumulate" />
    </g>
  </g>
</svg>
