<?xml version="1.0" encoding="UTF-8" standalone="no"?>
<!-- Created with Inkscape (http://www.inkscape.org/) -->
<svg
   xmlns:dc="http://purl.org/dc/elements/1.1/"
   xmlns:cc="http://creativecommons.org/ns#"
   xmlns:rdf="http://www.w3.org/1999/02/22-rdf-syntax-ns#"
   xmlns:svg="http://www.w3.org/2000/svg"
   xmlns="http://www.w3.org/2000/svg"
   xmlns:sodipodi="http://sodipodi.sourceforge.net/DTD/sodipodi-0.dtd"
   xmlns:inkscape="http://www.inkscape.org/namespaces/inkscape"
   width="744.09448819"
   height="1052.3622047"
   id="svg2"
   sodipodi:version="0.32"
   inkscape:version="0.46"
   sodipodi:docname="into the bacon void.svg"
   inkscape:output_extension="org.inkscape.output.svg.inkscape">
  <defs
     id="defs4">
    <inkscape:perspective
       sodipodi:type="inkscape:persp3d"
       inkscape:vp_x="0 : 526.18109 : 1"
       inkscape:vp_y="0 : 1000 : 0"
       inkscape:vp_z="744.09448 : 526.18109 : 1"
       inkscape:persp3d-origin="372.04724 : 350.78739 : 1"
       id="perspective10" />
  </defs>
  <sodipodi:namedview
     id="base"
     pagecolor="#ffffff"
     bordercolor="#666666"
     borderopacity="1.0"
     gridtolerance="10000"
     guidetolerance="10"
     objecttolerance="10"
     inkscape:pageopacity="0.0"
     inkscape:pageshadow="2"
     inkscape:zoom="0.6357127"
     inkscape:cx="95.192616"
     inkscape:cy="526.18109"
     inkscape:document-units="px"
     inkscape:current-layer="layer1"
     showgrid="false"
     inkscape:window-width="1280"
     inkscape:window-height="885"
     inkscape:window-x="0"
     inkscape:window-y="25" />
  <metadata
     id="metadata7">
    <rdf:RDF>
      <cc:Work
         rdf:about="">
        <dc:format>image/svg+xml</dc:format>
        <dc:type
           rdf:resource="http://purl.org/dc/dcmitype/StillImage" />
      </cc:Work>
    </rdf:RDF>
  </metadata>
  <g
     inkscape:label="Layer 1"
     inkscape:groupmode="layer"
     id="layer1">
    <g
       id="g3198"
       transform="translate(36.179866,-69.213656)">
      <path
         id="path2402"
         d="M 299.10033,502.26586 C 298.3813,503.34786 281.69801,509.96332 277.06601,511.27345 C 268.67468,513.64686 264.04254,510.1992 255.99573,512.47516 C 249.05117,514.43936 243.70145,512.47172 236.29008,512.89442 C 229.26388,513.29515 223.93701,508.06392 218.91313,504.72535 C 211.64262,499.89379 208.60275,499.39337 203.28268,490.11501 C 198.48461,481.74704 195.24319,477.26139 197.20462,470.02748 C 198.8723,463.87698 203.30024,457.8185 208.88541,452.45022 C 215.22852,446.35346 218.60557,443.25029 226.42529,438.76658 C 234.10437,434.36352 239.36006,438.91573 244.96659,442.64149 C 251.70233,447.11767 256.61217,450.30209 261.3795,458.61645 C 265.41074,465.64706 271.94436,471.25985 277.21023,476.7385 C 282.83085,482.58623 288.99164,484.636 293.62313,492.71346 C 295.09246,495.27601 298.169,500.64158 299.10033,502.26586 z"
         style="fill:#ff0002;fill-opacity:1;fill-rule:evenodd;stroke:#000000;stroke-width:3;stroke-linecap:butt;stroke-linejoin:miter;stroke-miterlimit:4;stroke-dasharray:none;stroke-opacity:1" />
      <path
         id="path2414"
         d="M 344.2078,527.17367 C 353.42965,517.78428 365.77905,512.46974 375.80748,504.13987 C 383.30266,495.74932 395.01636,495.15295 405.15847,492.30696 C 415.95972,489.46625 427.293,486.43602 438.4433,489.30175 C 445.00954,490.43715 450.90157,494.00073 454.92895,499.32146 C 459.75694,504.13277 452.36566,508.95172 448.43729,511.0743 C 440.56634,515.81268 431.96476,520.12908 422.52412,519.86107 C 410.96825,520.81239 400.5659,527.60764 388.75268,526.6112 C 380.18277,526.73807 371.56683,526.14474 363.0158,526.92305 C 356.79366,528.71078 350.53823,527.7057 344.2078,527.17367 z"
         style="opacity:1;fill:#dc8522;fill-opacity:1;fill-rule:evenodd;stroke:#000000;stroke-width:3;stroke-linecap:butt;stroke-linejoin:miter;marker:none;marker-start:none;marker-mid:none;marker-end:none;stroke-miterlimit:4;stroke-dasharray:none;stroke-dashoffset:0;stroke-opacity:1;visibility:visible;display:inline;overflow:visible;enable-background:accumulate" />
      <path
         id="path2410"
         d="M 276.28355,509.90882 C 276.82091,511.8087 298.70671,514.83628 303.4132,516.11242 C 311.67648,518.35297 315.77397,519.46398 322.73696,521.35196 C 329.52392,523.19222 338.69064,525.67771 344.20779,527.17366 C 352.40282,529.39571 355.93682,532.65887 362.94938,534.56029 C 369.84537,536.4301 379.78642,540.68126 384.62051,543.89371 C 392.1202,548.87755 395.98972,551.8684 401.61559,557.72158 C 407.19446,563.52588 410.7166,570.49366 415.29925,575.26147 C 420.34483,580.51091 422.10163,590.90095 423.52438,595.93117 C 425.53367,603.03512 422.34397,608.78537 421.0141,613.69 C 419.34594,619.84227 413.32718,623.5374 406.98594,627.17338 C 398.57768,631.99454 392.97511,634.3141 384.16915,634.81634 C 375.13357,635.33168 367.56799,635.05854 360.95179,635.43589 C 355.07282,635.77118 346.3868,629.98014 341.42775,626.68464 C 334.20647,621.88581 328.46667,618.07147 320.92096,613.05704 C 314.80272,608.99123 308.84219,601.04078 303.7256,595.71746 C 298.74047,590.5309 292.08662,586.91154 285.94807,580.52495 C 281.04836,575.42728 277.74906,566.22564 274.21121,560.05553 C 270.29893,553.2324 266.38665,546.40926 262.47436,539.58612 C 258.45667,532.57916 260.99554,526.01167 260.69048,520.66293 C 260.33095,514.35921 270.80612,513.04949 276.28355,509.90882 z"
         style="opacity:1;fill:#dc8522;fill-opacity:1;fill-rule:evenodd;stroke:#000000;stroke-width:3;stroke-linecap:butt;stroke-linejoin:miter;marker:none;marker-start:none;marker-mid:none;marker-end:none;stroke-miterlimit:4;stroke-dasharray:none;stroke-dashoffset:0;stroke-opacity:1;visibility:visible;display:inline;overflow:visible;enable-background:accumulate" />
      <path
         sodipodi:nodetypes="cccccccccccccc"
         id="path2391"
         d="M 394.4748,346.03612 C 422.07003,333.7811 456.98575,334.87436 479.22749,357.28951 C 499.71236,375.11325 507.62591,404.39224 499.81766,430.17775 C 497.52024,462.46922 470.73853,483.69877 444.68894,498.32324 C 413.3937,522.33011 371.94982,524.03264 334.32265,519.87305 C 304.55888,516.89384 284.81098,492.52549 263.31689,474.76972 C 249.87713,462.75828 238.86853,434.66969 214.55569,451.62847 C 193.42929,467.78032 206.00317,500.37375 231.47122,508.6483 C 248.05045,516.72174 282.59883,503.60702 288.1058,509.80114 C 264.76848,523.6595 235.31144,528.76404 212.00081,510.13654 C 183.09907,483.37683 191.14965,437.50913 219.55807,411.9416 C 237.78585,391.28359 255.49148,383.55538 281.03257,375.97472 C 310.24088,364.05662 342.46202,362.09098 372.55479,353.00278 C 380.09613,351.58105 387.69553,349.75954 394.4748,346.03612 z"
         style="opacity:1;fill:#dc8522;fill-opacity:1;fill-rule:evenodd;stroke:#000000;stroke-width:3;stroke-linecap:butt;stroke-linejoin:miter;marker:none;marker-start:none;marker-mid:none;marker-end:none;stroke-miterlimit:4;stroke-dasharray:none;stroke-dashoffset:0;stroke-opacity:1;visibility:visible;display:inline;overflow:visible;enable-background:accumulate" />
      <path
         id="path2385"
         d="M 297.32987,360.03217 C 300.88125,354.68808 306.09449,349.56684 315.45191,344.20143 C 323.47218,339.60273 331.35828,338.11653 339.63334,335.77601 C 346.83693,333.73853 354.31047,335.64354 362.85069,335.15647 C 371.03808,334.68951 376.33601,336.51612 382.17445,340.396 C 389.15536,345.03511 393.5321,345.60589 399.75169,352.0768 C 405.3601,357.91181 408.47524,357.80369 413.23506,366.10496 C 416.55864,371.90138 412.33408,378.53353 411.50724,385.22843 C 410.53212,393.12381 404.9263,399.71325 402.75598,404.75248 C 399.76323,411.70133 386.87906,417.1728 381.7044,418.63641 C 375.17236,420.48394 363.94108,419.92955 358.48704,419.25596 C 351.62901,418.40896 342.46025,409.95564 337.39808,407.77545 C 332.08109,405.48551 325.97173,397.53908 321.76763,393.16513 C 316.66025,387.85138 312.38534,383.12693 308.08398,375.62524 C 305.78356,371.61322 300.73978,365.97914 297.32987,360.03217 z"
         style="fill:#ffffff;fill-opacity:1;fill-rule:evenodd;stroke:#000000;stroke-width:3;stroke-linecap:butt;stroke-linejoin:miter;stroke-miterlimit:4;stroke-dasharray:none;stroke-opacity:1" />
      <path
         id="path2383"
         d="M 276.84177,359.08679 C 282.50734,357.27105 293.90839,360.25692 300.25941,361.97897 C 306.97127,363.79885 313.13821,368.92839 319.78346,370.73022 C 324.20276,371.92848 329.91795,381.82475 334.04928,386.12301 C 339.46552,391.75808 345.41402,399.61861 349.29785,406.39214 C 353.39415,413.5362 356.50324,421.5366 356.94081,429.20892 C 357.46678,438.43099 355.4938,447.29675 352.8843,456.92073 C 350.67474,465.06977 346.55171,469.35748 341.20352,474.49799 C 334.34589,481.08928 325.53839,484.55158 319.95163,484.87021 C 308.70183,485.51182 307.06489,487.28694 297.89862,481.19558 C 290.64345,476.37422 286.1274,475.00486 279.53891,468.15016 C 274.63922,463.0525 271.33991,453.85086 267.80206,447.68075 C 262.96327,439.24175 260.34619,432.53443 258.01201,424.28179 C 255.58259,415.69243 255.78436,409.9323 255.44567,403.99397 C 255.01165,396.38421 254.95441,387.43802 255.60858,382.14124 C 256.24495,376.98864 265.21185,367.69026 267.28938,364.56399 C 269.68041,360.96597 270.93293,361.06609 276.84177,359.08679 z"
         style="opacity:1;fill:#ffffff;fill-opacity:1;fill-rule:evenodd;stroke:#000000;stroke-width:3;stroke-linecap:butt;stroke-linejoin:miter;marker:none;marker-start:none;marker-mid:none;marker-end:none;stroke-miterlimit:4;stroke-dasharray:none;stroke-dashoffset:0;stroke-opacity:1;visibility:visible;display:inline;overflow:visible;enable-background:accumulate" />
      <path
         id="path2387"
         d="M 346.13065,375.56919 C 343.7326,371.38691 364.57905,375.63609 366.61875,376.51455 C 374.9102,380.08555 362.38387,389.82243 359.03184,391.74443 C 353.35879,394.99727 343.76101,386.66427 340.29025,384.35781 C 337.36071,382.41101 343.9473,378.32693 346.13065,375.56919 z"
         style="opacity:1;fill:#000000;fill-opacity:1;fill-rule:evenodd;stroke:#000000;stroke-width:3;stroke-linecap:butt;stroke-linejoin:miter;marker:none;marker-start:none;marker-mid:none;marker-end:none;stroke-miterlimit:4;stroke-dasharray:none;stroke-dashoffset:0;stroke-opacity:1;visibility:visible;display:inline;overflow:visible;enable-background:accumulate" />
      <path
         id="path2389"
         d="M 304.02747,403.33706 C 298.08757,399.38975 318.60935,406.94645 323.55151,412.08831 C 329.60021,418.3814 319.24889,425.43503 313.23536,428.8831 C 299.03787,437.02372 303.19889,405.43933 304.02747,403.33706 z"
         style="fill:#000000;fill-opacity:1;fill-rule:evenodd;stroke:#000000;stroke-width:3;stroke-linecap:butt;stroke-linejoin:miter;stroke-miterlimit:4;stroke-dasharray:none;stroke-opacity:1" />
      <path
         id="path2396"
         d="M 472.20777,399.38214 C 480.11438,405.85586 475.81515,411.58016 473.40948,420.45242 C 470.6565,430.6056 466.39897,431.42165 459.96349,431.78869 C 448.54776,432.43977 448.02555,420.56168 449.20938,416.19562 C 451.60007,407.37858 454.52129,404.08347 463.03726,399.20054 C 465.68962,397.67971 469.15094,399.3216 472.20777,399.38214 z"
         style="opacity:1;fill:#000000;fill-opacity:1;fill-rule:evenodd;stroke:#000000;stroke-width:3;stroke-linecap:butt;stroke-linejoin:miter;marker:none;marker-start:none;marker-mid:none;marker-end:none;stroke-miterlimit:4;stroke-dasharray:none;stroke-dashoffset:0;stroke-opacity:1;visibility:visible;display:inline;overflow:visible;enable-background:accumulate" />
      <path
         id="path2398"
         d="M 479.35674,351.76439 C 486.54895,347.64048 476.77495,368.26948 477.24703,376.54666 C 477.28925,377.287 476.85891,377.97804 476.66485,378.69375"
         style="fill:none;fill-opacity:0.75;fill-rule:evenodd;stroke:#000000;stroke-width:3;stroke-linecap:butt;stroke-linejoin:miter;stroke-miterlimit:4;stroke-dasharray:none;stroke-opacity:1" />
      <path
         id="path2400"
         d="M 448.66459,443.70715 C 448.79463,445.98727 438.4145,459.13146 435.037,464.21392 C 432.88272,467.45569 431.17692,470.02255 429.1966,473.00255"
         style="fill:none;fill-opacity:0.75;fill-rule:evenodd;stroke:#000000;stroke-width:3;stroke-linecap:butt;stroke-linejoin:miter;stroke-miterlimit:4;stroke-dasharray:none;stroke-opacity:1" />
      <path
         id="path2404"
         d="M 220.74782,425.70246 C 207.69729,436.46864 189.67861,429.86927 174.75909,435.15832 C 159.92891,439.48914 146.18435,431.34678 133.12845,425.56129 C 121.96398,418.2772 110.44175,407.09106 109.6761,393.00239 C 108.75724,379.0006 125.1737,378.40923 135.284,378.55426 C 151.95256,378.63954 165.73217,388.83551 180.26387,395.4764 C 191.54357,402.53882 202.73658,409.74329 213.86176,417.01389 C 216.73866,419.37305 219.23252,422.27845 220.74782,425.70246 z"
         style="fill:#dc8522;fill-opacity:1;fill-rule:evenodd;stroke:#000000;stroke-width:3;stroke-linecap:butt;stroke-linejoin:miter;stroke-miterlimit:4;stroke-dasharray:none;stroke-opacity:1" />
      <path
         id="path2408"
         d="M 253.68047,397.753 C 253.79519,398.15859 238.16661,383.81453 234.33803,379.83125 C 228.61678,373.87883 226.98246,366.67292 222.019,361.50891 C 217.11931,356.41124 213.82,347.2096 210.28216,341.0395 C 206.83269,335.02352 204.38926,324.1986 204.00381,317.44025 C 203.58519,310.10037 210.89234,308.70256 217.24951,302.59226 C 221.98213,298.04345 235.38054,315.23885 237.17415,318.36694 C 241.84762,326.51761 242.89453,332.18346 243.25219,338.45447 C 243.69833,346.27691 244.97397,350.14911 247.18316,357.95983 C 249.46167,366.01564 252.07717,372.4593 254.04367,379.41198 C 255.48503,384.50799 253.78898,392.2736 253.68047,397.753 z"
         style="opacity:1;fill:#dc8522;fill-opacity:1;fill-rule:evenodd;stroke:#000000;stroke-width:3;stroke-linecap:butt;stroke-linejoin:miter;marker:none;marker-start:none;marker-mid:none;marker-end:none;stroke-miterlimit:4;stroke-dasharray:none;stroke-dashoffset:0;stroke-opacity:1;visibility:visible;display:inline;overflow:visible;enable-background:accumulate" />
      <path
         id="path2412"
         d="M 282.19869,551.84908 C 281.71266,543.3272 265.42212,556.02869 258.01728,560.27451 C 250.88929,564.36159 242.48661,565.553 234.61832,570.06456 C 227.48823,574.15285 220.73712,578.35205 213.36644,580.43679 C 206.44259,582.39513 198.2146,589.17927 193.67949,593.53826 C 190.08515,596.99302 190.98395,608.04886 191.1692,611.29711 C 191.47115,616.59107 203.99819,625.74556 206.21749,628.05453 C 211.18098,633.21857 215.40001,634.97297 223.39416,632.7119 C 231.58569,630.395 237.41889,628.29687 245.42849,623.7043 C 252.40248,619.70551 254.45354,610.1234 257.10927,606.12706 C 260.54034,600.96399 264.11677,588.78372 265.66024,583.09129 C 267.69954,575.57024 272.71693,571.20138 275.97641,566.2965 C 278.75494,562.11538 279.86336,557.77436 282.19869,551.84908 z"
         style="opacity:1;fill:#dc8522;fill-opacity:1;fill-rule:evenodd;stroke:#000000;stroke-width:3;stroke-linecap:butt;stroke-linejoin:miter;marker:none;marker-start:none;marker-mid:none;marker-end:none;stroke-miterlimit:4;stroke-dasharray:none;stroke-dashoffset:0;stroke-opacity:1;visibility:visible;display:inline;overflow:visible;enable-background:accumulate" />
      <path
         id="path2418"
         d="M 358.40413,627.83029 C 351.05775,629.90815 373.01655,622.76913 380.63875,622.3344 C 389.12473,621.85043 400.24664,622.22008 410.29736,623.46137 C 421.71005,624.87089 427.84437,629.42808 431.00443,640.60068 C 433.38566,649.01965 431.19563,655.56537 427.91198,660.50662 C 422.66821,668.39743 417.78496,673.56639 409.20777,678.48443 C 399.21458,684.21437 391.8685,687.35353 383.07955,689.83939 C 373.41869,692.57188 370.65257,691.07976 362.59145,688.89403 C 357.12649,687.41224 352.82293,678.18226 348.90779,671.35415 C 345.62041,665.62085 347.4589,658.30456 347.12391,652.43097 C 346.69465,644.90443 346.7009,637.50615 349.43392,631.16041 C 350.69553,628.23106 355.41405,628.94034 358.40413,627.83029 z"
         style="opacity:1;fill:#dc8522;fill-opacity:1;fill-rule:evenodd;stroke:#000000;stroke-width:3;stroke-linecap:butt;stroke-linejoin:miter;marker:none;marker-start:none;marker-mid:none;marker-end:none;stroke-miterlimit:4;stroke-dasharray:none;stroke-dashoffset:0;stroke-opacity:1;visibility:visible;display:inline;overflow:visible;enable-background:accumulate" />
      <path
         id="path2420"
         d="M 422.74192,594.56653 C 423.00865,593.94723 444.70437,584.28164 450.23476,582.42911 C 457.68167,579.93462 465.25259,573.81812 472.06881,569.9098 C 477.25617,566.93545 482.01085,555.99566 485.69639,549.40302 C 489.72498,542.19678 486.08327,538.15467 483.91252,530.47984 C 481.2922,521.21557 470.58725,518.79947 463.40573,516.85224 C 457.24259,515.18114 447.79793,522.32875 443.51848,526.44201 C 436.34765,533.33435 435.78312,540.62424 430.67335,548.31341 C 425.98584,555.36719 425.3206,563.80434 424.06918,568.41964 C 421.60526,577.50673 422.95525,583.79387 422.74192,594.56653 z"
         style="opacity:1;fill:#dc8522;fill-opacity:1;fill-rule:evenodd;stroke:#000000;stroke-width:3;stroke-linecap:butt;stroke-linejoin:miter;marker:none;marker-start:none;marker-mid:none;marker-end:none;stroke-miterlimit:4;stroke-dasharray:none;stroke-dashoffset:0;stroke-opacity:1;visibility:visible;display:inline;overflow:visible;enable-background:accumulate" />
    </g>
  </g>
</svg>
