<?xml version="1.0" encoding="UTF-8" standalone="no"?>
<!-- Created with Inkscape (http://www.inkscape.org/) -->
<svg
   xmlns:dc="http://purl.org/dc/elements/1.1/"
   xmlns:cc="http://creativecommons.org/ns#"
   xmlns:rdf="http://www.w3.org/1999/02/22-rdf-syntax-ns#"
   xmlns:svg="http://www.w3.org/2000/svg"
   xmlns="http://www.w3.org/2000/svg"
   xmlns:sodipodi="http://sodipodi.sourceforge.net/DTD/sodipodi-0.dtd"
   xmlns:inkscape="http://www.inkscape.org/namespaces/inkscape"
   width="744.09448819"
   height="1052.3622047"
   id="svg2"
   sodipodi:version="0.32"
   inkscape:version="0.46"
   sodipodi:docname="James1.svg"
   inkscape:output_extension="org.inkscape.output.svg.inkscape">
  <defs
     id="defs4">
    <inkscape:perspective
       sodipodi:type="inkscape:persp3d"
       inkscape:vp_x="0 : 526.18109 : 1"
       inkscape:vp_y="0 : 1000 : 0"
       inkscape:vp_z="744.09448 : 526.18109 : 1"
       inkscape:persp3d-origin="372.04724 : 350.78739 : 1"
       id="perspective10" />
  </defs>
  <sodipodi:namedview
     id="base"
     pagecolor="#ffffff"
     bordercolor="#666666"
     borderopacity="1.0"
     gridtolerance="10000"
     guidetolerance="10"
     objecttolerance="10"
     inkscape:pageopacity="0.0"
     inkscape:pageshadow="2"
     inkscape:zoom="0.6357127"
     inkscape:cx="372.04724"
     inkscape:cy="526.18109"
     inkscape:document-units="px"
     inkscape:current-layer="g3453"
     showgrid="false"
     inkscape:window-width="1280"
     inkscape:window-height="885"
     inkscape:window-x="0"
     inkscape:window-y="25" />
  <metadata
     id="metadata7">
    <rdf:RDF>
      <cc:Work
         rdf:about="">
        <dc:format>image/svg+xml</dc:format>
        <dc:type
           rdf:resource="http://purl.org/dc/dcmitype/StillImage" />
      </cc:Work>
    </rdf:RDF>
  </metadata>
  <g
     inkscape:label="Layer 1"
     inkscape:groupmode="layer"
     id="layer1">
    <g
       id="g3453">
      <g
         id="g3759">
        <path
           id="path3622"
           d="M 363.3717,379.10207 C 359.70768,376.21565 349.93306,374.38296 339.77613,374.38296 C 330.86225,374.38296 321.94837,374.38296 313.03449,374.38296 C 302.94368,374.38296 296.08915,376.81289 292.585,383.82118 C 289.11795,390.75529 287.86589,399.00147 287.86589,408.98979 C 287.86589,420.0708 287.80107,425.68243 294.15804,434.15839 C 298.62574,440.11533 306.54277,438.43435 314.60753,440.45054 C 323.39978,442.6486 330.73694,441.1373 339.77613,438.8775 C 347.68867,436.89937 353.49307,427.41002 357.07954,424.72016 C 364.25947,419.33522 366.99384,417.11022 372.80992,407.41675 C 377.24315,400.02803 379.10207,396.71312 379.10207,386.96726 C 379.10207,382.65838 366.94559,379.81685 363.3717,379.10207 z"
           style="fill:#ffa990;fill-opacity:1;fill-rule:evenodd;stroke:#000000;stroke-width:3;stroke-linecap:butt;stroke-linejoin:miter;stroke-opacity:1;opacity:1;color:#000000;marker:none;marker-start:none;marker-mid:none;marker-end:none;stroke-miterlimit:4;stroke-dasharray:none;stroke-dashoffset:0;visibility:visible;display:inline;overflow:visible;enable-background:accumulate" />
        <path
           id="path3585"
           d="M 420.00105,281.57374 C 418.7906,276.73194 406.94908,292.88263 405.84371,297.30411 C 403.54155,306.51275 410.1351,309.46069 413.7089,313.03449 C 419.71966,319.04525 423.5733,318.32704 431.01231,314.60753 C 437.18756,311.51991 441.54002,308.67658 443.59662,300.45019 C 445.74012,291.87619 449.13443,291.07633 445.16965,283.14678 C 442.91341,278.63428 432.35662,277.97722 427.86624,276.85463 C 424.90009,276.11309 422.62278,280.0007 420.00105,281.57374 z"
           style="fill:#ffa990;fill-opacity:1;fill-rule:evenodd;stroke:#000000;stroke-width:3;stroke-linecap:butt;stroke-linejoin:miter;stroke-opacity:1;stroke-miterlimit:4;stroke-dasharray:none;opacity:1;color:#000000;marker:none;marker-start:none;marker-mid:none;marker-end:none;stroke-dashoffset:0;visibility:visible;display:inline;overflow:visible;enable-background:accumulate" />
        <path
           id="path3583"
           d="M 264.27033,280.0007 C 257.93592,274.20886 249.39187,274.85563 242.2478,278.42767 C 235.34032,281.88141 234.7703,287.88817 232.80957,295.73108 C 230.93278,303.23824 235.55462,309.78816 242.2478,311.46146 C 250.39769,313.49893 258.63016,310.34894 262.69729,308.31538 C 270.54065,304.3937 268.82562,295.07579 267.4164,289.43893 C 266.61209,286.22169 265.31902,283.14678 264.27033,280.0007 z"
           style="opacity:1;fill:#ffa990;fill-opacity:1;fill-rule:evenodd;stroke:#000000;stroke-width:3;stroke-linecap:butt;stroke-linejoin:miter;marker:none;marker-start:none;marker-mid:none;marker-end:none;stroke-miterlimit:4;stroke-dasharray:none;stroke-dashoffset:0;stroke-opacity:1;visibility:visible;display:inline;overflow:visible;enable-background:accumulate;color:#000000" />
        <path
           id="path3644"
           d="M 382.24815,652.81062 C 387.59545,658.15792 367.90903,659.34514 363.3717,665.39492 C 359.97357,669.92576 362.24541,681.33929 363.3717,685.84441 C 365.12129,692.84278 372.6251,698.24389 375.956,701.57479 C 381.49542,707.11421 384.71346,711.45915 390.11334,714.15909 C 397.58094,717.89289 401.71482,722.61449 405.84371,726.74339 C 410.46361,731.36329 418.3005,733.39692 423.14713,734.60858 C 429.33253,736.15493 434.39901,739.32769 442.02358,739.32769 C 452.22385,739.32769 456.817,737.27759 462.47307,733.03554 C 466.32732,730.14485 464.0461,715.7756 464.0461,711.01301 C 464.0461,704.34198 459.27193,699.78152 457.75395,693.7096 C 456.37668,688.20051 449.91437,684.32258 446.74269,677.97922 C 443.43361,671.36107 437.93671,668.0706 432.58535,665.39492 C 426.25426,662.22938 419.97457,658.30301 415.28194,655.9567 C 410.37178,653.50162 398.17004,654.38366 393.25941,654.38366 C 387.43969,654.38366 391.14166,654.58932 382.24815,652.81062 z"
           style="fill:#5f5f5f;fill-opacity:1;fill-rule:evenodd;stroke:#000000;stroke-width:3;stroke-linecap:butt;stroke-linejoin:miter;stroke-opacity:1;stroke-miterlimit:4;stroke-dasharray:none;opacity:1;color:#000000;marker:none;marker-start:none;marker-mid:none;marker-end:none;stroke-dashoffset:0;visibility:visible;display:inline;overflow:visible;enable-background:accumulate" />
        <path
           id="path3632"
           d="M 276.85463,577.30481 C 275.74878,576.19897 259.95722,585.46176 254.8321,586.74304 C 247.46984,588.58361 241.28198,589.73731 234.38261,591.46215 C 227.04632,593.29623 221.06706,594.60823 212.36008,594.60823 C 205.7586,594.60823 196.92541,600.82645 190.33755,602.47342 C 184.30625,603.98124 175.8628,607.4306 169.88807,611.91164 C 163.80264,616.47571 159.5546,617.06565 157.30376,626.06898 C 155.80949,632.04609 152.37314,637.92628 151.01161,643.3724 C 149.60474,648.99988 157.07602,655.5012 158.8768,659.10277 C 162.5254,666.39997 164.06246,672.62015 166.74199,677.97922 C 169.97134,684.43793 173.52652,689.48287 177.75325,693.7096 C 183.29425,699.2506 187.98623,702.56 196.62971,704.72086 C 204.0701,706.58096 215.17021,704.80485 221.79831,703.14783 C 228.99065,701.34974 234.79197,695.86448 239.10172,693.7096 C 246.61126,689.95483 252.54868,687.55953 261.12425,685.84441 C 268.62425,684.34441 278.87372,684.94638 287.86589,682.69834 C 296.39897,680.56507 302.01194,676.40901 308.31538,674.83315 C 316.48189,672.79152 319.3025,668.541 328.76487,668.541 C 337.3721,668.541 345.81774,668.0851 353.93347,670.11404 C 362.74869,672.31784 373.50409,671.0741 382.24815,673.26011 C 393.08371,675.969 403.87102,673.06029 413.7089,677.97922 C 420.11521,681.18238 429.02876,681.02267 435.73143,682.69834 C 443.20638,684.56707 451.1532,684.27137 459.32699,684.27137 C 467.19218,684.27137 475.05737,684.27137 482.92256,684.27137 C 492.95829,684.27137 495.40326,678.08282 500.22597,673.26011 C 505.12941,668.35668 506.34197,658.23434 508.09116,651.23758 C 510.16588,642.93868 512.33728,635.82615 514.38331,627.64202 C 516.69691,618.38761 512.30271,612.46955 509.6642,607.19253 C 506.30936,600.48285 503.34471,597.74064 497.07989,594.60823 C 488.6431,590.38983 482.39946,589.88912 471.91129,589.88912 C 463.68555,589.88912 451.20977,588.64633 443.59662,586.74304 C 436.12761,584.87579 433.17318,582.17089 426.2932,580.45089 C 419.34935,578.71493 411.94309,579.22292 404.27067,577.30481 C 396.87756,575.45654 391.91422,574.15874 383.82118,574.15874 C 376.28652,574.15874 369.63224,574.16664 363.3717,575.73178 C 354.65958,577.90981 349.97389,580.45089 341.34917,580.45089 C 333.48398,580.45089 325.61879,580.45089 317.7536,580.45089 C 311.64804,580.45089 302.90452,578.87785 295.73108,578.87785 C 289.00955,578.87785 283.59583,578.65306 276.85463,577.30481 z"
           style="fill:#7bafde;fill-opacity:1;fill-rule:evenodd;stroke:#000000;stroke-width:3;stroke-linecap:butt;stroke-linejoin:miter;stroke-opacity:1;stroke-miterlimit:4;stroke-dasharray:none;opacity:1;color:#000000;marker:none;marker-start:none;marker-mid:none;marker-end:none;stroke-dashoffset:0;visibility:visible;display:inline;overflow:visible;enable-background:accumulate" />
        <path
           id="path3642"
           d="M 369.66385,712.58605 C 362.10162,714.47661 380.71725,723.6535 385.39422,729.88947 C 389.42678,735.26621 402.01835,739.15787 408.98979,740.90073 C 415.73919,742.58808 423.35605,742.47377 431.01231,742.47377 C 443.25393,742.47377 444.66624,742.09629 451.4618,733.03554 C 455.81521,727.231 454.60788,718.59751 454.60788,711.01301 C 454.60788,706.13872 446.71336,693.68026 443.59662,690.56352 C 438.61034,685.57725 437.99365,677.09537 432.58535,671.68707 C 425.73932,664.84104 421.74795,662.94761 412.13586,659.10277 C 404.2728,655.95755 396.42635,654.78214 388.5403,652.81062 C 381.27344,650.99391 370.87705,652.81062 363.3717,652.81062 C 354.98038,652.81062 349.17996,660.7102 344.49524,665.39492 C 338.57892,671.31124 342.45165,681.75722 344.49524,685.84441 C 348.19748,693.24888 352.78124,698.84952 357.07954,703.14783 C 362.2906,708.35889 360.02519,706.80286 369.66385,712.58605 z"
           style="fill:#77460d;fill-opacity:1;fill-rule:evenodd;stroke:#000000;stroke-width:3;stroke-linecap:butt;stroke-linejoin:miter;stroke-opacity:1;stroke-miterlimit:4;stroke-dasharray:none;opacity:1;color:#000000;marker:none;marker-start:none;marker-mid:none;marker-end:none;stroke-dashoffset:0;visibility:visible;display:inline;overflow:visible;enable-background:accumulate" />
        <path
           sodipodi:nodetypes="ccccccccccccc"
           id="path3646"
           d="M 361.79865,663.8219 C 370.38965,671.60138 388.01448,670.74929 393.14432,684.30516 C 400.46229,696.16303 389.45779,706.70624 379.68541,711.98798 C 364.88825,723.02994 345.14965,729.43745 327.16434,722.92928 C 312.04334,715.75532 294.95287,719.796 278.84244,718.94526 C 251.90803,718.78373 224.91724,718.78708 198.02169,719.2875 C 186.27578,716.31809 172.39805,712.10107 165.58508,701.44908 C 161.44054,690.49913 148.64159,665.4858 149.98806,653.98804 C 152.72489,642.75936 178.71008,654.01671 187.85223,650.47299 C 204.82786,645.24209 222.06617,650.8021 238.73152,654.22495 C 253.47484,656.39011 268.3988,653.26751 283.26092,654.39801 C 304.99322,655.08449 326.69144,656.2939 348.16788,659.83802 C 353.09688,659.7477 357.6995,661.04503 361.79865,663.8219 z"
           style="opacity:1;fill:#7bafde;fill-opacity:1;fill-rule:evenodd;stroke:#000000;stroke-width:3;stroke-linecap:butt;stroke-linejoin:miter;marker:none;marker-start:none;marker-mid:none;marker-end:none;stroke-miterlimit:4;stroke-dasharray:none;stroke-dashoffset:0;stroke-opacity:1;visibility:visible;display:inline;overflow:visible;enable-background:accumulate" />
        <path
           sodipodi:nodetypes="cccccccccccccccc"
           id="path3640"
           d="M 324.04575,651.23761 C 319.14873,658.52491 332.74065,664.51306 337.66616,668.45897 C 346.31871,675.13525 356.3996,679.94444 363.8114,688.07312 C 370.68932,693.44418 375.28811,702.21127 384.0427,704.70948 C 395.43864,707.01675 407.07449,703.45785 418.55935,705.28303 C 433.56278,707.29826 448.67564,705.55033 463.72682,706.71672 C 475.16858,707.88964 486.72759,705.60832 497.48492,701.7505 C 505.48432,697.27178 513.54096,692.41977 520.35158,686.19093 C 530.46334,677.1522 527.52722,662.51121 530.72531,650.67848 C 535.36805,640.98454 520.38106,613.50802 512.21462,609.82859 C 502.65457,603.96449 496.99807,620.00055 485.87625,621.45837 C 474.97855,622.51016 464.23304,624.39639 454.01525,628.40344 C 444.02579,631.36711 433.48447,630.84629 423.33095,633.05235 C 412.95099,635.0772 402.20136,632.5578 391.99754,635.87125 C 380.16346,639.28949 368.14379,642.07017 356.71493,646.73787 C 346.0846,649.41543 335.0868,651.67881 324.04575,651.23761 z"
           style="opacity:1;fill:#7bafde;fill-opacity:1;fill-rule:evenodd;stroke:#000000;stroke-width:3;stroke-linecap:butt;stroke-linejoin:miter;marker:none;marker-start:none;marker-mid:none;marker-end:none;stroke-miterlimit:4;stroke-dasharray:none;stroke-dashoffset:0;stroke-opacity:1;visibility:visible;display:inline;overflow:visible;enable-background:accumulate" />
        <path
           id="path3620"
           d="M 305.1693,393.25941 C 304.61702,397.18265 307.23509,408.40224 309.88842,413.7089 C 313.30654,420.54515 318.23622,424.17495 325.61879,427.86624 C 333.34939,431.73154 339.16705,431.31685 346.06828,427.86624 C 353.03705,424.38186 356.1097,420.3677 358.65258,415.28194 C 361.73885,409.1094 363.20765,403.35383 364.94473,396.40549 C 367.09071,387.82157 363.98021,379.10207 374.38296,379.10207 C 385.71883,379.10207 386.7704,373.59738 383.82118,385.39422 C 382.32998,391.35905 388.46116,400.80805 390.11334,407.41675 C 392.25336,415.97685 393.07895,420.85224 394.83245,427.86624 C 396.50923,434.57335 399.55156,436.70923 399.55156,446.74269 C 399.55156,454.66339 401.27071,463.05751 402.69764,468.76522 C 404.29322,475.14756 404.27067,482.51706 404.27067,490.78774 C 404.27067,499.00676 403.98593,506.95218 405.84371,514.38331 C 407.55858,521.24279 405.84371,530.86645 405.84371,537.97887 C 405.84371,543.28872 407.41675,552.41599 407.41675,560.0014 C 407.41675,571.66637 408.25953,572.5857 396.40549,572.5857 C 388.5403,572.5857 380.67511,572.5857 372.80992,572.5857 C 367.50008,572.5857 358.3728,574.15874 350.78739,574.15874 C 342.92221,574.15874 335.05702,574.15874 327.19183,574.15874 C 317.22274,574.15874 313.17615,573.44305 305.1693,569.43963 C 297.55281,565.63138 288.72571,566.29355 280.0007,566.29355 C 270.72878,566.29355 265.7495,562.95975 262.69729,556.85533 C 261.98428,555.42932 269.76409,539.59937 270.56247,536.40584 C 272.2328,529.72453 273.70855,524.84148 273.70855,515.95635 C 273.70855,508.09116 273.70855,500.22597 273.70855,492.36078 C 273.70855,484.49559 273.70855,476.63041 273.70855,468.76522 C 273.70855,460.41468 273.73951,452.88003 275.28159,445.16965 C 276.47478,439.2037 280.06992,432.30846 281.57374,426.2932 C 283.55111,418.38372 283.71492,410.99958 286.29285,405.84371 C 289.28104,399.86732 289.71617,392.70492 292.585,386.96726 C 294.4258,383.28566 305.1693,386.34002 305.1693,393.25941 z"
           style="fill:#ececec;fill-opacity:1;fill-rule:evenodd;stroke:#000000;stroke-width:3;stroke-linecap:butt;stroke-linejoin:miter;stroke-opacity:1;opacity:1;color:#000000;marker:none;marker-start:none;marker-mid:none;marker-end:none;stroke-miterlimit:4;stroke-dasharray:none;stroke-dashoffset:0;visibility:visible;display:inline;overflow:visible;enable-background:accumulate" />
        <path
           id="path3628"
           d="M 305.1693,585.17 C 296.27086,585.17 294.25186,600.06695 286.29285,604.04645 C 279.20363,607.59106 274.27478,609.80379 265.84336,611.91164 C 257.39637,614.02339 251.93401,616.56876 245.39387,618.20379 C 241.63897,619.14252 252.20291,631.30498 253.25906,632.36113 C 257.74804,636.85012 272.06814,629.24875 275.28159,627.64202 C 283.77957,623.39303 278.51736,624.45109 287.86589,619.77683 C 289.39464,619.01246 300.59672,610.19207 303.59626,607.19253 C 311.38734,599.40146 310.4553,591.7775 305.1693,585.17 z"
           style="fill:#7bafde;fill-opacity:1;fill-rule:evenodd;stroke:#000000;stroke-width:3;stroke-linecap:butt;stroke-linejoin:miter;stroke-opacity:1;stroke-miterlimit:4;stroke-dasharray:none;opacity:1;color:#000000;marker:none;marker-start:none;marker-mid:none;marker-end:none;stroke-dashoffset:0;visibility:visible;display:inline;overflow:visible;enable-background:accumulate" />
        <path
           id="path3615"
           d="M 253.25906,627.64202 C 250.00136,634.15743 245.5055,615.28097 242.2478,608.76557 C 239.79615,603.86228 232.86811,600.95892 229.6635,597.7543 C 226.47402,594.56483 223.81551,590.77744 221.79831,586.74304 C 221.51543,586.17729 229.12074,572.09819 229.6635,571.01266 C 232.97561,564.38843 232.80957,556.83924 232.80957,548.99014 C 232.80957,541.12495 232.80957,533.25976 232.80957,525.39457 C 232.80957,517.52938 232.80957,509.6642 232.80957,501.79901 C 232.80957,493.21148 234.04845,485.83223 235.95565,478.20344 C 237.9488,470.23084 238.97722,462.97108 240.67476,456.18092 C 242.51416,448.82332 245.03336,445.03868 246.96691,437.30446 C 248.71843,430.29838 252.34253,424.98018 254.8321,420.00105 C 258.78407,412.09711 258.7085,412.13586 270.56247,412.13586 C 280.24771,412.13586 282.64092,414.83154 284.71981,423.14713 C 286.46451,430.12592 284.66734,440.66044 283.14678,446.74269 C 281.34849,453.93584 281.57374,462.99997 281.57374,470.33826 C 281.57374,477.55506 280.0007,486.12485 280.0007,493.93382 C 280.0007,501.15062 278.42766,509.72041 278.42766,517.52938 C 278.42766,524.74619 276.85463,533.31598 276.85463,541.12495 C 276.85463,549.67564 275.28159,556.17532 275.28159,564.72051 C 275.28159,573.06397 274.03811,580.70569 272.13551,588.31608 C 270.29337,595.68463 267.47871,602.22417 265.84336,608.76557 C 263.6365,617.593 260.86186,621.55978 253.25906,627.64202 z"
           style="fill:#334ebd;fill-opacity:1;fill-rule:evenodd;stroke:#000000;stroke-width:3;stroke-linecap:butt;stroke-linejoin:miter;stroke-opacity:1;stroke-miterlimit:4;stroke-dasharray:none;opacity:1;color:#000000;marker:none;marker-start:none;marker-mid:none;marker-end:none;stroke-dashoffset:0;visibility:visible;display:inline;overflow:visible;enable-background:accumulate" />
        <path
           id="path3609"
           d="M 240.67476,410.56282 C 240.67476,400.17412 224.20184,423.05917 223.37135,424.72016 C 220.20067,431.06151 218.60346,440.64563 217.07919,446.74269 C 215.36994,453.57969 210.71557,456.32386 207.64097,462.47307 C 205.23808,467.27885 202.69942,475.94709 201.34882,481.34952 C 199.99073,486.78188 197.95268,496.5071 196.62971,501.79901 C 194.76097,509.27396 195.05667,517.22078 195.05667,525.39457 C 195.05667,534.34385 198.40058,536.80152 201.34882,542.69799 C 203.70017,547.4007 212.69622,550.89931 215.50616,553.70925 C 218.98293,557.18602 229.36088,558.35271 235.95565,560.0014 C 243.21042,561.81509 253.65016,560.0014 261.12425,560.0014 C 266.49541,560.0014 274.43019,554.56065 278.42766,550.56317 C 282.96241,546.02843 287.32678,536.6003 291.01196,531.68672 C 295.22462,526.06985 298.76579,517.97485 300.45019,511.23723 C 302.52287,502.94649 301.66736,497.94119 298.87715,492.36078 C 297.30805,489.22258 281.64013,490.78774 276.85463,490.78774 C 268.75541,490.78774 263.80692,492.08337 256.40514,493.93382 C 247.65651,496.12098 239.10172,495.25631 239.10172,486.06863 C 239.10172,480.50022 245.25251,473.76705 246.96691,470.33826 C 248.53995,467.19218 250.11299,464.0461 251.68602,460.90003 C 252.8585,458.55508 248.82075,465.33834 246.96691,467.19218 C 242.95644,471.20265 252.39466,457.04532 256.40514,453.03484 C 260.64943,448.79055 261.12425,441.04606 261.12425,432.58535 C 261.12425,422.83167 260.38602,417.4437 256.40514,412.13586 C 251.90191,406.13156 249.5454,407.01457 240.67476,410.56282 z"
           style="fill:#334ebd;fill-opacity:1;fill-rule:evenodd;stroke:#000000;stroke-width:3;stroke-linecap:butt;stroke-linejoin:miter;stroke-opacity:1;stroke-miterlimit:4;stroke-dasharray:none;opacity:1;color:#000000;marker:none;marker-start:none;marker-mid:none;marker-end:none;stroke-dashoffset:0;visibility:visible;display:inline;overflow:visible;enable-background:accumulate" />
        <path
           id="path3601"
           d="M 284.71981,375.956 C 282.08972,376.61352 268.28576,388.10562 261.12425,391.68637 C 253.98025,395.25837 251.33793,398.32662 246.96691,402.69764 C 241.08791,408.57664 238.45852,408.34658 245.39387,415.28194 C 249.46485,419.35292 258.60085,421.09891 262.69729,423.14713 C 269.83053,426.71375 274.93584,430.05292 280.0007,432.58535 C 289.52298,437.34649 288.22438,435.37294 292.585,431.01231 C 295.46113,428.13618 296.6563,413.15408 297.30411,410.56282 C 299.01898,403.70334 297.30411,394.07969 297.30411,386.96726 C 297.30411,373.1145 290.74776,375.956 276.85463,375.956"
           style="fill:#334ebd;fill-opacity:1;fill-rule:evenodd;stroke:#000000;stroke-width:3;stroke-linecap:butt;stroke-linejoin:miter;stroke-opacity:1;stroke-miterlimit:4;stroke-dasharray:none" />
        <path
           id="path3613"
           d="M 399.55156,420.00105 C 392.49721,420.00105 413.57101,427.31466 415.28194,434.15839 C 416.78359,440.165 419.83561,446.08093 421.57409,453.03484 C 423.44943,460.53622 417.36758,466.16698 415.28194,470.33826 C 411.52634,477.84944 401.54761,480.06399 396.40549,481.34952 C 389.546,483.06439 379.92235,481.34952 372.80992,481.34952 C 364.20422,481.34952 365.41745,491.10558 366.51777,495.50686 C 368.68275,504.16678 370.91575,504.62395 375.956,509.6642 C 379.97421,513.68241 389.18246,514.54385 394.83245,515.95635 C 402.03847,517.75785 410.28077,517.52938 418.42801,517.52938 C 427.47199,517.52938 434.61048,516.51682 442.02358,512.81027 C 448.3429,509.65061 452.86967,508.21504 459.32699,503.37205 C 465.17937,498.98276 468.78158,492.29533 470.33826,486.06863 C 472.16054,478.77948 473.48433,472.78988 473.48433,464.0461 C 473.48433,454.23115 472.70117,449.89549 468.76522,442.02358 C 465.66788,435.8289 462.12941,430.66865 457.75395,426.2932 C 453.1273,421.66655 450.56119,415.95436 446.74269,412.13586 C 441.53145,406.92462 438.12967,403.52284 434.15839,399.55156 C 430.06642,395.45959 421.48975,394.83245 415.28194,394.83245 C 409.10545,394.83245 403.68782,403.86334 401.1246,408.98979 C 398.58931,414.06036 399.55156,410.37312 399.55156,420.00105 z"
           style="fill:#334ebd;fill-opacity:1;fill-rule:evenodd;stroke:#000000;stroke-width:3;stroke-linecap:butt;stroke-linejoin:miter;stroke-opacity:1;stroke-miterlimit:4;stroke-dasharray:none;opacity:1;color:#000000;marker:none;marker-start:none;marker-mid:none;marker-end:none;stroke-dashoffset:0;visibility:visible;display:inline;overflow:visible;enable-background:accumulate" />
        <path
           id="path3617"
           d="M 380.67511,415.28194 C 380.67511,418.81158 380.67511,432.14539 380.67511,440.45054 C 380.67511,449.02604 382.24815,455.88614 382.24815,464.0461 C 382.24815,469.17699 386.96726,474.49094 386.96726,482.92256 C 386.96726,489.02812 388.5403,497.77164 388.5403,504.94508 C 388.5403,513.35323 391.68637,518.04871 391.68637,526.96761 C 391.68637,532.1283 393.48992,542.04699 394.83245,547.4171 C 396.61184,554.53466 396.59882,563.9208 397.97852,569.43963 C 399.77681,576.63278 399.55156,585.6969 399.55156,593.03519 C 399.55156,601.64644 401.1246,608.23265 401.1246,616.63076 C 401.1246,623.19217 404.87951,629.82389 408.98979,633.93417 C 413.6355,638.57989 416.83455,623.00463 418.42801,616.63076 C 420.05204,610.13463 423.72359,606.0396 426.2932,600.90038 C 428.53968,596.40741 434.33063,591.28992 437.30446,588.31608 C 441.48278,584.13776 436.87436,574.01138 435.73143,569.43963 C 434.08408,562.85023 434.15844,555.28252 432.58535,547.4171 C 431.02299,539.60527 432.83543,531.11401 431.01231,523.82153 C 429.03538,515.91382 429.73259,507.69139 427.86624,500.22597 C 426.07292,493.05269 426.14597,485.47971 424.72016,479.77648 C 423.00529,472.917 424.72016,463.29334 424.72016,456.18092 C 424.72016,448.38084 423.29702,439.1773 420.00105,432.58535 C 416.24122,425.06568 413.37796,419.33918 410.56282,413.7089 C 406.67715,405.93756 403.12045,403.12045 397.97852,397.97852 C 393.38615,393.38615 384.70042,405.65828 383.82118,407.41675 C 379.16855,416.72202 386.94954,390.1842 380.67511,415.28194 z"
           style="fill:#334ebd;fill-opacity:1;fill-rule:evenodd;stroke:#000000;stroke-width:3;stroke-linecap:butt;stroke-linejoin:miter;stroke-opacity:1;stroke-miterlimit:4;stroke-dasharray:none;opacity:1;color:#000000;marker:none;marker-start:none;marker-mid:none;marker-end:none;stroke-dashoffset:0;visibility:visible;display:inline;overflow:visible;enable-background:accumulate" />
        <path
           id="path3603"
           d="M 377.52903,371.23688 C 377.52903,362.84735 377.52903,388.01595 377.52903,396.40549 C 377.52903,404.92728 377.36285,411.47113 379.10207,418.42801 C 381.25026,427.02075 383.32072,429.68951 393.25941,424.72016 C 399.79289,421.45343 406.27356,413.77977 410.56282,410.56282 C 417.19116,405.59157 420.06258,402.57458 423.14713,396.40549 C 428.63336,385.43302 420.0517,383.87183 413.7089,377.52903 C 408.96099,372.78113 396.19151,371.18339 390.11334,369.66385 C 384.23151,368.19339 384.60172,368.40781 377.52903,371.23688 z"
           style="fill:#334ebd;fill-opacity:1;fill-rule:evenodd;stroke:#000000;stroke-width:3;stroke-linecap:butt;stroke-linejoin:miter;stroke-opacity:1;stroke-miterlimit:4;stroke-dasharray:none;opacity:1;color:#000000;marker:none;marker-start:none;marker-mid:none;marker-end:none;stroke-dashoffset:0;visibility:visible;display:inline;overflow:visible;enable-background:accumulate" />
        <path
           sodipodi:nodetypes="cccccc"
           id="path3540"
           d="M 335.53102,406.13993 C 369.19161,397.54441 397.24113,371.39644 409.11812,338.87658 C 421.58996,306.11579 419.55657,266.00082 397.17511,237.9011 C 380.09717,216.17121 351.02296,206.22421 324.04128,208.79509 C 300.96819,214.13393 279.85585,229.66997 270.68765,251.89102 C 250.81933,311.4674 267.62103,392.56053 335.53102,406.13993 z"
           style="fill:#ffa990;fill-opacity:1;fill-rule:evenodd;stroke:#000000;stroke-width:3;stroke-linecap:butt;stroke-linejoin:miter;stroke-opacity:1;stroke-miterlimit:4;stroke-dasharray:none" />
        <path
           id="path3554"
           d="M 317.7536,314.60753 C 322.07747,310.28366 321.25953,328.85483 327.19183,330.3379 C 335.2887,332.36212 343.68725,329.16886 347.64132,327.19183 C 353.63196,324.19651 351.80885,317.12032 350.78739,313.03449"
           style="fill:none;fill-opacity:0.75000000000000000;fill-rule:evenodd;stroke:#000000;stroke-width:3;stroke-linecap:butt;stroke-linejoin:miter;stroke-opacity:1;stroke-miterlimit:4;stroke-dasharray:none" />
        <path
           id="path3556"
           d="M 316.18057,278.42766 C 323.68439,274.67575 299.4015,278.42766 291.01196,278.42766 C 284.31199,278.42766 281.57374,288.56837 281.57374,294.15804 C 281.57374,303.84356 286.38788,303.59626 295.73108,303.59626 C 304.49647,303.59626 311.32983,302.05613 317.7536,300.45019 C 324.19101,298.84084 324.04575,288.48101 324.04575,281.57374 C 324.04575,274.96914 325.53106,276.55756 316.18057,278.42766 z"
           style="fill:#84c5ff;fill-opacity:0.27631579000000001;fill-rule:evenodd;stroke:#000000;stroke-width:3;stroke-linecap:butt;stroke-linejoin:miter;stroke-opacity:1;stroke-miterlimit:4;stroke-dasharray:none;opacity:1;color:#000000;marker:none;marker-start:none;marker-mid:none;marker-end:none;stroke-dashoffset:0;visibility:visible;display:inline;overflow:visible;enable-background:accumulate" />
        <path
           id="path3558"
           d="M 360.22562,276.85463 C 360.22562,272.49208 344.707,279.15369 342.92221,286.29285 C 340.19973,297.18277 346.30038,298.9932 352.36043,302.02323 C 357.5523,304.61916 371.34239,301.21033 374.38296,300.45019 C 386.51715,297.41664 385.47349,300.13311 388.5403,287.86589 C 390.91969,278.3483 379.45478,276.61056 372.80992,275.28159 C 369.16764,274.55313 363.04834,276.29008 360.22562,276.85463 z"
           style="fill:#84c5ff;fill-opacity:0.27631578;fill-rule:evenodd;stroke:#000000;stroke-width:3;stroke-linecap:butt;stroke-linejoin:miter;stroke-opacity:1;stroke-miterlimit:4;stroke-dasharray:none" />
        <path
           id="path3560"
           d="M 305.1693,254.8321 C 296.94269,253.18678 305.1693,271.61117 305.1693,280.0007 C 305.1693,284.29498 304.10333,288.98369 303.59626,291.01196"
           style="fill:none;fill-opacity:0.75000000000000000;fill-rule:evenodd;stroke:#000000;stroke-width:3;stroke-linecap:butt;stroke-linejoin:miter;stroke-opacity:1;stroke-miterlimit:4;stroke-dasharray:none" />
        <path
           id="path3562"
           d="M 366.51777,253.25906 C 366.51777,256.63173 365.2083,272.65429 363.3717,280.0007 C 362.58712,283.13902 363.3717,287.72867 363.3717,291.01196"
           style="fill:none;fill-opacity:0.75000000000000000;fill-rule:evenodd;stroke:#000000;stroke-width:3;stroke-linecap:butt;stroke-linejoin:miter;stroke-opacity:1;stroke-miterlimit:4;stroke-dasharray:none" />
        <path
           id="path3564"
           d="M 324.04575,283.14678 C 322.62392,288.83411 337.20385,275.85538 341.34917,280.0007 C 343.74631,282.39785 342.03771,282.06633 342.92221,284.71981"
           style="fill:none;fill-opacity:0.75000000000000000;fill-rule:evenodd;stroke:#000000;stroke-width:3;stroke-linecap:butt;stroke-linejoin:miter;stroke-opacity:1;stroke-miterlimit:4;stroke-dasharray:none" />
        <path
           id="path3566"
           d="M 388.5403,283.14678 C 393.52848,288.13496 396.38803,270.5712 402.69764,267.4164 C 406.25053,265.63995 407.54219,262.63457 410.56282,261.12425"
           style="fill:none;fill-opacity:0.75000000000000000;fill-rule:evenodd;stroke:#000000;stroke-width:3;stroke-linecap:butt;stroke-linejoin:miter;stroke-opacity:1;stroke-miterlimit:4;stroke-dasharray:none" />
        <path
           id="path3568"
           d="M 281.57374,284.71981 C 285.21108,282.90114 271.97866,270.48405 268.98944,268.98944 C 267.49612,268.24278 265.60604,265.60604 264.27032,264.27032"
           style="fill:none;fill-opacity:0.75000000000000000;fill-rule:evenodd;stroke:#000000;stroke-width:3;stroke-linecap:butt;stroke-linejoin:miter;stroke-opacity:1;stroke-miterlimit:4;stroke-dasharray:none" />
        <path
           id="path3570"
           d="M 291.01196,245.39387 C 284.9151,242.34544 306.64146,240.57388 311.46145,245.39387 C 313.0981,247.03052 313.62245,247.55487 314.60753,248.53995"
           style="fill:none;fill-opacity:0.75000000000000000;fill-rule:evenodd;stroke:#000000;stroke-width:3;stroke-linecap:butt;stroke-linejoin:miter;stroke-opacity:1;stroke-miterlimit:4;stroke-dasharray:none" />
        <path
           id="path3574"
           d="M 358.65258,237.52868 C 364.67859,240.54169 370.2058,238.07064 375.956,243.82083"
           style="fill:none;fill-opacity:0.75000000000000000;fill-rule:evenodd;stroke:#000000;stroke-width:3;stroke-linecap:butt;stroke-linejoin:miter;stroke-opacity:1;stroke-miterlimit:4;stroke-dasharray:none" />
        <path
           id="path3576"
           d="M 309.88842,353.93347 C 311.06801,354.52327 311.0418,367.88098 317.7536,371.23688 C 326.09666,375.40841 331.13444,374.77121 338.20309,371.23688 C 344.67079,368.00304 346.94653,360.04217 349.21436,355.50651 C 353.75386,346.4275 348.03973,349.21436 338.20309,349.21436 C 329.55927,349.21436 324.47149,352.36043 316.18057,352.36043 C 314.01863,352.36043 311.9858,353.40912 309.88842,353.93347 z"
           style="fill:#cb1e00;fill-opacity:1;fill-rule:evenodd;stroke:#000000;stroke-width:3;stroke-linecap:butt;stroke-linejoin:miter;stroke-opacity:1;stroke-miterlimit:4;stroke-dasharray:none" />
        <path
           id="path3578"
           d="M 317.75 330.34375 C 311.80868 330.34376 303.46195 336.75681 298.875 341.34375 C 293.95175 346.267 292.5213 352.57105 291 358.65625 C 289.63031 364.135 279.27455 360.9442 275.28125 364.9375 C 273.83447 366.38428 289.35366 373.55183 291 374.375 C 292.84636 375.29817 295.71875 387.71152 295.71875 391.6875 C 295.71875 392.20881 306.75 386.82456 306.75 397.96875 C 306.75 408.63635 319.57513 397.73737 320.90625 396.40625 C 324.84756 392.46492 326.92083 406.50729 331.90625 409 C 335.28524 410.6895 336.30223 397.32321 341.34375 407.40625 C 343.0347 410.78818 347.39932 402.81596 350.78125 401.125 C 359.45054 396.79036 358.37617 403.24765 363.375 393.25 C 363.96943 392.06113 372.13566 391.20737 374.375 382.25 C 375.51245 377.70014 383.6525 379.285 386.96875 375.96875 C 394.62054 368.31697 392.79465 369.91516 393.25 368.09375 C 394.788 361.94179 401.93678 362.39045 393.25 360.21875 C 386.38891 358.50348 381.88353 354.04546 377.53125 350.78125 C 372.32026 346.87301 370.64812 340.74186 366.53125 336.625 C 362.39006 332.48379 355.55713 330.34375 349.21875 330.34375 C 341.35356 330.34376 333.49019 330.34375 325.625 330.34375 C 323.00326 330.34376 320.37173 330.34375 317.75 330.34375 z M 331.90625 338.1875 C 341.36885 338.1875 348.80369 341.04027 355.5 346.0625 C 356.9391 347.14183 368.71274 356.18024 368.09375 358.65625 C 366.80767 363.80055 367.55087 373.35539 363.375 377.53125 C 358.22677 382.67948 356.01632 386.96876 346.0625 386.96875 C 338.25353 386.96875 329.68555 385.40624 322.46875 385.40625 C 311.48505 385.40625 310.284 384.2215 305.15625 379.09375 C 301.71818 375.65568 298.25622 368.94381 300.4375 360.21875 C 302.35167 352.56209 303.55334 344.91635 311.46875 342.9375 C 319.1359 341.02071 324.47747 338.1875 331.90625 338.1875 z "
           style="fill:#c2600f;fill-opacity:0.5219298;fill-rule:evenodd;stroke:none;stroke-width:1;stroke-linecap:butt;stroke-linejoin:miter;stroke-opacity:1;stroke-miterlimit:4;stroke-dasharray:none" />
        <path
           sodipodi:nodetypes="ccccccccccccccccccccccccccccccccc"
           id="path3587"
           d="M 261.12424,283.14679 C 256.94585,276.01201 254.88464,267.69518 250.30146,260.82567 C 246.67187,258.50106 240.40237,252.53636 249.04025,253.30896 C 255.78529,254.01523 242.79201,241.67986 251.01747,239.57484 C 255.99389,238.68627 264.68542,240.70458 262.29036,232.36082 C 259.53913,224.57745 264.31615,217.04018 272.80263,217.72727 C 269.65682,223.90603 281.12116,214.41484 288.5719,211.71967 C 294.95334,206.38558 296.6208,191.24074 305.10599,194.66111 C 315.47062,197.56728 315.55436,181.53009 324.04575,179.32629 C 331.38499,176.10119 332.17223,190.40209 339.77613,184.0454 C 346.72132,179.20874 355.93832,181.66465 361.09096,187.88462 C 361.3152,194.89529 370.57988,186.5697 375.59015,187.28444 C 392.10839,200.46978 369.87734,209.99912 381.9428,211.45504 C 400.5904,229.45762 396.41443,218.64958 407.0731,221.51012 C 416.07344,221.65223 423.41665,230.02224 418.77662,236.05919 C 423.68963,235.19203 434.89043,235.54738 428.22251,242.7675 C 426.0788,247.39833 417.42308,250.50061 417.5493,254.51439 C 421.37682,257.14788 432.09483,265.56693 421.69286,266.4139 C 413.87311,266.44492 419.19983,272.29644 420.38196,275.64084 C 416.1742,280.19199 401.636,281.79985 403.96821,272.22524 C 407.69872,264.41657 406.68241,256.22672 400.96398,249.80101 C 402.02467,244.20611 411.82896,235.63759 399.84469,235.88648 C 393.71397,234.24273 384.91227,239.13495 381.3914,232.06694 C 377.45382,225.04459 368.88103,224.20699 363.08061,219.34873 C 357.14748,218.49566 351.26972,223.23618 347.09478,216.3648 C 341.57203,211.70158 335.42237,214.05553 331.26164,218.37005 C 324.66339,216.06621 317.32396,211.41396 311.3047,217.90694 C 303.85652,221.62303 297.03697,226.73381 288.91008,228.9107 C 289.41286,237.34188 277.33015,231.25632 276.52207,239.65058 C 275.12861,247.54663 268.87975,254.92569 271.95083,263.20502 C 277.7199,270.81449 267.61724,275.01203 263.39882,279.82922 C 261.78013,285.29269 279.61674,282.21435 268.20374,283.71287 C 265.84108,283.76262 263.40758,283.87638 261.12424,283.14679 z"
           style="fill:#c2600f;fill-opacity:1;fill-rule:evenodd;stroke:#000000;stroke-width:3;stroke-linecap:butt;stroke-linejoin:miter;stroke-miterlimit:4;stroke-dasharray:none;stroke-opacity:1" />
        <path
           id="path3595"
           d="M 269.89457,206.42029 C 262.09762,210.31222 278.082,190.8662 280.19623,182.42342 C 281.81904,175.94313 282.96156,166.61769 285.34708,161.85468 C 288.49555,155.56831 291.94006,147.52544 293.93179,139.57186 C 296.0591,131.07698 303.75209,132.71561 312.8182,132.71561 C 318.51306,132.71561 324.15397,140.94507 328.27071,142.99998 C 336.50474,147.1101 343.46882,137.98479 347.15711,136.14373 C 354.74486,132.35623 357.36684,130.55009 366.04351,132.71561 C 369.64081,133.61342 373.87239,146.83794 374.62823,149.85623 C 376.31696,156.59983 380.65741,161.89433 383.21295,166.99686 C 385.95811,172.47797 386.64685,182.05168 386.64685,189.27968 C 386.64685,195.94008 393.42126,200.90521 395.23159,208.13436 C 398.1965,219.97412 386.86886,216.64926 379.77907,218.41874 C 371.64586,220.44864 362.65777,220.13281 354.02488,220.13281 C 345.44016,220.13281 336.85544,220.13281 328.27071,220.13281 C 319.68598,220.13281 311.10125,220.13281 302.51652,220.13281 C 293.95832,220.13281 289.35235,215.13322 281.91319,213.27654 C 275.04781,211.56308 280.89507,213.00952 269.89457,206.42029 z"
           style="fill:#b08045;fill-opacity:1;fill-rule:evenodd;stroke:#000000;stroke-width:3.27170181;stroke-linecap:butt;stroke-linejoin:miter;stroke-miterlimit:4;stroke-dasharray:none;stroke-opacity:1" />
        <path
           id="path3593"
           d="M 166.87785,240.70155 C 171.88582,241.95144 182.43598,247.23607 192.63202,249.27186 C 201.59175,251.0608 208.65484,254.12788 216.66925,256.12811 C 224.03612,257.96674 232.34981,257.84218 240.7065,257.84218 C 251.75962,257.84218 254.37674,256.19331 259.59289,250.98593 C 265.23293,245.35537 268.73613,242.13683 275.04541,238.98749 C 283.70573,234.66459 291.79713,230.94994 300.79959,228.70311 C 310.11578,226.37797 314.99823,225.27499 324.83682,225.27499 C 333.42154,225.27499 342.00628,225.27499 350.591,225.27499 C 359.89336,225.27499 367.73254,226.98208 374.62823,228.70311 C 382.74444,230.72876 385.23401,235.20674 393.51463,237.27342 C 402.82593,239.59734 403.35335,243.99505 405.53325,252.69999 C 407.49628,260.53891 421.71839,254.16838 429.5705,256.12811 C 433.3734,257.07725 446.51083,250.18608 450.17383,249.27186 C 455.02214,248.06183 457.39493,234.14845 458.75856,228.70311 C 460.8737,220.25673 460.39191,211.89627 462.19245,204.70624 C 464.0642,197.23179 462.19245,186.74537 462.19245,178.99529 C 462.19245,169.65098 463.90939,162.17587 463.90939,153.28436 C 463.90939,144.423 464.15908,135.42671 462.19245,127.57341 C 461.54702,124.99601 454.00053,142.21569 451.89079,146.42811 C 448.41824,153.3615 444.65944,161.59239 443.30605,166.99686 C 441.14528,175.62546 440.23226,184.41358 438.15522,192.7078 C 436.37792,199.80507 432.62016,207.18745 429.5705,213.27654 C 426.54537,219.31662 415.85502,216.70969 408.96714,214.99061 C 402.74616,213.43798 396.3391,211.8389 388.3638,209.84843 C 376.77387,206.95581 365.79659,205.50164 355.74184,202.99218 C 347.82336,201.01587 336.42855,202.99218 328.27071,202.99218 C 319.20269,202.99218 312.95421,204.70624 302.51652,204.70624 C 294.12278,204.70624 282.89638,206.42029 273.32845,206.42029 C 262.44821,206.42029 257.95015,209.83608 247.57428,211.56248 C 238.26143,213.11202 231.74549,214.65601 223.53704,216.70467 C 215.88418,218.61467 207.81379,221.90092 199.4998,223.56092 C 190.25773,225.40625 185.65437,227.04389 178.89645,230.41717 C 171.68899,234.01485 176.3224,228.91565 166.87785,240.70155 z"
           style="opacity:1;fill:#b08045;fill-opacity:1;fill-rule:evenodd;stroke:#000000;stroke-width:3.27170181;stroke-linecap:butt;stroke-linejoin:miter;marker:none;marker-start:none;marker-mid:none;marker-end:none;stroke-miterlimit:4;stroke-dasharray:none;stroke-dashoffset:0;stroke-opacity:1;visibility:visible;display:inline;overflow:visible;enable-background:accumulate" />
        <path
           id="path3630"
           d="M 355.50651,586.74304 C 361.2981,580.95145 367.83052,597.55909 374.38296,602.47342 C 381.25901,607.63045 387.87684,609.67515 393.25941,615.05772 C 396.56274,618.36105 406.78153,619.77683 413.7089,619.77683 C 423.57448,619.77683 406.53041,604.3898 405.84371,604.04645 C 399.59822,600.92371 393.37069,600.1695 388.5403,597.7543 C 380.75445,593.86138 378.71112,592.64424 372.80992,586.74304 C 367.75964,581.69276 363.37427,583.59593 355.50651,586.74304 z"
           style="fill:#7bafde;fill-opacity:1;fill-rule:evenodd;stroke:#000000;stroke-width:3;stroke-linecap:butt;stroke-linejoin:miter;stroke-opacity:1;stroke-miterlimit:4;stroke-dasharray:none;opacity:1;color:#000000;marker:none;marker-start:none;marker-mid:none;marker-end:none;stroke-dashoffset:0;visibility:visible;display:inline;overflow:visible;enable-background:accumulate" />
        <path
           id="path3624"
           d="M 272.13551,585.17 C 277.08813,587.1505 289.2099,589.4386 297.30411,591.46215 C 306.27583,593.70508 311.62675,594.60823 320.89968,594.60823 C 328.76487,594.60823 336.63006,594.60823 344.49524,594.60823 C 352.36043,594.60823 360.22562,594.60823 368.09081,594.60823 C 375.956,594.60823 383.82118,594.60823 391.68637,594.60823 C 396.79276,594.60823 406.36336,588.84277 410.56282,586.74304 C 414.58148,584.73371 412.13586,572.71249 412.13586,566.29355 C 412.13586,559.97959 398.90679,565.0429 393.25941,567.86659 C 387.7073,570.64264 379.35426,571.01266 371.23688,571.01266 C 362.84735,571.01266 354.45782,571.01266 346.06828,571.01266 C 338.41271,571.01266 329.52033,567.6622 324.04575,566.29355 C 317.44157,564.6425 310.04376,561.61328 303.59626,560.0014 C 296.84687,558.31405 289.23,558.42836 281.57374,558.42836 C 271.186,558.42836 265.84336,557.59784 265.84336,569.43963 C 265.84336,577.85688 265.47557,576.84507 272.13551,585.17 z"
           style="fill:#7bafde;fill-opacity:1;fill-rule:evenodd;stroke:#000000;stroke-width:3;stroke-linecap:butt;stroke-linejoin:miter;stroke-opacity:1;stroke-miterlimit:4;stroke-dasharray:none;opacity:1;color:#000000;marker:none;marker-start:none;marker-mid:none;marker-end:none;stroke-dashoffset:0;visibility:visible;display:inline;overflow:visible;enable-background:accumulate" />
        <path
           id="path3605"
           d="M 297.30411,390.11334 C 296.34023,389.87236 298.87715,409.61118 298.87715,415.28194 C 298.87715,421.20975 293.71773,431.20052 292.585,435.73143 C 290.87013,442.59091 292.585,452.21456 292.585,459.32699 C 292.585,466.47288 289.30039,474.03848 287.86589,479.77648 C 286.13648,486.69412 286.29285,495.92967 286.29285,501.79901 C 286.29285,509.6642 286.29285,517.52938 286.29285,525.39457 C 286.29285,533.25976 286.29285,541.12495 286.29285,548.99014 C 286.29285,556.78152 283.14678,564.82419 283.14678,572.5857 C 283.14678,579.42538 279.74512,587.76536 278.42766,593.03519 C 276.45484,600.92646 274.72989,608.29592 272.13551,613.48468 C 268.08873,621.57825 269.36972,625.6887 264.27032,630.78809 C 257.8422,637.21621 259.1424,633.52536 253.25906,627.64202 C 252.32951,626.71247 258.69277,612.19934 259.55121,608.76557 C 260.85047,603.56854 263.0686,593.12297 264.27032,588.31608 C 266.10248,580.98744 267.92753,576.83331 270.56247,566.29355 C 272.61786,558.07202 273.70855,551.57071 273.70855,542.69799 C 273.70855,535.48119 275.28159,526.91139 275.28159,519.10242 C 275.28159,510.97013 275.51034,502.71402 273.70855,495.50686 C 271.99368,488.64738 273.70855,479.02372 273.70855,471.91129 C 273.70855,464.28711 276.58285,455.69498 278.42766,448.31573 C 280.33227,440.6973 280.0007,433.75958 280.0007,426.2932 C 280.0007,420.9586 284.57154,412.43242 286.29285,408.98979 C 290.24416,401.08717 289.9057,399.36135 297.30411,390.11334 z"
           style="fill:#334ebd;fill-opacity:1;fill-rule:evenodd;stroke:#000000;stroke-width:3;stroke-linecap:butt;stroke-linejoin:miter;stroke-opacity:1;stroke-miterlimit:4;stroke-dasharray:none;opacity:1;color:#000000;marker:none;marker-start:none;marker-mid:none;marker-end:none;stroke-dashoffset:0;visibility:visible;display:inline;overflow:visible;enable-background:accumulate" />
        <path
           sodipodi:nodetypes="cssssssssssssssssssssscc"
           id="path3607"
           d="M 372.80992,404.27067 C 371.09505,411.13016 372.80992,420.75381 372.80992,427.86624 C 372.80992,437.13002 373.93809,443.39018 375.956,451.4618 C 378.01083,459.68113 379.10207,464.45252 379.10207,473.48433 C 379.10207,481.88913 382.24815,487.59884 382.24815,495.50686 C 382.24815,502.00142 385.39422,508.22694 385.39422,515.95635 C 385.39422,524.07992 388.5403,531.08036 388.5403,539.55191 C 388.5403,546.98658 390.11334,554.92776 390.11334,563.14748 C 390.11334,571.47624 390.07405,578.72073 391.68637,585.17 C 393.40124,592.02949 391.68637,601.65314 391.68637,608.76557 C 391.68637,619.22321 394.31795,620.86493 396.40549,629.21506 C 398.88289,639.12468 404.07805,636.63883 405.84371,637.08025 C 410.4646,638.23547 412.13586,619.0269 412.13586,615.05772 C 412.13586,606.59132 412.19769,599.57467 410.56282,593.03519 C 408.84795,586.17571 410.56282,576.55205 410.56282,569.43963 C 410.56282,562.22283 408.98979,553.65303 408.98979,545.84406 C 408.98979,538.75926 406.1204,531.22043 404.27067,523.82153 C 402.60734,517.16819 403.9027,506.61924 402.69764,501.79901 C 400.72417,493.90514 401.4619,485.8448 399.55156,478.20344 C 397.76608,471.06153 396.62327,463.34421 394.83245,456.18092 C 392.77729,447.96027 390.3388,441.3524 388.5403,434.15839 C 386.57364,426.29177 387.05482,418.77827 385.39422,412.13586 C 383.44602,404.34304 380.67511,399.42696 380.67511,390.11334 C 376.1752,375.67003 375.9026,393.49994 372.80992,404.27067 z"
           style="fill:#334ebd;fill-opacity:1;fill-rule:evenodd;stroke:#000000;stroke-width:3;stroke-linecap:butt;stroke-linejoin:miter;stroke-opacity:1;stroke-miterlimit:4;stroke-dasharray:none;opacity:1;color:#000000;marker:none;marker-start:none;marker-mid:none;marker-end:none;stroke-dashoffset:0;visibility:visible;display:inline;overflow:visible;enable-background:accumulate" />
        <path
           id="path3597"
           d="M 270.56247,479.77648 C 267.02197,478.89136 254.69844,484.52901 248.53995,486.06863 C 241.38698,487.85687 236.13162,495.33088 232.80957,498.65293 C 225.61081,505.8517 226.22757,507.80131 231.23653,512.81027 C 236.48385,518.05758 248.34289,512.9088 251.68602,511.23723 C 255.55341,509.30354 259.94646,508.09116 264.27032,508.09116 C 271.68569,508.09116 253.78341,518.57808 248.53995,523.82153 C 243.41257,528.94891 240.7052,533.19888 237.52868,539.55191 C 233.91674,546.7758 235.54767,553.50526 242.2478,556.85533 C 248.85091,560.15688 256.6022,548.79307 259.55121,545.84406 C 265.77667,539.6186 267.98312,534.26608 273.70855,528.54065 C 280.85796,521.39124 273.86016,529.81046 270.56247,536.40584 C 267.42134,542.68811 262.87386,545.13778 261.12425,552.13621 C 259.3075,559.40322 257.97817,565.86776 257.97817,571.01266 C 257.97817,580.22957 273.34853,569.79964 273.70855,569.43963 C 278.67019,564.47799 281.37864,558.81857 284.71981,552.13621 C 286.94442,547.68699 287.21431,542.4281 289.43893,537.97887 C 293.01064,530.83544 283.57242,552.85797 280.0007,560.0014 C 276.13404,567.73471 279.07774,573.23578 283.14678,577.30481 C 289.80141,583.95945 297.99828,566.41668 300.45019,563.14748 C 305.03889,557.02921 306.46712,550.091 308.31538,542.69799 C 310.14921,535.36264 309.88842,527.29635 309.88842,519.10242 C 309.88842,509.87848 310.0828,503.76081 306.74234,497.07989 C 302.5717,488.73861 300.21769,486.7389 292.585,482.92256 C 285.73642,479.49827 280.56209,479.77648 270.56247,479.77648 z"
           style="fill:#ffa990;fill-opacity:1;fill-rule:evenodd;stroke:#000000;stroke-width:3;stroke-linecap:butt;stroke-linejoin:miter;stroke-opacity:1;stroke-miterlimit:4;stroke-dasharray:none;opacity:1;color:#000000;marker:none;marker-start:none;marker-mid:none;marker-end:none;stroke-dashoffset:0;visibility:visible;display:inline;overflow:visible;enable-background:accumulate" />
        <path
           id="path3599"
           d="M 368.09081,489.21471 C 360.52858,485.43359 364.94473,505.92849 364.94473,514.38331 C 364.94473,522.2485 364.94473,530.11369 364.94473,537.97887 C 364.94473,543.01937 371.22091,552.10427 372.80992,555.28229 C 376.89623,563.45491 380.73326,565.91483 388.5403,567.86659 C 398.47987,570.35148 399.55156,569.14027 399.55156,558.42836 C 399.55156,551.66763 394.85287,545.34694 391.68637,541.12495 C 383.48398,530.18843 390.44748,538.4244 394.83245,544.27102 C 399.07266,549.92465 400.33353,558.41927 402.69764,563.14748 C 405.97551,569.70322 414.10518,572.68477 420.00105,574.15874 C 429.199,576.45823 427.86624,561.55358 427.86624,555.28229 C 427.86624,550.60762 419.52894,543.79891 415.28194,539.55191 C 409.73432,534.00429 406.16683,524.46777 412.13586,536.40584 C 416.6319,545.3979 419.97687,548.96596 426.2932,555.28229 C 432.92943,561.91852 434.17247,564.72051 443.59662,564.72051 C 450.07517,564.72051 449.88877,554.37128 449.88877,547.4171 C 449.88877,537.96488 446.45004,535.82053 443.59662,530.11369 C 440.34263,523.60572 436.69249,521.63652 432.58535,517.52938 C 429.43928,514.38331 426.2932,511.23723 423.14713,508.09116 C 418.27043,503.21446 436.69992,511.23723 443.59662,511.23723 C 450.02923,511.23723 453.03484,499.99236 453.03484,493.93382 C 453.03484,487.51776 441.03713,483.21585 437.30446,481.34952 C 431.82255,478.60856 422.68722,479.77648 415.28194,479.77648 C 407.55083,479.77648 398.69644,479.99026 393.25941,481.34952 C 386.43813,483.05484 382.43409,486.02215 375.956,487.64167 C 373.36218,488.29012 370.71254,488.69036 368.09081,489.21471 z"
           style="fill:#ffa990;fill-opacity:1;fill-rule:evenodd;stroke:#000000;stroke-width:3;stroke-linecap:butt;stroke-linejoin:miter;stroke-opacity:1;stroke-miterlimit:4;stroke-dasharray:none;opacity:1;color:#000000;marker:none;marker-start:none;marker-mid:none;marker-end:none;stroke-dashoffset:0;visibility:visible;display:inline;overflow:visible;enable-background:accumulate" />
        <path
           id="path3626"
           d="M 317.7536,589.88912 C 317.7536,595.16033 320.66505,606.254 322.47272,613.48468 C 324.11062,620.0363 319.32664,631.40577 319.32664,638.65328 C 319.32664,647.70319 320.89968,652.66662 320.89968,660.67581 C 320.89968,668.1833 335.41472,655.9567 342.92221,655.9567 C 349.73802,655.9567 344.49524,644.50583 344.49524,637.08025 C 344.49524,627.80356 342.92221,617.07253 342.92221,607.19253 C 342.92221,598.188 344.52485,589.77071 346.06828,583.59697 C 347.3986,578.27569 331.82633,582.02393 327.19183,582.02393 C 323.09656,582.02393 320.95147,587.33082 317.7536,589.88912 z"
           style="fill:#7bafde;fill-opacity:1;fill-rule:evenodd;stroke:#000000;stroke-width:3;stroke-linecap:butt;stroke-linejoin:miter;stroke-opacity:1;stroke-miterlimit:4;stroke-dasharray:none;opacity:1;color:#000000;marker:none;marker-start:none;marker-mid:none;marker-end:none;stroke-dashoffset:0;visibility:visible;display:inline;overflow:visible;enable-background:accumulate" />
        <path
           id="path3638"
           d="M 298.87715,660.67581 C 293.21762,666.33535 313.66711,667.60057 319.32664,673.26011 C 324.5617,678.49517 333.23459,679.30287 338.20309,684.27137 C 345.68008,691.74836 348.43857,692.17949 350.78739,701.57479 C 353.13454,710.96338 357.11463,708.63591 364.94473,704.72086 C 374.22563,700.08042 377.07393,705.38369 380.67511,712.58605 C 381.38953,714.01489 381.11936,693.91355 380.67511,692.13656 C 378.79671,684.62298 372.7665,679.37856 371.23688,673.26011 C 369.7784,667.42618 359.96298,662.90405 355.50651,660.67581 C 347.57694,656.71103 345.43359,653.43847 336.63006,651.23758 C 329.88066,649.55023 322.26379,649.66455 314.60753,649.66455 C 310.78212,649.66455 300.32664,659.51622 298.87715,660.67581 z"
           style="fill:#7bafde;fill-opacity:1;fill-rule:evenodd;stroke:#000000;stroke-width:3;stroke-linecap:butt;stroke-linejoin:miter;stroke-opacity:1;stroke-miterlimit:4;stroke-dasharray:none;opacity:1;color:#000000;marker:none;marker-start:none;marker-mid:none;marker-end:none;stroke-dashoffset:0;visibility:visible;display:inline;overflow:visible;enable-background:accumulate" />
        <path
           id="path3636"
           d="M 278.42766,687.41745 C 270.6327,687.41745 290.21921,697.63596 295.73108,703.14783 C 301.76683,709.18358 303.46232,714.02515 308.31538,718.8782 C 313.61516,724.17799 313.8832,727.95426 320.89968,731.4625 C 327.97958,735.00245 333.93001,734.60858 342.92221,734.60858 C 353.16577,734.60858 357.68567,731.82329 361.79866,723.59732 C 366.02965,715.13534 364.72656,710.57667 361.79866,704.72086 C 358.62374,698.37102 354.79351,693.85664 352.36043,688.99049 C 348.89769,682.065 345.69113,680.74815 341.34917,676.40619 C 336.12527,671.18228 329.9831,671.214 325.61879,665.39492 C 322.18907,660.82196 311.81015,660.67581 305.1693,660.67581 C 296.94167,660.67581 291.87737,664.52952 287.86589,668.541 C 281.57328,674.83361 282.51933,677.18829 278.42766,687.41745 z"
           style="fill:#77460d;fill-opacity:1;fill-rule:evenodd;stroke:#000000;stroke-width:3;stroke-linecap:butt;stroke-linejoin:miter;stroke-opacity:1;stroke-miterlimit:4;stroke-dasharray:none" />
        <path
           id="path3634"
           d="M 273.70855,660.67581 C 265.84577,660.67581 260.84844,670.66565 256.40514,679.55226 C 254.53709,683.28836 264.01688,693.20271 265.84336,696.85568 C 268.9758,703.12056 279.48601,710.49832 284.71981,715.73213 C 291.88543,722.89775 295.37794,726.26185 303.59626,728.31643 C 308.62762,729.57427 317.32474,735.96719 320.89968,737.75465 C 326.66639,740.63801 333.94483,740.90073 341.34917,740.90073 C 345.05699,740.90073 348.54348,724.70777 349.21436,722.02428 C 350.9289,715.16611 345.63915,705.43565 342.92221,700.00175 C 339.03604,692.22941 336.69669,684.36022 331.91094,677.97922 C 325.30704,669.17402 322.89913,664.71501 313.03449,662.24885 C 305.66357,660.40612 299.61754,657.52973 291.01196,657.52973 C 283.80352,657.52973 281.03163,657.74658 273.70855,660.67581 z"
           style="fill:#5f5f5f;fill-opacity:1;fill-rule:evenodd;stroke:#000000;stroke-width:3;stroke-linecap:butt;stroke-linejoin:miter;stroke-opacity:1;stroke-miterlimit:4;stroke-dasharray:none" />
        <path
           id="path3652"
           d="M 171.4611,632.36113 C 163.79259,634.70557 159.82537,638.00508 157.30376,648.09151 C 155.32723,655.99764 160.60036,661.27791 162.02288,666.96796 C 162.91913,670.55297 181.99007,668.541 185.61844,668.541 C 192.91126,668.541 198.62644,665.39492 206.06793,665.39492 C 219.31796,665.39492 206.75372,656.29959 202.92186,654.38366 C 195.67549,650.76048 193.84493,646.39062 191.91059,638.65328 C 189.32615,628.31551 182.6181,627.89833 171.4611,632.36113 z"
           style="fill:#7bafde;fill-opacity:1;fill-rule:evenodd;stroke:none;stroke-width:3;stroke-linecap:butt;stroke-linejoin:miter;stroke-opacity:1;opacity:1;color:#000000;marker:none;marker-start:none;marker-mid:none;marker-end:none;stroke-miterlimit:4;stroke-dasharray:none;stroke-dashoffset:0;visibility:visible;display:inline;overflow:visible;enable-background:accumulate" />
        <path
           id="path3654"
           d="M 481.34952,605.61949 C 480.41624,601.8864 461.12836,612.13492 457.75395,613.48468 C 447.81824,617.45896 463.82659,623.65455 467.19218,624.49594 C 474.52013,626.32793 479.00648,628.83006 486.06863,632.36113 C 494.34952,636.50158 499.59117,637.39764 506.51812,633.93417 C 508.34133,633.02256 509.6642,616.37395 509.6642,613.48468 C 509.6642,604.82781 501.81846,605.62435 495.50686,604.04645 C 491.60879,603.07194 484.41082,605.00723 481.34952,605.61949 z"
           style="fill:#7bafde;fill-opacity:1;fill-rule:evenodd;stroke:none;stroke-width:3;stroke-linecap:butt;stroke-linejoin:miter;stroke-opacity:1;opacity:1;color:#000000;marker:none;marker-start:none;marker-mid:none;marker-end:none;stroke-miterlimit:4;stroke-dasharray:none;stroke-dashoffset:0;visibility:visible;display:inline;overflow:visible;enable-background:accumulate" />
        <path
           id="path3656"
           d="M 268.98944,432.58535 C 262.46127,430.95331 258.30354,426.2932 246.96691,426.2932 C 235.62136,426.2932 234.38261,433.82482 234.38261,443.59662 C 234.38261,452.28162 245.97764,454.89976 251.68602,457.75395 C 259.89149,461.85669 265.03352,460.51843 270.56247,457.75395 C 277.76468,454.15285 276.85463,445.41849 276.85463,437.30446 C 276.85463,434.24703 271.61117,434.15839 268.98944,432.58535 z"
           style="fill:#334ebd;fill-opacity:1;fill-rule:evenodd;stroke:none;stroke-width:3;stroke-linecap:butt;stroke-linejoin:miter;stroke-opacity:1;opacity:1;color:#000000;marker:none;marker-start:none;marker-mid:none;marker-end:none;stroke-miterlimit:4;stroke-dasharray:none;stroke-dashoffset:0;visibility:visible;display:inline;overflow:visible;enable-background:accumulate" />
        <path
           id="path3658"
           d="M 421.57409,408.98979 C 421.57409,405.46484 407.57324,416.22903 405.84371,423.14713 C 404.12884,430.00661 405.84371,439.63026 405.84371,446.74269 C 405.84371,455.50408 422.92135,445.28254 423.14713,445.16965 C 427.40128,443.04258 431.10235,432.40528 432.58535,429.43928 C 438.05938,418.49122 430.508,412.56335 421.57409,408.98979 z"
           style="fill:#334ebd;fill-opacity:1;fill-rule:evenodd;stroke:none;stroke-width:3;stroke-linecap:butt;stroke-linejoin:miter;stroke-opacity:1;opacity:1;color:#000000;marker:none;marker-start:none;marker-mid:none;marker-end:none;stroke-miterlimit:4;stroke-dasharray:none;stroke-dashoffset:0;visibility:visible;display:inline;overflow:visible;enable-background:accumulate" />
        <g
           transform="translate(217.07919,-407.41675)"
           id="g3726">
          <path
             style="opacity:1;fill:#d7d7d7;fill-opacity:1;fill-rule:evenodd;stroke:#000000;stroke-width:3;stroke-linecap:butt;stroke-linejoin:miter;marker:none;marker-start:none;marker-mid:none;marker-end:none;stroke-miterlimit:4;stroke-dasharray:none;stroke-dashoffset:0;stroke-opacity:1;visibility:visible;display:inline;overflow:visible;enable-background:accumulate"
             d="M 26.74164,948.5417 C 31.827649,949.14151 43.913064,953.26081 53.48328,953.26081 C 62.309437,953.26081 70.715277,955.99577 78.651882,957.97992 C 87.067681,960.08387 96.482396,959.55296 105.39352,959.55296 C 114.61954,959.55296 123.79014,961.126 133.7082,961.126 C 143.14643,961.126 152.58465,961.126 162.02288,961.126 C 169.49042,961.126 181.47379,959.80261 188.76452,957.97992 C 198.20406,955.62004 205.79264,955.29593 213.93312,953.26081 C 221.47317,951.3758 229.29454,943.22054 234.38261,940.67651 C 243.31483,936.2104 244.49615,933.25612 246.96691,923.3731 C 249.10873,914.8058 240.39424,912.15144 234.38261,907.64272 C 230.86171,905.00204 219.13652,902.25816 215.50616,901.35057 C 207.77462,899.41768 201.21972,898.20449 191.91059,898.20449 C 184.13231,898.20449 171.08656,896.24194 165.16895,895.05842 C 157.46962,893.51855 147.90689,895.05842 140.00035,895.05842 C 131.55068,895.05842 124.24792,893.48538 116.40479,893.48538 C 107.49091,893.48538 98.577026,893.48538 89.663146,893.48538 C 78.781157,893.48538 68.929359,895.05842 58.202393,895.05842 C 49.396974,895.05842 42.491426,897.80638 34.606828,899.77753 C 26.755099,901.74046 20.190082,905.87098 15.730376,909.21576 C 7.047273,915.72808 8.2540377,924.96377 6.2921506,932.81132 C 4.4420789,940.21161 20.546093,944.82437 26.74164,948.5417 z"
             id="path3660" />
          <g
             id="g3676"
             transform="translate(-301.55555,-16.516777)">
            <path
               id="path3678"
               d="M 492.36078,918.65398 C 487.64763,916.29741 478.55694,912.36183 468.76522,912.36183 C 459.40751,912.36183 454.75577,910.78879 445.16965,910.78879 C 437.30446,910.78879 429.43928,910.78879 421.57409,910.78879 C 411.66656,910.78879 409.54042,915.97969 405.84371,923.3731 C 401.23584,932.58885 409.38503,934.7796 413.7089,939.10347 C 417.2642,942.65877 429.07201,942.24955 435.73143,942.24955 C 445.50061,942.24955 449.87061,943.82259 459.32699,943.82259 C 467.19218,943.82259 475.05737,943.82259 482.92256,943.82259 C 493.02131,943.82259 497.0981,942.23135 501.79901,937.53043 C 507.91923,931.41022 504.8277,924.82875 500.22597,920.22702 C 498.33541,918.33646 494.98251,919.17833 492.36078,918.65398 z"
               style="opacity:1;fill:#f6b959;fill-opacity:1;fill-rule:evenodd;stroke:#000000;stroke-width:2;stroke-linecap:butt;stroke-linejoin:miter;marker:none;marker-start:none;marker-mid:none;marker-end:none;stroke-miterlimit:4;stroke-dasharray:none;stroke-dashoffset:0;stroke-opacity:1;visibility:visible;display:inline;overflow:visible;enable-background:accumulate" />
            <path
               id="path3680"
               d="M 408.98979,913.93487 C 408.79251,913.88555 393.01245,927.50703 391.68637,932.81132 C 389.41732,941.88752 402.37429,939.10347 408.98979,939.10347 C 415.10318,939.10347 419.74923,931.3642 426.2932,928.09221 C 433.29201,924.59281 444.66178,923.3731 453.03484,923.3731 C 461.42846,923.3731 468.03323,921.80006 476.63041,921.80006 C 484.49559,921.80006 492.36078,921.80006 500.22597,921.80006 C 508.65293,921.80006 513.79542,917.66883 517.52938,913.93487 C 523.98458,907.47968 515.07908,900.12542 511.23723,898.20449 C 509.27875,897.22525 494.87021,905.44232 492.36078,906.06968 C 484.4932,908.03658 475.39713,907.64272 467.19218,907.64272 C 459.46107,907.64272 450.60669,907.8565 445.16965,909.21576 C 437.8156,911.05427 429.23745,910.78879 421.57409,910.78879 C 415.49636,910.78879 416.47858,910.93935 408.98979,913.93487 z"
               style="fill:#ff1007;fill-opacity:1;fill-rule:evenodd;stroke:#000000;stroke-width:2;stroke-linecap:butt;stroke-linejoin:miter;stroke-miterlimit:4;stroke-dasharray:none;stroke-opacity:1" />
            <path
               id="path3682"
               d="M 421.57409,907.64272 C 420.68386,906.75249 403.04178,907.64272 396.40549,907.64272 C 384.72457,907.64272 384.36915,911.4076 386.96726,921.80006 C 387.24843,922.92475 405.96163,928.15117 408.98979,929.66525 C 413.94748,932.14409 426.89639,929.66525 432.58535,929.66525 C 440.45054,929.66525 448.31573,929.66525 456.18092,929.66525 C 463.94773,929.66525 471.23571,932.81132 479.77648,932.81132 C 487.94746,932.81132 496.10214,932.56688 503.37205,934.38436 C 512.41767,936.64577 517.9812,931.29268 522.2485,928.09221 C 530.20609,922.12402 522.95887,916.64961 517.52938,913.93487 C 511.97171,911.15603 502.65497,910.78879 497.07989,910.78879 C 489.21471,910.78879 481.34952,910.78879 473.48433,910.78879 C 465.31335,910.78879 457.15868,911.03323 449.88877,909.21576 C 439.27731,906.56289 433.56374,905.24479 421.57409,907.64272 z"
               style="fill:#ea7e74;fill-opacity:1;fill-rule:evenodd;stroke:#000000;stroke-width:2;stroke-linecap:butt;stroke-linejoin:miter;stroke-miterlimit:4;stroke-dasharray:none;stroke-opacity:1" />
            <path
               id="path3684"
               d="M 481.34952,896.63146 C 479.31079,904.78638 464.58682,895.05842 456.18092,895.05842 C 448.31573,895.05842 440.45054,895.05842 432.58535,895.05842 C 423.7546,895.05842 415.56665,895.00148 407.41675,896.63146 C 398.13083,898.48864 403.11951,910.05951 404.27067,912.36183 C 407.32249,918.46547 416.1065,918.86012 421.57409,920.22702 C 432.57015,922.97604 438.08886,928.09221 448.31573,928.09221 C 456.18092,928.09221 464.0461,928.09221 471.91129,928.09221 C 479.77648,928.09221 487.64167,928.09221 495.50686,928.09221 C 503.27919,928.09221 506.40334,923.83223 508.09116,917.08095 C 510.25899,908.40964 499.93146,903.56287 495.50686,901.35057 C 491.62563,899.40996 487.4003,899.05177 481.34952,896.63146 z"
               style="fill:#f6b959;fill-opacity:1;fill-rule:evenodd;stroke:#000000;stroke-width:2;stroke-linecap:butt;stroke-linejoin:miter;stroke-miterlimit:4;stroke-dasharray:none;stroke-opacity:1" />
          </g>
          <g
             id="g3670"
             transform="translate(-374.38296,-3.1460753)">
            <path
               id="path3664"
               d="M 492.36078,918.65398 C 487.64763,916.29741 478.55694,912.36183 468.76522,912.36183 C 459.40751,912.36183 454.75577,910.78879 445.16965,910.78879 C 437.30446,910.78879 429.43928,910.78879 421.57409,910.78879 C 411.66656,910.78879 409.54042,915.97969 405.84371,923.3731 C 401.23584,932.58885 409.38503,934.7796 413.7089,939.10347 C 417.2642,942.65877 429.07201,942.24955 435.73143,942.24955 C 445.50061,942.24955 449.87061,943.82259 459.32699,943.82259 C 467.19218,943.82259 475.05737,943.82259 482.92256,943.82259 C 493.02131,943.82259 497.0981,942.23135 501.79901,937.53043 C 507.91923,931.41022 504.8277,924.82875 500.22597,920.22702 C 498.33541,918.33646 494.98251,919.17833 492.36078,918.65398 z"
               style="opacity:1;fill:#f6b959;fill-opacity:1;fill-rule:evenodd;stroke:#000000;stroke-width:2;stroke-linecap:butt;stroke-linejoin:miter;marker:none;marker-start:none;marker-mid:none;marker-end:none;stroke-miterlimit:4;stroke-dasharray:none;stroke-dashoffset:0;stroke-opacity:1;visibility:visible;display:inline;overflow:visible;enable-background:accumulate" />
            <path
               id="path3668"
               d="M 408.98979,913.93487 C 408.79251,913.88555 393.01245,927.50703 391.68637,932.81132 C 389.41732,941.88752 402.37429,939.10347 408.98979,939.10347 C 415.10318,939.10347 419.74923,931.3642 426.2932,928.09221 C 433.29201,924.59281 444.66178,923.3731 453.03484,923.3731 C 461.42846,923.3731 468.03323,921.80006 476.63041,921.80006 C 484.49559,921.80006 492.36078,921.80006 500.22597,921.80006 C 508.65293,921.80006 513.79542,917.66883 517.52938,913.93487 C 523.98458,907.47968 515.07908,900.12542 511.23723,898.20449 C 509.27875,897.22525 494.87021,905.44232 492.36078,906.06968 C 484.4932,908.03658 475.39713,907.64272 467.19218,907.64272 C 459.46107,907.64272 450.60669,907.8565 445.16965,909.21576 C 437.8156,911.05427 429.23745,910.78879 421.57409,910.78879 C 415.49636,910.78879 416.47858,910.93935 408.98979,913.93487 z"
               style="fill:#ff1007;fill-opacity:1;fill-rule:evenodd;stroke:#000000;stroke-width:2;stroke-linecap:butt;stroke-linejoin:miter;stroke-miterlimit:4;stroke-dasharray:none;stroke-opacity:1" />
            <path
               id="path3666"
               d="M 421.57409,907.64272 C 420.68386,906.75249 403.04178,907.64272 396.40549,907.64272 C 384.72457,907.64272 384.36915,911.4076 386.96726,921.80006 C 387.24843,922.92475 405.96163,928.15117 408.98979,929.66525 C 413.94748,932.14409 426.89639,929.66525 432.58535,929.66525 C 440.45054,929.66525 448.31573,929.66525 456.18092,929.66525 C 463.94773,929.66525 471.23571,932.81132 479.77648,932.81132 C 487.94746,932.81132 496.10214,932.56688 503.37205,934.38436 C 512.41767,936.64577 517.9812,931.29268 522.2485,928.09221 C 530.20609,922.12402 522.95887,916.64961 517.52938,913.93487 C 511.97171,911.15603 502.65497,910.78879 497.07989,910.78879 C 489.21471,910.78879 481.34952,910.78879 473.48433,910.78879 C 465.31335,910.78879 457.15868,911.03323 449.88877,909.21576 C 439.27731,906.56289 433.56374,905.24479 421.57409,907.64272 z"
               style="fill:#ea7e74;fill-opacity:1;fill-rule:evenodd;stroke:#000000;stroke-width:2;stroke-linecap:butt;stroke-linejoin:miter;stroke-miterlimit:4;stroke-dasharray:none;stroke-opacity:1" />
            <path
               id="path3662"
               d="M 481.34952,896.63146 C 479.31079,904.78638 464.58682,895.05842 456.18092,895.05842 C 448.31573,895.05842 440.45054,895.05842 432.58535,895.05842 C 423.7546,895.05842 415.56665,895.00148 407.41675,896.63146 C 398.13083,898.48864 403.11951,910.05951 404.27067,912.36183 C 407.32249,918.46547 416.1065,918.86012 421.57409,920.22702 C 432.57015,922.97604 438.08886,928.09221 448.31573,928.09221 C 456.18092,928.09221 464.0461,928.09221 471.91129,928.09221 C 479.77648,928.09221 487.64167,928.09221 495.50686,928.09221 C 503.27919,928.09221 506.40334,923.83223 508.09116,917.08095 C 510.25899,908.40964 499.93146,903.56287 495.50686,901.35057 C 491.62563,899.40996 487.4003,899.05177 481.34952,896.63146 z"
               style="fill:#f6b959;fill-opacity:1;fill-rule:evenodd;stroke:#000000;stroke-width:2;stroke-linecap:butt;stroke-linejoin:miter;stroke-miterlimit:4;stroke-dasharray:none;stroke-opacity:1" />
          </g>
          <g
             id="g3686"
             transform="translate(-295.26339,8.651825)">
            <path
               id="path3688"
               d="M 492.36078,918.65398 C 487.64763,916.29741 478.55694,912.36183 468.76522,912.36183 C 459.40751,912.36183 454.75577,910.78879 445.16965,910.78879 C 437.30446,910.78879 429.43928,910.78879 421.57409,910.78879 C 411.66656,910.78879 409.54042,915.97969 405.84371,923.3731 C 401.23584,932.58885 409.38503,934.7796 413.7089,939.10347 C 417.2642,942.65877 429.07201,942.24955 435.73143,942.24955 C 445.50061,942.24955 449.87061,943.82259 459.32699,943.82259 C 467.19218,943.82259 475.05737,943.82259 482.92256,943.82259 C 493.02131,943.82259 497.0981,942.23135 501.79901,937.53043 C 507.91923,931.41022 504.8277,924.82875 500.22597,920.22702 C 498.33541,918.33646 494.98251,919.17833 492.36078,918.65398 z"
               style="opacity:1;fill:#f6b959;fill-opacity:1;fill-rule:evenodd;stroke:#000000;stroke-width:2;stroke-linecap:butt;stroke-linejoin:miter;marker:none;marker-start:none;marker-mid:none;marker-end:none;stroke-miterlimit:4;stroke-dasharray:none;stroke-dashoffset:0;stroke-opacity:1;visibility:visible;display:inline;overflow:visible;enable-background:accumulate" />
            <path
               id="path3690"
               d="M 408.98979,913.93487 C 408.79251,913.88555 393.01245,927.50703 391.68637,932.81132 C 389.41732,941.88752 402.37429,939.10347 408.98979,939.10347 C 415.10318,939.10347 419.74923,931.3642 426.2932,928.09221 C 433.29201,924.59281 444.66178,923.3731 453.03484,923.3731 C 461.42846,923.3731 468.03323,921.80006 476.63041,921.80006 C 484.49559,921.80006 492.36078,921.80006 500.22597,921.80006 C 508.65293,921.80006 513.79542,917.66883 517.52938,913.93487 C 523.98458,907.47968 515.07908,900.12542 511.23723,898.20449 C 509.27875,897.22525 494.87021,905.44232 492.36078,906.06968 C 484.4932,908.03658 475.39713,907.64272 467.19218,907.64272 C 459.46107,907.64272 450.60669,907.8565 445.16965,909.21576 C 437.8156,911.05427 429.23745,910.78879 421.57409,910.78879 C 415.49636,910.78879 416.47858,910.93935 408.98979,913.93487 z"
               style="fill:#ff1007;fill-opacity:1;fill-rule:evenodd;stroke:#000000;stroke-width:2;stroke-linecap:butt;stroke-linejoin:miter;stroke-miterlimit:4;stroke-dasharray:none;stroke-opacity:1" />
            <path
               id="path3692"
               d="M 421.57409,907.64272 C 420.68386,906.75249 403.04178,907.64272 396.40549,907.64272 C 384.72457,907.64272 384.36915,911.4076 386.96726,921.80006 C 387.24843,922.92475 405.96163,928.15117 408.98979,929.66525 C 413.94748,932.14409 426.89639,929.66525 432.58535,929.66525 C 440.45054,929.66525 448.31573,929.66525 456.18092,929.66525 C 463.94773,929.66525 471.23571,932.81132 479.77648,932.81132 C 487.94746,932.81132 496.10214,932.56688 503.37205,934.38436 C 512.41767,936.64577 517.9812,931.29268 522.2485,928.09221 C 530.20609,922.12402 522.95887,916.64961 517.52938,913.93487 C 511.97171,911.15603 502.65497,910.78879 497.07989,910.78879 C 489.21471,910.78879 481.34952,910.78879 473.48433,910.78879 C 465.31335,910.78879 457.15868,911.03323 449.88877,909.21576 C 439.27731,906.56289 433.56374,905.24479 421.57409,907.64272 z"
               style="fill:#ea7e74;fill-opacity:1;fill-rule:evenodd;stroke:#000000;stroke-width:2;stroke-linecap:butt;stroke-linejoin:miter;stroke-miterlimit:4;stroke-dasharray:none;stroke-opacity:1" />
            <path
               id="path3694"
               d="M 481.34952,896.63146 C 479.31079,904.78638 464.58682,895.05842 456.18092,895.05842 C 448.31573,895.05842 440.45054,895.05842 432.58535,895.05842 C 423.7546,895.05842 415.56665,895.00148 407.41675,896.63146 C 398.13083,898.48864 403.11951,910.05951 404.27067,912.36183 C 407.32249,918.46547 416.1065,918.86012 421.57409,920.22702 C 432.57015,922.97604 438.08886,928.09221 448.31573,928.09221 C 456.18092,928.09221 464.0461,928.09221 471.91129,928.09221 C 479.77648,928.09221 487.64167,928.09221 495.50686,928.09221 C 503.27919,928.09221 506.40334,923.83223 508.09116,917.08095 C 510.25899,908.40964 499.93146,903.56287 495.50686,901.35057 C 491.62563,899.40996 487.4003,899.05177 481.34952,896.63146 z"
               style="fill:#f6b959;fill-opacity:1;fill-rule:evenodd;stroke:#000000;stroke-width:2;stroke-linecap:butt;stroke-linejoin:miter;stroke-miterlimit:4;stroke-dasharray:none;stroke-opacity:1" />
          </g>
          <g
             id="g3706"
             transform="translate(-312.56682,-38.539304)">
            <path
               id="path3708"
               d="M 492.36078,918.65398 C 487.64763,916.29741 478.55694,912.36183 468.76522,912.36183 C 459.40751,912.36183 454.75577,910.78879 445.16965,910.78879 C 437.30446,910.78879 429.43928,910.78879 421.57409,910.78879 C 411.66656,910.78879 409.54042,915.97969 405.84371,923.3731 C 401.23584,932.58885 409.38503,934.7796 413.7089,939.10347 C 417.2642,942.65877 429.07201,942.24955 435.73143,942.24955 C 445.50061,942.24955 449.87061,943.82259 459.32699,943.82259 C 467.19218,943.82259 475.05737,943.82259 482.92256,943.82259 C 493.02131,943.82259 497.0981,942.23135 501.79901,937.53043 C 507.91923,931.41022 504.8277,924.82875 500.22597,920.22702 C 498.33541,918.33646 494.98251,919.17833 492.36078,918.65398 z"
               style="opacity:1;fill:#f6b959;fill-opacity:1;fill-rule:evenodd;stroke:#000000;stroke-width:2;stroke-linecap:butt;stroke-linejoin:miter;marker:none;marker-start:none;marker-mid:none;marker-end:none;stroke-miterlimit:4;stroke-dasharray:none;stroke-dashoffset:0;stroke-opacity:1;visibility:visible;display:inline;overflow:visible;enable-background:accumulate" />
            <path
               id="path3710"
               d="M 408.98979,913.93487 C 408.79251,913.88555 393.01245,927.50703 391.68637,932.81132 C 389.41732,941.88752 402.37429,939.10347 408.98979,939.10347 C 415.10318,939.10347 419.74923,931.3642 426.2932,928.09221 C 433.29201,924.59281 444.66178,923.3731 453.03484,923.3731 C 461.42846,923.3731 468.03323,921.80006 476.63041,921.80006 C 484.49559,921.80006 492.36078,921.80006 500.22597,921.80006 C 508.65293,921.80006 513.79542,917.66883 517.52938,913.93487 C 523.98458,907.47968 515.07908,900.12542 511.23723,898.20449 C 509.27875,897.22525 494.87021,905.44232 492.36078,906.06968 C 484.4932,908.03658 475.39713,907.64272 467.19218,907.64272 C 459.46107,907.64272 450.60669,907.8565 445.16965,909.21576 C 437.8156,911.05427 429.23745,910.78879 421.57409,910.78879 C 415.49636,910.78879 416.47858,910.93935 408.98979,913.93487 z"
               style="fill:#ff1007;fill-opacity:1;fill-rule:evenodd;stroke:#000000;stroke-width:2;stroke-linecap:butt;stroke-linejoin:miter;stroke-miterlimit:4;stroke-dasharray:none;stroke-opacity:1" />
            <path
               id="path3712"
               d="M 421.57409,907.64272 C 420.68386,906.75249 403.04178,907.64272 396.40549,907.64272 C 384.72457,907.64272 384.36915,911.4076 386.96726,921.80006 C 387.24843,922.92475 405.96163,928.15117 408.98979,929.66525 C 413.94748,932.14409 426.89639,929.66525 432.58535,929.66525 C 440.45054,929.66525 448.31573,929.66525 456.18092,929.66525 C 463.94773,929.66525 471.23571,932.81132 479.77648,932.81132 C 487.94746,932.81132 496.10214,932.56688 503.37205,934.38436 C 512.41767,936.64577 517.9812,931.29268 522.2485,928.09221 C 530.20609,922.12402 522.95887,916.64961 517.52938,913.93487 C 511.97171,911.15603 502.65497,910.78879 497.07989,910.78879 C 489.21471,910.78879 481.34952,910.78879 473.48433,910.78879 C 465.31335,910.78879 457.15868,911.03323 449.88877,909.21576 C 439.27731,906.56289 433.56374,905.24479 421.57409,907.64272 z"
               style="fill:#ea7e74;fill-opacity:1;fill-rule:evenodd;stroke:#000000;stroke-width:2;stroke-linecap:butt;stroke-linejoin:miter;stroke-miterlimit:4;stroke-dasharray:none;stroke-opacity:1" />
            <path
               id="path3714"
               d="M 481.34952,896.63146 C 479.31079,904.78638 464.58682,895.05842 456.18092,895.05842 C 448.31573,895.05842 440.45054,895.05842 432.58535,895.05842 C 423.7546,895.05842 415.56665,895.00148 407.41675,896.63146 C 398.13083,898.48864 403.11951,910.05951 404.27067,912.36183 C 407.32249,918.46547 416.1065,918.86012 421.57409,920.22702 C 432.57015,922.97604 438.08886,928.09221 448.31573,928.09221 C 456.18092,928.09221 464.0461,928.09221 471.91129,928.09221 C 479.77648,928.09221 487.64167,928.09221 495.50686,928.09221 C 503.27919,928.09221 506.40334,923.83223 508.09116,917.08095 C 510.25899,908.40964 499.93146,903.56287 495.50686,901.35057 C 491.62563,899.40996 487.4003,899.05177 481.34952,896.63146 z"
               style="fill:#f6b959;fill-opacity:1;fill-rule:evenodd;stroke:#000000;stroke-width:2;stroke-linecap:butt;stroke-linejoin:miter;stroke-miterlimit:4;stroke-dasharray:none;stroke-opacity:1" />
          </g>
          <g
             id="g3696"
             transform="translate(-351.89275,-18.089815)">
            <path
               id="path3698"
               d="M 492.36078,918.65398 C 487.64763,916.29741 478.55694,912.36183 468.76522,912.36183 C 459.40751,912.36183 454.75577,910.78879 445.16965,910.78879 C 437.30446,910.78879 429.43928,910.78879 421.57409,910.78879 C 411.66656,910.78879 409.54042,915.97969 405.84371,923.3731 C 401.23584,932.58885 409.38503,934.7796 413.7089,939.10347 C 417.2642,942.65877 429.07201,942.24955 435.73143,942.24955 C 445.50061,942.24955 449.87061,943.82259 459.32699,943.82259 C 467.19218,943.82259 475.05737,943.82259 482.92256,943.82259 C 493.02131,943.82259 497.0981,942.23135 501.79901,937.53043 C 507.91923,931.41022 504.8277,924.82875 500.22597,920.22702 C 498.33541,918.33646 494.98251,919.17833 492.36078,918.65398 z"
               style="opacity:1;fill:#f6b959;fill-opacity:1;fill-rule:evenodd;stroke:#000000;stroke-width:2;stroke-linecap:butt;stroke-linejoin:miter;marker:none;marker-start:none;marker-mid:none;marker-end:none;stroke-miterlimit:4;stroke-dasharray:none;stroke-dashoffset:0;stroke-opacity:1;visibility:visible;display:inline;overflow:visible;enable-background:accumulate" />
            <path
               id="path3700"
               d="M 408.98979,913.93487 C 408.79251,913.88555 393.01245,927.50703 391.68637,932.81132 C 389.41732,941.88752 402.37429,939.10347 408.98979,939.10347 C 415.10318,939.10347 419.74923,931.3642 426.2932,928.09221 C 433.29201,924.59281 444.66178,923.3731 453.03484,923.3731 C 461.42846,923.3731 468.03323,921.80006 476.63041,921.80006 C 484.49559,921.80006 492.36078,921.80006 500.22597,921.80006 C 508.65293,921.80006 513.79542,917.66883 517.52938,913.93487 C 523.98458,907.47968 515.07908,900.12542 511.23723,898.20449 C 509.27875,897.22525 494.87021,905.44232 492.36078,906.06968 C 484.4932,908.03658 475.39713,907.64272 467.19218,907.64272 C 459.46107,907.64272 450.60669,907.8565 445.16965,909.21576 C 437.8156,911.05427 429.23745,910.78879 421.57409,910.78879 C 415.49636,910.78879 416.47858,910.93935 408.98979,913.93487 z"
               style="fill:#ff1007;fill-opacity:1;fill-rule:evenodd;stroke:#000000;stroke-width:2;stroke-linecap:butt;stroke-linejoin:miter;stroke-miterlimit:4;stroke-dasharray:none;stroke-opacity:1" />
            <path
               id="path3702"
               d="M 421.57409,907.64272 C 420.68386,906.75249 403.04178,907.64272 396.40549,907.64272 C 384.72457,907.64272 384.36915,911.4076 386.96726,921.80006 C 387.24843,922.92475 405.96163,928.15117 408.98979,929.66525 C 413.94748,932.14409 426.89639,929.66525 432.58535,929.66525 C 440.45054,929.66525 448.31573,929.66525 456.18092,929.66525 C 463.94773,929.66525 471.23571,932.81132 479.77648,932.81132 C 487.94746,932.81132 496.10214,932.56688 503.37205,934.38436 C 512.41767,936.64577 517.9812,931.29268 522.2485,928.09221 C 530.20609,922.12402 522.95887,916.64961 517.52938,913.93487 C 511.97171,911.15603 502.65497,910.78879 497.07989,910.78879 C 489.21471,910.78879 481.34952,910.78879 473.48433,910.78879 C 465.31335,910.78879 457.15868,911.03323 449.88877,909.21576 C 439.27731,906.56289 433.56374,905.24479 421.57409,907.64272 z"
               style="fill:#ea7e74;fill-opacity:1;fill-rule:evenodd;stroke:#000000;stroke-width:2;stroke-linecap:butt;stroke-linejoin:miter;stroke-miterlimit:4;stroke-dasharray:none;stroke-opacity:1" />
            <path
               id="path3704"
               d="M 481.34952,896.63146 C 479.31079,904.78638 464.58682,895.05842 456.18092,895.05842 C 448.31573,895.05842 440.45054,895.05842 432.58535,895.05842 C 423.7546,895.05842 415.56665,895.00148 407.41675,896.63146 C 398.13083,898.48864 403.11951,910.05951 404.27067,912.36183 C 407.32249,918.46547 416.1065,918.86012 421.57409,920.22702 C 432.57015,922.97604 438.08886,928.09221 448.31573,928.09221 C 456.18092,928.09221 464.0461,928.09221 471.91129,928.09221 C 479.77648,928.09221 487.64167,928.09221 495.50686,928.09221 C 503.27919,928.09221 506.40334,923.83223 508.09116,917.08095 C 510.25899,908.40964 499.93146,903.56287 495.50686,901.35057 C 491.62563,899.40996 487.4003,899.05177 481.34952,896.63146 z"
               style="fill:#f6b959;fill-opacity:1;fill-rule:evenodd;stroke:#000000;stroke-width:2;stroke-linecap:butt;stroke-linejoin:miter;stroke-miterlimit:4;stroke-dasharray:none;stroke-opacity:1" />
          </g>
          <g
             id="g3716"
             transform="translate(-333.0163,-58.988793)">
            <path
               id="path3718"
               d="M 492.36078,918.65398 C 487.64763,916.29741 478.55694,912.36183 468.76522,912.36183 C 459.40751,912.36183 454.75577,910.78879 445.16965,910.78879 C 437.30446,910.78879 429.43928,910.78879 421.57409,910.78879 C 411.66656,910.78879 409.54042,915.97969 405.84371,923.3731 C 401.23584,932.58885 409.38503,934.7796 413.7089,939.10347 C 417.2642,942.65877 429.07201,942.24955 435.73143,942.24955 C 445.50061,942.24955 449.87061,943.82259 459.32699,943.82259 C 467.19218,943.82259 475.05737,943.82259 482.92256,943.82259 C 493.02131,943.82259 497.0981,942.23135 501.79901,937.53043 C 507.91923,931.41022 504.8277,924.82875 500.22597,920.22702 C 498.33541,918.33646 494.98251,919.17833 492.36078,918.65398 z"
               style="opacity:1;fill:#f6b959;fill-opacity:1;fill-rule:evenodd;stroke:#000000;stroke-width:2;stroke-linecap:butt;stroke-linejoin:miter;marker:none;marker-start:none;marker-mid:none;marker-end:none;stroke-miterlimit:4;stroke-dasharray:none;stroke-dashoffset:0;stroke-opacity:1;visibility:visible;display:inline;overflow:visible;enable-background:accumulate" />
            <path
               id="path3720"
               d="M 408.98979,913.93487 C 408.79251,913.88555 393.01245,927.50703 391.68637,932.81132 C 389.41732,941.88752 402.37429,939.10347 408.98979,939.10347 C 415.10318,939.10347 419.74923,931.3642 426.2932,928.09221 C 433.29201,924.59281 444.66178,923.3731 453.03484,923.3731 C 461.42846,923.3731 468.03323,921.80006 476.63041,921.80006 C 484.49559,921.80006 492.36078,921.80006 500.22597,921.80006 C 508.65293,921.80006 513.79542,917.66883 517.52938,913.93487 C 523.98458,907.47968 515.07908,900.12542 511.23723,898.20449 C 509.27875,897.22525 494.87021,905.44232 492.36078,906.06968 C 484.4932,908.03658 475.39713,907.64272 467.19218,907.64272 C 459.46107,907.64272 450.60669,907.8565 445.16965,909.21576 C 437.8156,911.05427 429.23745,910.78879 421.57409,910.78879 C 415.49636,910.78879 416.47858,910.93935 408.98979,913.93487 z"
               style="fill:#ff1007;fill-opacity:1;fill-rule:evenodd;stroke:#000000;stroke-width:2;stroke-linecap:butt;stroke-linejoin:miter;stroke-miterlimit:4;stroke-dasharray:none;stroke-opacity:1" />
            <path
               id="path3722"
               d="M 421.57409,907.64272 C 420.68386,906.75249 403.04178,907.64272 396.40549,907.64272 C 384.72457,907.64272 384.36915,911.4076 386.96726,921.80006 C 387.24843,922.92475 405.96163,928.15117 408.98979,929.66525 C 413.94748,932.14409 426.89639,929.66525 432.58535,929.66525 C 440.45054,929.66525 448.31573,929.66525 456.18092,929.66525 C 463.94773,929.66525 471.23571,932.81132 479.77648,932.81132 C 487.94746,932.81132 496.10214,932.56688 503.37205,934.38436 C 512.41767,936.64577 517.9812,931.29268 522.2485,928.09221 C 530.20609,922.12402 522.95887,916.64961 517.52938,913.93487 C 511.97171,911.15603 502.65497,910.78879 497.07989,910.78879 C 489.21471,910.78879 481.34952,910.78879 473.48433,910.78879 C 465.31335,910.78879 457.15868,911.03323 449.88877,909.21576 C 439.27731,906.56289 433.56374,905.24479 421.57409,907.64272 z"
               style="fill:#ea7e74;fill-opacity:1;fill-rule:evenodd;stroke:#000000;stroke-width:2;stroke-linecap:butt;stroke-linejoin:miter;stroke-miterlimit:4;stroke-dasharray:none;stroke-opacity:1" />
            <path
               id="path3724"
               d="M 481.34952,896.63146 C 479.31079,904.78638 464.58682,895.05842 456.18092,895.05842 C 448.31573,895.05842 440.45054,895.05842 432.58535,895.05842 C 423.7546,895.05842 415.56665,895.00148 407.41675,896.63146 C 398.13083,898.48864 403.11951,910.05951 404.27067,912.36183 C 407.32249,918.46547 416.1065,918.86012 421.57409,920.22702 C 432.57015,922.97604 438.08886,928.09221 448.31573,928.09221 C 456.18092,928.09221 464.0461,928.09221 471.91129,928.09221 C 479.77648,928.09221 487.64167,928.09221 495.50686,928.09221 C 503.27919,928.09221 506.40334,923.83223 508.09116,917.08095 C 510.25899,908.40964 499.93146,903.56287 495.50686,901.35057 C 491.62563,899.40996 487.4003,899.05177 481.34952,896.63146 z"
               style="fill:#f6b959;fill-opacity:1;fill-rule:evenodd;stroke:#000000;stroke-width:2;stroke-linecap:butt;stroke-linejoin:miter;stroke-miterlimit:4;stroke-dasharray:none;stroke-opacity:1" />
          </g>
        </g>
      </g>
    </g>
  </g>
</svg>
