<?xml version="1.0" encoding="UTF-8" standalone="no"?>
<!-- Created with Inkscape (http://www.inkscape.org/) -->
<svg
   xmlns:dc="http://purl.org/dc/elements/1.1/"
   xmlns:cc="http://creativecommons.org/ns#"
   xmlns:rdf="http://www.w3.org/1999/02/22-rdf-syntax-ns#"
   xmlns:svg="http://www.w3.org/2000/svg"
   xmlns="http://www.w3.org/2000/svg"
   xmlns:sodipodi="http://sodipodi.sourceforge.net/DTD/sodipodi-0.dtd"
   xmlns:inkscape="http://www.inkscape.org/namespaces/inkscape"
   width="744.09448819"
   height="1052.3622047"
   id="svg2"
   sodipodi:version="0.32"
   inkscape:version="0.46"
   sodipodi:docname="Mara1.svg"
   inkscape:output_extension="org.inkscape.output.svg.inkscape">
  <defs
     id="defs4">
    <inkscape:perspective
       sodipodi:type="inkscape:persp3d"
       inkscape:vp_x="0 : 526.18109 : 1"
       inkscape:vp_y="0 : 1000 : 0"
       inkscape:vp_z="744.09448 : 526.18109 : 1"
       inkscape:persp3d-origin="372.04724 : 350.78739 : 1"
       id="perspective10" />
  </defs>
  <sodipodi:namedview
     id="base"
     pagecolor="#ffffff"
     bordercolor="#666666"
     borderopacity="1.0"
     gridtolerance="10000"
     guidetolerance="10"
     objecttolerance="10"
     inkscape:pageopacity="0.0"
     inkscape:pageshadow="2"
     inkscape:zoom="0.89903352"
     inkscape:cx="310.99326"
     inkscape:cy="551.75172"
     inkscape:document-units="px"
     inkscape:current-layer="g3453"
     showgrid="false"
     inkscape:window-width="1280"
     inkscape:window-height="885"
     inkscape:window-x="0"
     inkscape:window-y="25" />
  <metadata
     id="metadata7">
    <rdf:RDF>
      <cc:Work
         rdf:about="">
        <dc:format>image/svg+xml</dc:format>
        <dc:type
           rdf:resource="http://purl.org/dc/dcmitype/StillImage" />
      </cc:Work>
    </rdf:RDF>
  </metadata>
  <g
     inkscape:label="Layer 1"
     inkscape:groupmode="layer"
     id="layer1">
    <g
       id="g3453">
      <path
         style="fill:#545454;fill-opacity:1;fill-rule:evenodd;stroke:#000000;stroke-width:3;stroke-linecap:butt;stroke-linejoin:miter;stroke-opacity:1;stroke-miterlimit:4;stroke-dasharray:none"
         d="M 362.77304,405.18491 C 376.2893,418.26559 394.28997,438.63837 413.30109,420.90981 C 432.01974,413.46343 450.16725,405.37861 464.44161,390.58595 C 481.2314,377.26903 500.01091,366.59757 515.34013,351.44289 C 533.48149,338.25231 505.53557,326.32895 504.87027,311.1356 C 489.62835,287.95756 515.7479,278.23678 517.24745,260.50554 C 517.25828,243.71309 509.30698,227.76832 503.60831,212.37671 C 496.56427,173.02447 483.17709,173.47717 474.28475,199.25717 C 469.51776,213.07725 457.15257,227.92784 447.78463,237.03687 C 431.63908,238.00534 414.88371,230.08022 398.31472,229.75265 C 379.70652,219.14521 389.12372,194.75304 381.17965,178.41416 C 381.66237,167.23005 375.59142,149.41159 368.10531,167.70024 C 352.47028,188.75261 345.96454,215.12036 347.49017,241.08046 C 346.39926,256.75893 326.13489,269.27037 336.15374,285.57823 C 345.5351,302.27552 330.98282,316.43144 322.39725,329.4475 C 307.1178,351.94112 346.8695,385.65005 362.77304,405.18491 z"
         id="path3999"
         sodipodi:nodetypes="cccccccscccccccc" />
      <path
         style="fill:#ffffff;fill-opacity:1;fill-rule:evenodd;stroke:#000000;stroke-width:3;stroke-linecap:butt;stroke-linejoin:miter;stroke-opacity:1;stroke-miterlimit:4;stroke-dasharray:none"
         d="M 404.27067,335.05702 C 400.40329,342.79179 420.79154,328.76487 429.43928,328.76487 C 436.49763,328.76487 445.0463,330.3379 453.03484,330.3379 C 461.53863,330.3379 462.71177,332.63779 465.61914,331.91094 C 472.81311,330.11245 465.78932,316.52092 462.47307,309.88842 C 459.69787,304.33803 457.03512,299.01252 454.60788,294.15804 C 450.00187,284.94603 448.75538,283.58643 443.59662,278.42766 C 437.94799,272.77903 431.53932,273.5768 424.72016,275.28159 C 416.57404,277.31812 413.09949,282.79257 410.56282,287.86589 C 407.64609,293.69937 407.07399,303.39426 405.84371,308.31538 C 403.7457,316.70741 404.27067,325.97694 404.27067,335.05702 z"
         id="path4001" />
      <path
         style="fill:#ffffff;fill-opacity:1;fill-rule:evenodd;stroke:#000000;stroke-width:3;stroke-linecap:butt;stroke-linejoin:miter;stroke-opacity:1;stroke-miterlimit:4;stroke-dasharray:none;opacity:1;color:#000000;marker:none;marker-start:none;marker-mid:none;marker-end:none;stroke-dashoffset:0;visibility:visible;display:inline;overflow:visible;enable-background:accumulate"
         d="M 330.3379,319.32664 C 330.02771,320.5674 347.28801,326.31698 350.78739,327.19183 C 357.96976,328.98742 358.93769,335.48964 361.79866,324.04575 C 363.37413,317.74387 363.73609,309.77297 361.79866,302.02323 C 360.30379,296.04376 358.31814,286.52812 357.07954,281.57374 C 354.52834,271.36891 355.30338,269.72517 346.06828,267.4164 C 335.77999,264.84433 333.36119,275.77276 331.91094,281.57374 C 330.19607,288.43322 331.91094,298.05688 331.91094,305.1693 C 331.91094,310.50377 331.6869,313.93068 330.3379,319.32664 z"
         id="path4005" />
      <path
         style="fill:#000000;fill-opacity:1;fill-rule:evenodd;stroke:#000000;stroke-width:3;stroke-linecap:butt;stroke-linejoin:miter;stroke-opacity:1;stroke-miterlimit:4;stroke-dasharray:none;opacity:1;color:#000000;marker:none;marker-start:none;marker-mid:none;marker-end:none;stroke-dashoffset:0;visibility:visible;display:inline;overflow:visible;enable-background:accumulate"
         d="M 360.22562,360.22562 C 360.22562,371.51691 371.626,372.51394 372.80992,372.80992 C 377.63578,374.01639 376.55348,363.53037 377.52903,358.65258 C 378.66486,352.97346 365.60298,358.07468 360.22562,360.22562 z"
         id="path4007" />
      <path
         style="fill:#000000;fill-opacity:1;fill-rule:evenodd;stroke:#000000;stroke-width:3;stroke-linecap:butt;stroke-linejoin:miter;stroke-opacity:1;stroke-miterlimit:4;stroke-dasharray:none;opacity:1;color:#000000;marker:none;marker-start:none;marker-mid:none;marker-end:none;stroke-dashoffset:0;visibility:visible;display:inline;overflow:visible;enable-background:accumulate"
         d="M 408.98979,294.15804 C 409.78099,290.20204 429.35405,295.64585 432.58535,298.87715 C 438.17708,304.46888 438.07064,308.23399 440.45054,317.7536 C 443.38296,329.48328 432.70296,328.76487 424.72016,328.76487 C 417.50022,328.76487 408.12967,336.2736 404.27067,338.20309 C 397.15327,335.24394 406.17159,313.15462 408.98979,294.15804 z"
         id="path4009"
         sodipodi:nodetypes="cssscc" />
      <path
         style="fill:#000000;fill-opacity:1;fill-rule:evenodd;stroke:#000000;stroke-width:3;stroke-linecap:butt;stroke-linejoin:miter;stroke-opacity:1;stroke-miterlimit:4;stroke-dasharray:none"
         d="M 330.3379,317.7536 C 332.66065,319.1653 349.31436,323.6775 350.78739,324.04575 C 351.40824,324.20097 353.69779,302.96593 353.93347,302.02323 C 355.49809,295.76473 349.09091,287.619 347.64132,284.71981 C 344.01794,277.47305 335.16462,280.73342 330.3379,283.14678 C 328.82295,283.90425 330.3379,304.1972 330.3379,306.74234 C 330.3379,310.58277 330.3379,313.65431 330.3379,317.7536 z"
         id="path4015" />
      <path
         style="fill:#e45c5c;fill-opacity:1;fill-rule:evenodd;stroke:#000000;stroke-width:3;stroke-linecap:butt;stroke-linejoin:miter;stroke-opacity:1;stroke-miterlimit:4;stroke-dasharray:none"
         d="M 390.11334,377.52903 C 395.36645,374.44942 402.06067,371.23688 412.13586,371.23688 C 422.72712,371.23688 424.1882,373.98399 431.01231,379.10207 C 439.05003,385.13036 427.67467,394.92823 424.72016,396.40549 C 418.60395,399.46359 416.25149,402.45525 408.98979,404.27067 C 397.20828,407.21605 395.63007,402.65321 397.97852,393.25941 C 399.87669,385.66675 395.4314,382.8471 390.11334,377.52903 z"
         id="path4019" />
      <path
         style="fill:#ffffff;fill-opacity:1;fill-rule:evenodd;stroke:#000000;stroke-width:3;stroke-linecap:butt;stroke-linejoin:miter;stroke-opacity:1;stroke-miterlimit:4;stroke-dasharray:none"
         d="M 408.98979,371.23688 C 410.52642,365.09036 412.37496,384.06028 416.85498,388.5403 C 421.08239,392.76771 420.1241,377.03684 421.57409,371.23688 C 422.59147,367.16736 413.10309,370.41422 408.98979,371.23688 z"
         id="path4021" />
      <path
         style="fill:none;fill-opacity:0.75000000000000000;fill-rule:evenodd;stroke:#000000;stroke-width:3;stroke-linecap:butt;stroke-linejoin:miter;stroke-opacity:1;stroke-miterlimit:4;stroke-dasharray:none"
         d="M 253.25906,352.36043 C 255.29779,344.20551 270.02176,353.93347 278.42766,353.93347 C 287.11586,353.93347 294.02548,356.65314 302.02323,358.65258 C 310.03286,360.65499 317.09702,358.48844 324.04575,360.22562 C 330.41235,361.81727 339.68925,363.74323 344.49524,364.94473"
         id="path4023" />
      <path
         style="fill:none;fill-opacity:0.75000000000000000;fill-rule:evenodd;stroke:#000000;stroke-width:3;stroke-linecap:butt;stroke-linejoin:miter;stroke-opacity:1;stroke-miterlimit:4;stroke-dasharray:none"
         d="M 459.32699,363.3717 C 464.69213,364.71298 483.55813,363.3717 493.93382,363.3717 C 507.04247,363.3717 520.15111,363.3717 533.25976,363.3717 C 544.43795,363.3717 555.6445,362.81492 566.29355,364.94473 C 571.49623,365.98527 572.60163,365.34198 577.30481,366.51777"
         id="path4025" />
      <path
         style="fill:#e45c85;fill-opacity:1;fill-rule:evenodd;stroke:#000000;stroke-width:3;stroke-linecap:butt;stroke-linejoin:miter;stroke-opacity:1;stroke-miterlimit:4;stroke-dasharray:none"
         d="M 396.40549,204.49489 C 400.41939,196.46709 378.6392,207.64097 369.66385,207.64097 C 362.91236,207.64097 352.58631,212.30361 346.06828,213.93312 C 337.58213,216.05466 333.58545,220.1999 327.19183,221.79831 C 319.64954,223.68388 314.75544,226.22159 311.46145,232.80957 C 307.35437,241.02373 317.53381,247.58858 320.89968,250.11299 C 323.3625,251.9601 339.10861,247.92031 342.92221,246.96691 C 350.56477,245.05627 358.73947,244.19237 366.51777,242.2478 C 372.63057,240.7196 381.07192,240.57556 386.96726,239.10172 C 394.44221,237.23298 402.38903,237.52868 410.56282,237.52868 C 419.08462,237.52868 425.62847,237.69487 432.58535,235.95565 C 440.26852,234.03486 447.82759,232.80957 456.18092,232.80957 C 464.79217,232.80957 471.37838,231.23653 479.77648,231.23653 C 487.64167,231.23653 495.50686,231.23653 503.37205,231.23653 C 513.70477,231.23653 515.22678,228.45524 522.2485,224.94438 C 525.17183,223.48272 527.41085,207.44106 528.54065,202.92186 C 530.0951,196.70405 524.50647,188.56135 522.2485,184.0454 C 518.53926,176.62693 516.22746,176.18022 506.51812,176.18022 C 497.06154,176.18022 492.73212,177.26716 484.49559,179.32629 C 477.67651,181.03106 472.31421,186.69749 464.0461,188.76452 C 457.52071,190.39587 450.53412,196.30703 443.59662,199.77578 C 436.59807,203.27505 431.28969,204.49489 423.14713,204.49489 C 414.23325,204.49489 405.31937,204.49489 396.40549,204.49489 z"
         id="path4029" />
      <path
         style="fill:#e45c85;fill-opacity:1;fill-rule:evenodd;stroke:#000000;stroke-width:3;stroke-linecap:butt;stroke-linejoin:miter;stroke-opacity:1;stroke-miterlimit:4;stroke-dasharray:none;opacity:1;color:#000000;marker:none;marker-start:none;marker-mid:none;marker-end:none;stroke-dashoffset:0;visibility:visible;display:inline;overflow:visible;enable-background:accumulate"
         d="M 416.85498,191.91059 C 408.20867,191.91059 405.20808,192.88006 402.69764,202.92186 C 401.49136,207.74695 416.19526,206.06793 421.57409,206.06793 C 432.1744,206.06793 436.35794,195.99981 426.2932,193.48363 C 425.5738,193.30378 425.24451,192.43494 424.72016,191.91059 C 422.86632,190.05675 419.4767,191.91059 416.85498,191.91059 z"
         id="path4031" />
      <path
         style="fill:#545454;fill-opacity:1;fill-rule:evenodd;stroke:#000000;stroke-width:3;stroke-linecap:butt;stroke-linejoin:miter;stroke-opacity:1;stroke-miterlimit:4;stroke-dasharray:none;opacity:1;color:#000000;marker:none;marker-start:none;marker-mid:none;marker-end:none;stroke-dashoffset:0;visibility:visible;display:inline;overflow:visible;enable-background:accumulate"
         d="M 482.92256,177.75325 C 477.46252,180.20677 471.06944,189.88699 467.19218,195.05667 C 463.06431,200.5605 462.29461,206.42484 459.32699,212.36008 C 455.6537,219.70667 451.5086,224.8508 448.31573,231.23653 C 444.10526,239.65747 450.13848,237.71597 456.18092,242.2478 C 461.00597,245.86658 467.20852,246.98325 471.91129,251.68602 C 477.25747,257.0322 482.28726,260.48896 486.06863,264.27032 C 490.9988,269.20049 496.62532,271.12171 501.79901,273.70855 C 511.55594,278.58702 510.18639,276.3389 512.81027,265.84336 C 514.43465,259.34585 515.76826,252.43838 517.52938,245.39387 C 519.64361,236.93697 514.88228,229.08841 512.81027,224.94438 C 509.56419,218.45222 509.82176,211.4173 508.09116,204.49489 C 506.32665,197.43687 501.46232,191.23722 498.65293,185.61844 C 494.55093,177.41444 494.78079,173.00996 482.92256,177.75325 z"
         id="path4033" />
      <path
         style="fill:#545454;fill-opacity:1;fill-rule:evenodd;stroke:none;stroke-width:3;stroke-linecap:butt;stroke-linejoin:miter;stroke-opacity:1;opacity:1;color:#000000;marker:none;marker-start:none;marker-mid:none;marker-end:none;stroke-miterlimit:4;stroke-dasharray:none;stroke-dashoffset:0;visibility:visible;display:inline;overflow:visible;enable-background:accumulate"
         d="M 457.75395,229.6635 C 451.7661,231.0427 444.25324,236.87206 438.8775,242.2478 C 431.66531,249.45999 445.67365,255.99662 448.31573,257.97817 C 455.6039,263.4443 459.0355,263.35732 465.61914,272.13551 C 467.98527,275.29034 477.45583,279.62689 481.34952,281.57374 C 486.18047,283.98922 493.61312,286.60593 498.65293,287.86589 C 501.39617,288.5517 507.0813,275.72827 508.09116,273.70855 C 512.1936,265.50366 505.62055,257.0806 501.79901,253.25906 C 497.11249,248.57254 490.22136,245.8972 486.06863,243.82083 C 479.91406,240.74355 475.5086,236.96778 470.33826,234.38261 C 462.94343,230.68519 469.56787,229.6635 457.75395,229.6635 z"
         id="path4035" />
      <path
         style="fill:#2d2d2d;fill-opacity:1;fill-rule:evenodd;stroke:#000000;stroke-width:3;stroke-linecap:butt;stroke-linejoin:miter;stroke-opacity:1;opacity:1;color:#000000;marker:none;marker-start:none;marker-mid:none;marker-end:none;stroke-miterlimit:4;stroke-dasharray:none;stroke-dashoffset:0;visibility:visible;display:inline;overflow:visible;enable-background:accumulate"
         d="M 454.60788,245.39387 C 460.2894,245.85211 469.3566,253.85044 473.48433,257.97817 C 479.36981,263.86365 482.24106,264.48038 486.06863,272.13551 C 490.06074,280.11974 489.76605,262.06495 490.78774,257.97817 C 492.50261,251.11869 490.78774,241.49504 490.78774,234.38261 C 490.78774,224.14371 487.74367,220.42928 484.49559,213.93312 C 481.12609,207.19411 478.31335,201.45873 476.63041,199.77578 C 471.98469,195.13006 470.13039,211.20278 467.19218,217.07919 C 464.1593,223.14496 463.14586,228.31792 459.32699,235.95565 C 458.99537,236.6189 458.2783,237.00434 457.75395,237.52868 C 455.7573,239.52533 455.65657,242.77214 454.60788,245.39387 z"
         id="path4037" />
      <path
         style="opacity:1;fill:#545454;fill-opacity:1;fill-rule:evenodd;stroke:#000000;stroke-width:3;stroke-linecap:butt;stroke-linejoin:miter;marker:none;marker-start:none;marker-mid:none;marker-end:none;stroke-miterlimit:4;stroke-dasharray:none;stroke-dashoffset:0;stroke-opacity:1;visibility:visible;display:inline;overflow:visible;enable-background:accumulate"
         d="M 482.92255,624.49591 C 489.63056,636.76809 503.8638,644.10556 517.73354,643.61619 C 530.35565,644.33574 543.95939,647.38475 554.76577,638.54354 C 593.31383,621.41234 586.69356,585.95974 605.43628,558.18082 C 615.09074,551.28406 624.81254,539.85543 638.03433,543.71068 C 649.09502,545.89417 660.79105,549.0162 669.40931,556.65735 C 674.49477,566.44967 672.41512,579.854 667.97083,589.85367 C 661.28504,600.56101 657.40104,612.83759 658.87187,625.52469 C 659.3203,636.41393 663.40404,648.51061 672.66094,654.84344 C 682.16438,660.19954 693.12485,663.76217 703.95122,660.20893 C 719.01567,656.78321 731.26367,638.39508 723.99473,623.62333 C 717.44808,613.66495 698.35539,615.53863 698.5777,600.57483 C 698.60103,588.12919 710.19968,578.63884 706.93753,565.60303 C 705.69016,554.73701 707.58861,542.42499 699.77715,533.49296 C 693.62138,525.00357 683.39042,521.41133 673.55661,519.36048 C 661.59819,514.87503 648.88827,511.73006 636.09516,513.91782 C 623.86315,513.18893 611.97306,517.02223 602.23191,524.35256 C 591.12543,532.8451 583.87271,545.06582 575.37939,555.93568 C 569.04668,567.49736 563.53389,579.65821 559.3408,592.08936 C 554.4492,601.31481 548.50683,611.93736 537.12333,613.65257 C 525.58833,617.22404 511.93629,618.68294 501.56507,611.19301 C 492.60983,605.65488 472.74298,612.76264 482.92255,624.49591 L 482.92255,624.49591 z"
         id="path4299"
         sodipodi:nodetypes="ccccccccccccccccccccccc" />
      <path
         style="fill:#545454;fill-opacity:1;fill-rule:evenodd;stroke:#000000;stroke-width:3;stroke-linecap:butt;stroke-linejoin:miter;stroke-opacity:1;stroke-miterlimit:4;stroke-dasharray:none;opacity:1;color:#000000;marker:none;marker-start:none;marker-mid:none;marker-end:none;stroke-dashoffset:0;visibility:visible;display:inline;overflow:visible;enable-background:accumulate"
         d="M 440.45054,399.55156 C 439.69388,405.27505 433.75456,412.94352 431.01231,418.42801 C 427.35815,425.73633 424.75154,430.94955 421.57409,437.30446 C 418.16035,444.13193 414.61333,448.0799 412.13586,453.03484 C 408.81859,459.66939 405.3146,466.67736 402.69764,471.91129 C 399.32815,478.65026 396.37082,486.20729 394.83245,492.36078 C 392.51927,501.61349 392.21852,507.58241 394.83245,512.81027 C 398.19054,519.52646 401.45032,520.0518 408.98979,523.82153 C 415.96408,527.30868 424.66607,528.54065 432.58535,528.54065 C 438.81281,528.54065 446.45313,530.11369 454.60788,530.11369 C 462.3144,530.11369 469.89741,524.26238 473.48433,520.67546 C 478.54106,515.61873 481.27944,509.94453 482.92256,503.37205 C 484.84363,495.68776 481.4967,488.23041 479.77648,481.34952 C 477.94865,474.03818 475.03491,468.7203 471.91129,462.47307 C 469.13994,456.93037 469.2075,448.51182 467.19218,440.45054 C 465.46765,433.55242 466.90763,423.58195 465.61914,418.42801 C 463.79103,411.11558 462.33551,403.72044 460.90003,397.97852 C 457.63626,384.92343 450.56817,393.48098 440.45054,399.55156 z"
         id="path4041" />
      <path
         style="fill:#232078;fill-opacity:1;fill-rule:evenodd;stroke:#000000;stroke-width:3;stroke-linecap:butt;stroke-linejoin:miter;stroke-opacity:1;stroke-miterlimit:4;stroke-dasharray:none;opacity:1;color:#000000;marker:none;marker-start:none;marker-mid:none;marker-end:none;stroke-dashoffset:0;visibility:visible;display:inline;overflow:visible;enable-background:accumulate"
         d="M 470.33826,602.47342 C 473.12227,596.90539 483.62064,616.45388 484.49559,618.20379 C 487.67856,624.56973 489.67504,628.56268 492.36078,633.93417 C 495.72215,640.65691 496.87962,644.14432 498.65293,651.23758 C 500.72505,659.52604 494.19621,664.87015 490.78774,671.68707 C 488.49199,676.27859 474.90366,679.89761 468.76522,681.1253 C 461.57474,682.56339 452.52983,681.1253 445.16965,681.1253 C 436.61896,681.1253 430.11928,679.55226 421.57409,679.55226 C 414.56433,679.55226 409.45617,675.29953 405.84371,671.68707 C 400.12742,665.97079 397.70688,663.27859 393.25941,654.38366 C 390.28089,648.42662 386.96726,644.33358 386.96726,635.50721 C 386.96726,624.1252 386.52153,621.7956 393.25941,615.05772 C 398.70286,609.61427 403.28403,607.43919 410.56282,605.61949 C 418.35676,603.67101 423.0595,602.47342 432.58535,602.47342 C 440.45054,602.47342 448.31573,602.47342 456.18092,602.47342 C 460.90003,602.47342 465.61914,602.47342 470.33826,602.47342 z"
         id="path4291" />
      <path
         style="opacity:1;fill:#545454;fill-opacity:1;fill-rule:evenodd;stroke:#000000;stroke-width:3;stroke-linecap:butt;stroke-linejoin:miter;marker:none;marker-start:none;marker-mid:none;marker-end:none;stroke-miterlimit:4;stroke-dasharray:none;stroke-dashoffset:0;stroke-opacity:1;visibility:visible;display:inline;overflow:visible;enable-background:accumulate"
         d="M 300.76638,651.54022 C 301.06301,651.31774 281.64088,649.96718 275.59778,649.96718 C 265.32438,649.96718 258.99059,655.1247 253.57525,657.83237 C 245.50902,661.86548 244.71583,665.1596 236.27184,667.27059 C 229.52642,668.95695 225.20225,671.61103 217.39539,673.56274 C 208.68097,675.74135 205.69429,665.89091 203.23805,660.97844 C 200.50608,655.5145 187.69189,657.64815 182.78856,662.55148 C 176.01391,669.32613 180.21551,676.99533 185.93463,679.85489 C 191.17809,682.47662 174.31855,678.13065 168.63122,676.70882 C 158.39121,674.14881 170.06485,692.29979 171.7773,694.01223 C 175.13475,697.36968 168.08082,703.92269 170.20426,708.16957 C 172.74723,713.25552 184.87587,714.46172 190.65375,714.46172 C 200.06203,714.46172 202.46459,710.91586 207.95716,708.16957 C 215.48674,704.40478 220.28773,695.83901 223.68754,692.43919 C 228.06649,688.06024 239.37438,689.29312 245.71007,689.29312 C 252.77188,689.29312 258.6595,686.44902 266.15955,684.57401 C 274.4517,682.50097 280.5821,681.42793 289.75512,681.42793 C 298.35936,681.42793 301.01943,677.77576 303.91246,671.9897 C 307.6091,664.59642 309.97787,658.44883 300.76638,651.54022 z"
         id="path4289" />
      <path
         style="opacity:1;fill:#232078;fill-opacity:1;fill-rule:evenodd;stroke:#000000;stroke-width:3;stroke-linecap:butt;stroke-linejoin:miter;marker:none;marker-start:none;marker-mid:none;marker-end:none;stroke-miterlimit:4;stroke-dasharray:none;stroke-dashoffset:0;stroke-opacity:1;visibility:visible;display:inline;overflow:visible;enable-background:accumulate"
         d="M 371.13028,700.33469 C 366.53917,702.59051 366.48731,695.02741 365.30699,692.19918 C 364.09833,687.20941 362.52581,681.55793 357.62319,678.97059 C 350.48861,673.38643 342.71676,667.92656 333.51749,666.63523 C 326.18776,664.94812 318.37664,664.01047 311.1081,666.50776 C 305.73403,668.10382 300.12054,669.39869 295.25601,672.2624 C 290.81261,675.3965 287.72048,680.10071 285.16268,684.79369 C 283.12267,691.47021 286.75895,698.24627 290.54646,703.54721 C 295.23684,709.29533 305.79828,710.06449 311.02675,715.28338 C 319.87064,722.37142 326.3479,730.24317 337.65846,730.74717 C 342.95293,732.75757 359.71311,742.88955 361.40287,737.8544 C 366.0846,730.0122 361.64607,711.5835 367.68071,704.92469 C 368.94977,703.48965 370.12283,701.96551 371.13028,700.33469 z"
         id="path4287"
         sodipodi:nodetypes="ccccccccccccc"
         inkscape:transform-center-x="21.226216"
         inkscape:transform-center-y="-16.92364" />
      <path
         style="fill:#242089;fill-opacity:1;fill-rule:evenodd;stroke:#000000;stroke-width:3;stroke-linecap:butt;stroke-linejoin:miter;stroke-miterlimit:4;stroke-dasharray:none;stroke-opacity:1"
         d="M 368.26561,606.23898 C 358.80634,588.27142 323.22851,555.35741 303.59626,547.4171 C 287.44724,539.86712 271.34894,527.81832 252.52221,530.70393 C 241.2374,530.14123 245.9356,542.3792 241.76655,549.40365 C 237.85022,559.49448 234.75387,572.43094 243.1402,581.25617 C 247.7178,590.88271 251.34473,601.22496 257.05156,610.39157 C 263.46517,621.59203 272.30812,631.28752 282.76896,638.81482 C 294.9308,650.11931 302.64398,667.49956 319.64785,672.59425 C 336.35922,686.81656 360.21694,686.37785 380.36043,681.23151 C 389.39434,678.59605 399.04545,676.77304 407.03493,671.6266 C 418.47305,661.5906 418.18564,644.0748 413.23534,630.83146 C 395.26556,600.20265 387.50921,619.4403 368.26561,606.23898 z"
         id="path4293"
         sodipodi:nodetypes="cccccccccccc" />
      <path
         style="fill:#000000;fill-opacity:1;fill-rule:evenodd;stroke:#000000;stroke-width:3;stroke-linecap:butt;stroke-linejoin:miter;stroke-opacity:1;stroke-miterlimit:4;stroke-dasharray:none"
         d="M 399.55156,594.60823 C 397.13869,598.2104 398.08745,612.34734 399.55156,618.20379 C 399.94594,619.7813 420.23505,619.77683 423.14713,619.77683 C 431.01231,619.77683 438.8775,619.77683 446.74269,619.77683 C 454.17736,619.77683 462.11854,621.34987 470.33826,621.34987 C 481.324,621.34987 475.05737,616.94757 475.05737,607.19253 C 475.05737,597.48028 469.73378,597.7543 460.90003,597.7543 C 453.03484,597.7543 445.16965,597.7543 437.30446,597.7543 C 429.43928,597.7543 421.57409,597.7543 413.7089,597.7543 C 407.3009,597.7543 406.71188,597.47236 399.55156,594.60823 z"
         id="path4281" />
      <path
         style="fill:#96ff79;fill-opacity:1;fill-rule:evenodd;stroke:#000000;stroke-width:3;stroke-linecap:butt;stroke-linejoin:miter;stroke-opacity:1;stroke-miterlimit:4;stroke-dasharray:none"
         d="M 424.72016,426.2932 C 423.14727,420.00162 406.84591,433.15619 405.84371,434.15839 C 400.66433,439.33777 397.86316,440.68127 394.83245,446.74269 C 391.05642,454.29475 385.00538,461.41848 380.67511,467.19218 C 375.56975,473.99933 370.09046,477.35021 366.51777,484.49559 C 362.25267,493.02579 356.36149,495.233 353.93347,504.94508 C 351.30517,515.45828 354.43147,515.37931 358.65258,523.82153 C 361.29821,529.11278 367.08188,532.81495 369.66385,537.97887 C 372.65423,543.95965 377.4744,550.34463 379.10207,556.85533 C 380.70516,563.26768 385.29848,569.24815 388.5403,575.73178 C 392.35075,583.35268 396.19226,587.46316 397.97852,594.60823 C 399.32065,599.97672 406.83856,603.75736 410.56282,605.61949 C 417.08283,608.8795 423.60988,610.33861 432.58535,610.33861 C 440.45054,610.33861 448.31573,610.33861 456.18092,610.33861 C 467.28121,610.33861 469.14333,603.29023 473.48433,594.60823 C 476.82894,587.91901 477.74393,583.86196 479.77648,575.73178 C 481.27684,569.73034 484.60521,564.28206 486.06863,558.42836 C 487.49009,552.74252 489.60665,544.2763 490.78774,539.55191 C 492.78071,531.58006 493.58552,523.64171 495.50686,515.95635 C 496.87155,510.49756 497.67048,501.00969 498.65293,497.07989 C 500.18956,490.93337 492.32438,485.92301 490.78774,479.77648 C 488.96364,472.48008 487.93968,466.81118 486.06863,459.32699 C 484.1167,451.51925 484.34347,444.56115 482.92256,438.8775 C 480.7447,430.16608 480.37774,423.42446 476.63041,418.42801 C 470.37026,410.08115 461.54645,426.57339 460.90003,427.86624 C 457.26669,435.13291 453.52535,442.6156 449.88877,449.88877 C 447.35199,454.96232 443.02533,459.89828 438.8775,464.0461 C 431.88897,471.03464 430.32318,474.17346 424.72016,479.77648 C 415.86996,488.62668 417.69303,486.27814 410.56282,484.49559 C 405.54072,483.24007 411.53479,466.45041 412.13586,464.0461 C 413.64058,458.02723 414.53994,449.79971 416.85498,445.16965 C 420.40345,438.0727 421.15629,435.20289 424.72016,426.2932 z"
         id="path4043" />
      <path
         style="fill:#545454;fill-opacity:1;fill-rule:evenodd;stroke:#000000;stroke-width:3;stroke-linecap:butt;stroke-linejoin:miter;stroke-opacity:1;stroke-miterlimit:4;stroke-dasharray:none;opacity:1;color:#000000;marker:none;marker-start:none;marker-mid:none;marker-end:none;stroke-dashoffset:0;visibility:visible;display:inline;overflow:visible;enable-background:accumulate"
         d="M 548.99014,643.3724 C 548.15058,640.01416 561.14731,626.17576 567.86659,624.49594 C 577.41646,622.10848 583.59697,621.63555 583.59697,632.36113 C 583.59697,637.67098 585.17,646.79825 585.17,654.38366 C 585.17,665.88638 578.05361,664.00908 571.01266,662.24885 C 560.93019,659.72823 552.20696,651.41444 548.99014,643.3724 z"
         id="path4047" />
      <path
         style="fill:#545454;fill-opacity:1;fill-rule:evenodd;stroke:#000000;stroke-width:3;stroke-linecap:butt;stroke-linejoin:miter;stroke-opacity:1;stroke-miterlimit:4;stroke-dasharray:none;opacity:1;color:#000000;marker:none;marker-start:none;marker-mid:none;marker-end:none;stroke-dashoffset:0;visibility:visible;display:inline;overflow:visible;enable-background:accumulate"
         d="M 478.20344,459.32699 C 478.37743,458.97902 476.63041,440.60697 476.63041,434.15839 C 476.63041,426.5659 480.78944,421.43407 487.64167,423.14713 C 494.85602,424.95071 499.81861,429.38286 501.79901,437.30446 C 503.6584,444.74204 508.60807,449.34956 511.23723,454.60788 C 514.71612,461.56565 517.53879,468.80284 519.10242,475.05737 C 521.10981,483.0869 520.59953,490.48402 522.2485,497.07989 C 524.27288,505.17744 526.86703,509.26187 528.54065,515.95635 C 530.01278,521.84488 534.01046,531.61509 536.40584,536.40584 C 539.41506,542.42428 539.47139,548.66804 541.12495,555.28229 C 542.6697,561.46128 544.27102,569.63008 544.27102,577.30481 C 544.27102,584.20159 548.99014,588.47769 548.99014,597.7543 C 548.99014,606.47955 550.56317,612.55452 550.56317,619.77683 C 550.56317,627.6308 552.24252,634.3594 553.70925,640.22632 C 556.44367,651.164 554.84514,646.95561 561.57444,640.22632 C 568.70723,633.09353 575.90672,640.92608 577.30481,646.51847 C 578.68169,652.02596 580.45089,658.57506 580.45089,666.96796 C 580.45089,673.73897 575.26182,677.97922 567.86659,677.97922 C 559.03428,677.97922 557.89376,672.19091 555.28229,666.96796 C 552.64598,661.69534 545.45353,659.69402 541.12495,657.52973 C 534.80028,654.3674 542.69799,656.76172 542.69799,666.96796 C 542.69799,674.58938 527.67146,673.26011 522.2485,673.26011 C 515.16607,673.26011 514.38331,662.28105 514.38331,655.9567 C 514.38331,648.52024 520.51269,641.96212 523.82153,638.65328 C 528.74861,633.72621 533.25976,630.53932 533.25976,622.92291 C 533.25976,618.77127 528.02632,608.2813 526.96761,604.04645 C 525.5901,598.53641 520.34772,592.07386 517.52938,588.31608 C 512.37937,581.4494 514.52127,575.86974 509.6642,571.01266 C 506.88501,568.23347 505.58153,553.10896 504.94508,550.56317 C 502.90586,542.4063 506.58291,535.09197 504.94508,528.54065 C 503.52373,522.85525 498.68374,517.65261 497.07989,511.23723 C 495.54673,505.10456 491.42647,499.93038 489.21471,495.50686 C 486.40481,489.88705 485.98725,482.59703 484.49559,476.63041 C 482.8438,470.02324 479.99758,466.50355 478.20344,459.32699 z"
         id="path4045" />
      <path
         style="fill:#545454;fill-opacity:1;fill-rule:evenodd;stroke:#000000;stroke-width:3;stroke-linecap:butt;stroke-linejoin:miter;stroke-opacity:1;stroke-miterlimit:4;stroke-dasharray:none;opacity:1;color:#000000;marker:none;marker-start:none;marker-mid:none;marker-end:none;stroke-dashoffset:0;visibility:visible;display:inline;overflow:visible;enable-background:accumulate"
         d="M 407.41675,432.58535 C 404.31424,431.80973 388.44445,443.27524 383.82118,446.74269 C 376.87011,451.956 372.56225,453.28251 368.09081,457.75395 C 360.74698,465.09778 356.40727,467.86446 350.78739,473.48433 C 343.84489,480.42683 339.20181,483.49688 333.48398,489.21471 C 327.96781,494.73088 323.30595,497.8197 316.18057,504.94508 C 309.00303,512.12262 318.12133,506.55216 309.88842,517.52938 C 305.43115,523.4724 302.70773,530.31772 298.87715,537.97887 C 296.53221,542.66877 304.60769,546.85549 308.31538,550.56317 C 313.42648,555.67427 322.34312,559.15008 327.19183,561.57444 C 335.90161,565.92933 339.30082,569.20197 346.06828,572.5857 C 351.84442,575.47377 356.53009,578.3284 360.22562,582.02393 C 363.8717,585.67001 371.21094,587.51659 375.956,589.88912 C 381.60881,592.71552 388.28275,598.74092 393.25941,602.47342 C 399.92457,607.47229 405.25403,605.12781 410.56282,602.47342 C 419.01351,598.24807 414.18679,588.65461 413.7089,586.74304 C 413.59063,586.26998 406.94714,583.87282 399.55156,582.02393 C 391.53926,580.02085 388.04949,577.05941 382.24815,574.15874 C 377.27208,571.67071 375.24072,562.4322 371.23688,558.42836 C 366.67716,553.86864 362.55973,549.75121 358.65258,545.84406 C 354.71999,541.91147 350.00088,538.76539 346.06828,534.8328 C 340.14789,528.91241 337.56645,524.37395 346.06828,522.2485 C 348.90344,521.53971 356.2364,508.20442 357.07954,506.51812 C 360.39396,499.88929 365.65809,493.22046 369.66385,489.21471 C 373.35397,485.52458 376.1716,477.98784 380.67511,473.48433 C 385.58731,468.57213 388.56715,462.41935 391.68637,456.18092 C 394.62202,450.30963 398.09897,446.62224 402.69764,442.02358 C 405.18483,439.53639 405.84371,435.73143 407.41675,432.58535 z"
         id="path4049" />
      <g
         id="g4232"
         transform="translate(-33.150236,-337.67687)">
        <path
           id="path4057"
           d="M 357.07953,906.0697 C 354.74233,921.66568 362.57304,936.97934 380.13427,934.04051 C 397.72819,939.23197 415.56411,944.10689 434.15839,942.24954 C 466.17014,941.99283 498.54605,943.68439 530.11369,937.53043 C 548.44513,939.62957 558.07587,926.20319 562.04761,910.05927 C 565.48357,901.91206 562.69573,889.73894 552.92075,898.95176 C 534.78143,905.66803 515.17519,905.53775 496.09675,906.06967 C 474.69788,904.06274 454.16399,912.3926 432.78199,910.78878 C 413.20731,909.93719 393.27764,912.6477 373.94432,909.12244 C 368.23042,906.81882 363.42579,904.23153 357.07953,906.0697 z"
           style="fill:#e3e3e3;fill-opacity:1;fill-rule:evenodd;stroke:#000000;stroke-width:3;stroke-linecap:butt;stroke-linejoin:miter;stroke-miterlimit:4;stroke-dasharray:none;stroke-opacity:1" />
        <path
           id="path4059"
           d="M 353.93347,906.06968 C 347.41806,902.81198 366.29451,913.82324 372.80992,917.08095 C 380.22369,920.78783 388.17608,920.13597 394.83245,921.80006 C 401.69193,923.51493 411.31559,921.80006 418.42801,921.80006 C 426.15912,921.80006 435.01351,921.58628 440.45054,920.22702 C 447.31002,918.51215 456.93368,920.22702 464.0461,920.22702 C 471.26291,920.22702 479.8327,918.65398 487.64167,918.65398 C 493.74724,918.65398 502.49075,917.08095 509.6642,917.08095 C 515.41518,917.08095 526.40878,915.25435 531.68672,913.93487 C 540.35765,911.76714 543.47182,911.1884 550.56317,907.64272 C 557.76327,904.04267 560.98088,903.72482 563.14748,895.05842 C 563.7308,892.72514 546.41854,889.30315 544.27102,888.76627 C 536.62894,886.85575 528.14453,888.68705 520.67546,887.19323 C 512.29976,885.51809 506.16883,885.62019 497.07989,885.62019 C 490.26627,885.62019 482.57579,882.47412 475.05737,882.47412 C 467.19218,882.47412 459.32699,882.47412 451.4618,882.47412 C 443.59662,882.47412 435.73143,882.47412 427.86624,882.47412 C 419.89657,882.47412 412.59964,885.62019 404.27067,885.62019 C 396.96318,885.62019 387.66066,891.73899 380.67511,893.48538 C 372.82371,895.44823 362.69129,900.81499 353.93347,906.06968 z"
           style="fill:#ababab;fill-opacity:1;fill-rule:evenodd;stroke:#000000;stroke-width:3;stroke-linecap:butt;stroke-linejoin:miter;stroke-miterlimit:4;stroke-dasharray:none;stroke-opacity:1" />
        <g
           transform="matrix(0.9902472,-0.1393214,0.1393214,0.9902472,153.7823,-11.862421)"
           id="g4185">
          <path
             style="fill:#1aff00;fill-opacity:1;fill-rule:evenodd;stroke:#1bc600;stroke-width:4;stroke-linecap:butt;stroke-linejoin:miter;stroke-miterlimit:4;stroke-dasharray:none;stroke-opacity:1"
             d="M 202.92185,912.36183 C 197.52531,913.71097 185.63123,910.7888 177.75325,910.7888 C 168.54387,910.7888 158.72817,909.92796 151.01161,906.06968 C 141.59742,901.36259 136.22963,908.50446 128.98908,913.93487 C 118.89445,921.50584 131.10189,926.65412 136.85427,928.09221 C 143.42257,929.73428 151.2149,934.58765 154.15768,937.53044 C 160.66791,944.04067 144.58637,946.90212 160.44983,954.83385 C 168.97258,959.09522 175.64578,959.55296 185.61844,959.55296 C 195.48521,959.55296 204.14843,961.5099 213.93311,959.55296 C 223.62182,957.61522 229.94017,960.20114 237.52868,956.40689 C 247.8852,951.22863 243.59504,949.88895 235.95564,942.24955 C 231.32899,937.62289 225.6168,935.05678 221.7983,931.23828 C 218.01683,927.45681 218.14347,918.14523 213.93311,913.93487 C 210.90873,910.91049 207.66779,912.36183 202.92185,912.36183 z"
             id="path4061" />
          <path
             style="fill:#1aff00;fill-opacity:1;fill-rule:evenodd;stroke:#1bc600;stroke-width:4;stroke-linecap:butt;stroke-linejoin:miter;stroke-miterlimit:4;stroke-dasharray:none;stroke-opacity:1"
             d="M 253.25906,904.49664 C 252.56106,903.79865 232.01123,907.64272 224.94438,907.64272 C 217.95165,907.64272 207.89736,911.11796 202.92185,912.36183 C 194.0286,914.58515 188.78918,915.48324 182.47236,921.80006 C 174.4576,929.81482 185.30958,938.08531 188.76451,940.67651 C 194.45169,944.9419 201.38189,945.40389 207.64096,946.96866 C 217.82938,949.51576 226.75475,951.68777 237.52868,951.68777 C 245.39387,951.68777 253.25906,951.68777 261.12424,951.68777 C 268.2822,951.68777 273.71433,947.75229 278.42766,945.39562 C 284.73726,942.24082 267.42512,935.97485 264.27032,929.66525 C 261.08085,923.2863 273.66515,918.74078 276.85462,912.36183 C 279.28615,907.49878 265.18668,904.49664 261.12424,904.49664 C 258.50251,904.49664 255.88079,904.49664 253.25906,904.49664 z"
             id="path4063" />
          <path
             style="fill:#1aff00;fill-opacity:1;fill-rule:evenodd;stroke:#1bc600;stroke-width:4;stroke-linecap:butt;stroke-linejoin:miter;stroke-miterlimit:4;stroke-dasharray:none;stroke-opacity:1"
             d="M 240.67475,885.62019 C 235.81243,885.62019 222.28834,884.04716 212.36008,884.04716 C 202.78824,884.04716 195.44033,885.13102 187.19147,887.19323 C 180.90778,888.76415 171.28955,893.52827 165.16895,895.05842 C 158.93406,896.61714 154.49298,908.54516 152.58465,912.36183 C 152.21767,913.09579 173.60519,922.87211 174.60717,923.3731 C 181.42529,926.78215 189.53976,928.09221 199.77578,928.09221 C 209.74718,928.09221 217.71854,927.14585 226.51742,924.94613 C 234.55705,922.93623 242.00057,917.99107 250.11298,913.93487 C 254.61737,911.68268 243.53229,905.78114 240.67475,902.92361 C 235.9266,898.17545 251.65698,895.08746 256.40513,890.33931 C 260.27607,886.46837 246.04278,886.6938 240.67475,885.62019 z"
             id="path4065" />
          <path
             style="fill:#1aff00;fill-opacity:1;fill-rule:evenodd;stroke:#1bc600;stroke-width:4;stroke-linecap:butt;stroke-linejoin:miter;stroke-miterlimit:4;stroke-dasharray:none;stroke-opacity:1"
             d="M 188.76451,907.64272 C 194.69681,901.71042 171.98544,907.64272 163.59591,907.64272 C 155.90692,907.64272 147.86147,912.36285 141.57338,913.93487 C 132.67678,916.15902 130.20034,920.5888 124.26997,926.51917 C 118.54512,932.24402 117.97782,935.58091 117.97782,945.39562 C 117.97782,951.52671 140.01441,949.1681 143.14642,948.5417 C 152.44265,946.68245 160.3634,943.82259 169.88806,943.82259 C 179.91283,943.82259 186.36582,941.27618 195.05666,939.10347 C 203.36476,937.02645 202.87568,928.32304 204.49489,920.22702 C 205.65599,914.42151 193.67123,910.09608 188.76451,907.64272 z"
             id="path4067" />
          <path
             style="fill:#1aff00;fill-opacity:1;fill-rule:evenodd;stroke:#1bc600;stroke-width:4;stroke-linecap:butt;stroke-linejoin:miter;stroke-miterlimit:4;stroke-dasharray:none;stroke-opacity:1"
             d="M 180.89932,880.90108 C 181.09387,879.92837 160.71578,877.75501 154.15768,877.75501 C 144.19511,877.75501 134.23254,877.75501 124.26997,877.75501 C 114.94423,877.75501 107.29249,887.17907 102.24744,893.48538 C 95.156195,902.34945 109.41735,907.4689 116.40478,909.21576 C 125.15604,911.40357 134.0533,910.7888 143.14642,910.7888 C 151.01161,910.7888 158.8768,910.7888 166.74199,910.7888 C 178.68879,910.7888 181.27702,915.31906 193.48363,909.21576 C 202.20211,904.85652 206.70711,901.04344 196.6297,893.48538 C 190.52618,888.90774 188.92379,887.32065 180.89932,880.90108 z"
             id="path4069" />
          <path
             style="fill:#1aff00;fill-opacity:1;fill-rule:evenodd;stroke:#1bc600;stroke-width:4;stroke-linecap:butt;stroke-linejoin:miter;stroke-miterlimit:4;stroke-dasharray:none;stroke-opacity:1"
             d="M 162.02287,891.91234 C 159.84526,890.27913 142.56901,892.0567 136.85427,893.48538 C 129.2466,895.3873 122.88982,894.61694 114.83174,896.63146 C 105.20375,899.03846 101.35082,897.07977 92.809221,901.35057 C 86.071576,904.71939 83.243856,909.3429 78.651882,913.93487 C 71.54192,921.04483 81.784909,929.6522 84.944033,932.81132 C 87.851816,935.71911 107.23636,932.81132 111.68567,932.81132 C 121.12389,932.81132 130.56212,932.81132 140.00035,932.81132 C 148.30068,932.81132 157.04575,926.58367 163.59591,924.94613 C 170.12742,923.31326 176.15703,921.02513 180.89932,918.65398 C 190.01353,914.09688 189.36086,906.61203 180.89932,904.49664 C 173.55529,902.66064 167.49009,901.35057 158.8768,901.35057 C 152.16584,901.35057 144.55212,905.36683 140.00035,907.64272 C 138.917,908.1844 148.57293,897.06428 152.58465,895.05842 C 155.55079,893.57535 158.8768,892.96104 162.02287,891.91234 z"
             id="path4071" />
          <path
             style="opacity:1;fill:#e5e8b7;fill-opacity:1;fill-rule:evenodd;stroke:none;stroke-width:4;stroke-linecap:butt;stroke-linejoin:miter;marker:none;marker-start:none;marker-mid:none;marker-end:none;stroke-miterlimit:4;stroke-dasharray:none;stroke-dashoffset:0;stroke-opacity:1;visibility:visible;display:inline;overflow:visible;enable-background:accumulate"
             d="M 114.83174,917.08095 C 121.36401,913.81481 103.70042,930.99817 106.96655,937.53044 C 110.81032,945.21797 123.6576,933.4237 124.26997,932.81132 C 131.39443,925.68686 130.05737,921.35409 128.98908,917.08095 C 127.50965,911.16321 116.54026,916.39754 114.83174,917.08095 z"
             id="path4073" />
          <path
             style="fill:#e5e8b7;fill-opacity:1;fill-rule:evenodd;stroke:none;stroke-width:4;stroke-linecap:butt;stroke-linejoin:miter;stroke-miterlimit:4;stroke-dasharray:none;stroke-opacity:1"
             d="M 144.71946,876.18197 C 143.06622,869.56899 133.80584,888.96156 136.85427,895.05842 C 141.38174,904.11335 153.8008,890.69619 154.15768,890.33931 C 160.31972,884.17727 146.53505,876.9082 144.71946,876.18197 z"
             id="path4075" />
          <path
             style="opacity:1;fill:#e5e8b7;fill-opacity:1;fill-rule:evenodd;stroke:none;stroke-width:4;stroke-linecap:butt;stroke-linejoin:miter;marker:none;marker-start:none;marker-mid:none;marker-end:none;stroke-miterlimit:4;stroke-dasharray:none;stroke-dashoffset:0;stroke-opacity:1;visibility:visible;display:inline;overflow:visible;enable-background:accumulate"
             d="M 212.36008,901.35057 C 217.10823,896.60242 198.2583,907.42046 196.6297,913.93487 C 194.71889,921.57813 213.91087,919.0528 215.50615,918.65398 C 223.91344,916.55216 214.45084,903.96402 212.36008,901.35057 z"
             id="path4077" />
          <path
             style="opacity:1;fill:#e5e8b7;fill-opacity:1;fill-rule:evenodd;stroke:none;stroke-width:4;stroke-linecap:butt;stroke-linejoin:miter;marker:none;marker-start:none;marker-mid:none;marker-end:none;stroke-miterlimit:4;stroke-dasharray:none;stroke-dashoffset:0;stroke-opacity:1;visibility:visible;display:inline;overflow:visible;enable-background:accumulate"
             d="M 251.68602,904.49664 C 258.20043,902.86804 240.73032,913.71261 239.10172,920.22702 C 237.56973,926.35498 253.83955,920.63907 256.40513,915.50791 C 259.2608,909.79657 259.57206,914.3542 251.68602,904.49664 z"
             id="path4079" />
          <path
             style="fill:#ffd0c7;fill-opacity:1;fill-rule:evenodd;stroke:#ff0000;stroke-width:3;stroke-linecap:butt;stroke-linejoin:miter;stroke-miterlimit:4;stroke-dasharray:none;stroke-opacity:1"
             d="M 114.83175,885.62019 C 116.40479,882.47412 116.13846,894.20532 119.55086,895.05842 C 131.61529,898.07453 125.30875,882.97862 124.26997,880.90108 C 122.69694,877.755 117.64568,883.50974 114.83175,885.62019 z"
             id="path4081" />
          <path
             style="fill:#ffd0c7;fill-opacity:1;fill-rule:evenodd;stroke:#ff0000;stroke-width:3;stroke-linecap:butt;stroke-linejoin:miter;stroke-miterlimit:4;stroke-dasharray:none;stroke-opacity:1"
             d="M 88.870173,921.68475 C 90.443211,918.53868 90.176888,930.26988 93.589286,931.12298 C 105.65372,934.13909 99.347171,919.04318 98.308399,916.96564 C 96.735361,913.81956 91.684108,919.5743 88.870173,921.68475 z"
             id="path4113" />
          <path
             style="fill:#ffd0c7;fill-opacity:1;fill-rule:evenodd;stroke:#ff0000;stroke-width:3;stroke-linecap:butt;stroke-linejoin:miter;stroke-miterlimit:4;stroke-dasharray:none;stroke-opacity:1"
             d="M 104.60055,910.67349 C 104.05871,909.58982 98.509365,927.0899 112.46574,920.11171 C 116.12866,918.28025 108.40291,912.19443 104.60055,910.67349 z"
             id="path4115" />
          <path
             style="fill:#ffd0c7;fill-opacity:1;fill-rule:evenodd;stroke:#ff0000;stroke-width:3;stroke-linecap:butt;stroke-linejoin:miter;stroke-miterlimit:4;stroke-dasharray:none;stroke-opacity:1"
             d="M 88.870173,902.8083 C 92.153098,901.16684 85.587249,912.1781 88.870173,913.81956 C 97.311584,918.04027 100.9253,905.82208 88.870173,902.8083 z"
             id="path4117" />
          <path
             style="fill:#ffd0c7;fill-opacity:1;fill-rule:evenodd;stroke:#ff0000;stroke-width:3;stroke-linecap:butt;stroke-linejoin:miter;stroke-miterlimit:4;stroke-dasharray:none;stroke-opacity:1"
             d="M 121.90396,927.97689 C 123.477,924.83082 123.21068,936.56202 126.62308,937.41512 C 138.68751,940.43123 132.38096,925.33532 131.34219,923.25778 C 129.76915,920.1117 124.7179,925.86644 121.90396,927.97689 z"
             id="path4119" />
          <path
             style="fill:#ffd0c7;fill-opacity:1;fill-rule:evenodd;stroke:#ff0000;stroke-width:3;stroke-linecap:butt;stroke-linejoin:miter;stroke-miterlimit:4;stroke-dasharray:none;stroke-opacity:1"
             d="M 137.63434,916.96563 C 137.0925,915.88196 131.54316,933.38204 145.49953,926.40385 C 149.16245,924.57239 141.4367,918.48657 137.63434,916.96563 z"
             id="path4121" />
          <path
             style="fill:#ffd0c7;fill-opacity:1;fill-rule:evenodd;stroke:#ff0000;stroke-width:3;stroke-linecap:butt;stroke-linejoin:miter;stroke-miterlimit:4;stroke-dasharray:none;stroke-opacity:1"
             d="M 121.90396,909.10044 C 125.18689,907.45898 118.62104,918.47024 121.90396,920.1117 C 130.34537,924.33241 133.95909,912.11422 121.90396,909.10044 z"
             id="path4123" />
          <path
             style="fill:#ffd0c7;fill-opacity:1;fill-rule:evenodd;stroke:#ff0000;stroke-width:3;stroke-linecap:butt;stroke-linejoin:miter;stroke-miterlimit:4;stroke-dasharray:none;stroke-opacity:1"
             d="M 164.37598,920.1117 C 165.94902,916.96563 165.68269,928.69683 169.09509,929.54993 C 181.15952,932.56604 174.85298,917.47013 173.81421,915.39259 C 172.24117,912.24651 167.18991,918.00125 164.37598,920.1117 z"
             id="path4125" />
          <path
             style="fill:#ffd0c7;fill-opacity:1;fill-rule:evenodd;stroke:#ff0000;stroke-width:3;stroke-linecap:butt;stroke-linejoin:miter;stroke-miterlimit:4;stroke-dasharray:none;stroke-opacity:1"
             d="M 180.10636,909.10044 C 179.56452,908.01677 174.01517,925.51685 187.97155,918.53866 C 191.63447,916.7072 183.90872,910.62138 180.10636,909.10044 z"
             id="path4127" />
          <path
             style="fill:#ffd0c7;fill-opacity:1;fill-rule:evenodd;stroke:#ff0000;stroke-width:3;stroke-linecap:butt;stroke-linejoin:miter;stroke-miterlimit:4;stroke-dasharray:none;stroke-opacity:1"
             d="M 164.37598,901.23525 C 167.6589,899.59379 161.09306,910.60505 164.37598,912.24651 C 172.81739,916.46722 176.43111,904.24903 164.37598,901.23525 z"
             id="path4129" />
          <path
             style="fill:#ffd0c7;fill-opacity:1;fill-rule:evenodd;stroke:#ff0000;stroke-width:3;stroke-linecap:butt;stroke-linejoin:miter;stroke-miterlimit:4;stroke-dasharray:none;stroke-opacity:1"
             d="M 145.49953,902.80829 C 147.07257,899.66222 146.80624,911.39342 150.21864,912.24652 C 162.28307,915.26263 155.97653,900.16672 154.93775,898.08918 C 153.36472,894.9431 148.31346,900.69784 145.49953,902.80829 z"
             id="path4131" />
          <path
             style="fill:#ffd0c7;fill-opacity:1;fill-rule:evenodd;stroke:#ff0000;stroke-width:3;stroke-linecap:butt;stroke-linejoin:miter;stroke-miterlimit:4;stroke-dasharray:none;stroke-opacity:1"
             d="M 161.22991,891.79703 C 160.68807,890.71336 155.13872,908.21344 169.0951,901.23525 C 172.75802,899.40379 165.03227,893.31797 161.22991,891.79703 z"
             id="path4133" />
          <path
             style="fill:#ffd0c7;fill-opacity:1;fill-rule:evenodd;stroke:#ff0000;stroke-width:3;stroke-linecap:butt;stroke-linejoin:miter;stroke-miterlimit:4;stroke-dasharray:none;stroke-opacity:1"
             d="M 145.49953,883.93184 C 148.78245,882.29038 142.2166,893.30164 145.49953,894.9431 C 153.94094,899.16381 157.55465,886.94562 145.49953,883.93184 z"
             id="path4135" />
          <path
             style="fill:#ffd0c7;fill-opacity:1;fill-rule:evenodd;stroke:#ff0000;stroke-width:3;stroke-linecap:butt;stroke-linejoin:miter;stroke-miterlimit:4;stroke-dasharray:none;stroke-opacity:1"
             d="M 206.848,929.54993 C 208.42103,926.40386 208.15471,938.13506 211.56711,938.98816 C 223.63154,942.00427 217.32499,926.90836 216.28622,924.83082 C 214.71318,921.68474 209.66193,927.43948 206.848,929.54993 z"
             id="path4137" />
          <path
             style="fill:#ffd0c7;fill-opacity:1;fill-rule:evenodd;stroke:#ff0000;stroke-width:3;stroke-linecap:butt;stroke-linejoin:miter;stroke-miterlimit:4;stroke-dasharray:none;stroke-opacity:1"
             d="M 222.57837,918.53867 C 222.03654,917.455 216.48719,934.95508 230.44356,927.97689 C 234.10648,926.14543 226.38074,920.05961 222.57837,918.53867 z"
             id="path4139" />
          <path
             style="fill:#ffd0c7;fill-opacity:1;fill-rule:evenodd;stroke:#ff0000;stroke-width:3;stroke-linecap:butt;stroke-linejoin:miter;stroke-miterlimit:4;stroke-dasharray:none;stroke-opacity:1"
             d="M 206.848,910.67348 C 210.13092,909.03202 203.56507,920.04328 206.848,921.68474 C 215.28941,925.90545 218.90312,913.68726 206.848,910.67348 z"
             id="path4141" />
          <path
             style="fill:#ffd0c7;fill-opacity:1;fill-rule:evenodd;stroke:#ff0000;stroke-width:3;stroke-linecap:butt;stroke-linejoin:miter;stroke-miterlimit:4;stroke-dasharray:none;stroke-opacity:1"
             d="M 219.4323,899.66221 C 221.00534,896.51614 220.73901,908.24734 224.15141,909.10044 C 236.21584,912.11655 229.9093,897.02064 228.87052,894.9431 C 227.29749,891.79702 222.24623,897.55176 219.4323,899.66221 z"
             id="path4143" />
          <path
             style="fill:#ffd0c7;fill-opacity:1;fill-rule:evenodd;stroke:#ff0000;stroke-width:3;stroke-linecap:butt;stroke-linejoin:miter;stroke-miterlimit:4;stroke-dasharray:none;stroke-opacity:1"
             d="M 235.16267,888.65095 C 234.62084,887.56728 229.07149,905.06736 243.02787,898.08917 C 246.69079,896.25771 238.96504,890.17189 235.16267,888.65095 z"
             id="path4145" />
          <path
             style="fill:#ffd0c7;fill-opacity:1;fill-rule:evenodd;stroke:#ff0000;stroke-width:3;stroke-linecap:butt;stroke-linejoin:miter;stroke-miterlimit:4;stroke-dasharray:none;stroke-opacity:1"
             d="M 219.4323,880.78576 C 222.71522,879.1443 216.14937,890.15556 219.4323,891.79702 C 227.87371,896.01773 231.48742,883.79954 219.4323,880.78576 z"
             id="path4147" />
          <path
             style="fill:#ffd0c7;fill-opacity:1;fill-rule:evenodd;stroke:#ff0000;stroke-width:3;stroke-linecap:butt;stroke-linejoin:miter;stroke-miterlimit:4;stroke-dasharray:none;stroke-opacity:1"
             d="M 176.96028,894.9431 C 178.53332,891.79703 178.267,903.52823 181.67939,904.38133 C 193.74382,907.39744 187.43728,892.30153 186.39851,890.22399 C 184.82547,887.07791 179.77422,892.83265 176.96028,894.9431 z"
             id="path4149" />
          <path
             style="fill:#ffd0c7;fill-opacity:1;fill-rule:evenodd;stroke:#ff0000;stroke-width:3;stroke-linecap:butt;stroke-linejoin:miter;stroke-miterlimit:4;stroke-dasharray:none;stroke-opacity:1"
             d="M 192.69066,883.93184 C 192.14882,882.84817 186.59947,900.34825 200.55585,893.37006 C 204.21877,891.5386 196.49302,885.45278 192.69066,883.93184 z"
             id="path4151" />
          <path
             style="fill:#ffd0c7;fill-opacity:1;fill-rule:evenodd;stroke:#ff0000;stroke-width:3;stroke-linecap:butt;stroke-linejoin:miter;stroke-miterlimit:4;stroke-dasharray:none;stroke-opacity:1"
             d="M 176.96028,876.06665 C 180.24321,874.42519 173.67736,885.43645 176.96028,887.07791 C 185.40169,891.29862 189.01541,879.08043 176.96028,876.06665 z"
             id="path4153" />
          <path
             style="fill:#ffd0c7;fill-opacity:1;fill-rule:evenodd;stroke:#ff0000;stroke-width:3;stroke-linecap:butt;stroke-linejoin:miter;stroke-miterlimit:4;stroke-dasharray:none;stroke-opacity:1"
             d="M 183.3543,924.76559 C 186.84274,925.21618 175.67682,928.8237 175.99372,932.32681 C 177.1141,944.71196 189.29531,933.79055 190.91552,932.12618 C 193.36905,929.60577 186.27296,926.72869 183.3543,924.76559 z"
             id="path4161" />
          <path
             style="fill:#ffd0c7;fill-opacity:1;fill-rule:evenodd;stroke:#ff0000;stroke-width:3;stroke-linecap:butt;stroke-linejoin:miter;stroke-miterlimit:4;stroke-dasharray:none;stroke-opacity:1"
             d="M 198.92731,935.99832 C 199.77243,935.13016 181.42082,935.64637 192.60165,946.53052 C 195.53611,949.38712 198.74182,940.08938 198.92731,935.99832 z"
             id="path4163" />
          <path
             style="fill:#ffd0c7;fill-opacity:1;fill-rule:evenodd;stroke:#ff0000;stroke-width:3;stroke-linecap:butt;stroke-linejoin:miter;stroke-miterlimit:4;stroke-dasharray:none;stroke-opacity:1"
             d="M 201.18021,918.55612 C 203.81024,921.11638 191.25194,918.53813 190.78177,922.17831 C 189.57279,931.53834 202.29973,930.93173 201.18021,918.55612 z"
             id="path4165" />
          <path
             style="fill:#ffd0c7;fill-opacity:1;fill-rule:evenodd;stroke:#ff0000;stroke-width:3;stroke-linecap:butt;stroke-linejoin:miter;stroke-miterlimit:4;stroke-dasharray:none;stroke-opacity:1"
             d="M 235.26455,920.04648 C 238.75299,920.49707 227.58707,924.10459 227.90397,927.6077 C 229.02435,939.99285 241.20556,929.07144 242.82577,927.40707 C 245.2793,924.88666 238.18321,922.00958 235.26455,920.04648 z"
             id="path4167" />
          <path
             style="fill:#ffd0c7;fill-opacity:1;fill-rule:evenodd;stroke:#ff0000;stroke-width:3;stroke-linecap:butt;stroke-linejoin:miter;stroke-miterlimit:4;stroke-dasharray:none;stroke-opacity:1"
             d="M 250.83756,931.27921 C 251.68268,930.41105 233.33107,930.92726 244.5119,941.81141 C 247.44636,944.66801 250.65207,935.37027 250.83756,931.27921 z"
             id="path4169" />
          <path
             style="fill:#ffd0c7;fill-opacity:1;fill-rule:evenodd;stroke:#ff0000;stroke-width:3;stroke-linecap:butt;stroke-linejoin:miter;stroke-miterlimit:4;stroke-dasharray:none;stroke-opacity:1"
             d="M 253.09046,913.83701 C 255.72049,916.39727 243.16219,913.81902 242.69202,917.4592 C 241.48304,926.81923 254.20998,926.21262 253.09046,913.83701 z"
             id="path4171" />
          <path
             style="fill:#ffd0c7;fill-opacity:1;fill-rule:evenodd;stroke:#ff0000;stroke-width:3;stroke-linecap:butt;stroke-linejoin:miter;stroke-miterlimit:4;stroke-dasharray:none;stroke-opacity:1"
             d="M 123.57887,896.45091 C 127.06731,896.9015 115.90139,900.50902 116.21829,904.01213 C 117.33867,916.39728 129.51988,905.47587 131.14009,903.8115 C 133.59362,901.29109 126.49753,898.41401 123.57887,896.45091 z"
             id="path4173" />
          <path
             style="fill:#ffd0c7;fill-opacity:1;fill-rule:evenodd;stroke:#ff0000;stroke-width:3;stroke-linecap:butt;stroke-linejoin:miter;stroke-miterlimit:4;stroke-dasharray:none;stroke-opacity:1"
             d="M 139.15188,907.68364 C 139.997,906.81548 121.64539,907.33169 132.82622,918.21584 C 135.76068,921.07244 138.96639,911.7747 139.15188,907.68364 z"
             id="path4175" />
          <path
             style="fill:#ffd0c7;fill-opacity:1;fill-rule:evenodd;stroke:#ff0000;stroke-width:3;stroke-linecap:butt;stroke-linejoin:miter;stroke-miterlimit:4;stroke-dasharray:none;stroke-opacity:1"
             d="M 141.40478,890.24144 C 144.03481,892.8017 131.47651,890.22345 131.00634,893.86363 C 129.79736,903.22366 142.5243,902.61705 141.40478,890.24144 z"
             id="path4177" />
          <path
             style="fill:#ffd0c7;fill-opacity:1;fill-rule:evenodd;stroke:#ff0000;stroke-width:3;stroke-linecap:butt;stroke-linejoin:miter;stroke-miterlimit:4;stroke-dasharray:none;stroke-opacity:1"
             d="M 166.05089,883.86661 C 169.53933,884.3172 158.37341,887.92472 158.69031,891.42783 C 159.81069,903.81298 171.9919,892.89157 173.61211,891.2272 C 176.06564,888.70679 168.96955,885.82971 166.05089,883.86661 z"
             id="path4179" />
          <path
             style="fill:#ffd0c7;fill-opacity:1;fill-rule:evenodd;stroke:#ff0000;stroke-width:3;stroke-linecap:butt;stroke-linejoin:miter;stroke-miterlimit:4;stroke-dasharray:none;stroke-opacity:1"
             d="M 181.6239,895.09934 C 182.46902,894.23118 164.11741,894.74739 175.29824,905.63154 C 178.2327,908.48814 181.43841,899.1904 181.6239,895.09934 z"
             id="path4181" />
          <path
             style="fill:#ffd0c7;fill-opacity:1;fill-rule:evenodd;stroke:#ff0000;stroke-width:3;stroke-linecap:butt;stroke-linejoin:miter;stroke-miterlimit:4;stroke-dasharray:none;stroke-opacity:1"
             d="M 183.8768,877.65714 C 186.50683,880.2174 173.94853,877.63915 173.47836,881.27933 C 172.26938,890.63936 184.99632,890.03275 183.8768,877.65714 z"
             id="path4183" />
        </g>
      </g>
      <path
         style="fill:#545454;fill-opacity:1;fill-rule:evenodd;stroke:#000000;stroke-width:3;stroke-linecap:butt;stroke-linejoin:miter;stroke-opacity:1;stroke-miterlimit:4;stroke-dasharray:none;opacity:1;color:#000000;marker:none;marker-start:none;marker-mid:none;marker-end:none;stroke-dashoffset:0;visibility:visible;display:inline;overflow:visible;enable-background:accumulate"
         d="M 438.8775,602.47342 C 438.26064,602.62763 455.26019,607.19253 462.47307,607.19253 C 470.16259,607.19253 469.33014,591.78361 470.33826,586.74304 C 472.04402,578.2142 462.44664,575.33191 457.75395,574.15874 C 447.55091,571.60798 444.74233,576.58643 442.02358,582.02393 C 438.03057,590.00994 436.37457,589.95874 438.8775,602.47342 z"
         id="path4055" />
      <path
         style="fill:#545454;fill-opacity:1;fill-rule:evenodd;stroke:#000000;stroke-width:3;stroke-linecap:butt;stroke-linejoin:miter;stroke-opacity:1;stroke-miterlimit:4;stroke-dasharray:none;opacity:1;color:#000000;marker:none;marker-start:none;marker-mid:none;marker-end:none;stroke-dashoffset:0;visibility:visible;display:inline;overflow:visible;enable-background:accumulate"
         d="M 421.57409,593.03519 C 417.8781,593.95919 434.13229,606.00623 438.8775,607.19253 C 446.52332,609.10398 450.40062,598.30363 453.03484,593.03519 C 456.37908,586.34672 451.28917,575.3865 449.88877,572.5857 C 447.70396,568.2161 434.5167,570.13657 431.01231,571.01266 C 423.65234,572.85266 421.57409,584.50171 421.57409,593.03519 z"
         id="path4053" />
      <path
         style="fill:#545454;fill-opacity:1;fill-rule:evenodd;stroke:#000000;stroke-width:3;stroke-linecap:butt;stroke-linejoin:miter;stroke-opacity:1;stroke-miterlimit:4;stroke-dasharray:none;opacity:1;color:#000000;marker:none;marker-start:none;marker-mid:none;marker-end:none;stroke-dashoffset:0;visibility:visible;display:inline;overflow:visible;enable-background:accumulate"
         d="M 401.1246,593.03519 C 406.59893,587.56086 408.67359,606.56014 412.13586,613.48468 C 414.46236,618.13769 427.19389,616.01233 431.01231,615.05772 C 437.52201,613.43029 440.45191,602.46792 442.02358,596.18127 C 444.5395,586.11756 440.85559,582.12519 434.15839,580.45089 C 427.07294,578.67953 419.38143,579.03276 413.7089,580.45089 C 407.531,581.99536 403.84669,586.22996 401.1246,593.03519 z"
         id="path4051" />
      <path
         style="fill:#545454;fill-opacity:1;fill-rule:evenodd;stroke:#000000;stroke-width:3;stroke-linecap:butt;stroke-linejoin:miter;stroke-opacity:1;stroke-miterlimit:4;stroke-dasharray:none;opacity:1;color:#000000;marker:none;marker-start:none;marker-mid:none;marker-end:none;stroke-dashoffset:0;visibility:visible;display:inline;overflow:visible;enable-background:accumulate"
         d="M 248.53995,655.9567 C 247.11171,655.24258 235.98962,674.7652 234.38261,677.97922 C 230.819,685.10645 228.21362,688.74416 224.94438,695.28264 C 222.41725,700.3369 216.94461,706.99769 213.93312,711.01301 C 209.12859,717.41905 204.72946,723.14541 196.62971,725.17035 C 188.75454,727.13915 184.38008,717.38883 177.75325,715.73213 C 168.43003,713.40132 163.47304,718.15312 158.8768,720.45124 C 151.57914,724.10007 157.44259,736.45927 158.8768,739.32769 C 161.93127,745.43663 174.8698,745.29224 163.59591,742.47377 C 156.4248,740.68099 157.30376,750.90538 157.30376,758.20414 C 157.30376,767.08094 168.36187,767.96635 174.60718,769.21541 C 183.13453,770.92088 188.07609,762.72707 190.33755,758.20414 C 193.08224,752.71477 192.28997,771.16782 196.62971,775.50756 C 202.17904,781.05689 209.82659,780.7069 217.07919,777.0806 C 225.36083,772.93978 228.09046,766.76373 228.09046,758.20414 C 228.09046,750.13809 224.17722,744.85267 220.22527,740.90073 C 218.06334,738.7388 225.3558,737.54894 228.09046,736.18162 C 229.96641,735.24364 228.09046,731.98685 228.09046,729.88947 C 228.09046,723.77459 239.49697,724.77511 243.82083,720.45124 C 249.79616,714.47591 249.01635,714.63549 245.39387,711.01301 C 242.73288,708.35202 246.62672,705.36926 251.68602,701.57479 C 259.4777,695.73103 260.25075,697.72917 267.4164,690.56352 C 272.91158,685.06834 276.54725,682.35478 278.42766,674.83315 C 280.32403,667.24768 282.80719,663.60719 284.71981,655.9567 C 286.44151,649.06992 272.90352,649.66455 267.4164,649.66455 C 258.02343,649.66455 255.91941,648.57723 248.53995,655.9567 z"
         id="path4297" />
      <path
         style="fill:#2520ac;fill-opacity:1;fill-rule:evenodd;stroke:#000000;stroke-width:3;stroke-linecap:butt;stroke-linejoin:miter;stroke-opacity:1;stroke-miterlimit:4;stroke-dasharray:none;opacity:1;color:#000000;marker:none;marker-start:none;marker-mid:none;marker-end:none;stroke-dashoffset:0;visibility:visible;display:inline;overflow:visible;enable-background:accumulate"
         d="M 246.96691,539.55191 C 245.18326,535.9846 232.67808,553.97223 231.23653,556.85533 C 227.75873,563.81094 226.72007,567.05601 224.94438,574.15874 C 222.80265,582.72566 220.22527,588.12332 220.22527,597.7543 C 220.22527,605.30284 223.33056,611.74851 224.94438,618.20379 C 226.72021,625.30708 228.8504,630.73494 231.23653,635.50721 C 234.96484,642.96382 237.61168,648.4235 239.10172,654.38366 C 240.92794,661.68854 246.48916,667.58551 248.53995,671.68707 C 252.20829,679.02375 257.1422,671.22867 262.69729,663.82188 C 268.73668,655.76935 274.3231,649.05 278.42766,644.94543 C 284.20629,639.16681 285.45528,634.03627 289.43893,626.06898 C 293.10889,618.72905 295.73108,613.0375 295.73108,604.04645 C 295.73108,594.61355 294.24826,590.06956 291.01196,583.59697 C 287.61938,576.81181 285.86221,570.15138 283.14678,564.72051 C 279.31836,557.06369 277.14304,554.63998 268.98944,550.56317 C 259.12352,545.63022 258.64714,544.22401 246.96691,539.55191 z"
         id="path4295" />
      <path
         style="fill:#2520ac;fill-opacity:1;fill-rule:evenodd;stroke:#000000;stroke-width:3;stroke-linecap:butt;stroke-linejoin:miter;stroke-opacity:1;opacity:1;color:#000000;marker:none;marker-start:none;marker-mid:none;marker-end:none;stroke-miterlimit:4;stroke-dasharray:none;stroke-dashoffset:0;visibility:visible;display:inline;overflow:visible;enable-background:accumulate"
         d="M 488.30215,637.4722 C 483.97188,635.98112 475.89786,639.18289 469.39296,640.80912 C 464.22809,642.10033 457.81251,645.37269 453.82068,646.37064 C 447.99458,647.82717 445.0923,647.95407 439.36071,650.81987 C 434.40295,653.29874 427.39655,653.82584 423.78843,655.26909 C 418.55931,657.36073 412.59658,658.34513 407.10384,659.71831 C 401.09657,661.22013 395.25969,663.79166 389.30695,665.27984 C 384.49742,666.48222 379.89341,669.57976 374.84698,670.84137 C 370.23607,671.9941 364.76363,675.88304 361.49931,677.5152 C 357.25154,679.63909 354.66532,682.12458 351.48856,685.30134 C 347.59955,689.19036 344.72444,694.38036 342.59012,698.64901 C 340.52123,702.78678 340.51488,711.48186 341.47781,715.33359 C 343.08829,721.77551 344.53838,724.79165 347.03934,729.79356 C 349.05645,733.82778 351.57059,736.63145 353.71318,740.91662 C 356.33667,746.16361 359.14125,745.36584 365.94854,745.36584 C 372.99314,745.36584 380.03774,745.36584 387.08234,745.36584 C 393.75618,745.36584 400.43001,745.36584 407.10384,745.36584 C 411.87375,745.36584 418.56538,744.44699 423.78843,743.14123 C 431.11149,741.31047 438.25102,740.35915 443.80993,737.5797 C 449.34454,734.8124 455.90607,733.75624 461.60682,730.90587 C 468.04044,727.68906 473.39518,725.52314 479.40371,723.11973 C 484.81789,720.95406 490.2966,717.78837 494.97598,713.10898 C 501.21548,706.86948 499.64534,711.11616 501.64982,703.09823 C 503.05674,697.47053 508.04565,691.41887 510.54826,686.41365 C 512.83678,681.83662 514.62415,675.67163 516.10979,669.72906 C 517.59032,663.80693 515.45353,657.29349 513.88518,654.15678 C 510.97614,648.33871 510.03201,646.9667 506.09904,643.03373 C 501.16773,638.10242 495.66598,639.31316 488.30215,637.4722 z"
         id="path4303" />
    </g>
  </g>
</svg>
