<?xml version="1.0" encoding="UTF-8" standalone="no"?>
<!-- Created with Inkscape (http://www.inkscape.org/) -->
<svg
   xmlns:dc="http://purl.org/dc/elements/1.1/"
   xmlns:cc="http://creativecommons.org/ns#"
   xmlns:rdf="http://www.w3.org/1999/02/22-rdf-syntax-ns#"
   xmlns:svg="http://www.w3.org/2000/svg"
   xmlns="http://www.w3.org/2000/svg"
   xmlns:sodipodi="http://sodipodi.sourceforge.net/DTD/sodipodi-0.dtd"
   xmlns:inkscape="http://www.inkscape.org/namespaces/inkscape"
   width="744.09448819"
   height="1052.3622047"
   id="svg2400"
   sodipodi:version="0.32"
   inkscape:version="0.46"
   sodipodi:docname="scene4.svg"
   inkscape:output_extension="org.inkscape.output.svg.inkscape">
  <defs
     id="defs2402">
    <inkscape:perspective
       sodipodi:type="inkscape:persp3d"
       inkscape:vp_x="0 : 526.18109 : 1"
       inkscape:vp_y="0 : 1000 : 0"
       inkscape:vp_z="744.09448 : 526.18109 : 1"
       inkscape:persp3d-origin="372.04724 : 350.78739 : 1"
       id="perspective2408" />
    <inkscape:perspective
       id="perspective10"
       inkscape:persp3d-origin="372.04724 : 350.78739 : 1"
       inkscape:vp_z="744.09448 : 526.18109 : 1"
       inkscape:vp_y="0 : 1000 : 0"
       inkscape:vp_x="0 : 526.18109 : 1"
       sodipodi:type="inkscape:persp3d" />
    <inkscape:perspective
       id="perspective2914"
       inkscape:persp3d-origin="372.04724 : 350.78739 : 1"
       inkscape:vp_z="744.09448 : 526.18109 : 1"
       inkscape:vp_y="0 : 1000 : 0"
       inkscape:vp_x="0 : 526.18109 : 1"
       sodipodi:type="inkscape:persp3d" />
    <inkscape:perspective
       id="perspective3139"
       inkscape:persp3d-origin="372.04724 : 350.78739 : 1"
       inkscape:vp_z="744.09448 : 526.18109 : 1"
       inkscape:vp_y="0 : 1000 : 0"
       inkscape:vp_x="0 : 526.18109 : 1"
       sodipodi:type="inkscape:persp3d" />
  </defs>
  <sodipodi:namedview
     id="base"
     pagecolor="#ffffff"
     bordercolor="#666666"
     borderopacity="1.0"
     gridtolerance="10000"
     guidetolerance="10"
     objecttolerance="10"
     inkscape:pageopacity="0.0"
     inkscape:pageshadow="2"
     inkscape:zoom="0.7"
     inkscape:cx="402.04018"
     inkscape:cy="682.60334"
     inkscape:document-units="px"
     inkscape:current-layer="layer1"
     showgrid="false"
     inkscape:window-width="1280"
     inkscape:window-height="885"
     inkscape:window-x="0"
     inkscape:window-y="25" />
  <metadata
     id="metadata2405">
    <rdf:RDF>
      <cc:Work
         rdf:about="">
        <dc:format>image/svg+xml</dc:format>
        <dc:type
           rdf:resource="http://purl.org/dc/dcmitype/StillImage" />
      </cc:Work>
    </rdf:RDF>
  </metadata>
  <g
     inkscape:label="Layer 1"
     inkscape:groupmode="layer"
     id="layer1">
    <rect
       style="opacity:1;fill:#83f5f5;fill-opacity:1;fill-rule:evenodd;stroke:none;stroke-width:1;stroke-linecap:butt;stroke-linejoin:miter;marker:none;marker-start:none;marker-mid:none;marker-end:none;stroke-miterlimit:4;stroke-dasharray:none;stroke-dashoffset:0;stroke-opacity:1;visibility:visible;display:inline;overflow:visible;enable-background:accumulate"
       id="rect2429"
       width="928.52991"
       height="714.2442"
       x="-92.836372"
       y="75.240089" />
    <path
       style="fill:#85c666;fill-opacity:1;fill-rule:evenodd;stroke:#000000;stroke-width:1px;stroke-linecap:butt;stroke-linejoin:miter;stroke-opacity:1"
       d="M -132.85714,275.21933 C -128.3304,271.17664 -128.57143,261.48065 -128.57143,252.36218 C -128.57143,243.82107 -124.56685,238.63873 -121.42857,232.36218 C -118.02857,225.56218 -111.2166,222.2562 -105.71429,219.50504 C -99.443501,216.36965 -89.263881,224.67815 -85.714286,223.79075 C -77.396161,221.71122 -78.694428,212.36218 -67.142857,212.36218 C -56.660551,212.36218 -50.693981,229.58626 -55.714286,209.50504 C -60.053444,192.14841 -35.944604,210.70329 -32.857143,213.79075 C -32.2546,214.3933 -27.190111,182.26767 -17.142857,202.36218 C -12.763519,211.12086 2.7782962,189.55235 10,185.21933 C 15.630432,181.84107 25.515671,204.82209 28.571429,210.93361 C 31.904762,217.60028 31.340413,192.74136 38.571429,190.93361 C 49.088251,188.30441 44.378246,228.87463 62.857143,198.07647 C 72.79197,181.51842 81.392803,187.9334 84.285714,199.50504 C 89.192068,219.13045 83.611121,209.20079 92.857143,193.79075 C 101.60271,179.21482 111.63479,207.87523 117.14286,215.21933 C 122.92813,222.93302 127.89631,199.20166 132.85714,190.93361 C 142.23428,175.30505 152.93501,203.94649 155.71429,209.50504 C 156.33354,210.74355 164.23085,197.38962 171.42857,193.79075 C 179.57887,189.71561 187.16259,211.69722 188.57143,215.21933 C 188.81353,215.82457 197.76645,180.75223 207.14286,199.50504 C 218.36078,221.94088 206.52959,205.83259 220,192.36218 C 229.42062,182.94156 237.73436,200.29371 241.42857,205.21933 C 242.401,206.5159 253.23701,172.45306 258.57143,193.79075 C 265.16257,220.15531 271.05404,189.87957 277.14286,183.79075 C 282.62726,178.30635 284.89618,220.83601 292.85714,200.93361 C 297.37697,189.63403 302.03075,166.19945 308.57143,192.36218 C 314.35598,215.50041 321.61778,183.50694 327.14286,175.21933 C 330.20172,170.63104 347.83568,193.05501 350,195.21933 C 356.53787,201.7572 359.17641,178.90005 365.71429,172.36218 C 378.31171,159.76476 379.36891,176.75883 385.71429,185.21933 C 391.80678,193.34265 386.83918,174.42912 395.71429,176.6479 C 401.24802,178.03133 405.71429,211.51961 405.71429,190.93361 C 405.71429,176.12602 421.13575,173.49793 428.57143,180.93361 C 442.57835,194.94053 442.48587,200.24759 448.57143,188.07647 C 454.93271,175.3539 464.71136,189.77903 467.14286,199.50504 C 471.28191,216.06124 481.03238,186.5879 488.57143,180.93361 C 491.42903,178.79041 496.34472,211.73174 508.57143,199.50504 C 520.7638,187.31267 517.9017,170.26388 532.85714,185.21933 C 543.11626,195.47844 542.92143,191.48718 550,173.79075 C 554.5625,162.38449 559.68177,180.29714 564.28571,189.50504 C 566.70708,194.34777 573.56723,160.22017 591.42857,156.6479 C 591.71384,156.59084 605.40021,176.6479 612.85714,176.6479 C 617.70114,176.6479 617.43451,161.00653 628.57143,163.79075 C 640.73738,166.83224 631.92527,182.79735 642.85714,160.93361 C 653.40035,139.84719 663.44884,157.8313 668.57143,168.07647 C 668.81502,168.56365 673.14758,151.50268 680,148.07647 C 687.74147,144.20573 695.98677,168.62144 698.57143,173.79075 C 700.56778,177.78345 705.46608,150.15727 720,153.79075 C 729.29702,156.11501 727.10725,171.83852 732.85714,179.50504 C 733.61381,180.51392 740.28726,147.22241 748.57143,163.79075 C 760.28216,187.21222 756.68675,179.13283 777.14286,163.79075 C 792.23813,152.4693 801.92033,188.96658 805.71429,173.79075 C 812.29752,147.45782 819.29277,161.18346 828.57143,176.6479 C 840.44345,196.4346 842.90702,175.80891 844.28571,172.36218 C 844.30633,172.31065 849.72317,186.09423 857.14286,200.93361 C 857.65856,201.96501 851.81809,188.36861 862.85714,196.6479 C 879.54344,209.16262 895.60216,215.76542 908.57143,235.21933 C 926.32776,261.85382 914.41832,225.15302 931.42857,216.6479 C 938.11106,213.30665 950.32902,244.11977 954.28571,248.07647 C 960.88657,254.67732 960,266.38205 960,275.21933 C 960,286.04497 957.53023,297.30173 954.28571,303.79075 C 951.16478,310.03263 943.43712,318.92506 938.57143,323.79075 C 930.40285,331.95933 910.83187,328.07647 900,328.07647 C 876.20317,328.07647 849.56543,333.79075 824.28571,333.79075 C 802.26936,333.79075 779.44538,335.21933 757.14286,335.21933 C 736.90035,335.21933 717.32095,336.6479 697.14286,336.6479 C 662.29531,336.6479 627.7464,338.07647 592.85714,338.07647 C 559.40253,338.07647 523.75308,342.36218 490,342.36218 C 469.11844,342.36218 458.81827,349.50504 437.14286,349.50504 C 404.36027,349.50504 371.74516,353.79075 338.57143,353.79075 C 285.72087,353.79075 223.46438,344.81216 171.42857,355.21933 C 148.17602,359.86983 122.19277,356.13056 98.571429,359.50504 C 64.928873,364.31112 28.48536,363.79075 -5.7142857,363.79075 C -19.047619,363.79075 -32.380952,363.79075 -45.714286,363.79075 C -69.552881,363.79075 -106.23709,360.67221 -125.71429,350.93361 C -136.97034,345.30558 -151.0634,349.53713 -154.28571,336.6479 C -156.93311,326.05833 -149.36639,314.11346 -147.14286,305.21933 C -145.33465,297.9865 -140.12476,294.2898 -138.57143,288.07647 C -137.06253,282.04088 -134.56756,282.06099 -132.85714,275.21933 z"
       id="path3211" />
    <path
       style="fill:#b88f3d;fill-opacity:1;fill-rule:evenodd;stroke:#000000;stroke-width:1px;stroke-linecap:butt;stroke-linejoin:miter;stroke-opacity:1"
       d="M 17.142857,-21.923532 C 13.122938,-13.883694 10.789522,9.0536199 8.5714286,22.362182 C 3.0246476,55.642868 2.6499237,89.319783 -2.8571429,122.36218 C -5.705037,139.44955 2.2028497,160.81363 -5.7142857,176.6479 C -10.195027,185.60938 -4.2857143,212.02702 -4.2857143,223.79075 C -4.2857143,236.24177 -1.4285714,248.10574 -1.4285714,260.93361 C -1.4285714,274.67536 7.1428571,286.833 7.1428571,300.93361 C 7.1428571,310.92908 7.7410925,320.46941 10,329.50504 C 12.61047,339.94692 14.285714,348.42861 14.285714,359.50504 C 14.285714,366.3289 18.031337,372.71057 20,376.6479 C 24.52481,385.69752 24.530728,387.65807 34.285714,385.21933 C 42.460282,383.17568 49.849023,382.04627 58.571429,383.79075 C 78.189617,387.71439 78.652161,381.09508 71.428571,366.6479 C 67.14039,358.07153 65.182791,345.95049 62.857143,336.6479 C 60.02497,325.3192 61.428571,312.67378 61.428571,300.93361 C 61.428571,287.60028 61.428571,274.26694 61.428571,260.93361 C 61.428571,247.63665 62.449858,235.52325 67.142857,223.79075 C 73.990846,206.67078 80.129592,189.89535 87.142857,172.36218 C 93.887789,155.49985 99.13864,138.37062 107.14286,122.36218 C 112.96734,110.71321 120.25598,95.293673 124.28571,85.219325 C 129.09705,73.190978 134.90091,71.241209 122.85714,65.219325 C 113.87072,60.726112 108.09447,57.60182 102.85714,68.076468 C 98.121467,77.547819 92.447501,85.429321 90,95.219325 C 87.096855,106.8319 79.639079,115.59536 77.142857,128.07647 C 74.691994,140.33078 65.243116,149.00375 62.857143,160.93361 C 60.948647,170.47609 57.893065,177.93278 55.714286,186.6479 C 53.895757,193.92201 48.337032,201.4024 45.714286,206.6479 C 41.8344,214.40767 39.085824,220.3046 37.142857,228.07647 C 35.859988,233.20795 33.613033,240.76719 32.857143,243.79075 C 30.295104,254.03891 24.285714,234.95089 24.285714,230.93361 C 24.285714,224.58389 25.599733,214.24897 27.142857,208.07647 C 28.772291,201.55873 28.571429,191.53473 28.571429,185.21933 C 28.571429,176.09568 27.940255,166.31545 30,158.07647 C 33.552265,143.86741 30.279236,128.80695 35.714286,115.21932 C 40.593983,103.02008 39.719453,87.770084 42.857143,75.219325 C 45.297948,65.456103 45.714286,55.471233 45.714286,45.219325 C 45.714286,35.923972 45.447015,26.555676 47.142857,18.076468 C 48.5382,11.099754 47.283167,1.4948497 45.714286,-4.7806751 C 43.863412,-12.18417 38.741474,-15.724569 34.285714,-19.066389 C 29.728291,-22.484457 22.557987,-23.006558 17.142857,-21.923532 z"
       id="path2437" />
    <path
       style="fill:#29ac35;fill-opacity:1;fill-rule:evenodd;stroke:#000000;stroke-width:1px;stroke-linecap:butt;stroke-linejoin:miter;stroke-opacity:1"
       d="M 508.57143,18.076468 C 516.04777,25.55281 486.95978,18.435415 477.14286,22.362182 C 468.9312,25.646844 464.28571,44.852418 464.28571,52.362182 C 464.28571,63.386098 474.74882,77.709509 482.85714,83.790754 C 489.93686,89.10054 498.51745,92.351386 505.71429,93.790754 C 523.22511,97.292918 511.42857,100.27683 511.42857,120.93361 C 511.42857,130.65422 521.28036,141.57379 528.57143,145.21932 C 535.39378,148.6305 551.31117,148.09995 558.57143,146.6479 C 563.60056,145.64207 568.26987,143.22725 572.85714,140.93361 C 580.77967,136.97235 579.97824,160.21389 588.57143,162.36218 C 612.2372,168.27862 698.4617,187.08683 704.28571,163.79075 C 709.44482,143.15432 718.57143,145.93975 718.57143,165.21933 C 718.57143,177.20873 734.13916,184.4684 742.85714,186.6479 C 758.59494,190.58235 778.40798,183.03168 791.42857,175.21933 C 803.75096,167.82589 791.35797,153.64955 805.71429,182.36218 C 823.47136,217.87633 856.54435,215.21933 885.71429,215.21933 C 912.28341,215.21933 901.38957,192.51817 905.71429,175.21933 C 909.77426,158.97942 891.51102,139.50504 910,139.50504 C 928.75413,139.50504 929.8126,121.6126 925.71429,105.21932 C 920.73624,85.307125 918.87463,60.483464 898.57143,52.362182 C 879.6769,44.804369 849.12464,42.040033 840,23.790754 C 828.97007,1.7308859 800.56942,-20.494961 775.71429,-20.494961 C 760.94098,-20.494961 741.24176,-14.640567 730,-6.2092465 C 703.17242,13.911439 735.90922,-6.5338663 690,-26.209247 C 674.32276,-32.928063 609.1898,-66.017414 597.14286,-41.923532 C 592.53283,-32.703468 575.37413,-25.358863 570,-11.923532 C 569.99272,-11.905337 542.52585,-17.219585 532.85714,-13.352104 C 523.9702,-9.7973246 522.04817,1.1229865 518.57143,8.0764678 C 514.96133,15.296672 519.3314,20.228462 508.57143,18.076468 z"
       id="path2435" />
    <path
       style="fill:#439945;fill-opacity:1;fill-rule:evenodd;stroke:#000000;stroke-width:1px;stroke-linecap:butt;stroke-linejoin:miter;stroke-opacity:1"
       d="M -124.28571,408.07647 C -124.28571,399.01633 -125.71429,426.15918 -125.71429,435.21933 C -125.71429,457.02052 -125.71429,479.30193 -125.71429,500.93361 C -125.71429,514.6458 -128.47023,528.58245 -125.71429,542.36218 C -123.59479,552.95969 -127.14286,568.07682 -127.14286,579.50504 C -127.14286,591.31412 -127.15143,605.25361 -130,616.6479 C -132.6333,627.18111 -131.42857,644.50454 -131.42857,655.21933 C -131.42857,665.76787 -132.85714,675.88623 -132.85714,686.6479 C -132.85714,695.69552 -132.85714,704.74313 -132.85714,713.79075 C -132.85714,729.61388 -131.42857,744.98813 -131.42857,760.93361 C -131.42857,768.55266 -131.42857,776.17171 -131.42857,783.79075 C -131.42857,794.83877 -128.02687,798.82614 -125.71429,808.07647 C -123.53472,816.79475 -93.651309,813.91763 -87.142857,815.21933 C -84.761905,815.69552 -82.380952,816.17171 -80,816.6479 C -64.834306,819.68104 -45.504228,818.07647 -30,818.07647 C -12.857143,818.07647 4.2857143,818.07647 21.428571,818.07647 C 42.380952,818.07647 63.333333,818.07647 84.285714,818.07647 C 103.99663,818.07647 123.17535,819.50504 142.85714,819.50504 C 176.66667,819.50504 210.47619,819.50504 244.28571,819.50504 C 260,819.50504 275.71429,819.50504 291.42857,819.50504 C 293.80952,819.50504 296.19048,819.50504 298.57143,819.50504 C 322.38095,819.50504 346.19048,819.50504 370,819.50504 C 410.99535,819.50504 450.54964,822.36218 491.42857,822.36218 C 542.838,822.36218 593.31583,825.21933 644.28571,825.21933 C 669.52381,825.21933 694.76191,825.21933 720,825.21933 C 742.74869,825.21933 765.71516,826.6479 788.57143,826.6479 C 800.47629,826.6479 812.89213,827.49804 824.28571,825.21933 C 831.23999,823.82847 840.03076,825.21933 847.14286,825.21933 C 851.96797,825.21933 850,805.86645 850,800.93361 C 850,786.08479 857.14286,775.55121 857.14286,762.36218 C 857.14286,748.75561 858.89264,737.89896 861.42857,725.21933 C 864.53246,709.69991 864.28571,693.99302 864.28571,678.07647 C 864.28571,659.79128 864.28571,642.53991 864.28571,623.79075 C 864.28571,606.75506 865.60378,588.84201 862.85714,572.36218 C 860.90853,560.67048 844.07496,563.41594 851.42857,526.6479 C 854.93043,509.13859 849.33786,489.95858 852.85714,472.36218 C 855.83661,457.46482 854.28571,437.4466 854.28571,422.36218 C 854.28571,410.15492 855.71429,398.5049 855.71429,386.6479 C 855.71429,374.0469 855.03392,373.18986 842.85714,375.21933 C 817.64499,379.42135 795.55528,390.93361 770,390.93361 C 751.53368,390.93361 733.8184,392.36218 715.71429,392.36218 C 680,392.36218 644.28571,392.36218 608.57143,392.36218 C 589.04762,392.36218 569.52381,392.36218 550,392.36218 C 534.28571,392.36218 518.57143,392.36218 502.85714,392.36218 C 490,392.36218 477.14286,392.36218 464.28571,392.36218 C 448.89626,392.36218 431.5422,393.81348 417.14286,390.93361 C 405.0372,388.51248 389.43265,390.93361 377.14286,390.93361 C 366.19048,390.93361 355.2381,390.93361 344.28571,390.93361 C 330.47619,390.93361 316.66667,390.93361 302.85714,390.93361 C 290,390.93361 277.14286,390.93361 264.28571,390.93361 C 244.02549,390.93361 224.56287,389.50504 204.28571,389.50504 C 193.80952,389.50504 183.33333,389.50504 172.85714,389.50504 C 159.52381,389.50504 146.19048,389.50504 132.85714,389.50504 C 117.4013,389.50504 102.37576,390.93361 87.142857,390.93361 C 71.572004,390.93361 57.056266,392.36218 41.428571,392.36218 C 25.091404,392.36218 9.4589367,393.79075 -7.1428571,393.79075 C -19.89693,393.79075 -32.602029,395.21933 -45.714286,395.21933 C -57.241561,395.21933 -70.226673,395.83609 -81.428571,398.07647 C -90.769841,399.94472 -102.11887,399.50504 -111.42857,399.50504 C -122.79623,399.50504 -123.08827,408.47562 -132.85714,405.21933 C -135.71429,404.26694 -127.14286,407.12409 -124.28571,408.07647 z"
       id="path3215" />
    <path
       style="fill:#b88f3d;fill-opacity:1;fill-rule:evenodd;stroke:#000000;stroke-width:1px;stroke-linecap:butt;stroke-linejoin:miter;stroke-opacity:1;opacity:1;color:#000000;marker:none;marker-start:none;marker-mid:none;marker-end:none;stroke-miterlimit:4;stroke-dasharray:none;stroke-dashoffset:0;visibility:visible;display:inline;overflow:visible;enable-background:accumulate"
       d="M 677.14286,382.36218 C 674.38208,380.2916 671.82946,359.68001 670,352.36218 C 668.05141,344.56783 668.57143,336.33557 668.57143,328.07647 C 668.57143,314.87132 665.71429,302.61431 665.71429,289.50504 C 665.71429,274.03735 659.66183,260.25727 652.85714,246.6479 C 647.06045,235.05451 641.00945,221.69513 638.57143,209.50504 C 635.28992,193.09749 624.71821,178.81035 621.42857,162.36218 C 620.95238,159.98123 620.47619,157.60028 620,155.21933 C 617.79797,144.2092 615.46393,134.21789 612.85714,123.79075 C 610.56205,114.61037 611.42857,103.49216 611.42857,93.790754 C 611.42857,81.068984 614.36893,72.528604 622.85714,89.505039 C 626.76931,97.329363 630.84342,104.3073 632.85714,112.36218 C 635.44171,122.70044 638.76818,131.72062 641.42857,142.36218 C 641.90476,144.26694 642.38095,146.17171 642.85714,148.07647 C 645.75554,159.67004 651.33473,170.55825 654.28571,182.36218 C 656.89822,192.81221 659.28085,203.05216 661.42857,213.79075 C 663.34309,223.36334 665.87392,231.25288 670,239.50504 C 675.47499,250.45502 672.85714,253.7436 672.85714,236.6479 C 672.85714,223.31456 672.85714,209.98123 672.85714,196.6479 C 672.85714,183.34137 681.03094,166.80984 684.28571,153.79075 C 684.76191,151.88599 685.2381,149.98123 685.71429,148.07647 C 688.73304,136.00144 695.76618,125.11553 701.42857,113.79075 C 704.84773,106.95244 706.0065,99.797253 712.85714,106.6479 C 720.4766,114.26736 715.97079,129.65111 714.28571,138.07647 C 711.83179,150.34607 711.21168,162.79597 705.71429,173.79075 C 700.80187,183.61559 703.50783,199.10876 701.42857,209.50504 C 699.58803,218.70777 700.83395,229.02637 698.57143,238.07647 C 693.04929,260.16501 698.0708,244.43804 700,230.93361 C 701.69859,219.04347 713.05407,209.72701 717.14286,199.50504 C 724.32833,181.54136 746.04754,170.69591 750,150.93361 C 751.25953,144.63595 765.766,129.45332 770,125.21932 C 778.04733,117.17199 782.53423,113.46784 788.57143,119.50504 C 791.78024,122.71385 776.51208,150.7666 774.28571,155.21933 C 767.6851,168.42055 757.96135,179.60166 752.85714,192.36218 C 747.50217,205.74962 739.19729,218.43019 735.71429,232.36218 C 732.085,246.87933 723.6117,259.34394 720,273.79075 C 716.73911,286.83432 709.78658,297.71499 707.14286,310.93361 C 704.7497,322.89939 699.33106,332.84973 697.14286,343.79075 C 695.4907,352.05155 693.29004,357.77343 691.42857,365.21933 C 689.13832,374.38031 690.91397,377.1625 684.28571,383.79075 C 682.56879,385.50768 679.52381,382.83837 677.14286,382.36218 z"
       id="path2439" />
    <path
       style="fill:#439945;fill-opacity:1;fill-rule:evenodd;stroke:#000000;stroke-width:1px;stroke-linecap:butt;stroke-linejoin:miter;stroke-opacity:1"
       d="M -178.57143,313.79075 C -177.10195,307.91284 -170,299.7052 -170,288.07647 C -170,277.13131 -165.53462,271.64935 -158.57143,280.93361 C -149.46888,293.07035 -142.25053,269.72038 -141.42857,268.07647 C -138.95822,263.13577 -140.40223,298.4787 -130,288.07647 C -117.4923,275.56876 -102.85714,178.48421 -102.85714,236.6479 C -102.85714,243.16705 -88.571429,321.76298 -88.571429,286.6479 C -88.571429,276.94482 -86.702114,237.52938 -78.571429,253.79075 C -60.704046,289.52552 -76.674223,296.67057 -62.857143,255.21933 C -47.841445,210.17223 -54.132917,241.392 -45.714286,266.6479 C -44.903363,269.08067 -43.809524,271.4098 -42.857143,273.79075 C -38.469901,284.75886 -33.868749,253.09581 -30,246.6479 C -27.255296,242.07339 -33.750472,271.46885 -20,285.21933 C -17.591891,287.62743 -8.8002974,318.99194 -4.2857143,300.93361 C 6.5440052,257.61473 -3.3885272,245.95093 7.1428571,288.07647 C 11.629494,306.02301 38.604742,255.1527 41.428571,249.50504 C 46.769552,238.82308 44.285714,273.27653 44.285714,285.21933 C 44.285714,338.43211 75.201393,289.54908 87.142857,275.21933 C 96.862128,263.5562 96.846426,293.19789 100,299.50504 C 111.52582,322.55669 121.42857,185.65964 121.42857,273.79075 C 121.42857,344.38743 121.48619,316.56146 141.42857,286.6479 C 165.45853,250.60296 159.48047,276.77765 168.57143,299.50504 C 173.19188,311.05618 200.16024,244.59193 204.28571,265.21933 C 204.85378,268.05963 205.2381,270.93361 205.71429,273.79075 C 211.59182,309.05593 222.85505,273.796 228.57143,259.50504 C 230.91922,253.63555 239.55667,272.36218 247.14286,272.36218 C 263.18624,272.36218 252.04644,289.69788 267.14286,259.50504 C 274.16452,245.46171 275.70488,280.89599 277.14286,286.6479 C 277.21356,286.93071 276.78949,243.80587 285.71429,279.50504 C 289.29135,293.8133 297.96591,263.16955 298.57143,262.36218 C 298.68854,262.20604 297.24793,295.00918 302.85714,283.79075 C 303.80952,281.88599 304.7619,279.98123 305.71429,278.07647 C 319.23414,251.03677 314.59063,287.86756 317.14286,298.07647 C 317.9464,301.29062 317.8535,281.65884 324.28571,262.36218 C 339.75113,215.96595 337.14286,253.69755 337.14286,276.6479 C 337.14286,281.30797 360.34186,248.0887 365.71429,243.79075 C 365.8689,243.66706 365.85314,278.81076 364.28571,286.6479 C 362.44617,295.84561 371.51948,269.32322 375.71429,260.93361 C 378.61084,255.1405 379.52381,248.55266 381.42857,242.36218 C 388.10737,220.65607 375.81834,267.45212 374.28571,276.6479 C 373.99637,278.38395 358.64791,316.57141 372.85714,302.36218 C 389.60039,285.61894 381.52386,271.41004 387.14286,299.50504 C 391.69503,322.26593 405.08778,269.86419 412.85714,259.50504 C 414.1349,257.80137 414.7619,255.69552 415.71429,253.79075 C 417.47451,250.27031 414.93983,275.58037 411.42857,296.6479 C 410.65506,301.28898 425.99781,268.65446 434.28571,243.79075 C 451.88119,191.00434 447.14286,262.43717 447.14286,275.21933 C 447.14286,295.91542 461.70877,257.60947 465.71429,250.93361 C 471.94146,240.55499 466.53071,295.83076 462.85714,325.21933 C 462.40664,328.82336 470.93234,303.50002 485.71429,283.79075 C 501.46311,262.79232 481.62269,320.35124 492.85714,286.6479 C 512.43284,227.92081 510,230.74855 510,286.6479 C 510,289.50504 510,292.36218 510,295.21933 C 510,298.44189 535.32098,267.18584 541.42857,236.6479 C 543.40964,226.74254 537.14286,256.54637 537.14286,266.6479 C 537.14286,310.25086 541.43351,281.87448 552.85714,255.21933 C 569.57226,216.21738 564.28571,262.40757 564.28571,279.50504 C 564.28571,289.1354 565.92577,260.19343 568.57143,250.93361 C 587.88881,183.32278 590,181.24248 590,246.6479 C 590,288.10028 599.86341,265.62911 605.71429,248.07647 C 616.87591,214.59158 613.56935,258.80116 611.42857,269.50504 C 607.55966,288.84959 624.69305,242.77242 627.14286,236.6479 C 627.35474,236.11818 627.14286,252.28426 627.14286,275.21933 C 627.14286,327.02867 627.4395,258.86335 647.14286,235.21933 C 656.85636,223.56313 654.28571,258.77856 654.28571,272.36218 C 654.28571,295.68368 668.12145,261.1586 680,255.21933 C 695.97665,247.231 692.85714,267.28533 692.85714,286.6479 C 692.85714,311.21274 715.31305,264.19199 717.14286,262.36218 C 722.86706,256.63798 717.14286,278.55266 717.14286,286.6479 C 717.14286,354.1484 726.62251,244.8953 741.42857,233.79075 C 746.15778,230.24384 736.30876,261.08223 752.85714,265.21933 C 758.45322,266.61834 762.85714,222.42906 762.85714,262.36218 C 762.85714,296.61708 765.78075,283.65783 777.14286,260.93361 C 779.04762,257.12409 780.95238,253.31456 782.85714,249.50504 C 783.82439,247.57055 784.28571,296.07746 784.28571,296.6479 C 784.28571,305.68298 790,279.50504 792.85714,270.93361 C 794.61969,265.64597 796.66667,260.45742 798.57143,255.21933 C 806.39533,233.7036 803.51794,309.95186 805.71429,320.93361 C 807.81293,331.42685 812.3572,300.50492 817.14286,290.93361 C 844.50211,236.2151 840.12039,260.2274 845.71429,293.79075 C 845.97569,295.35917 862.85714,226.20086 862.85714,258.07647 C 862.85714,288.62741 855.44079,289.77854 875.71429,269.50504 C 892.23495,252.98437 898.57143,252.19954 898.57143,272.36218 C 898.57143,283.77316 899.24618,292.20404 901.42857,300.93361 C 904.28201,312.34735 907.14286,317.95881 907.14286,330.93361 C 907.14286,342.14916 906.81303,343.68098 897.14286,350.93361 C 889.47487,356.6846 873.62182,353.79075 864.28571,353.79075 C 848.08551,353.79075 830.8672,355.21933 814.28571,355.21933 C 801.27707,355.21933 789.54569,356.6479 777.14286,356.6479 C 756.66667,356.6479 736.19048,356.6479 715.71429,356.6479 C 697.82952,356.6479 680.31985,358.07647 662.85714,358.07647 C 643.11181,358.07647 624.05046,359.50504 604.28571,359.50504 C 565.29532,359.50504 527.44899,362.36218 488.57143,362.36218 C 462.66811,362.36218 430.86375,357.50339 405.71429,363.79075 C 376.76258,371.02868 342.41722,362.95289 312.85714,366.6479 C 290.92531,369.38938 267.95989,368.07647 245.71429,368.07647 C 224.16786,368.07647 201.89411,369.50504 180,369.50504 C 144.28571,369.50504 108.57143,369.50504 72.857143,369.50504 C 55.399863,369.50504 37.742983,368.07647 20,368.07647 C 7.2945419,368.07647 -7.7455986,366.6479 -21.428571,366.6479 C -30.952381,366.6479 -40.47619,366.6479 -50,366.6479 C -63.092712,366.6479 -76.465431,365.21933 -90,365.21933 C -102.85714,365.21933 -115.71429,365.21933 -128.57143,365.21933 C -136.91433,365.21933 -147.71844,361.504 -155.71429,359.50504 C -165.32907,357.10134 -168.25178,358.39612 -175.71429,350.93361 C -181.38547,345.26243 -182.85714,340.60608 -182.85714,332.36218 C -182.85714,323.53287 -181.92618,322.17764 -178.57143,313.79075 z"
       id="path3213" />
    <path
       style="fill:#83f58e;fill-opacity:1;fill-rule:evenodd;stroke:#000000;stroke-width:1px;stroke-linecap:butt;stroke-linejoin:miter;stroke-opacity:1"
       d="M -191.42857,429.50504 C -176.49165,430.37408 -150.87741,425.21933 -131.42857,425.21933 C -102.45051,425.21933 -73.956349,416.6479 -44.285714,416.6479 C 7.2695326,416.6479 58.165949,413.79075 110,413.79075 C 161.5678,413.79075 213.93841,409.50504 265.71429,409.50504 C 336.19048,409.50504 406.66667,409.50504 477.14286,409.50504 C 551.90476,409.50504 626.66667,409.50504 701.42857,409.50504 C 780.23892,409.50504 859.46227,406.6479 938.57143,406.6479 C 961.72552,406.6479 960.09376,411.26175 954.28571,390.93361 C 951.59724,381.52393 944.91501,379.16506 942.85714,370.93361 C 940.74334,362.47841 943.43134,356.36771 938.57143,346.6479 C 932.95589,335.41682 919.44598,333.35348 910,338.07647 C 901.03843,342.55725 899.96108,327.05922 892.85714,315.21933 C 887.94431,307.03126 876.13714,305.21933 867.14286,305.21933 C 853.69674,305.21933 833.723,315.9985 827.14286,320.93361 C 820.9414,325.5847 817.48173,308.63328 811.42857,303.79075 C 802.24474,296.44369 789.49128,295.30155 778.57143,290.93361 C 776.86397,290.25063 782.68477,304.37576 768.57143,293.79075 C 747.94226,278.31888 712.88857,268.07647 692.85714,268.07647 C 690.95238,268.07647 696.66667,268.07647 698.57143,268.07647 C 710.41588,268.07647 685.16211,294.43919 680,273.79075 C 676.99165,261.75733 629.46169,222.90049 602.85714,249.50504 C 593.61452,258.74766 582.84067,272.39514 577.14286,283.79075 C 576.70876,284.65895 560.14637,269.2486 547.14286,266.6479 C 542.26849,265.67302 521.99205,303.51564 518.57143,308.07647 C 508.89173,320.98273 530.24882,309.62945 498.57143,293.79075 C 482.73767,285.87388 445.29901,269.73756 438.57143,296.6479 C 432.21324,322.08064 439.7778,310.71141 425.71429,296.6479 C 408.00237,278.93598 360.65191,295.15226 348.57143,305.21933 C 334.51399,316.93386 349.2554,332.64354 340,309.50504 C 332.13697,289.84748 311.04121,283.2968 294.28571,286.6479 C 284.03421,288.6982 283.95024,304.82607 278.57143,313.79075 C 274.74444,320.16907 270.47478,300.77394 264.28571,296.6479 C 241.8294,281.67702 215.05474,275.71398 192.85714,292.36218 C 178.61424,303.04436 183.25988,326.94044 175.71429,308.07647 C 168.83023,290.86632 124.61557,276.31804 110,290.93361 C 99.675799,301.25781 88.998327,328.42943 81.428571,309.50504 C 75.384277,294.3943 53.333143,276.1719 40,289.50504 C 28.327564,301.17747 13.639975,324.14309 5.7142857,310.93361 C -4.6784762,293.61234 -29.253042,257.15911 -51.428571,273.79075 C -67.416713,285.78186 -81.301267,313.53614 -90,330.93361 C -94.36955,339.67271 -102.18351,315.36741 -110,309.50504 C -141.23621,286.07788 -143.11403,270.01881 -160,303.79075 C -161.34687,306.48449 -161.90476,309.50504 -162.85714,312.36218 C -168.80103,330.19385 -177.05747,310.9763 -194.28571,302.36218 C -203.93882,297.53563 -207.82122,318.00462 -210,322.36218 C -214.28911,330.94041 -212.25395,350.48923 -210,359.50504 C -207.70364,368.69049 -205.75014,373.71904 -201.42857,382.36218 C -198.65578,387.90777 -198.32696,397.62576 -197.14286,402.36218 C -194.62216,412.44497 -195.49729,419.33323 -191.42857,429.50504 z"
       id="path2431" />
    <path
       style="fill:#29ac35;fill-opacity:1;fill-rule:evenodd;stroke:#000000;stroke-width:1px;stroke-linecap:butt;stroke-linejoin:miter;stroke-opacity:1;opacity:1;color:#000000;marker:none;marker-start:none;marker-mid:none;marker-end:none;stroke-miterlimit:4;stroke-dasharray:none;stroke-dashoffset:0;visibility:visible;display:inline;overflow:visible;enable-background:accumulate"
       d="M -124.28571,95.219325 C -122.55557,102.13991 -117.97093,113.56318 -112.85714,123.79075 C -108.59424,132.31657 -101.93426,134.25219 -94.285714,138.07647 C -87.247706,141.59547 -78.017073,142.36218 -70,142.36218 C -69.382778,142.36218 -63.383092,173.2648 -52.857143,183.79075 C -45.822704,190.82519 -30.475357,191.9814 -21.428571,193.79075 C -13.755153,195.32544 2.7851408,181.22162 4.2857143,175.21933 C 4.8211521,173.07757 17.603763,196.40598 30,199.50504 C 44.510967,203.13278 65.399525,197.55415 78.571429,193.79075 C 101.12329,187.34736 64.227049,160.90428 95.714286,176.6479 C 118.32859,187.95505 143.0643,193.66646 164.28571,180.93361 C 180.57242,171.16158 180.84602,162.34364 171.42857,146.6479 C 170.58726,145.24572 192.3815,161.40966 211.42857,156.6479 C 223.12138,153.7247 244.28571,148.32711 244.28571,135.21932 C 244.28571,110.98195 224.7411,110.93361 260,110.93361 C 275.01369,110.93361 274.72197,94.466639 277.14286,82.362182 C 280.52033,65.474822 269.36353,54.101998 265.71429,39.505039 C 262.33549,25.989842 220.64984,15.91213 210,12.362182 C 166.6947,-2.0729169 118.18061,2.3621821 72.857143,2.3621821 C 51.26262,2.3621821 27.757903,0.065563381 7.1428571,5.2193249 C -13.365223,10.346345 4.9857286,11.633625 -14.285714,-7.6378179 C -38.37656,-31.728663 -60.046595,-10.940088 -80,2.3621821 C -101.32621,16.579656 -136.42232,35.902342 -141.42857,60.933611 C -143.91035,73.342488 -143.59479,87.338823 -135.71429,95.219325 C -132.68601,98.247602 -128.15737,95.993657 -124.28571,95.219325 z"
       id="path2433" />
    <rect
       style="opacity:1;fill:none;fill-opacity:1;fill-rule:evenodd;stroke:#000000;stroke-width:0.60846859px;stroke-linecap:butt;stroke-linejoin:miter;marker:none;marker-start:none;marker-mid:none;marker-end:none;stroke-miterlimit:4;stroke-dasharray:none;stroke-dashoffset:0;stroke-opacity:1;visibility:visible;display:inline;overflow:visible;enable-background:accumulate"
       id="rect4845"
       width="423.24866"
       height="443.24872"
       x="255.80423"
       y="78.166405"
       inkscape:export-filename="/home/james/src/ohr/games/baconthulhu/media/storyboard/scene3.png"
       inkscape:export-xdpi="36.498226"
       inkscape:export-ydpi="36.498226" />
    <g
       id="g3141"
       inkscape:label="Layer 1"
       transform="matrix(0.659635,0,0,0.659635,273.47207,28.532169)">
      <g
         id="g3453">
        <path
           id="path3904"
           d="M 448.31573,588.31608 C 445.12626,581.93714 462.38627,585.2134 468.76522,582.02393 C 476.38169,578.21569 481.03473,571.64224 484.49559,564.72051 C 488.65904,556.39362 490.17135,549.88266 492.36078,541.12495 C 494.16514,533.90752 493.93382,525.67954 493.93382,517.52938 C 493.93382,507.88044 492.36078,500.26203 492.36078,490.78774 C 492.36078,482.16558 488.94251,469.79386 486.06863,464.0461 C 482.93326,457.77536 475.28515,457.75395 467.19218,457.75395 C 459.31107,457.75395 455.54158,471.1907 451.4618,476.63041 C 447.23794,482.26223 446.74269,490.56692 446.74269,498.65293 C 446.74269,505.71129 445.16965,514.25995 445.16965,522.2485 C 445.16965,529.4653 446.74269,538.03509 446.74269,545.84406 C 446.74269,553.70925 446.74269,561.57444 446.74269,569.43963 C 446.74269,576.16115 446.96749,581.57487 448.31573,588.31608 z"
           style="opacity:1;fill:#aa540c;fill-opacity:1;fill-rule:evenodd;stroke:#000000;stroke-width:3;stroke-linecap:butt;stroke-linejoin:miter;marker:none;marker-start:none;marker-mid:none;marker-end:none;stroke-miterlimit:4;stroke-dasharray:none;stroke-dashoffset:0;stroke-opacity:1;visibility:visible;display:inline;overflow:visible;enable-background:accumulate" />
        <path
           id="path3886"
           d="M 243.82083,278.42766 C 240.65533,273.99635 239.66802,263.38943 237.52868,254.8321 C 235.81381,247.97262 237.52868,238.34896 237.52868,231.23653 C 237.52868,224.25343 245.27842,220.34073 248.53995,217.07919 C 253.39127,212.22787 259.19442,212.36008 267.4164,212.36008 C 277.3174,212.36008 281.70663,215.60583 287.86589,220.22527 C 294.08146,224.88695 296.27409,230.74952 298.87715,235.95565 C 302.67289,243.54712 296.56766,252.42248 294.15804,254.8321 C 289.32717,259.66297 285.11588,262.49925 278.42766,265.84336 C 270.41707,269.84866 266.80849,271.89423 259.55121,273.70855 C 254.8928,274.87315 250.25488,275.85404 243.82083,278.42766 z"
           style="opacity:1;fill:#aa540c;fill-opacity:1;fill-rule:evenodd;stroke:#000000;stroke-width:3;stroke-linecap:butt;stroke-linejoin:miter;marker:none;marker-start:none;marker-mid:none;marker-end:none;stroke-miterlimit:4;stroke-dasharray:none;stroke-dashoffset:0;stroke-opacity:1;visibility:visible;display:inline;overflow:visible;enable-background:accumulate" />
        <path
           id="path3884"
           d="M 426.2932,207.64097 C 433.85542,203.85986 411.03453,215.15238 404.27067,220.22527 C 396.21834,226.26452 391.68637,232.5478 391.68637,242.2478 C 391.68637,250.64798 399.44633,252.41993 404.27067,254.8321 C 410.90514,258.14933 414.87734,261.0231 421.57409,262.69729 C 428.32349,264.38464 435.94035,264.27032 443.59662,264.27032 C 453.14694,264.27032 454.47245,258.24903 457.75395,251.68602 C 460.84715,245.49963 458.91464,235.87927 457.75395,231.23653 C 455.89008,223.78104 450.81666,217.36194 448.31573,212.36008 C 446.93653,209.60169 429.94766,207.64097 426.2932,207.64097 z"
           style="opacity:1;fill:#aa540c;fill-opacity:1;fill-rule:evenodd;stroke:#000000;stroke-width:3;stroke-linecap:butt;stroke-linejoin:miter;marker:none;marker-start:none;marker-mid:none;marker-end:none;stroke-miterlimit:4;stroke-dasharray:none;stroke-dashoffset:0;stroke-opacity:1;visibility:visible;display:inline;overflow:visible;enable-background:accumulate" />
        <path
           inkscape:transform-center-x="9.0231876"
           inkscape:transform-center-y="45.945104"
           id="path3890"
           d="M 201.93211,435.63861 C 198.80151,441.93847 188.29094,439.08453 181.47036,440.8075 C 173.14419,442.91079 167.11814,450.72787 161.71918,457.40621 C 156.41983,463.96132 158.33982,472.60693 158.53107,479.25345 C 158.583,481.05809 146.4812,486.31148 143.54004,488.84503 C 138.00215,493.61546 136.14299,500.52501 134.54376,507.806 C 132.73424,516.04435 132.72286,524.11036 132.89207,529.99072 C 133.12001,537.91255 135.44234,542.95865 136.862,548.57858 C 138.74521,556.03349 139.23598,560.54436 142.70583,565.96751 C 146.33792,571.64423 152.32255,572.91137 160.13038,574.62633 C 168.25074,576.40992 178.4542,569.22289 183.14094,565.18566 C 188.89835,560.22616 192.53302,558.28797 195.73408,551.84634 C 198.71284,545.85202 201.32363,539.74089 204.73037,532.88536 C 209.89157,522.49923 207.56501,523.46231 216.98604,521.08244 C 218.95521,520.585 227.49468,505.84564 228.71768,504.33282 C 232.20239,500.02234 232.5592,486.84312 233.77966,481.28662 C 235.63915,472.82077 227.44758,470.58179 226.06197,465.09664 C 225.93355,464.58827 226.28694,464.07237 226.39943,463.56024 C 227.32256,459.35742 220.08811,450.06526 219.0192,445.83385 C 217.55956,440.05566 208.16427,437.00747 201.93211,435.63861 z"
           style="opacity:1;fill:#aa540c;fill-opacity:1;fill-rule:evenodd;stroke:#000000;stroke-width:3;stroke-linecap:butt;stroke-linejoin:miter;marker:none;marker-start:none;marker-mid:none;marker-end:none;stroke-miterlimit:4;stroke-dasharray:none;stroke-dashoffset:0;stroke-opacity:1;visibility:visible;display:inline;overflow:visible;enable-background:accumulate" />
        <path
           id="path3942"
           d="M 217.07919,600.90038 C 212.37133,599.72341 197.28598,603.88239 190.33755,605.61949 C 183.45417,607.34034 175.87025,615.36768 173.03414,618.20379 C 169.15683,622.0811 164.95031,627.86066 160.44984,632.36113 C 156.46148,636.34949 157.30376,649.87798 157.30376,655.9567 C 157.30376,665.64908 158.07833,671.66317 162.02288,679.55226 C 165.94349,687.39348 169.12946,690.61935 173.03414,698.42871 C 176.72729,705.81501 183.12926,711.36452 188.76452,718.8782 C 191.7048,722.79859 204.69812,726.845 207.64097,728.31643 C 214.05433,731.52311 222.32798,733.30038 228.09046,736.18162 C 233.64323,738.958 242.99844,737.54906 250.11299,739.32769 C 257.09362,741.07285 267.60604,739.28028 273.70855,737.75465 C 279.73585,736.24783 278.68496,724.65576 281.57374,718.8782 C 285.14758,711.73052 292.09204,708.3599 295.73108,704.72086 C 299.94802,700.50392 311.88704,698.42871 317.7536,698.42871 C 326.79588,698.42871 336.4009,697.97816 344.49524,700.00175 C 347.89247,700.85106 349.21436,716.3107 349.21436,720.45124 C 349.21436,729.44522 342.25089,729.21815 349.21436,736.18162 C 352.51769,739.48495 362.73647,740.90073 369.66385,740.90073 C 379.18437,740.90073 385.53165,738.50682 394.83245,736.18162 C 408.22478,732.83353 398.16214,735.07172 399.55156,734.60858 C 409.35536,731.34064 411.41619,728.31643 423.14713,728.31643 C 433.61612,728.31643 439.0263,723.52292 445.16965,720.45124 C 453.08409,716.49402 458.39959,713.51345 462.47307,709.43998 C 467.90879,704.00425 474.17556,702.23614 481.34952,696.85568 C 486.03941,693.33826 487.79287,686.81263 489.21471,681.1253 C 490.07905,677.66793 489.21471,664.6481 489.21471,657.52973 C 489.21471,649.35876 489.45915,641.20408 487.64167,633.93417 C 485.88388,626.90303 479.08685,620.66024 475.05737,616.63076 C 469.21093,610.78432 461.18219,607.33361 454.60788,604.04645 C 446.89825,600.19164 436.65511,600.90038 427.86624,600.90038 C 419.4767,600.90038 411.08717,600.90038 402.69764,600.90038 C 394.10292,600.90038 386.61722,602.47342 377.52903,602.47342 C 368.45717,602.47342 360.5912,605.61949 350.78739,605.61949 C 340.6549,605.61949 332.10384,607.19253 322.47272,607.19253 C 313.77733,607.19253 305.11068,606.81393 297.30411,608.76557 C 289.64256,610.68096 278.41246,608.76557 270.56247,608.76557 C 262.69729,608.76557 254.8321,608.76557 246.96691,608.76557 C 238.47089,608.76557 231.63245,607.29151 224.94438,605.61949 C 221.97823,604.87796 219.70092,602.47342 217.07919,600.90038 z"
           style="fill:#336432;fill-opacity:1;fill-rule:evenodd;stroke:#000000;stroke-width:3;stroke-linecap:butt;stroke-linejoin:miter;stroke-miterlimit:4;stroke-dasharray:none;stroke-opacity:1" />
        <path
           sodipodi:nodetypes="ccccccccccccc"
           id="path3902"
           d="M 217.07919,426.29321 C 212.62872,449.77761 212.61298,478.10049 206.9384,503.17012 C 203.26872,532.80674 198.33137,562.31284 201.90886,592.40234 C 212.87554,622.02672 253.39089,623.4784 280.24091,630.98107 C 314.00583,630.5187 347.89242,631.37213 381.69555,630.23606 C 411.2163,618.45388 472.17812,616.36804 493.1913,592.58793 C 482.13438,573.7427 486.65887,554.21644 487.18514,532.81496 C 479.50803,500.5852 469.55937,468.65161 477.20112,438.34472 C 482.02071,421.81042 476.34694,391.05359 456.97067,415.36927 C 436.56802,438.59738 425.48546,469.68756 393.81151,480.17129 C 373.29446,491.69461 348.64288,489.68185 326.01792,492.46229 C 298.54346,496.01039 271.82935,488.18151 253.07684,467.14973 C 234.69509,457.0468 243.65883,423.54444 217.07919,426.29321 z"
           style="fill:#ffffff;fill-opacity:1;fill-rule:evenodd;stroke:#000000;stroke-width:3;stroke-linecap:butt;stroke-linejoin:miter;stroke-miterlimit:4;stroke-dasharray:none;stroke-opacity:1" />
        <path
           sodipodi:nodetypes="ccccccc"
           id="path3877"
           d="M 234.3826,276.85462 C 207.91888,311.45083 192.74659,349.63069 185.4104,391.42026 C 186.94919,438.30496 224.2812,473.18898 258.32015,500.72748 C 306.34783,519.56137 363.97619,512.13011 408.18764,486.93806 C 445.40447,456.13432 477.22492,415.92089 492.28923,369.58235 C 511.17315,324.84977 480.88581,277.95076 447.16704,250.02563 C 366.3395,204.30999 289.52048,218.71407 234.3826,276.85462 z"
           style="fill:#aa540c;fill-opacity:1;fill-rule:evenodd;stroke:#000000;stroke-width:3;stroke-linecap:butt;stroke-linejoin:miter;stroke-miterlimit:4;stroke-dasharray:none;stroke-opacity:1" />
        <path
           id="path3863"
           d="M 284.71981,311.46145 C 290.69828,305.48299 283.62433,328.42767 281.57374,336.63006 C 279.96649,343.05904 276.85463,349.98857 276.85463,358.65258 C 276.85463,362.30143 275.28159,367.03107 275.28159,371.23688 C 279.73658,371.23688 287.31376,372.80992 291.01196,372.80992 C 299.17191,372.80992 306.94282,374.43308 313.03449,375.956 C 317.83836,377.15696 328.33406,380.82529 330.3379,372.80992 C 332.27237,365.07206 332.67609,360.26837 336.63006,352.36043 C 339.79978,346.02098 343.92841,340.47044 346.06828,331.91094 C 347.94441,324.40645 352.35604,320.91723 353.93347,314.60753 C 354.29583,313.1581 360.252,298.10382 361.79866,298.87715 C 365.33888,300.64726 365.63784,298.69033 371.23688,309.88842 C 374.58511,316.58486 379.10655,324.06366 380.67511,330.3379 C 382.04232,335.80674 385.68432,341.92936 388.5403,347.64132 C 392.11957,354.79987 393.25941,355.02141 393.25941,364.94473 C 393.25941,372.54609 388.5403,378.93554 388.5403,386.96726 C 388.5403,396.6267 387.52569,400.00773 383.82118,407.41675 C 380.40965,414.23982 379.04763,418.5369 375.956,424.72016 C 372.91794,430.79628 371.56297,436.65228 368.09081,443.59662 C 365.25109,449.27605 361.49441,456.78941 358.65258,462.47307 C 357.24774,465.28275 351.71606,476.63041 347.64132,476.63041 C 339.77613,476.63041 331.91094,476.63041 324.04575,476.63041 C 316.29816,476.63041 308.84795,479.77648 302.02323,479.77648 C 293.98511,479.77648 287.77022,479.58514 284.71981,473.48433 C 282.28868,468.62207 276.51684,461.12191 275.28159,456.18092 C 273.71234,449.90394 269.76272,443.57014 265.84336,435.73143 C 263.08435,430.2134 260.04337,425.11576 257.97817,416.85498 C 256.24586,409.92572 256.27713,404.01466 253.25906,397.97852 C 250.7811,393.02261 248.3217,386.53076 245.39387,380.67511 C 241.53537,372.95811 241.01186,375.28179 245.39387,366.51777 C 248.38776,360.52999 252.68488,356.65488 256.40514,349.21436 C 259.31814,343.38834 261.26273,338.06461 265.84336,333.48398 C 268.36598,330.96136 284.71981,313.79438 284.71981,311.46145 z"
           style="opacity:1;fill:#eeb27f;fill-opacity:1;fill-rule:evenodd;stroke:#000000;stroke-width:3;stroke-linecap:butt;stroke-linejoin:miter;marker:none;marker-start:none;marker-mid:none;marker-end:none;stroke-miterlimit:4;stroke-dasharray:none;stroke-dashoffset:0;stroke-opacity:1;visibility:visible;display:inline;overflow:visible;enable-background:accumulate" />
        <path
           id="path3859"
           d="M 272.13551,374.38296 C 271.08472,380.89424 276.55725,388.39161 283.14678,391.68637 C 290.71866,395.47232 294.32376,396.40549 303.59626,396.40549 C 313.69346,396.40549 319.07983,395.01756 325.61879,390.11334 C 331.34215,385.82082 325.0891,373.32358 324.04575,371.23688 C 322.3064,367.75818 309.54762,365.64605 306.74234,364.94473 C 299.83296,363.21739 293.19354,363.3717 284.71981,363.3717 C 279.22944,363.3717 274.68872,370.12762 272.13551,374.38296 z"
           style="opacity:1;fill:#000000;fill-opacity:1;fill-rule:evenodd;stroke:#000000;stroke-width:3;stroke-linecap:butt;stroke-linejoin:miter;marker:none;marker-start:none;marker-mid:none;marker-end:none;stroke-miterlimit:4;stroke-dasharray:none;stroke-dashoffset:0;stroke-opacity:1;visibility:visible;display:inline;overflow:visible;enable-background:accumulate" />
        <path
           id="path3861"
           d="M 331.91094,440.45054 C 328.83932,440.45054 315.32001,437.30446 306.74234,437.30446 C 299.31198,437.30446 293.21208,445.48854 291.01196,449.88877 C 288.02491,455.86286 305.83223,457.75395 309.88842,457.75395 C 319.81754,457.75395 324.05985,457.73985 328.76487,453.03484 C 333.95939,447.84032 334.17696,451.78063 331.91094,440.45054 z"
           style="fill:#f5392d;fill-opacity:1;fill-rule:evenodd;stroke:#000000;stroke-width:3;stroke-linecap:butt;stroke-linejoin:miter;stroke-miterlimit:4;stroke-dasharray:none;stroke-opacity:1" />
        <path
           id="path3865"
           d="M 291.01196,283.14678 C 281.89514,283.14678 276.34178,283.62511 273.70855,294.15804 C 272.18248,300.26232 286.95713,296.97197 292.585,294.15804 C 296.84093,292.03007 291.63336,284.70027 291.01196,283.14678 z"
           style="opacity:1;fill:#000000;fill-opacity:1;fill-rule:evenodd;stroke:#000000;stroke-width:3;stroke-linecap:butt;stroke-linejoin:miter;marker:none;marker-start:none;marker-mid:none;marker-end:none;stroke-miterlimit:4;stroke-dasharray:none;stroke-dashoffset:0;stroke-opacity:1;visibility:visible;display:inline;overflow:visible;enable-background:accumulate" />
        <path
           id="path3867"
           d="M 369.66385,272.13551 C 376.63587,268.6495 355.20354,278.11014 347.64132,280.0007 C 338.02769,282.40411 338.60187,285.60603 347.64132,287.86589 C 356.10114,289.98084 361.06994,289.01677 366.51777,286.29285 C 368.4957,285.30388 369.66385,274.17768 369.66385,272.13551 z"
           style="fill:#000000;fill-opacity:1;fill-rule:evenodd;stroke:#000000;stroke-width:3;stroke-linecap:butt;stroke-linejoin:miter;stroke-miterlimit:4;stroke-dasharray:none;stroke-opacity:1" />
        <path
           id="path3875"
           d="M 336.63006,265.84336 C 338.75667,265.31171 352.23725,257.25325 357.07954,254.8321 C 366.13364,250.30505 367.93561,251.53083 372.80992,256.40514"
           style="fill:none;fill-opacity:0.75;fill-rule:evenodd;stroke:#000000;stroke-width:3;stroke-linecap:butt;stroke-linejoin:miter;stroke-miterlimit:4;stroke-dasharray:none;stroke-opacity:1" />
        <path
           id="path3950"
           d="M 221.79831,622.92291 C 220.33482,621.61425 203.98417,621.34987 193.48363,621.34987 C 182.53068,621.34987 185.64406,632.05165 195.05667,633.93417 C 208.33176,636.58919 209.1612,640.12072 210.78704,643.3724 C 212.8117,647.4217 188.08592,648.09151 185.61844,648.09151 C 176.6595,648.09151 170.80417,653.46755 166.74199,657.52973 C 158.68809,665.58364 177.15801,669.36577 180.89933,670.11404 C 193.23874,672.58192 193.48363,674.60887 193.48363,687.41745 C 193.48363,698.07997 195.93736,703.52454 198.20274,712.58605 C 201.06162,724.02155 204.49489,702.40038 204.49489,698.42871 C 204.49489,688.89487 207.86088,682.40512 212.36008,676.40619 C 215.82541,671.78574 231.12455,684.15939 232.80957,685.84441 C 238.86023,691.89507 237.52868,698.61833 237.52868,707.86694 C 237.52868,719.21153 245.15428,722.26387 253.25906,714.15909 C 260.36198,707.05617 259.29131,699.4683 261.12425,692.13656 C 262.21605,687.76936 250.03647,681.08704 246.96691,679.55226 C 237.92104,675.02932 236.85537,672.8867 231.23653,665.39492 C 226.29917,658.81177 241.50556,655.9567 248.53995,655.9567 C 255.75717,655.9567 259.80474,645.79533 250.11299,643.3724 C 243.7402,641.7792 235.57827,639.25112 231.23653,637.08025 C 224.55546,633.73971 248.02991,627.64202 251.68602,627.64202 C 260.21629,627.64202 266.56346,631.14814 272.13551,633.93417 C 280.5274,638.13011 272.64622,650.21617 270.56247,654.38366 C 266.80596,661.89669 269.52805,672.76431 272.13551,677.97922 C 275.43028,684.56877 287.50518,680.51913 292.585,677.97922 C 299.13349,674.70498 309.01272,672.91144 314.60753,670.11404 C 323.09911,665.86824 321.38557,662.24885 311.46145,662.24885 C 301.56481,662.24885 299.47338,660.29523 295.73108,652.81062 C 294.70668,650.76183 318.47162,651.02383 319.32664,651.23758 C 327.58266,653.30159 335.3017,659.22511 341.34917,662.24885 C 348.88987,666.0192 352.69609,668.77142 350.78739,676.40619 C 349.25076,682.55271 339.36653,681.91836 333.48398,684.27137 C 332.79112,684.54852 349.46852,690.56352 353.93347,690.56352 C 364.85191,690.56352 371.73167,689.48527 377.52903,695.28264 C 385.97044,703.72404 378.62117,705.68266 374.38296,714.15909 C 369.70701,723.511 376.94596,725.02458 383.82118,726.74339 C 392.44778,728.90004 392.56477,720.27556 399.55156,718.8782 C 404.25359,717.9378 418.31189,707.49742 421.57409,703.14783 C 425.43433,698.00084 427.86624,692.38623 427.86624,684.27137 C 427.86624,678.7938 410.99193,677.97922 405.84371,677.97922 C 396.26607,677.97922 388.68681,674.9064 382.24815,671.68707 C 371.34249,666.23425 383.42625,660.87328 390.11334,657.52973 C 399.62064,652.77608 405.82766,649.66455 416.85498,649.66455 C 427.87375,649.66455 429.43928,653.87323 429.43928,663.82188 C 429.43928,673.91315 428.59207,678.70505 434.15839,684.27137 C 440.62182,690.73481 451.57515,677.86588 454.60788,674.83315 C 460.09793,669.34309 462.22033,665.90039 465.61914,659.10277 C 470.13757,650.06591 459.86362,647.83241 454.60788,646.51847 C 443.33895,643.70124 445.17714,649.6945 442.02358,637.08025 C 440.05263,629.19647 441.96266,619.47226 440.45054,611.91164 C 438.97877,604.5528 421.36604,610.44263 418.42801,611.91164 C 413.05231,614.59949 410.76927,627.22913 408.98979,630.78809 C 405.49186,637.78396 394.61109,634.61001 390.11334,632.36113 C 383.21271,628.91082 378.76445,624.24273 372.80992,619.77683 C 363.74298,612.97662 360.48026,616.93058 358.65258,626.06898 C 356.72625,635.70062 363.28419,639.39605 368.09081,641.79936 C 371.45296,643.48044 350.82432,652.16664 349.21436,652.81062 C 340.65236,656.23542 333.58164,650.49989 328.76487,648.09151 C 322.29364,644.8559 320.39632,638.65328 311.46145,638.65328 C 304.11285,638.65328 295.56865,644.24013 291.01196,646.51847 C 283.73266,650.15813 286.61744,655.68203 283.14678,641.79936 C 281.40021,634.81309 291.1127,625.66603 292.585,619.77683 C 294.63036,611.59541 292.11027,609.04014 284.71981,607.19253 C 273.64393,604.42356 271.25904,604.71165 261.12425,608.76557 C 252.78013,612.10322 252.23275,618.20379 240.67476,618.20379 C 231.09347,618.20379 235.08492,603.6953 221.79831,610.33861 C 217.95255,612.26148 221.44684,621.16556 221.79831,622.92291 z"
           style="fill:#4aa948;fill-opacity:1;fill-rule:evenodd;stroke:none;stroke-width:3;stroke-linecap:butt;stroke-linejoin:miter;stroke-miterlimit:4;stroke-dasharray:none;stroke-opacity:1" />
        <path
           id="path3948"
           d="M 199.77578,604.04645 C 202.52435,604.7336 214.21761,614.41345 218.65223,616.63076 C 225.83206,620.22067 234.91717,620.83063 242.2478,624.49594 C 248.89197,627.81803 255.04935,627.64202 264.27032,627.64202 C 272.13551,627.64202 280.0007,627.64202 287.86589,627.64202 C 294.58104,627.64202 304.91056,629.54363 309.88842,630.78809 C 316.7479,632.50297 326.37155,630.78809 333.48398,630.78809 C 339.58955,630.78809 348.33306,629.21506 355.50651,629.21506 C 363.3717,629.21506 371.23688,629.21506 379.10207,629.21506 C 385.32953,629.21506 392.96985,627.64202 401.1246,627.64202 C 409.16917,627.64202 416.96204,623.2894 424.72016,621.34987 C 432.80584,619.32845 441.15514,613.9189 448.31573,610.33861 C 455.80348,606.59473 462.23785,605.7371 468.76522,602.47342 C 475.20747,599.25229 478.20344,598.18195 478.20344,588.31608 C 478.20344,579.20713 473.72887,578.28295 471.91129,571.01266 C 470.59683,565.75483 452.23561,580.06399 451.4618,580.45089 C 444.12937,584.1171 436.08563,587.83427 427.86624,589.88912 C 422.80779,591.15373 413.04845,597.85638 408.98979,600.90038 C 403.13357,605.29254 394.79771,607.20122 388.5403,608.76557 C 380.37445,610.80703 374.13096,613.48468 364.94473,613.48468 C 357.21362,613.48468 348.35924,613.69846 342.92221,615.05772 C 333.70488,617.36205 323.17444,616.63076 313.03449,616.63076 C 303.18685,616.63076 296.19974,615.05772 287.86589,615.05772 C 280.38321,615.05772 275.85199,610.48121 268.98944,608.76557 C 262.95501,607.25696 256.42488,603.26981 251.68602,600.90038 C 244.74169,597.42821 238.88569,596.07325 232.80957,593.03519 C 226.03312,589.64697 217.3682,587.67406 212.36008,585.17 C 206.61388,582.2969 199.77578,574.73518 199.77578,585.17 C 199.77578,591.46215 199.77578,597.7543 199.77578,604.04645 z"
           style="fill:#000000;fill-opacity:1;fill-rule:evenodd;stroke:#000000;stroke-width:3;stroke-linecap:butt;stroke-linejoin:miter;stroke-miterlimit:4;stroke-dasharray:none;stroke-opacity:1" />
        <path
           id="path3944"
           d="M 298.87715,605.61949 C 290.45683,603.51441 291.74746,621.4519 287.86589,629.21506 C 283.12141,638.70402 285.22519,640.01279 294.15804,641.79936 C 301.451,643.25795 311.39842,641.81512 317.7536,640.22632 C 325.85438,638.20113 333.36933,639.49713 338.20309,637.08025 C 338.63144,636.86607 339.35619,615.16444 339.77613,613.48468 C 340.92829,608.87605 322.37889,608.76557 317.7536,608.76557 C 310.1277,608.76557 306.43542,608.6428 298.87715,605.61949 z"
           style="fill:#a9a9a9;fill-opacity:1;fill-rule:evenodd;stroke:#000000;stroke-width:3;stroke-linecap:butt;stroke-linejoin:miter;stroke-miterlimit:4;stroke-dasharray:none;stroke-opacity:1" />
        <g
           transform="matrix(0.9528095,0,0,0.7766005,189.37598,-120.00687)"
           id="g3970">
          <path
             sodipodi:type="arc"
             style="opacity:1;fill:#a3a3a3;fill-opacity:1;fill-rule:evenodd;stroke:#000000;stroke-width:3;stroke-linecap:butt;stroke-linejoin:miter;marker:none;marker-start:none;marker-mid:none;marker-end:none;stroke-miterlimit:4;stroke-dasharray:none;stroke-dashoffset:0;stroke-opacity:1;visibility:visible;display:inline;overflow:visible;enable-background:accumulate"
             id="path3954"
             sodipodi:cx="239.10172"
             sodipodi:cy="902.13708"
             sodipodi:rx="165.16895"
             sodipodi:ry="35.393349"
             d="M 404.27066,902.13708 A 165.16895,35.393349 0 1 1 73.93277,902.13708 A 165.16895,35.393349 0 1 1 404.27066,902.13708 z"
             transform="translate(-92.809221,23.595565)" />
          <path
             style="opacity:1;fill:#bebebe;fill-opacity:1;fill-rule:evenodd;stroke:#000000;stroke-width:2.96371698;stroke-linecap:butt;stroke-linejoin:miter;marker:none;marker-start:none;marker-mid:none;marker-end:none;stroke-miterlimit:4;stroke-dasharray:none;stroke-dashoffset:0;stroke-opacity:1;visibility:visible;display:inline;overflow:visible;enable-background:accumulate"
             d="M 146.29686,808.52105 C 69.874959,808.52105 7.8593491,851.51246 7.8593591,904.4898 C 7.8593591,909.65183 8.4444291,914.73534 9.5781091,919.6773 C 41.252479,934.47376 90.372079,943.9898 145.51561,943.9898 C 201.71406,943.9898 251.61104,934.0914 283.20311,918.8023 C 284.21,914.13644 284.73436,909.34909 284.73436,904.4898 C 284.73436,851.51246 222.71875,808.52106 146.29686,808.52105 z"
             id="path3960" />
          <path
             sodipodi:type="arc"
             style="opacity:1;fill:#a3a3a3;fill-opacity:1;fill-rule:evenodd;stroke:#000000;stroke-width:3;stroke-linecap:butt;stroke-linejoin:miter;marker:none;marker-start:none;marker-mid:none;marker-end:none;stroke-miterlimit:4;stroke-dasharray:none;stroke-dashoffset:0;stroke-opacity:1;visibility:visible;display:inline;overflow:visible;enable-background:accumulate"
             id="path3968"
             sodipodi:cx="238.3152"
             sodipodi:cy="779.44012"
             sodipodi:rx="25.955122"
             sodipodi:ry="14.943857"
             d="M 264.27032,779.44012 A 25.955122,14.943857 0 1 1 212.36008,779.44012 A 25.955122,14.943857 0 1 1 264.27032,779.44012 z"
             transform="translate(-92.809221,23.595565)" />
        </g>
        <path
           id="path3888"
           d="M 140.00035,600.90038 C 137.13336,601.61712 150.46073,617.65291 152.58465,619.77683 C 158.80741,625.99959 165.44371,627.7794 171.4611,630.78809 C 179.73039,634.92274 187.80109,628.60544 190.33755,626.06898 C 198.51506,617.89147 182.99428,617.15449 199.77578,621.34987 C 210.02199,623.91142 213.21416,618.92275 217.07919,615.05772 C 220.80537,611.33154 218.65223,604.59695 218.65223,599.32734 C 218.65223,592.02405 233.93751,596.62636 239.10172,591.46215 C 246.60073,583.96314 243.23355,576.52874 242.24779,572.5857 C 240.40901,565.23056 237.37585,563.07106 231.23653,560.0014 C 225.62432,557.1953 221.93176,552.20294 215.50615,548.99013 C 208.97989,545.727 205.83364,543.36736 198.20274,539.55191 C 193.24505,537.07306 180.29613,539.55191 174.60717,539.55191 C 170.73077,539.55191 160.48797,548.952 158.8768,550.56317 C 152.25969,557.18028 148.06708,562.74438 144.71946,569.43962 C 141.15988,576.55878 140.25634,585.71905 138.42731,593.03519 C 137.77885,595.62901 139.476,598.27865 140.00035,600.90038 z"
           style="opacity:1;fill:#aa540c;fill-opacity:1;fill-rule:evenodd;stroke:#000000;stroke-width:3;stroke-linecap:butt;stroke-linejoin:miter;marker:none;marker-start:none;marker-mid:none;marker-end:none;stroke-miterlimit:4;stroke-dasharray:none;stroke-dashoffset:0;stroke-opacity:1;visibility:visible;display:inline;overflow:visible;enable-background:accumulate" />
        <path
           id="path3892"
           d="M 481.34952,420.00105 C 480.53529,418.37258 465.5422,437.45836 464.0461,440.45054 C 460.83767,446.86741 459.68282,453.18458 457.75395,460.90003 C 455.66081,469.27262 460.27403,476.95145 462.47307,481.34952 C 466.45874,489.32087 466.22101,492.96265 471.91129,498.65293 C 477.98207,504.72371 481.82964,506.038 475.05737,512.81027 C 472.64034,515.22729 472.94473,530.69903 471.91129,534.8328 C 469.70607,543.6537 473.2643,551.69616 476.63041,558.42836 C 479.9184,565.00435 481.388,567.90507 486.06863,572.5857 C 490.90286,577.41993 472.25165,569.35454 465.61914,571.01266 C 458.95619,572.6784 453.30681,578.60589 449.88877,582.02393 C 444.47596,587.43673 438.63705,590.12957 434.15839,594.60823 C 430.52437,598.24225 428.86486,607.91715 427.86624,611.91164 C 425.42057,621.69433 432.83181,623.04614 438.8775,626.06898 C 445.71115,629.4858 458.24371,627.3712 465.61914,629.21506 C 473.12733,631.0921 482.08368,629.00534 489.21471,630.78809 C 497.3923,632.83249 506.55172,629.19826 512.81027,626.06898 C 517.77584,623.5862 522.42232,614.8839 525.39457,611.91164 C 530.45929,606.84693 532.44651,602.52687 536.40584,594.60823 C 539.14161,589.13667 549.32154,585.31471 553.70925,582.02393 C 559.51633,577.66862 560.44527,570.12492 563.14748,564.72051 C 566.15664,558.70219 564.72051,548.30307 564.72051,541.12495 C 564.72051,532.45332 563.28169,527.63871 561.57444,519.10242 C 560.33273,512.89388 556.69183,505.86413 555.28229,500.22597 C 553.30066,492.29946 548.78907,489.41578 555.28229,482.92256 C 559.30879,478.89606 556.85533,464.75162 556.85533,459.32699 C 556.85533,453.54789 549.43894,443.14632 547.4171,440.45054 C 542.93603,434.47578 536.56433,431.09156 530.11369,427.86624 C 522.15928,423.88904 517.44656,421.94664 509.6642,420.00105 C 500.84521,417.7963 491.69237,417.93248 481.34952,420.00105 z"
           style="opacity:1;fill:#aa540c;fill-opacity:1;fill-rule:evenodd;stroke:#000000;stroke-width:3;stroke-linecap:butt;stroke-linejoin:miter;marker:none;marker-start:none;marker-mid:none;marker-end:none;stroke-miterlimit:4;stroke-dasharray:none;stroke-dashoffset:0;stroke-opacity:1;visibility:visible;display:inline;overflow:visible;enable-background:accumulate" />
        <path
           id="path3894"
           d="M 465.61914,571.01267 C 460.9226,569.83853 449.96676,567.86659 440.45054,567.86659 C 432.58535,567.86659 424.72016,567.86659 416.85497,567.86659 C 408.72272,567.86659 403.83873,575.02263 401.12459,580.45089 C 396.68862,589.32285 401.83206,591.02937 408.98978,594.60823 C 419.45847,599.84257 405.84371,591.34041 405.84371,604.04646 C 405.84371,615.01035 405.44729,617.31817 415.28193,619.77684 C 425.33835,622.29094 426.71938,619.35065 420.00105,626.06899 C 414.41306,631.65698 414.96261,635.80296 416.85497,643.3724 C 418.40965,649.59113 427.46358,649.95715 432.58535,651.23759 C 437.16356,652.38214 442.02357,651.23759 446.74269,651.23759 C 454.48562,651.23759 463.49497,648.2293 470.33825,646.51847 C 478.25499,644.53929 482.79928,638.77656 487.64167,633.93417 C 492.78007,628.79576 493.93382,620.09073 493.93382,611.91165 C 493.93382,602.86174 492.36078,597.8983 492.36078,589.88912 C 492.36078,583.89276 481.60004,576.7062 478.20344,574.15874 C 472.79402,570.10168 475.09438,571.01267 465.61914,571.01267 z"
           style="opacity:1;fill:#aa540c;fill-opacity:1;fill-rule:evenodd;stroke:#000000;stroke-width:3;stroke-linecap:butt;stroke-linejoin:miter;marker:none;marker-start:none;marker-mid:none;marker-end:none;stroke-miterlimit:4;stroke-dasharray:none;stroke-dashoffset:0;stroke-opacity:1;visibility:visible;display:inline;overflow:visible;enable-background:accumulate" />
        <path
           id="path3930"
           d="M 146.2925,651.23758 C 142.08652,650.18609 131.74932,658.80597 124.26997,660.67581 C 117.83817,662.28376 117.97782,671.17588 117.97782,677.97922 C 117.97782,687.71707 120.68335,689.68242 124.26997,696.85568 C 127.87254,704.06081 132.92368,705.50938 140.00035,712.58605 C 146.39344,718.97915 150.86671,725.92065 160.44984,728.31643 C 167.18851,730.0011 173.96747,735.86176 180.89933,739.32769 C 187.44493,742.60049 195.40292,744.21993 201.34882,747.19288 C 207.85968,750.44831 213.15426,750.33896 221.79831,750.33896 C 231.22096,750.33896 236.02173,747.15984 242.2478,744.0468 C 249.22171,740.55985 249.89894,733.7524 248.53995,728.31643 C 246.85657,721.58293 244.81382,716.72511 240.67476,712.58605 C 236.85162,708.76292 233.30023,700.13161 229.6635,695.28264 C 224.06592,687.8192 217.26619,682.88533 212.36008,677.97922 C 207.15544,672.77458 204.32583,668.31558 199.77578,662.24885 C 195.96517,657.16803 188.5507,657.47628 182.47237,655.9567 C 175.12834,654.12069 169.06313,652.81062 160.44984,652.81062 C 154.35018,652.81062 154.13778,651.23758 146.2925,651.23758 z"
           style="fill:#3b3b3b;fill-opacity:1;fill-rule:evenodd;stroke:#000000;stroke-width:3;stroke-linecap:butt;stroke-linejoin:miter;stroke-miterlimit:4;stroke-dasharray:none;stroke-opacity:1" />
        <path
           id="path3926"
           d="M 215.50616,698.42871 C 212.22027,693.02511 204.32963,684.14743 198.20274,679.55226 C 191.37656,674.43262 187.7249,671.95379 180.89933,668.541 C 174.92974,665.5562 171.35376,662.22201 165.16895,660.67581 C 158.30947,658.96094 148.68582,660.67581 141.57339,660.67581 C 133.84774,660.67581 128.74097,667.09202 122.69694,670.11404 C 117.74323,672.59089 114.73714,679.93068 113.25871,685.84441 C 110.99059,694.9169 115.08265,702.0766 117.97782,707.86694 C 121.25441,714.42011 129.50003,720.96219 133.7082,725.17035 C 137.70225,729.16441 147.71008,731.8169 152.58465,733.03554 C 161.51695,735.26861 165.03744,738.90155 173.03414,740.90073 C 181.99025,743.13976 183.63514,745.61984 193.48363,745.61984 C 201.34882,745.61984 209.21401,745.61984 217.07919,745.61984 C 224.99343,745.61984 230.71057,739.32867 235.95565,736.18162 C 243.27288,731.79127 236.25122,722.61543 234.38261,718.8782 C 231.49631,713.1056 225.84991,710.3455 221.79831,706.2939 C 219.42423,703.91982 217.60354,701.05044 215.50616,698.42871 z"
           style="opacity:1;fill:#727272;fill-opacity:1;fill-rule:evenodd;stroke:#000000;stroke-width:3;stroke-linecap:butt;stroke-linejoin:miter;marker:none;marker-start:none;marker-mid:none;marker-end:none;stroke-miterlimit:4;stroke-dasharray:none;stroke-dashoffset:0;stroke-opacity:1;visibility:visible;display:inline;overflow:visible;enable-background:accumulate" />
        <path
           id="path3934"
           d="M 248.53995,704.72086 C 244.54862,702.7252 231.82226,712.00033 228.09046,715.73213 C 224.30384,719.51874 227.04747,732.00966 228.09046,736.18162 C 230.61361,746.27423 227.77039,747.89938 237.52868,750.33896 C 244.69931,752.13161 249.54248,754.91544 256.40514,756.63111 C 265.67943,758.94968 269.43087,761.63312 276.85463,759.77718 C 283.81815,758.0363 285.20498,743.19403 286.29285,737.75465 C 287.55093,731.46428 278.24692,725.07998 275.28159,723.59732 C 269.38294,720.64799 268.53166,713.9302 262.69729,711.01301 C 256.60059,707.96467 257.60302,706.53348 248.53995,704.72086 z"
           style="opacity:1;fill:#3b3b3b;fill-opacity:1;fill-rule:evenodd;stroke:#000000;stroke-width:3;stroke-linecap:butt;stroke-linejoin:miter;marker:none;marker-start:none;marker-mid:none;marker-end:none;stroke-miterlimit:4;stroke-dasharray:none;stroke-dashoffset:0;stroke-opacity:1;visibility:visible;display:inline;overflow:visible;enable-background:accumulate" />
        <path
           id="path3932"
           d="M 229.6635,718.8782 C 225.65847,718.8782 219.52005,736.01901 217.07919,740.90073 C 213.17133,748.71646 216.10211,757.22705 220.22527,761.35022 C 223.39038,764.51533 236.38517,762.92326 242.2478,762.92326 C 250.11299,762.92326 257.97817,762.92326 265.84336,762.92326 C 273.20291,762.92326 267.4164,748.26027 267.4164,740.90073 C 267.4164,728.80592 264.49457,727.64203 256.40514,723.59732 C 247.4605,719.125 242.05789,716.39932 229.6635,718.8782 z"
           style="opacity:1;fill:#727272;fill-opacity:1;fill-rule:evenodd;stroke:#000000;stroke-width:3;stroke-linecap:butt;stroke-linejoin:miter;marker:none;marker-start:none;marker-mid:none;marker-end:none;stroke-miterlimit:4;stroke-dasharray:none;stroke-dashoffset:0;stroke-opacity:1;visibility:visible;display:inline;overflow:visible;enable-background:accumulate" />
        <path
           id="path3938"
           d="M 341.34917,748.76592 C 338.52492,745.94167 339.88984,730.89395 341.34917,723.59732 C 343.49973,712.84452 348.34236,711.01301 358.65258,711.01301 C 367.0462,711.01301 373.65098,709.43998 382.24815,709.43998 C 391.04038,709.43998 391.5438,715.16184 393.25941,722.02428 C 395.71682,731.85392 394.40583,737.03486 390.11334,745.61984 C 388.09283,749.66085 379.00055,753.53579 375.956,755.05807 C 370.6557,757.70822 361.39426,756.63111 353.93347,756.63111 C 348.9868,756.63111 345.5909,751.31096 341.34917,748.76592 z"
           style="opacity:1;fill:#3b3b3b;fill-opacity:1;fill-rule:evenodd;stroke:#000000;stroke-width:3;stroke-linecap:butt;stroke-linejoin:miter;marker:none;marker-start:none;marker-mid:none;marker-end:none;stroke-miterlimit:4;stroke-dasharray:none;stroke-dashoffset:0;stroke-opacity:1;visibility:visible;display:inline;overflow:visible;enable-background:accumulate" />
        <path
           id="path3940"
           d="M 437.30446,671.68707 C 431.05426,671.68707 419.62475,678.85982 410.56282,681.1253 C 405.1529,682.47778 399.06569,688.4469 394.83245,690.56352 C 389.2475,693.356 385.74317,701.22584 382.24815,704.72086 C 377.92613,709.04288 376.74897,718.8653 374.38296,723.59732 C 370.08205,732.19914 382.28353,737.79004 385.39422,740.90073 C 389.38752,744.89403 396.07343,744.6673 401.1246,747.19288 C 407.25352,750.25734 417.42076,748.76592 424.72016,748.76592 C 433.87398,748.76592 438.12709,747.19288 446.74269,747.19288 C 453.20926,747.19288 464.20306,743.61431 468.76522,742.47377 C 476.36146,740.57471 483.83767,738.41258 489.21471,733.03554 C 495.16585,727.08439 500.61206,729.11728 504.94508,720.45124 C 508.42623,713.48894 506.52778,707.90558 504.94508,701.57479 C 503.04201,693.96248 501.65198,690.26946 498.65293,684.27137 C 495.95127,678.86805 489.59383,675.80923 484.49559,673.26011 C 478.51217,670.2684 472.35775,669.04587 464.0461,666.96796 C 454.07541,664.47529 447.88014,665.34167 437.30446,671.68707 z"
           style="opacity:1;fill:#3b3b3b;fill-opacity:1;fill-rule:evenodd;stroke:#000000;stroke-width:3;stroke-linecap:butt;stroke-linejoin:miter;marker:none;marker-start:none;marker-mid:none;marker-end:none;stroke-miterlimit:4;stroke-dasharray:none;stroke-dashoffset:0;stroke-opacity:1;visibility:visible;display:inline;overflow:visible;enable-background:accumulate" />
        <path
           id="path3928"
           d="M 456.18092,677.97922 C 454.60346,676.40176 436.4624,685.47892 432.58535,687.41745 C 424.43963,691.49031 417.42627,694.99699 410.56282,698.42871 C 402.85116,702.28455 395.21278,708.46329 390.11334,711.01301 C 382.34476,714.8973 379.24818,723.01289 377.52903,729.88947 C 375.25734,738.97625 379.20973,739.54301 382.24815,745.61984 C 383.91948,748.96251 398.2384,752.04193 401.1246,753.48503 C 408.54754,757.1965 412.47198,758.20414 421.57409,758.20414 C 429.11172,758.20414 437.64761,759.69139 443.59662,758.20414 C 453.33552,755.76942 457.24385,757.67268 465.61914,753.48503 C 473.04933,749.76994 481.73829,746.99849 487.64167,744.0468 C 493.00444,741.36542 496.74652,733.70229 498.65293,729.88947 C 501.89969,723.39595 500.29101,712.8462 498.65293,706.2939 C 496.23863,696.6367 493.19287,692.96865 487.64167,687.41745 C 482.68301,682.45879 476.60561,681.1191 470.33826,679.55226 C 466.36892,678.55993 459.98741,678.74052 456.18092,677.97922 z"
           style="opacity:1;fill:#727272;fill-opacity:1;fill-rule:evenodd;stroke:#000000;stroke-width:3;stroke-linecap:butt;stroke-linejoin:miter;marker:none;marker-start:none;marker-mid:none;marker-end:none;stroke-miterlimit:4;stroke-dasharray:none;stroke-dashoffset:0;stroke-opacity:1;visibility:visible;display:inline;overflow:visible;enable-background:accumulate" />
        <path
           id="path3936"
           d="M 377.52903,723.59732 C 371.93916,720.80238 367.32639,724.9682 360.22562,726.74339 C 353.40726,728.44798 348.06585,732.18648 344.49524,739.32769 C 341.80086,744.71645 345.1753,757.77828 346.06828,761.35022 C 347.70336,767.89053 358.1298,766.06933 364.94473,766.06933 C 370.90508,766.06933 380.80672,758.92486 385.39422,756.63111 C 392.21084,753.2228 396.40549,754.48043 396.40549,744.0468 C 396.40549,734.42932 394.70172,731.33177 390.11334,726.74339 C 387.59123,724.22128 380.45092,724.18169 377.52903,723.59732 z"
           style="opacity:1;fill:#727272;fill-opacity:1;fill-rule:evenodd;stroke:#000000;stroke-width:3;stroke-linecap:butt;stroke-linejoin:miter;marker:none;marker-start:none;marker-mid:none;marker-end:none;stroke-miterlimit:4;stroke-dasharray:none;stroke-dashoffset:0;stroke-opacity:1;visibility:visible;display:inline;overflow:visible;enable-background:accumulate" />
      </g>
    </g>
  </g>
</svg>
