<?xml version="1.0" encoding="UTF-8" standalone="no"?>
<!-- Created with Inkscape (http://www.inkscape.org/) -->
<svg
   xmlns:dc="http://purl.org/dc/elements/1.1/"
   xmlns:cc="http://creativecommons.org/ns#"
   xmlns:rdf="http://www.w3.org/1999/02/22-rdf-syntax-ns#"
   xmlns:svg="http://www.w3.org/2000/svg"
   xmlns="http://www.w3.org/2000/svg"
   xmlns:sodipodi="http://sodipodi.sourceforge.net/DTD/sodipodi-0.dtd"
   xmlns:inkscape="http://www.inkscape.org/namespaces/inkscape"
   width="744.09448819"
   height="1052.3622047"
   id="svg2400"
   sodipodi:version="0.32"
   inkscape:version="0.46"
   sodipodi:docname="scene1.svg"
   inkscape:output_extension="org.inkscape.output.svg.inkscape">
  <defs
     id="defs2402">
    <inkscape:perspective
       sodipodi:type="inkscape:persp3d"
       inkscape:vp_x="0 : 526.18109 : 1"
       inkscape:vp_y="0 : 1000 : 0"
       inkscape:vp_z="744.09448 : 526.18109 : 1"
       inkscape:persp3d-origin="372.04724 : 350.78739 : 1"
       id="perspective2408" />
    <inkscape:perspective
       id="perspective10"
       inkscape:persp3d-origin="372.04724 : 350.78739 : 1"
       inkscape:vp_z="744.09448 : 526.18109 : 1"
       inkscape:vp_y="0 : 1000 : 0"
       inkscape:vp_x="0 : 526.18109 : 1"
       sodipodi:type="inkscape:persp3d" />
    <inkscape:perspective
       id="perspective2564"
       inkscape:persp3d-origin="372.04724 : 350.78739 : 1"
       inkscape:vp_z="744.09448 : 526.18109 : 1"
       inkscape:vp_y="0 : 1000 : 0"
       inkscape:vp_x="0 : 526.18109 : 1"
       sodipodi:type="inkscape:persp3d" />
  </defs>
  <sodipodi:namedview
     id="base"
     pagecolor="#ffffff"
     bordercolor="#666666"
     borderopacity="1.0"
     gridtolerance="10000"
     guidetolerance="10"
     objecttolerance="10"
     inkscape:pageopacity="0.0"
     inkscape:pageshadow="2"
     inkscape:zoom="0.7"
     inkscape:cx="402.04018"
     inkscape:cy="682.60334"
     inkscape:document-units="px"
     inkscape:current-layer="layer1"
     showgrid="false"
     inkscape:window-width="1280"
     inkscape:window-height="885"
     inkscape:window-x="0"
     inkscape:window-y="25" />
  <metadata
     id="metadata2405">
    <rdf:RDF>
      <cc:Work
         rdf:about="">
        <dc:format>image/svg+xml</dc:format>
        <dc:type
           rdf:resource="http://purl.org/dc/dcmitype/StillImage" />
      </cc:Work>
    </rdf:RDF>
  </metadata>
  <g
     inkscape:label="Layer 1"
     inkscape:groupmode="layer"
     id="layer1">
    <rect
       style="opacity:1;fill:#83f5f5;fill-opacity:1;fill-rule:evenodd;stroke:none;stroke-width:1;stroke-linecap:butt;stroke-linejoin:miter;marker:none;marker-start:none;marker-mid:none;marker-end:none;stroke-miterlimit:4;stroke-dasharray:none;stroke-dashoffset:0;stroke-opacity:1;visibility:visible;display:inline;overflow:visible;enable-background:accumulate"
       id="rect2429"
       width="928.52991"
       height="714.2442"
       x="-92.836372"
       y="75.240089" />
    <path
       style="fill:#85c666;fill-opacity:1;fill-rule:evenodd;stroke:#000000;stroke-width:1px;stroke-linecap:butt;stroke-linejoin:miter;stroke-opacity:1"
       d="M -132.85714,275.21933 C -128.3304,271.17664 -128.57143,261.48065 -128.57143,252.36218 C -128.57143,243.82107 -124.56685,238.63873 -121.42857,232.36218 C -118.02857,225.56218 -111.2166,222.2562 -105.71429,219.50504 C -99.443501,216.36965 -89.263881,224.67815 -85.714286,223.79075 C -77.396161,221.71122 -78.694428,212.36218 -67.142857,212.36218 C -56.660551,212.36218 -50.693981,229.58626 -55.714286,209.50504 C -60.053444,192.14841 -35.944604,210.70329 -32.857143,213.79075 C -32.2546,214.3933 -27.190111,182.26767 -17.142857,202.36218 C -12.763519,211.12086 2.7782962,189.55235 10,185.21933 C 15.630432,181.84107 25.515671,204.82209 28.571429,210.93361 C 31.904762,217.60028 31.340413,192.74136 38.571429,190.93361 C 49.088251,188.30441 44.378246,228.87463 62.857143,198.07647 C 72.79197,181.51842 81.392803,187.9334 84.285714,199.50504 C 89.192068,219.13045 83.611121,209.20079 92.857143,193.79075 C 101.60271,179.21482 111.63479,207.87523 117.14286,215.21933 C 122.92813,222.93302 127.89631,199.20166 132.85714,190.93361 C 142.23428,175.30505 152.93501,203.94649 155.71429,209.50504 C 156.33354,210.74355 164.23085,197.38962 171.42857,193.79075 C 179.57887,189.71561 187.16259,211.69722 188.57143,215.21933 C 188.81353,215.82457 197.76645,180.75223 207.14286,199.50504 C 218.36078,221.94088 206.52959,205.83259 220,192.36218 C 229.42062,182.94156 237.73436,200.29371 241.42857,205.21933 C 242.401,206.5159 253.23701,172.45306 258.57143,193.79075 C 265.16257,220.15531 271.05404,189.87957 277.14286,183.79075 C 282.62726,178.30635 284.89618,220.83601 292.85714,200.93361 C 297.37697,189.63403 302.03075,166.19945 308.57143,192.36218 C 314.35598,215.50041 321.61778,183.50694 327.14286,175.21933 C 330.20172,170.63104 347.83568,193.05501 350,195.21933 C 356.53787,201.7572 359.17641,178.90005 365.71429,172.36218 C 378.31171,159.76476 379.36891,176.75883 385.71429,185.21933 C 391.80678,193.34265 386.83918,174.42912 395.71429,176.6479 C 401.24802,178.03133 405.71429,211.51961 405.71429,190.93361 C 405.71429,176.12602 421.13575,173.49793 428.57143,180.93361 C 442.57835,194.94053 442.48587,200.24759 448.57143,188.07647 C 454.93271,175.3539 464.71136,189.77903 467.14286,199.50504 C 471.28191,216.06124 481.03238,186.5879 488.57143,180.93361 C 491.42903,178.79041 496.34472,211.73174 508.57143,199.50504 C 520.7638,187.31267 517.9017,170.26388 532.85714,185.21933 C 543.11626,195.47844 542.92143,191.48718 550,173.79075 C 554.5625,162.38449 559.68177,180.29714 564.28571,189.50504 C 566.70708,194.34777 573.56723,160.22017 591.42857,156.6479 C 591.71384,156.59084 605.40021,176.6479 612.85714,176.6479 C 617.70114,176.6479 617.43451,161.00653 628.57143,163.79075 C 640.73738,166.83224 631.92527,182.79735 642.85714,160.93361 C 653.40035,139.84719 663.44884,157.8313 668.57143,168.07647 C 668.81502,168.56365 673.14758,151.50268 680,148.07647 C 687.74147,144.20573 695.98677,168.62144 698.57143,173.79075 C 700.56778,177.78345 705.46608,150.15727 720,153.79075 C 729.29702,156.11501 727.10725,171.83852 732.85714,179.50504 C 733.61381,180.51392 740.28726,147.22241 748.57143,163.79075 C 760.28216,187.21222 756.68675,179.13283 777.14286,163.79075 C 792.23813,152.4693 801.92033,188.96658 805.71429,173.79075 C 812.29752,147.45782 819.29277,161.18346 828.57143,176.6479 C 840.44345,196.4346 842.90702,175.80891 844.28571,172.36218 C 844.30633,172.31065 849.72317,186.09423 857.14286,200.93361 C 857.65856,201.96501 851.81809,188.36861 862.85714,196.6479 C 879.54344,209.16262 895.60216,215.76542 908.57143,235.21933 C 926.32776,261.85382 914.41832,225.15302 931.42857,216.6479 C 938.11106,213.30665 950.32902,244.11977 954.28571,248.07647 C 960.88657,254.67732 960,266.38205 960,275.21933 C 960,286.04497 957.53023,297.30173 954.28571,303.79075 C 951.16478,310.03263 943.43712,318.92506 938.57143,323.79075 C 930.40285,331.95933 910.83187,328.07647 900,328.07647 C 876.20317,328.07647 849.56543,333.79075 824.28571,333.79075 C 802.26936,333.79075 779.44538,335.21933 757.14286,335.21933 C 736.90035,335.21933 717.32095,336.6479 697.14286,336.6479 C 662.29531,336.6479 627.7464,338.07647 592.85714,338.07647 C 559.40253,338.07647 523.75308,342.36218 490,342.36218 C 469.11844,342.36218 458.81827,349.50504 437.14286,349.50504 C 404.36027,349.50504 371.74516,353.79075 338.57143,353.79075 C 285.72087,353.79075 223.46438,344.81216 171.42857,355.21933 C 148.17602,359.86983 122.19277,356.13056 98.571429,359.50504 C 64.928873,364.31112 28.48536,363.79075 -5.7142857,363.79075 C -19.047619,363.79075 -32.380952,363.79075 -45.714286,363.79075 C -69.552881,363.79075 -106.23709,360.67221 -125.71429,350.93361 C -136.97034,345.30558 -151.0634,349.53713 -154.28571,336.6479 C -156.93311,326.05833 -149.36639,314.11346 -147.14286,305.21933 C -145.33465,297.9865 -140.12476,294.2898 -138.57143,288.07647 C -137.06253,282.04088 -134.56756,282.06099 -132.85714,275.21933 z"
       id="path3211" />
    <path
       style="fill:#b88f3d;fill-opacity:1;fill-rule:evenodd;stroke:#000000;stroke-width:1px;stroke-linecap:butt;stroke-linejoin:miter;stroke-opacity:1"
       d="M 17.142857,-21.923532 C 13.122938,-13.883694 10.789522,9.0536199 8.5714286,22.362182 C 3.0246476,55.642868 2.6499237,89.319783 -2.8571429,122.36218 C -5.705037,139.44955 2.2028497,160.81363 -5.7142857,176.6479 C -10.195027,185.60938 -4.2857143,212.02702 -4.2857143,223.79075 C -4.2857143,236.24177 -1.4285714,248.10574 -1.4285714,260.93361 C -1.4285714,274.67536 7.1428571,286.833 7.1428571,300.93361 C 7.1428571,310.92908 7.7410925,320.46941 10,329.50504 C 12.61047,339.94692 14.285714,348.42861 14.285714,359.50504 C 14.285714,366.3289 18.031337,372.71057 20,376.6479 C 24.52481,385.69752 24.530728,387.65807 34.285714,385.21933 C 42.460282,383.17568 49.849023,382.04627 58.571429,383.79075 C 78.189617,387.71439 78.652161,381.09508 71.428571,366.6479 C 67.14039,358.07153 65.182791,345.95049 62.857143,336.6479 C 60.02497,325.3192 61.428571,312.67378 61.428571,300.93361 C 61.428571,287.60028 61.428571,274.26694 61.428571,260.93361 C 61.428571,247.63665 62.449858,235.52325 67.142857,223.79075 C 73.990846,206.67078 80.129592,189.89535 87.142857,172.36218 C 93.887789,155.49985 99.13864,138.37062 107.14286,122.36218 C 112.96734,110.71321 120.25598,95.293673 124.28571,85.219325 C 129.09705,73.190978 134.90091,71.241209 122.85714,65.219325 C 113.87072,60.726112 108.09447,57.60182 102.85714,68.076468 C 98.121467,77.547819 92.447501,85.429321 90,95.219325 C 87.096855,106.8319 79.639079,115.59536 77.142857,128.07647 C 74.691994,140.33078 65.243116,149.00375 62.857143,160.93361 C 60.948647,170.47609 57.893065,177.93278 55.714286,186.6479 C 53.895757,193.92201 48.337032,201.4024 45.714286,206.6479 C 41.8344,214.40767 39.085824,220.3046 37.142857,228.07647 C 35.859988,233.20795 33.613033,240.76719 32.857143,243.79075 C 30.295104,254.03891 24.285714,234.95089 24.285714,230.93361 C 24.285714,224.58389 25.599733,214.24897 27.142857,208.07647 C 28.772291,201.55873 28.571429,191.53473 28.571429,185.21933 C 28.571429,176.09568 27.940255,166.31545 30,158.07647 C 33.552265,143.86741 30.279236,128.80695 35.714286,115.21932 C 40.593983,103.02008 39.719453,87.770084 42.857143,75.219325 C 45.297948,65.456103 45.714286,55.471233 45.714286,45.219325 C 45.714286,35.923972 45.447015,26.555676 47.142857,18.076468 C 48.5382,11.099754 47.283167,1.4948497 45.714286,-4.7806751 C 43.863412,-12.18417 38.741474,-15.724569 34.285714,-19.066389 C 29.728291,-22.484457 22.557987,-23.006558 17.142857,-21.923532 z"
       id="path2437" />
    <path
       style="fill:#29ac35;fill-opacity:1;fill-rule:evenodd;stroke:#000000;stroke-width:1px;stroke-linecap:butt;stroke-linejoin:miter;stroke-opacity:1"
       d="M 508.57143,18.076468 C 516.04777,25.55281 486.95978,18.435415 477.14286,22.362182 C 468.9312,25.646844 464.28571,44.852418 464.28571,52.362182 C 464.28571,63.386098 474.74882,77.709509 482.85714,83.790754 C 489.93686,89.10054 498.51745,92.351386 505.71429,93.790754 C 523.22511,97.292918 511.42857,100.27683 511.42857,120.93361 C 511.42857,130.65422 521.28036,141.57379 528.57143,145.21932 C 535.39378,148.6305 551.31117,148.09995 558.57143,146.6479 C 563.60056,145.64207 568.26987,143.22725 572.85714,140.93361 C 580.77967,136.97235 579.97824,160.21389 588.57143,162.36218 C 612.2372,168.27862 698.4617,187.08683 704.28571,163.79075 C 709.44482,143.15432 718.57143,145.93975 718.57143,165.21933 C 718.57143,177.20873 734.13916,184.4684 742.85714,186.6479 C 758.59494,190.58235 778.40798,183.03168 791.42857,175.21933 C 803.75096,167.82589 791.35797,153.64955 805.71429,182.36218 C 823.47136,217.87633 856.54435,215.21933 885.71429,215.21933 C 912.28341,215.21933 901.38957,192.51817 905.71429,175.21933 C 909.77426,158.97942 891.51102,139.50504 910,139.50504 C 928.75413,139.50504 929.8126,121.6126 925.71429,105.21932 C 920.73624,85.307125 918.87463,60.483464 898.57143,52.362182 C 879.6769,44.804369 849.12464,42.040033 840,23.790754 C 828.97007,1.7308859 800.56942,-20.494961 775.71429,-20.494961 C 760.94098,-20.494961 741.24176,-14.640567 730,-6.2092465 C 703.17242,13.911439 735.90922,-6.5338663 690,-26.209247 C 674.32276,-32.928063 609.1898,-66.017414 597.14286,-41.923532 C 592.53283,-32.703468 575.37413,-25.358863 570,-11.923532 C 569.99272,-11.905337 542.52585,-17.219585 532.85714,-13.352104 C 523.9702,-9.7973246 522.04817,1.1229865 518.57143,8.0764678 C 514.96133,15.296672 519.3314,20.228462 508.57143,18.076468 z"
       id="path2435" />
    <path
       style="fill:#439945;fill-opacity:1;fill-rule:evenodd;stroke:#000000;stroke-width:1px;stroke-linecap:butt;stroke-linejoin:miter;stroke-opacity:1"
       d="M -124.28571,408.07647 C -124.28571,399.01633 -125.71429,426.15918 -125.71429,435.21933 C -125.71429,457.02052 -125.71429,479.30193 -125.71429,500.93361 C -125.71429,514.6458 -128.47023,528.58245 -125.71429,542.36218 C -123.59479,552.95969 -127.14286,568.07682 -127.14286,579.50504 C -127.14286,591.31412 -127.15143,605.25361 -130,616.6479 C -132.6333,627.18111 -131.42857,644.50454 -131.42857,655.21933 C -131.42857,665.76787 -132.85714,675.88623 -132.85714,686.6479 C -132.85714,695.69552 -132.85714,704.74313 -132.85714,713.79075 C -132.85714,729.61388 -131.42857,744.98813 -131.42857,760.93361 C -131.42857,768.55266 -131.42857,776.17171 -131.42857,783.79075 C -131.42857,794.83877 -128.02687,798.82614 -125.71429,808.07647 C -123.53472,816.79475 -93.651309,813.91763 -87.142857,815.21933 C -84.761905,815.69552 -82.380952,816.17171 -80,816.6479 C -64.834306,819.68104 -45.504228,818.07647 -30,818.07647 C -12.857143,818.07647 4.2857143,818.07647 21.428571,818.07647 C 42.380952,818.07647 63.333333,818.07647 84.285714,818.07647 C 103.99663,818.07647 123.17535,819.50504 142.85714,819.50504 C 176.66667,819.50504 210.47619,819.50504 244.28571,819.50504 C 260,819.50504 275.71429,819.50504 291.42857,819.50504 C 293.80952,819.50504 296.19048,819.50504 298.57143,819.50504 C 322.38095,819.50504 346.19048,819.50504 370,819.50504 C 410.99535,819.50504 450.54964,822.36218 491.42857,822.36218 C 542.838,822.36218 593.31583,825.21933 644.28571,825.21933 C 669.52381,825.21933 694.76191,825.21933 720,825.21933 C 742.74869,825.21933 765.71516,826.6479 788.57143,826.6479 C 800.47629,826.6479 812.89213,827.49804 824.28571,825.21933 C 831.23999,823.82847 840.03076,825.21933 847.14286,825.21933 C 851.96797,825.21933 850,805.86645 850,800.93361 C 850,786.08479 857.14286,775.55121 857.14286,762.36218 C 857.14286,748.75561 858.89264,737.89896 861.42857,725.21933 C 864.53246,709.69991 864.28571,693.99302 864.28571,678.07647 C 864.28571,659.79128 864.28571,642.53991 864.28571,623.79075 C 864.28571,606.75506 865.60378,588.84201 862.85714,572.36218 C 860.90853,560.67048 844.07496,563.41594 851.42857,526.6479 C 854.93043,509.13859 849.33786,489.95858 852.85714,472.36218 C 855.83661,457.46482 854.28571,437.4466 854.28571,422.36218 C 854.28571,410.15492 855.71429,398.5049 855.71429,386.6479 C 855.71429,374.0469 855.03392,373.18986 842.85714,375.21933 C 817.64499,379.42135 795.55528,390.93361 770,390.93361 C 751.53368,390.93361 733.8184,392.36218 715.71429,392.36218 C 680,392.36218 644.28571,392.36218 608.57143,392.36218 C 589.04762,392.36218 569.52381,392.36218 550,392.36218 C 534.28571,392.36218 518.57143,392.36218 502.85714,392.36218 C 490,392.36218 477.14286,392.36218 464.28571,392.36218 C 448.89626,392.36218 431.5422,393.81348 417.14286,390.93361 C 405.0372,388.51248 389.43265,390.93361 377.14286,390.93361 C 366.19048,390.93361 355.2381,390.93361 344.28571,390.93361 C 330.47619,390.93361 316.66667,390.93361 302.85714,390.93361 C 290,390.93361 277.14286,390.93361 264.28571,390.93361 C 244.02549,390.93361 224.56287,389.50504 204.28571,389.50504 C 193.80952,389.50504 183.33333,389.50504 172.85714,389.50504 C 159.52381,389.50504 146.19048,389.50504 132.85714,389.50504 C 117.4013,389.50504 102.37576,390.93361 87.142857,390.93361 C 71.572004,390.93361 57.056266,392.36218 41.428571,392.36218 C 25.091404,392.36218 9.4589367,393.79075 -7.1428571,393.79075 C -19.89693,393.79075 -32.602029,395.21933 -45.714286,395.21933 C -57.241561,395.21933 -70.226673,395.83609 -81.428571,398.07647 C -90.769841,399.94472 -102.11887,399.50504 -111.42857,399.50504 C -122.79623,399.50504 -123.08827,408.47562 -132.85714,405.21933 C -135.71429,404.26694 -127.14286,407.12409 -124.28571,408.07647 z"
       id="path3215" />
    <path
       style="fill:#b88f3d;fill-opacity:1;fill-rule:evenodd;stroke:#000000;stroke-width:1px;stroke-linecap:butt;stroke-linejoin:miter;stroke-opacity:1;opacity:1;color:#000000;marker:none;marker-start:none;marker-mid:none;marker-end:none;stroke-miterlimit:4;stroke-dasharray:none;stroke-dashoffset:0;visibility:visible;display:inline;overflow:visible;enable-background:accumulate"
       d="M 677.14286,382.36218 C 674.38208,380.2916 671.82946,359.68001 670,352.36218 C 668.05141,344.56783 668.57143,336.33557 668.57143,328.07647 C 668.57143,314.87132 665.71429,302.61431 665.71429,289.50504 C 665.71429,274.03735 659.66183,260.25727 652.85714,246.6479 C 647.06045,235.05451 641.00945,221.69513 638.57143,209.50504 C 635.28992,193.09749 624.71821,178.81035 621.42857,162.36218 C 620.95238,159.98123 620.47619,157.60028 620,155.21933 C 617.79797,144.2092 615.46393,134.21789 612.85714,123.79075 C 610.56205,114.61037 611.42857,103.49216 611.42857,93.790754 C 611.42857,81.068984 614.36893,72.528604 622.85714,89.505039 C 626.76931,97.329363 630.84342,104.3073 632.85714,112.36218 C 635.44171,122.70044 638.76818,131.72062 641.42857,142.36218 C 641.90476,144.26694 642.38095,146.17171 642.85714,148.07647 C 645.75554,159.67004 651.33473,170.55825 654.28571,182.36218 C 656.89822,192.81221 659.28085,203.05216 661.42857,213.79075 C 663.34309,223.36334 665.87392,231.25288 670,239.50504 C 675.47499,250.45502 672.85714,253.7436 672.85714,236.6479 C 672.85714,223.31456 672.85714,209.98123 672.85714,196.6479 C 672.85714,183.34137 681.03094,166.80984 684.28571,153.79075 C 684.76191,151.88599 685.2381,149.98123 685.71429,148.07647 C 688.73304,136.00144 695.76618,125.11553 701.42857,113.79075 C 704.84773,106.95244 706.0065,99.797253 712.85714,106.6479 C 720.4766,114.26736 715.97079,129.65111 714.28571,138.07647 C 711.83179,150.34607 711.21168,162.79597 705.71429,173.79075 C 700.80187,183.61559 703.50783,199.10876 701.42857,209.50504 C 699.58803,218.70777 700.83395,229.02637 698.57143,238.07647 C 693.04929,260.16501 698.0708,244.43804 700,230.93361 C 701.69859,219.04347 713.05407,209.72701 717.14286,199.50504 C 724.32833,181.54136 746.04754,170.69591 750,150.93361 C 751.25953,144.63595 765.766,129.45332 770,125.21932 C 778.04733,117.17199 782.53423,113.46784 788.57143,119.50504 C 791.78024,122.71385 776.51208,150.7666 774.28571,155.21933 C 767.6851,168.42055 757.96135,179.60166 752.85714,192.36218 C 747.50217,205.74962 739.19729,218.43019 735.71429,232.36218 C 732.085,246.87933 723.6117,259.34394 720,273.79075 C 716.73911,286.83432 709.78658,297.71499 707.14286,310.93361 C 704.7497,322.89939 699.33106,332.84973 697.14286,343.79075 C 695.4907,352.05155 693.29004,357.77343 691.42857,365.21933 C 689.13832,374.38031 690.91397,377.1625 684.28571,383.79075 C 682.56879,385.50768 679.52381,382.83837 677.14286,382.36218 z"
       id="path2439" />
    <path
       style="fill:#439945;fill-opacity:1;fill-rule:evenodd;stroke:#000000;stroke-width:1px;stroke-linecap:butt;stroke-linejoin:miter;stroke-opacity:1"
       d="M -178.57143,313.79075 C -177.10195,307.91284 -170,299.7052 -170,288.07647 C -170,277.13131 -165.53462,271.64935 -158.57143,280.93361 C -149.46888,293.07035 -142.25053,269.72038 -141.42857,268.07647 C -138.95822,263.13577 -140.40223,298.4787 -130,288.07647 C -117.4923,275.56876 -102.85714,178.48421 -102.85714,236.6479 C -102.85714,243.16705 -88.571429,321.76298 -88.571429,286.6479 C -88.571429,276.94482 -86.702114,237.52938 -78.571429,253.79075 C -60.704046,289.52552 -76.674223,296.67057 -62.857143,255.21933 C -47.841445,210.17223 -54.132917,241.392 -45.714286,266.6479 C -44.903363,269.08067 -43.809524,271.4098 -42.857143,273.79075 C -38.469901,284.75886 -33.868749,253.09581 -30,246.6479 C -27.255296,242.07339 -33.750472,271.46885 -20,285.21933 C -17.591891,287.62743 -8.8002974,318.99194 -4.2857143,300.93361 C 6.5440052,257.61473 -3.3885272,245.95093 7.1428571,288.07647 C 11.629494,306.02301 38.604742,255.1527 41.428571,249.50504 C 46.769552,238.82308 44.285714,273.27653 44.285714,285.21933 C 44.285714,338.43211 75.201393,289.54908 87.142857,275.21933 C 96.862128,263.5562 96.846426,293.19789 100,299.50504 C 111.52582,322.55669 121.42857,185.65964 121.42857,273.79075 C 121.42857,344.38743 121.48619,316.56146 141.42857,286.6479 C 165.45853,250.60296 159.48047,276.77765 168.57143,299.50504 C 173.19188,311.05618 200.16024,244.59193 204.28571,265.21933 C 204.85378,268.05963 205.2381,270.93361 205.71429,273.79075 C 211.59182,309.05593 222.85505,273.796 228.57143,259.50504 C 230.91922,253.63555 239.55667,272.36218 247.14286,272.36218 C 263.18624,272.36218 252.04644,289.69788 267.14286,259.50504 C 274.16452,245.46171 275.70488,280.89599 277.14286,286.6479 C 277.21356,286.93071 276.78949,243.80587 285.71429,279.50504 C 289.29135,293.8133 297.96591,263.16955 298.57143,262.36218 C 298.68854,262.20604 297.24793,295.00918 302.85714,283.79075 C 303.80952,281.88599 304.7619,279.98123 305.71429,278.07647 C 319.23414,251.03677 314.59063,287.86756 317.14286,298.07647 C 317.9464,301.29062 317.8535,281.65884 324.28571,262.36218 C 339.75113,215.96595 337.14286,253.69755 337.14286,276.6479 C 337.14286,281.30797 360.34186,248.0887 365.71429,243.79075 C 365.8689,243.66706 365.85314,278.81076 364.28571,286.6479 C 362.44617,295.84561 371.51948,269.32322 375.71429,260.93361 C 378.61084,255.1405 379.52381,248.55266 381.42857,242.36218 C 388.10737,220.65607 375.81834,267.45212 374.28571,276.6479 C 373.99637,278.38395 358.64791,316.57141 372.85714,302.36218 C 389.60039,285.61894 381.52386,271.41004 387.14286,299.50504 C 391.69503,322.26593 405.08778,269.86419 412.85714,259.50504 C 414.1349,257.80137 414.7619,255.69552 415.71429,253.79075 C 417.47451,250.27031 414.93983,275.58037 411.42857,296.6479 C 410.65506,301.28898 425.99781,268.65446 434.28571,243.79075 C 451.88119,191.00434 447.14286,262.43717 447.14286,275.21933 C 447.14286,295.91542 461.70877,257.60947 465.71429,250.93361 C 471.94146,240.55499 466.53071,295.83076 462.85714,325.21933 C 462.40664,328.82336 470.93234,303.50002 485.71429,283.79075 C 501.46311,262.79232 481.62269,320.35124 492.85714,286.6479 C 512.43284,227.92081 510,230.74855 510,286.6479 C 510,289.50504 510,292.36218 510,295.21933 C 510,298.44189 535.32098,267.18584 541.42857,236.6479 C 543.40964,226.74254 537.14286,256.54637 537.14286,266.6479 C 537.14286,310.25086 541.43351,281.87448 552.85714,255.21933 C 569.57226,216.21738 564.28571,262.40757 564.28571,279.50504 C 564.28571,289.1354 565.92577,260.19343 568.57143,250.93361 C 587.88881,183.32278 590,181.24248 590,246.6479 C 590,288.10028 599.86341,265.62911 605.71429,248.07647 C 616.87591,214.59158 613.56935,258.80116 611.42857,269.50504 C 607.55966,288.84959 624.69305,242.77242 627.14286,236.6479 C 627.35474,236.11818 627.14286,252.28426 627.14286,275.21933 C 627.14286,327.02867 627.4395,258.86335 647.14286,235.21933 C 656.85636,223.56313 654.28571,258.77856 654.28571,272.36218 C 654.28571,295.68368 668.12145,261.1586 680,255.21933 C 695.97665,247.231 692.85714,267.28533 692.85714,286.6479 C 692.85714,311.21274 715.31305,264.19199 717.14286,262.36218 C 722.86706,256.63798 717.14286,278.55266 717.14286,286.6479 C 717.14286,354.1484 726.62251,244.8953 741.42857,233.79075 C 746.15778,230.24384 736.30876,261.08223 752.85714,265.21933 C 758.45322,266.61834 762.85714,222.42906 762.85714,262.36218 C 762.85714,296.61708 765.78075,283.65783 777.14286,260.93361 C 779.04762,257.12409 780.95238,253.31456 782.85714,249.50504 C 783.82439,247.57055 784.28571,296.07746 784.28571,296.6479 C 784.28571,305.68298 790,279.50504 792.85714,270.93361 C 794.61969,265.64597 796.66667,260.45742 798.57143,255.21933 C 806.39533,233.7036 803.51794,309.95186 805.71429,320.93361 C 807.81293,331.42685 812.3572,300.50492 817.14286,290.93361 C 844.50211,236.2151 840.12039,260.2274 845.71429,293.79075 C 845.97569,295.35917 862.85714,226.20086 862.85714,258.07647 C 862.85714,288.62741 855.44079,289.77854 875.71429,269.50504 C 892.23495,252.98437 898.57143,252.19954 898.57143,272.36218 C 898.57143,283.77316 899.24618,292.20404 901.42857,300.93361 C 904.28201,312.34735 907.14286,317.95881 907.14286,330.93361 C 907.14286,342.14916 906.81303,343.68098 897.14286,350.93361 C 889.47487,356.6846 873.62182,353.79075 864.28571,353.79075 C 848.08551,353.79075 830.8672,355.21933 814.28571,355.21933 C 801.27707,355.21933 789.54569,356.6479 777.14286,356.6479 C 756.66667,356.6479 736.19048,356.6479 715.71429,356.6479 C 697.82952,356.6479 680.31985,358.07647 662.85714,358.07647 C 643.11181,358.07647 624.05046,359.50504 604.28571,359.50504 C 565.29532,359.50504 527.44899,362.36218 488.57143,362.36218 C 462.66811,362.36218 430.86375,357.50339 405.71429,363.79075 C 376.76258,371.02868 342.41722,362.95289 312.85714,366.6479 C 290.92531,369.38938 267.95989,368.07647 245.71429,368.07647 C 224.16786,368.07647 201.89411,369.50504 180,369.50504 C 144.28571,369.50504 108.57143,369.50504 72.857143,369.50504 C 55.399863,369.50504 37.742983,368.07647 20,368.07647 C 7.2945419,368.07647 -7.7455986,366.6479 -21.428571,366.6479 C -30.952381,366.6479 -40.47619,366.6479 -50,366.6479 C -63.092712,366.6479 -76.465431,365.21933 -90,365.21933 C -102.85714,365.21933 -115.71429,365.21933 -128.57143,365.21933 C -136.91433,365.21933 -147.71844,361.504 -155.71429,359.50504 C -165.32907,357.10134 -168.25178,358.39612 -175.71429,350.93361 C -181.38547,345.26243 -182.85714,340.60608 -182.85714,332.36218 C -182.85714,323.53287 -181.92618,322.17764 -178.57143,313.79075 z"
       id="path3213" />
    <path
       style="fill:#83f58e;fill-opacity:1;fill-rule:evenodd;stroke:#000000;stroke-width:1px;stroke-linecap:butt;stroke-linejoin:miter;stroke-opacity:1"
       d="M -191.42857,429.50504 C -176.49165,430.37408 -150.87741,425.21933 -131.42857,425.21933 C -102.45051,425.21933 -73.956349,416.6479 -44.285714,416.6479 C 7.2695326,416.6479 58.165949,413.79075 110,413.79075 C 161.5678,413.79075 213.93841,409.50504 265.71429,409.50504 C 336.19048,409.50504 406.66667,409.50504 477.14286,409.50504 C 551.90476,409.50504 626.66667,409.50504 701.42857,409.50504 C 780.23892,409.50504 859.46227,406.6479 938.57143,406.6479 C 961.72552,406.6479 960.09376,411.26175 954.28571,390.93361 C 951.59724,381.52393 944.91501,379.16506 942.85714,370.93361 C 940.74334,362.47841 943.43134,356.36771 938.57143,346.6479 C 932.95589,335.41682 919.44598,333.35348 910,338.07647 C 901.03843,342.55725 899.96108,327.05922 892.85714,315.21933 C 887.94431,307.03126 876.13714,305.21933 867.14286,305.21933 C 853.69674,305.21933 833.723,315.9985 827.14286,320.93361 C 820.9414,325.5847 817.48173,308.63328 811.42857,303.79075 C 802.24474,296.44369 789.49128,295.30155 778.57143,290.93361 C 776.86397,290.25063 782.68477,304.37576 768.57143,293.79075 C 747.94226,278.31888 712.88857,268.07647 692.85714,268.07647 C 690.95238,268.07647 696.66667,268.07647 698.57143,268.07647 C 710.41588,268.07647 685.16211,294.43919 680,273.79075 C 676.99165,261.75733 629.46169,222.90049 602.85714,249.50504 C 593.61452,258.74766 582.84067,272.39514 577.14286,283.79075 C 576.70876,284.65895 560.14637,269.2486 547.14286,266.6479 C 542.26849,265.67302 521.99205,303.51564 518.57143,308.07647 C 508.89173,320.98273 530.24882,309.62945 498.57143,293.79075 C 482.73767,285.87388 445.29901,269.73756 438.57143,296.6479 C 432.21324,322.08064 439.7778,310.71141 425.71429,296.6479 C 408.00237,278.93598 360.65191,295.15226 348.57143,305.21933 C 334.51399,316.93386 349.2554,332.64354 340,309.50504 C 332.13697,289.84748 311.04121,283.2968 294.28571,286.6479 C 284.03421,288.6982 283.95024,304.82607 278.57143,313.79075 C 274.74444,320.16907 270.47478,300.77394 264.28571,296.6479 C 241.8294,281.67702 215.05474,275.71398 192.85714,292.36218 C 178.61424,303.04436 183.25988,326.94044 175.71429,308.07647 C 168.83023,290.86632 124.61557,276.31804 110,290.93361 C 99.675799,301.25781 88.998327,328.42943 81.428571,309.50504 C 75.384277,294.3943 53.333143,276.1719 40,289.50504 C 28.327564,301.17747 13.639975,324.14309 5.7142857,310.93361 C -4.6784762,293.61234 -29.253042,257.15911 -51.428571,273.79075 C -67.416713,285.78186 -81.301267,313.53614 -90,330.93361 C -94.36955,339.67271 -102.18351,315.36741 -110,309.50504 C -141.23621,286.07788 -143.11403,270.01881 -160,303.79075 C -161.34687,306.48449 -161.90476,309.50504 -162.85714,312.36218 C -168.80103,330.19385 -177.05747,310.9763 -194.28571,302.36218 C -203.93882,297.53563 -207.82122,318.00462 -210,322.36218 C -214.28911,330.94041 -212.25395,350.48923 -210,359.50504 C -207.70364,368.69049 -205.75014,373.71904 -201.42857,382.36218 C -198.65578,387.90777 -198.32696,397.62576 -197.14286,402.36218 C -194.62216,412.44497 -195.49729,419.33323 -191.42857,429.50504 z"
       id="path2431" />
    <path
       style="fill:#29ac35;fill-opacity:1;fill-rule:evenodd;stroke:#000000;stroke-width:1px;stroke-linecap:butt;stroke-linejoin:miter;stroke-opacity:1;opacity:1;color:#000000;marker:none;marker-start:none;marker-mid:none;marker-end:none;stroke-miterlimit:4;stroke-dasharray:none;stroke-dashoffset:0;visibility:visible;display:inline;overflow:visible;enable-background:accumulate"
       d="M -124.28571,95.219325 C -122.55557,102.13991 -117.97093,113.56318 -112.85714,123.79075 C -108.59424,132.31657 -101.93426,134.25219 -94.285714,138.07647 C -87.247706,141.59547 -78.017073,142.36218 -70,142.36218 C -69.382778,142.36218 -63.383092,173.2648 -52.857143,183.79075 C -45.822704,190.82519 -30.475357,191.9814 -21.428571,193.79075 C -13.755153,195.32544 2.7851408,181.22162 4.2857143,175.21933 C 4.8211521,173.07757 17.603763,196.40598 30,199.50504 C 44.510967,203.13278 65.399525,197.55415 78.571429,193.79075 C 101.12329,187.34736 64.227049,160.90428 95.714286,176.6479 C 118.32859,187.95505 143.0643,193.66646 164.28571,180.93361 C 180.57242,171.16158 180.84602,162.34364 171.42857,146.6479 C 170.58726,145.24572 192.3815,161.40966 211.42857,156.6479 C 223.12138,153.7247 244.28571,148.32711 244.28571,135.21932 C 244.28571,110.98195 224.7411,110.93361 260,110.93361 C 275.01369,110.93361 274.72197,94.466639 277.14286,82.362182 C 280.52033,65.474822 269.36353,54.101998 265.71429,39.505039 C 262.33549,25.989842 220.64984,15.91213 210,12.362182 C 166.6947,-2.0729169 118.18061,2.3621821 72.857143,2.3621821 C 51.26262,2.3621821 27.757903,0.065563381 7.1428571,5.2193249 C -13.365223,10.346345 4.9857286,11.633625 -14.285714,-7.6378179 C -38.37656,-31.728663 -60.046595,-10.940088 -80,2.3621821 C -101.32621,16.579656 -136.42232,35.902342 -141.42857,60.933611 C -143.91035,73.342488 -143.59479,87.338823 -135.71429,95.219325 C -132.68601,98.247602 -128.15737,95.993657 -124.28571,95.219325 z"
       id="path2433" />
    <rect
       style="opacity:1;fill:none;fill-opacity:1;fill-rule:evenodd;stroke:#000000;stroke-width:0.60846859px;stroke-linecap:butt;stroke-linejoin:miter;marker:none;marker-start:none;marker-mid:none;marker-end:none;stroke-miterlimit:4;stroke-dasharray:none;stroke-dashoffset:0;stroke-opacity:1;visibility:visible;display:inline;overflow:visible;enable-background:accumulate"
       id="rect4845"
       width="423.24866"
       height="443.24872"
       x="12.661369"
       y="76.452118"
       inkscape:export-filename="/home/james/src/ohr/games/baconthulhu/media/storyboard/scene2.png"
       inkscape:export-xdpi="36.498226"
       inkscape:export-ydpi="36.498226" />
    <g
       id="g2566"
       inkscape:label="Layer 1"
       transform="matrix(0.5459048,0,0,0.5459048,45.120322,114.03205)">
      <g
         id="g3221">
        <path
           style="opacity:1;fill:#ea8f00;fill-opacity:1;fill-rule:evenodd;stroke:#000000;stroke-width:3;stroke-linecap:butt;stroke-linejoin:miter;marker:none;marker-start:none;marker-mid:none;marker-end:none;stroke-miterlimit:4;stroke-dasharray:none;stroke-dashoffset:0;stroke-opacity:1;visibility:visible;display:inline;overflow:visible;enable-background:accumulate"
           d="M 213.93312,487.64167 C 213.93312,480.50979 221.47442,499.90209 226.51742,504.94508 C 233.49941,511.92707 235.08894,516.66268 240.67476,522.2485 C 246.65129,528.22502 248.72317,531.86995 253.25906,536.40584 C 259.7244,542.87118 263.84993,545.42366 268.98944,550.56317 C 272.73939,554.31313 279.29748,558.64582 284.71981,560.0014 C 290.81871,561.52612 297.50701,567.52405 305.1693,569.43963 C 311.27825,570.96686 319.18291,572.54977 325.61879,574.15874 C 334.44718,576.36584 337.5495,569.17377 339.77613,564.72051 C 342.63812,558.99654 342.82823,550.18727 341.34917,544.27102 C 340.32669,540.18111 329.43057,534.37913 327.19183,533.25976 C 318.99087,529.15928 313.70439,525.95531 305.1693,523.82153 C 298.23207,522.08723 291.32232,520.04412 286.29285,517.52938 C 279.70571,514.23582 271.0612,510.96866 265.84336,509.6642 C 258.55148,507.84123 252.83466,506.51812 245.39387,506.51812 C 239.60152,506.51812 232.87507,500.66836 228.09046,497.07989 C 222.704,493.04005 221.24132,492.02659 213.93312,487.64167 z"
           id="path3195" />
        <path
           style="opacity:1;fill:#ea8f00;fill-opacity:1;fill-rule:evenodd;stroke:#000000;stroke-width:3;stroke-linecap:butt;stroke-linejoin:miter;marker:none;marker-start:none;marker-mid:none;marker-end:none;stroke-miterlimit:4;stroke-dasharray:none;stroke-dashoffset:0;stroke-opacity:1;visibility:visible;display:inline;overflow:visible;enable-background:accumulate"
           d="M 110.11263,602.47342 C 108.34133,609.55865 96.195409,607.07247 89.663146,610.33861 C 79.077697,615.63133 79.891243,612.14997 81.797957,619.77683 C 82.926087,624.28935 97.929616,626.56256 102.24745,627.64202 C 109.54476,629.46635 116.87018,629.49197 124.26997,627.64202 C 133.04919,625.44721 128.05522,614.46833 127.41605,611.91164 C 125.47623,604.15238 119.97031,604.44495 110.11263,602.47342 z"
           id="path3191" />
        <path
           style="opacity:1;fill:#ea8f00;fill-opacity:1;fill-rule:evenodd;stroke:#000000;stroke-width:3;stroke-linecap:butt;stroke-linejoin:miter;marker:none;marker-start:none;marker-mid:none;marker-end:none;stroke-miterlimit:4;stroke-dasharray:none;stroke-dashoffset:0;stroke-opacity:1;visibility:visible;display:inline;overflow:visible;enable-background:accumulate"
           d="M 176.18022,418.42801 C 174.35938,411.14468 168.56282,431.59417 166.74199,438.8775 C 164.83696,446.49763 162.2734,448.88669 160.44984,456.18092 C 158.93358,462.24594 152.88175,471.31709 151.01161,475.05737 C 147.63807,481.80445 145.94997,491.47281 143.14643,497.07989 C 139.39703,504.57869 136.76125,511.60931 135.28124,517.52938 C 133.50441,524.63669 129.05441,529.85238 127.41605,536.40584 C 125.39614,544.48546 122.63083,550.82758 121.1239,556.85533 C 119.08819,564.99816 118.37806,572.55781 116.40479,580.45089 C 114.38168,588.54329 113.25871,594.01998 113.25871,602.47342 C 113.25871,612.66292 116.18739,616.19597 119.55086,622.92291 C 123.23507,630.29132 121.43369,634.24397 127.41605,640.22632 C 133.61125,646.42152 134.22608,648.35045 143.14643,652.81062 C 149.54888,656.01185 154.0159,657.10103 162.02288,659.10277 C 169.22889,660.90428 177.4712,660.67581 185.61844,660.67581 C 193.48363,660.67581 201.34882,660.67581 209.21401,660.67581 C 219.14225,660.67581 224.10297,657.95044 231.23653,654.38366 C 237.64831,651.17777 241.55338,644.76122 243.82083,640.22632 C 246.75308,634.36183 245.37208,624.58311 246.96691,618.20379 C 248.8846,610.53305 246.6947,601.98921 248.53995,594.60823 C 250.25482,587.74875 248.53995,578.12509 248.53995,571.01266 C 248.53995,563.12645 247.2076,554.672 245.39387,547.4171 C 243.81116,541.08625 241.06373,534.81564 239.10172,526.96761 C 237.34958,519.95905 236.39868,514.58241 234.38261,506.51812 C 232.65443,499.6054 230.38413,493.37586 228.09046,487.64167 C 225.41655,480.95691 222.8437,472.42905 220.22527,467.19218 C 217.70216,462.14595 215.27335,455.24968 213.93312,449.88877 C 211.87205,441.64449 209.50679,436.90256 207.64097,429.43928 C 205.96843,422.74911 200.35483,415.86099 196.62971,412.13586 C 191.2394,406.74555 188.16417,406.9304 180.89933,410.56282 C 178.16468,411.93015 177.75325,415.80628 176.18022,418.42801 z"
           id="path3179" />
        <path
           style="opacity:1;fill:#ff0017;fill-opacity:1;fill-rule:evenodd;stroke:#000000;stroke-width:3;stroke-linecap:butt;stroke-linejoin:miter;marker:none;marker-start:none;marker-mid:none;marker-end:none;stroke-miterlimit:4;stroke-dasharray:none;stroke-dashoffset:0;stroke-opacity:1;visibility:visible;display:inline;overflow:visible;enable-background:accumulate"
           d="M 206.06793,420.00104 C 200.00437,421.86667 194.75667,417.22636 189.27118,415.51304 C 183.24854,413.44384 177.00212,411.63145 171.78797,407.83695 C 167.20663,405.45823 162.48267,402.33664 160.77616,397.18257 C 158.60211,391.77696 157.25997,386.07391 155.32262,380.59102 C 153.43178,372.23482 153.53625,363.21494 156.36312,355.09206 C 159.571,347.5205 166.93489,342.20716 174.93422,340.7564 C 182.80494,338.2309 190.58169,332.82617 199.20704,334.94559 C 206.68734,335.91313 214.41463,334.27734 221.77928,336.2314 C 223.57739,337.86522 220.71319,341.6181 220.47131,344.07899 C 215.17745,360.50652 207.54998,376.20211 203.94659,393.1536 C 202.90776,402.15089 204.46829,411.1675 206.06793,420.00104 z"
           id="path3181" />
        <path
           style="fill:#ea8f00;fill-opacity:1;fill-rule:evenodd;stroke:#000000;stroke-width:3;stroke-linecap:butt;stroke-linejoin:miter;stroke-miterlimit:4;stroke-dasharray:none;stroke-opacity:1"
           d="M 405.84372,358.65259 C 420.50239,364.7566 434.39971,373.25488 446.87543,382.97323 C 465.21993,398.72107 477.72994,422.72858 473.77726,447.3618 C 470.40879,480.04128 452.5171,514.00756 420.18005,525.83847 C 401.72784,530.77072 383.60911,539.02066 364.18643,538.18376 C 343.66106,536.8027 322.27215,541.30071 302.74959,532.60934 C 285.63298,528.02185 271.18241,518.18512 257.97817,506.51812 C 244.64528,496.37431 234.35542,483.08997 227.34776,467.9861 C 213.21294,443.35583 201.48785,415.52244 202.30731,386.64372 C 203.39199,373.32727 205.90756,359.48809 214.45296,348.83416 C 220.57889,331.75319 189.12711,335.09662 179.88862,340.01556 C 159.53641,346.17757 152.79176,369.26299 159.15047,387.93519 C 163.84947,406.35496 183.02751,415.4484 199.59202,420.91299 C 214.05662,422.37163 188.66628,423.0741 184.08121,421.88845 C 162.36633,414.61746 143.82068,394.26684 141.64073,371.08329 C 142.10422,352.79747 152.72015,334.8812 166.49475,323.20491 C 181.93911,314.02525 200.88974,314.93043 218.29699,314.16215 C 235.91208,313.51668 253.61454,314.47313 270.55698,319.7535 C 295.15838,325.79766 320.22691,330.41181 344.14247,338.84399 C 365.21598,343.6146 386.79168,348.00223 405.84372,358.65259 z"
           id="path3161" />
        <path
           style="opacity:1;fill:#ea8f00;fill-opacity:1;fill-rule:evenodd;stroke:#000000;stroke-width:3;stroke-linecap:butt;stroke-linejoin:miter;marker:none;marker-start:none;marker-mid:none;marker-end:none;stroke-miterlimit:4;stroke-dasharray:none;stroke-dashoffset:0;stroke-opacity:1;visibility:visible;display:inline;overflow:visible;enable-background:accumulate"
           d="M 317.7536,297.30411 C 323.89091,303.44143 325.54139,281.76723 328.76487,273.70855 C 331.56152,266.71691 331.62145,259.13616 333.48398,251.68602 C 335.3564,244.19636 335.05702,236.16808 335.05702,228.09046 C 335.05702,218.9269 333.4828,213.93075 330.3379,207.64097 C 326.70146,200.36807 324.42797,196.82081 317.7536,193.48363 C 310.05105,189.63235 301.27613,197.37681 298.87715,199.77578 C 293.76875,204.88419 294.22926,212.07522 292.585,218.65223 C 290.68628,226.24712 295.8397,231.67102 297.30411,237.52868 C 299.26197,245.3601 301.80383,249.23539 303.59626,256.40514 C 305.3539,263.43567 306.74695,270.58091 308.31538,276.85463 C 310.64941,286.19077 310.62493,288.39327 317.7536,297.30411 z"
           id="path3165" />
        <path
           style="fill:#ffffff;fill-opacity:1;fill-rule:evenodd;stroke:#000000;stroke-width:3;stroke-linecap:butt;stroke-linejoin:miter;stroke-miterlimit:4;stroke-dasharray:none;stroke-opacity:1"
           d="M 352.36043,281.57374 C 347.22442,281.57374 337.00402,290.638 331.91094,295.73108 C 327.20826,300.43376 322.13768,305.83938 319.32664,311.46145 C 316.64956,316.81562 314.60753,323.42675 314.60753,331.91094 C 314.60753,339.87645 313.03449,344.94118 313.03449,353.93347 C 313.03449,363.38751 314.13712,367.7822 316.18057,375.956 C 317.93169,382.96051 324.51312,389.47504 327.19183,394.83245 C 330.15178,400.75235 335.99778,405.21144 339.77613,408.98979 C 345.72149,414.93515 350.66146,416.43023 358.65258,418.42801 C 369.0066,421.01652 380.97564,416.10555 386.96726,413.7089 C 392.8799,411.34384 398.79914,403.17652 402.69764,397.97852 C 406.82944,392.46945 408.86499,384.32036 410.56282,377.52903 C 412.39666,370.19369 412.13586,362.12739 412.13586,353.93347 C 412.13586,346.17411 410.69019,336.88478 407.41675,330.3379 C 403.81658,323.13756 401.4581,316.84756 397.97852,309.88842 C 394.51338,302.95813 389.08479,297.84861 383.82118,292.585 C 378.66239,287.42621 375.23153,284.35758 369.66385,281.57374 C 364.81283,279.14823 359.45234,280.15536 352.36043,281.57374 z"
           id="path3155" />
        <path
           style="opacity:1;fill:#ffffff;fill-opacity:1;fill-rule:evenodd;stroke:#000000;stroke-width:3;stroke-linecap:butt;stroke-linejoin:miter;marker:none;marker-start:none;marker-mid:none;marker-end:none;stroke-miterlimit:4;stroke-dasharray:none;stroke-dashoffset:0;stroke-opacity:1;visibility:visible;display:inline;overflow:visible;enable-background:accumulate"
           d="M 272.13551,284.71981 C 264.9578,286.6072 256.84663,293.71654 250.11299,300.45019 C 244.06739,306.49579 242.12302,313.28404 237.52868,322.47272 C 232.76294,332.00419 229.6635,341.43365 229.6635,352.36043 C 229.6635,360.44108 227.55929,367.53918 229.6635,375.956 C 231.26493,382.36174 232.46292,390.99307 235.95565,397.97852 C 239.99328,406.0538 246.38832,409.98424 251.68602,415.28194 C 256.9016,420.49752 267.71302,420.00105 275.28159,420.00105 C 287.04458,420.00105 295.60473,420.06422 305.1693,415.28194 C 312.97398,411.3796 320.36262,406.55979 325.61879,399.55156 C 331.2872,391.99369 334.25563,383.85093 338.20309,375.956 C 342.17363,368.01493 341.34917,358.31351 341.34917,349.21436 C 341.34917,339.09513 340.82071,329.28099 336.63006,320.89968 C 332.50768,312.65494 330.24937,304.94798 327.19183,297.30411 C 324.2744,290.01053 318.45173,286.99097 314.60753,283.14678 C 310.28532,278.82457 298.85799,278.42766 292.585,278.42766 C 281.62264,278.42766 281.75106,278.95048 272.13551,284.71981 z"
           id="path3153" />
        <path
           style="fill:#000000;fill-opacity:1;fill-rule:evenodd;stroke:#000000;stroke-width:3;stroke-linecap:butt;stroke-linejoin:miter;stroke-miterlimit:4;stroke-dasharray:none;stroke-opacity:1"
           d="M 379.10207,335.05702 C 373.9854,332.49868 369.23994,350.90999 368.09081,355.50651 C 365.71066,365.02712 370.90191,369.5801 377.52903,371.23688 C 382.30796,372.43162 389.57777,358.15067 391.68637,353.93347 C 396.04204,345.22215 389.26656,338.56622 385.39422,336.63006 C 383.46053,335.66321 381.19946,335.58136 379.10207,335.05702 z"
           id="path3157" />
        <path
           style="opacity:1;fill:#000000;fill-opacity:1;fill-rule:evenodd;stroke:#000000;stroke-width:3;stroke-linecap:butt;stroke-linejoin:miter;marker:none;marker-start:none;marker-mid:none;marker-end:none;stroke-miterlimit:4;stroke-dasharray:none;stroke-dashoffset:0;stroke-opacity:1;visibility:visible;display:inline;overflow:visible;enable-background:accumulate"
           d="M 309.88842,328.76487 C 304.90866,326.27499 292.71441,336.50065 289.43893,339.77613 C 284.65515,344.55991 286.96218,353.69908 289.43893,358.65258 C 292.80425,365.38323 299.67552,366.51777 308.31538,366.51777 C 313.64073,366.51777 319.61611,350.20846 320.89968,347.64132 C 326.01424,337.4122 316.58863,330.43992 309.88842,328.76487 z"
           id="path3159" />
        <path
           style="opacity:1;fill:#ea8f00;fill-opacity:1;fill-rule:evenodd;stroke:#000000;stroke-width:3;stroke-linecap:butt;stroke-linejoin:miter;marker:none;marker-start:none;marker-mid:none;marker-end:none;stroke-miterlimit:4;stroke-dasharray:none;stroke-dashoffset:0;stroke-opacity:1;visibility:visible;display:inline;overflow:visible;enable-background:accumulate"
           d="M 245.39387,311.46145 C 246.97548,311.85686 237.88419,293.29602 235.95565,289.43893 C 231.96532,281.45827 228.26013,275.62092 224.94438,268.98944 C 221.81614,262.73296 214.71998,255.3569 210.78704,250.11299 C 206.58453,244.50963 201.96747,239.72038 196.62971,234.38261 C 189.55302,227.30592 184.1302,222.60603 174.60718,220.22527 C 168.01094,218.57621 163.11429,217.07919 154.15769,217.07919 C 143.90841,217.07919 143.25214,220.11955 138.42731,224.94438 C 133.20012,230.17158 135.52792,240.08843 136.85427,245.39387 C 138.45495,251.79658 146.33311,255.23551 151.01161,256.40514 C 158.86008,258.36725 171.56628,265.89595 177.75325,268.98944 C 185.08474,272.65518 190.70981,273.89468 196.62971,276.85463 C 203.71517,280.39736 211.3942,281.87731 217.07919,284.71981 C 223.9898,288.17511 227.4603,290.38181 232.80957,295.73108 C 238.46247,301.38398 243.00904,301.92213 245.39387,311.46145 z"
           id="path3163" />
        <path
           style="opacity:1;fill:#000000;fill-opacity:1;fill-rule:evenodd;stroke:#000000;stroke-width:3;stroke-linecap:butt;stroke-linejoin:miter;marker:none;marker-start:none;marker-mid:none;marker-end:none;stroke-miterlimit:4;stroke-dasharray:none;stroke-dashoffset:0;stroke-opacity:1;visibility:visible;display:inline;overflow:visible;enable-background:accumulate"
           d="M 426.2932,457.75395 C 428.21767,465.45183 410.39552,458.97556 402.69764,460.90003 C 393.9308,463.09174 391.25782,467.62073 386.96726,471.91129 C 380.20846,478.6701 385.00429,485.6787 388.5403,489.21471 C 393.16223,493.83664 405.74302,492.36078 412.13586,492.36078 C 419.36586,492.36078 427.36734,483.42145 431.01231,479.77648 C 437.96648,472.82232 433.69568,463.67594 426.2932,457.75395 z"
           id="path3167" />
        <path
           style="fill:none;fill-opacity:0.75;fill-rule:evenodd;stroke:#000000;stroke-width:3;stroke-linecap:butt;stroke-linejoin:miter;stroke-miterlimit:4;stroke-dasharray:none;stroke-opacity:1"
           d="M 355.50651,486.06863 C 361.45038,480.12476 338.74381,487.64167 330.3379,487.64167 C 322.47272,487.64167 314.60753,487.64167 306.74234,487.64167 C 305.1693,487.64167 303.59626,487.64167 302.02323,487.64167"
           id="path3169" />
        <path
           style="fill:none;fill-opacity:0.75;fill-rule:evenodd;stroke:#000000;stroke-width:3;stroke-linecap:butt;stroke-linejoin:miter;stroke-miterlimit:4;stroke-dasharray:none;stroke-opacity:1"
           d="M 449.88877,457.75395 C 442.58547,457.75395 465.17405,455.05297 470.33826,449.88877 C 477.1155,443.11152 482.78456,440.58853 487.64167,435.73143"
           id="path3171" />
        <path
           style="opacity:1;fill:#ea8f00;fill-opacity:1;fill-rule:evenodd;stroke:#000000;stroke-width:3;stroke-linecap:butt;stroke-linejoin:miter;marker:none;marker-start:none;marker-mid:none;marker-end:none;stroke-miterlimit:4;stroke-dasharray:none;stroke-dashoffset:0;stroke-opacity:1;visibility:visible;display:inline;overflow:visible;enable-background:accumulate"
           d="M 182.47237,635.50721 C 178.74693,632.47293 175.34424,622.08693 169.88807,616.63076 C 164.88525,611.62794 155.66547,607.94642 151.01161,605.61949 C 146.33447,603.28092 132.61671,604.04645 127.41605,604.04645 C 117.96694,604.04645 111.80137,608.70772 105.39352,611.91164 C 100.85507,614.18087 97.947115,625.23142 95.955296,629.21506 C 92.692039,635.74157 94.382259,645.51755 94.382259,652.81062 C 94.382259,656.66644 101.92788,665.07535 103.82048,666.96796 C 108.6806,671.82807 117.06484,674.37666 124.26997,677.97922 C 131.53964,681.61406 139.78811,681.07224 146.2925,682.69834 C 154.38937,684.72255 162.78792,681.52929 166.74199,679.55226 C 175.07219,675.38716 177.96057,669.83761 182.47237,663.82188 C 185.25423,660.11274 185.61844,648.43609 185.61844,643.3724 C 185.61844,640.54871 183.52106,638.12894 182.47237,635.50721 z"
           id="path3187" />
        <path
           style="opacity:1;fill:#ea8f00;fill-opacity:1;fill-rule:evenodd;stroke:#000000;stroke-width:3;stroke-linecap:butt;stroke-linejoin:miter;marker:none;marker-start:none;marker-mid:none;marker-end:none;stroke-miterlimit:4;stroke-dasharray:none;stroke-dashoffset:0;stroke-opacity:1;visibility:visible;display:inline;overflow:visible;enable-background:accumulate"
           d="M 232.80957,652.81062 C 232.80957,644.40472 249.57227,654.38366 257.97817,654.38366 C 265.84336,654.38366 273.70855,654.38366 281.57374,654.38366 C 288.49706,654.38366 295.39494,649.0461 300.45019,646.51847 C 306.36567,643.56073 312.58153,634.8401 316.18057,627.64202 C 319.36613,621.2709 319.32664,615.98032 319.32664,607.19253 C 319.32664,596.40577 317.62745,594.51361 311.46145,589.88912 C 305.07686,585.10067 298.8861,585.5655 291.01196,583.59697 C 281.8673,581.3108 275.80288,586.61272 268.98944,588.31608 C 260.58751,590.41656 259.87066,599.0079 254.8321,604.04645 C 250.59123,608.28732 247.33813,615.88832 245.39387,619.77683 C 242.37109,625.82239 240.77616,631.95555 239.10172,638.65328 C 237.96104,643.21599 235.50363,648.32053 232.80957,652.81062 z"
           id="path3189" />
        <path
           style="opacity:1;fill:#ea8f00;fill-opacity:1;fill-rule:evenodd;stroke:#000000;stroke-width:3;stroke-linecap:butt;stroke-linejoin:miter;marker:none;marker-start:none;marker-mid:none;marker-end:none;stroke-miterlimit:4;stroke-dasharray:none;stroke-dashoffset:0;stroke-opacity:1;visibility:visible;display:inline;overflow:visible;enable-background:accumulate"
           d="M 147.86554,471.91129 C 147.6675,471.11914 133.84046,488.95018 132.13516,492.36078 C 128.48287,499.66537 124.86839,505.69749 122.69694,514.38331 C 120.77957,522.05278 121.1239,529.83159 121.1239,537.97887 C 121.1239,547.02972 127.06851,551.44114 130.56212,558.42836 C 133.65436,564.61283 137.29951,568.31182 141.57339,572.5857 C 145.35283,576.36514 158.39166,577.30481 163.59591,577.30481 C 172.78882,577.30481 178.10289,575.64437 184.0454,574.15874 C 191.73032,572.23751 197.31514,564.92269 199.77578,560.0014 C 203.88827,551.77643 201.97542,550.87648 195.05667,547.4171 C 188.38451,544.08102 182.33644,539.48395 176.18022,536.40584 C 169.9661,533.29878 165.65907,529.03076 162.02288,525.39457 C 157.27821,520.6499 153.5296,516.2732 151.01161,511.23723 C 147.57698,504.36796 144.71946,504.43414 144.71946,493.93382 C 144.71946,485.4649 144.60373,480.06582 147.86554,471.91129 z"
           id="path3193" />
        <path
           style="fill:#ff8baa;fill-opacity:1;fill-rule:evenodd;stroke:#000000;stroke-width:3;stroke-linecap:butt;stroke-linejoin:miter;stroke-miterlimit:4;stroke-dasharray:none;stroke-opacity:1"
           d="M 162.02288,390.11334 C 156.70901,386.12794 166.65082,372.99226 168.31503,369.66385 C 173.01154,360.27082 183.93121,369.54965 187.19148,372.80992 C 195.38285,381.0013 183.00563,385.65417 177.75325,386.96726 C 167.60901,389.50332 175.76885,381.86575 162.02288,390.11334 z"
           id="path3197" />
      </g>
    </g>
  </g>
</svg>
