<?xml version="1.0" encoding="UTF-8" standalone="no"?>
<!-- Created with Inkscape (http://www.inkscape.org/) -->

<svg
   xmlns:dc="http://purl.org/dc/elements/1.1/"
   xmlns:cc="http://creativecommons.org/ns#"
   xmlns:rdf="http://www.w3.org/1999/02/22-rdf-syntax-ns#"
   xmlns:svg="http://www.w3.org/2000/svg"
   xmlns="http://www.w3.org/2000/svg"
   xmlns:sodipodi="http://sodipodi.sourceforge.net/DTD/sodipodi-0.dtd"
   xmlns:inkscape="http://www.inkscape.org/namespaces/inkscape"
   width="744.09448819"
   height="1052.3622047"
   id="svg2"
   sodipodi:version="0.32"
   inkscape:version="0.48.3.1 r9886"
   sodipodi:docname="wake up bob.svg"
   inkscape:output_extension="org.inkscape.output.svg.inkscape"
   version="1.1">
  <defs
     id="defs4">
    <inkscape:perspective
       sodipodi:type="inkscape:persp3d"
       inkscape:vp_x="0 : 526.18109 : 1"
       inkscape:vp_y="0 : 1000 : 0"
       inkscape:vp_z="744.09448 : 526.18109 : 1"
       inkscape:persp3d-origin="372.04724 : 350.78739 : 1"
       id="perspective10" />
  </defs>
  <sodipodi:namedview
     id="base"
     pagecolor="#ffffff"
     bordercolor="#666666"
     borderopacity="1.0"
     gridtolerance="10000"
     guidetolerance="10"
     objecttolerance="10"
     inkscape:pageopacity="0.0"
     inkscape:pageshadow="2"
     inkscape:zoom="1"
     inkscape:cx="590.07826"
     inkscape:cy="545.89556"
     inkscape:document-units="px"
     inkscape:current-layer="layer1"
     showgrid="false"
     inkscape:window-width="1270"
     inkscape:window-height="693"
     inkscape:window-x="0"
     inkscape:window-y="24"
     inkscape:window-maximized="0" />
  <metadata
     id="metadata7">
    <rdf:RDF>
      <cc:Work
         rdf:about="">
        <dc:format>image/svg+xml</dc:format>
        <dc:type
           rdf:resource="http://purl.org/dc/dcmitype/StillImage" />
        <dc:title></dc:title>
      </cc:Work>
    </rdf:RDF>
  </metadata>
  <g
     inkscape:label="Layer 1"
     inkscape:groupmode="layer"
     id="layer1">
    <path
       style="fill:#d88f14;stroke:#000000;stroke-width:3;stroke-linecap:butt;stroke-linejoin:miter;stroke-opacity:1;color:#000000;fill-opacity:1;fill-rule:evenodd;stroke-miterlimit:4;stroke-dasharray:none;stroke-dashoffset:0;marker:none;visibility:visible;display:inline;overflow:visible;enable-background:accumulate"
       d="m 437.13609,636.3599 c 6.14192,-12.46066 11.58308,-27.757 13.75288,-42.48285 2.68396,-8.75265 0.80621,-33.78866 -12.38727,-26.62495 -6.55689,13.4948 -6.15904,29.36226 -5.2708,44.06894 -0.62344,8.73649 5.71341,16.63561 3.90519,25.03886 z"
       id="path3071"
       inkscape:connector-curvature="0" />
    <path
       style="color:#000000;fill:#d88f14;fill-opacity:1;fill-rule:evenodd;stroke:#000000;stroke-width:3;stroke-linecap:butt;stroke-linejoin:miter;stroke-miterlimit:4;stroke-opacity:1;stroke-dasharray:none;stroke-dashoffset:0;marker:none;visibility:visible;display:inline;overflow:visible;enable-background:accumulate"
       d="m 333.69167,578.52001 c -4.81948,-14.92481 -4.1679,-34.52322 9.97949,-44.23234 13.59424,-12.12047 32.77167,-21.11647 51.15312,-16.38269 14.04463,5.20662 21.93597,18.27889 28.75774,30.78033 14.22812,22.58357 23.42806,52.01026 11.74958,77.64008 -8.81444,19.7115 -22.93233,37.24021 -39.81017,50.6183 -12.30373,8.17304 -30.14028,1.02473 -39.02749,-9.43924 -14.10341,-18.02645 -26.14101,-39.05826 -26.52866,-62.54773 -0.38847,-8.93804 0.71802,-17.9887 3.72639,-26.43671 z"
       id="path3055"
       inkscape:connector-curvature="0" />
    <path
       style="fill:#d88f14;stroke:#000000;stroke-width:3;stroke-linecap:butt;stroke-linejoin:miter;stroke-opacity:1;color:#000000;fill-opacity:1;fill-rule:evenodd;stroke-miterlimit:4;stroke-dasharray:none;stroke-dashoffset:0;marker:none;visibility:visible;display:inline;overflow:visible;enable-background:accumulate"
       d="m 539.46821,644.14604 c 5.99343,-1.96799 28.72853,6.77428 16.25027,-5.55731 -6.92769,-11.06835 -27.67569,-14.10962 -17.90571,4.14628 l 1.65544,1.41103 0,0 z"
       id="path3079"
       inkscape:connector-curvature="0" />
    <path
       style="fill:#d88f14;stroke:#000000;stroke-width:3;stroke-linecap:butt;stroke-linejoin:miter;stroke-opacity:1;color:#000000;fill-opacity:1;fill-rule:evenodd;stroke-miterlimit:4;stroke-dasharray:none;stroke-dashoffset:0;marker:none;visibility:visible;display:inline;overflow:visible;enable-background:accumulate"
       d="m 519.44671,611.88917 c -0.73173,-15.02972 -10.49756,-29.02293 -21.33805,-38.58846 -18.50435,-6.24214 -19.91715,17.93118 -6.08308,24.81483 7.56166,5.8139 17.17462,17.07275 27.42113,13.77363 z"
       id="path3077"
       inkscape:connector-curvature="0" />
    <path
       style="fill:#d88f14;stroke:#000000;stroke-width:3;stroke-linecap:butt;stroke-linejoin:miter;stroke-opacity:1;color:#000000;fill-opacity:1;fill-rule:evenodd;stroke-miterlimit:4;stroke-dasharray:none;stroke-dashoffset:0;marker:none;visibility:visible;display:inline;overflow:visible;enable-background:accumulate"
       d="m 408.21615,665.27984 c 19.71129,5.25917 40.53022,4.92742 60.67863,4.00573 14.65467,-2.05659 29.7949,-2.62778 43.37989,-9.27453 14.33682,-5.33164 29.35507,-14.82286 31.19707,-31.49355 4.08779,-19.22277 -17.04229,-30.7665 -33.07079,-22.36201 -15.81545,4.10945 -29.70169,12.78416 -43.20403,21.62779 -13.25755,5.56197 -27.03699,10.09913 -37.58307,20.4388 -5.76049,6.55682 -17.74336,9.44557 -21.3977,17.05777 z"
       id="path3073"
       inkscape:connector-curvature="0" />
    <path
       style="fill:#d40000;stroke:#000000;stroke-width:3;stroke-linecap:butt;stroke-linejoin:miter;stroke-opacity:1;color:#000000;fill-opacity:1;fill-rule:evenodd;stroke-miterlimit:4;stroke-dasharray:none;stroke-dashoffset:0;marker:none;visibility:visible;display:inline;overflow:visible;enable-background:accumulate"
       d="m 117.1913,475.05737 c -0.95774,1.27216 -4.36071,-0.62912 -1.38409,-0.0532 2.00462,-0.57751 -3.49472,-1.12152 -4.41582,-0.71462 -2.8966,-1.19485 -6.22249,0.57888 -9.33339,0.0457 -3.304405,1.0298 -6.521569,2.60111 -9.315034,4.59841 -2.804246,1.4513 -4.061943,4.26526 -5.762729,6.70561 -3.115973,3.69956 -3.34456,8.7757 -4.525205,13.2695 0.432756,3.20961 -0.490054,6.56471 0.966562,9.62549 1.217408,3.91337 2.102289,8.18788 4.98635,11.27086 3.322016,2.45401 7.015727,4.93633 11.327068,4.83046 3.421128,0.028 6.315678,2.09134 9.555348,2.84749 3.01015,-0.2627 5.83628,0.73854 8.73094,-0.5502 3.21365,0.46103 5.89959,-1.21879 8.86387,-2.07022 4.20284,-1.33263 7.93978,-3.87818 10.95653,-7.06088 2.55412,-1.92905 4.23338,-4.55861 5.44873,-7.46142 1.18887,-2.787 2.98571,-5.67832 1.92743,-8.78736 -0.33637,-3.12458 -1.96829,-5.78866 -2.7443,-8.84302 -0.77365,-2.71915 -2.47793,-4.95737 -4.0864,-7.23905 -2.65618,-1.34565 -4.04106,-4.29 -6.58267,-5.51443 -2.07973,-1.68693 -4.39775,-3.06811 -6.87627,-4.16787 -2.2675,-1.91053 -5.11311,-1.54917 -7.73692,-0.73129 z"
       id="path3414"
       inkscape:connector-curvature="0" />
    <path
       style="fill:#985262;stroke:#000000;stroke-width:3;stroke-linecap:butt;stroke-linejoin:miter;stroke-opacity:1;color:#000000;fill-opacity:1;fill-rule:evenodd;stroke-miterlimit:4;stroke-dasharray:none;stroke-dashoffset:0;marker:none;visibility:visible;display:inline;overflow:visible;enable-background:accumulate"
       d="m 116.036,552.34326 c 10.03177,8.20475 28.79979,16.19472 42.99031,9.21016 11.67146,-6.17744 10.75614,-21.29392 8.98203,-32.4554 -0.33995,-16.94322 -26.27914,-15.2005 -20.43203,2.26771 6.14207,13.95648 -5.9727,26.27628 -19.95394,22.87682 -3.90968,-0.28485 -7.77447,-1.00415 -11.58637,-1.89929 z"
       id="path3312"
       inkscape:connector-curvature="0" />
    <path
       style="color:#000000;fill:#985262;fill-opacity:1;fill-rule:evenodd;stroke:#000000;stroke-width:3;stroke-linecap:butt;stroke-linejoin:miter;stroke-miterlimit:4;stroke-opacity:1;stroke-dasharray:none;stroke-dashoffset:0;marker:none;visibility:visible;display:inline;overflow:visible;enable-background:accumulate"
       d="m 208.93923,459.44003 c 18.03336,-1.92878 37.35486,12.82635 37.27915,31.57388 -1.08052,14.97226 -13.11754,25.87708 -24.27338,34.47439 -11.26149,8.86991 -26.23324,11.38812 -40.22444,10.62736 -14.49547,-0.78024 -28.54912,-8.17564 -36.57666,-20.42025 -8.03915,-11.51139 -11.83292,-27.33085 -25.27297,-34.08003 -8.61311,-4.78682 -19.934948,-4.0729 -27.390092,2.60197 -10.04197,7.80071 -15.567499,23.76679 -7.394104,34.74065 10.823395,12.2987 30.118446,12.30672 43.905376,5.29267 4.96685,-2.49161 9.47464,-5.9669 12.9496,-10.31932 -4.13119,5.383 -9.41136,10.27264 -15.75201,12.59639 -6.92664,1.41317 -13.52949,2.50476 -20.70124,2.01484 -7.937737,-0.0109 -15.62118,-3.7341 -19.963437,-10.51435 -2.739648,-5.30501 -4.677398,-11.47584 -4.209995,-17.53734 1.6398,-7.55355 3.572067,-15.21881 7.487828,-21.96788 3.6854,-5.34602 7.157586,-11.19482 11.485634,-16.16395 3.94337,-5.18152 9.11906,-10.31351 12.88154,-15.16765 3.95001,-4.96824 10.56201,-10.47304 17.17042,-6.94308 6.62571,2.29433 13.15984,4.67393 19.54624,7.7145 6.97381,2.23588 13.69873,5.32581 20.6058,7.59965 6.26701,1.38214 12.37262,3.43725 18.78541,4.20768 6.18207,1.29321 12.59979,1.78293 18.55223,-0.11956 l 1.1091,-0.21057 0,0 z"
       id="path3284"
       inkscape:connector-curvature="0" />
    <rect
       style="opacity:1;fill:none;fill-opacity:1;fill-rule:evenodd;stroke:#020202;stroke-width:0.93286228;stroke-linecap:butt;stroke-linejoin:miter;marker:none;marker-start:none;marker-mid:none;marker-end:none;stroke-miterlimit:4;stroke-dasharray:none;stroke-dashoffset:0;stroke-opacity:1;visibility:visible;display:inline;overflow:visible;enable-background:accumulate"
       id="rect3392"
       width="558.44452"
       height="530.6369"
       x="74.490906"
       y="173.60721" />
    <path
       style="fill:#ffffff;stroke:#000000;stroke-width:3;stroke-linecap:butt;stroke-linejoin:miter;stroke-opacity:1;color:#000000;fill-opacity:1;fill-rule:evenodd;stroke-miterlimit:4;stroke-dasharray:none;stroke-dashoffset:0;marker:none;visibility:visible;display:inline;overflow:visible;enable-background:accumulate"
       d="m 333.69167,584.08153 c -5.87681,-1.53364 -23.41799,6.15361 -29.78537,16.33457 -12.2975,12.56027 -4.16525,32.89183 12.7383,35.6355 17.03007,6.46692 37.01919,-1.01114 46.29009,-16.52679 9.1469,-12.52109 4.65664,-32.70065 -10.39773,-38.06231 -6.29765,-1.82012 -13.08643,-0.13545 -18.84529,2.61903 z"
       id="path3043"
       inkscape:connector-curvature="0" />
    <path
       style="fill:#d88f14;stroke:#000000;stroke-width:3;stroke-linecap:butt;stroke-linejoin:miter;stroke-opacity:1;color:#000000;fill-opacity:1;fill-rule:evenodd;stroke-miterlimit:4;stroke-dasharray:none;stroke-dashoffset:0;marker:none;visibility:visible;display:inline;overflow:visible;enable-background:accumulate"
       d="m 338.1409,654.15679 c -7.65442,0.58872 3.27868,-0.57628 -5.06562,-0.18528 -14.75199,-1.85441 -31.79455,-1.39287 -44.4133,7.14307 -12.39913,12.40535 8.75259,19.66627 18.90601,15.70157 12.22191,-3.17377 26.75215,-9.40609 30.57291,-22.65936 z"
       id="path3053"
       inkscape:connector-curvature="0" />
    <path
       style="fill:#ffffff;stroke:#000000;stroke-width:3;stroke-linecap:butt;stroke-linejoin:miter;stroke-opacity:1;color:#000000;fill-opacity:1;fill-rule:evenodd;stroke-miterlimit:4;stroke-dasharray:none;stroke-dashoffset:0;marker:none;visibility:visible;display:inline;overflow:visible;enable-background:accumulate"
       d="m 373.73467,604.10303 c -6.77754,0.0358 -1.2766,-6.08005 0,0 -14.54959,-10.01081 -33.39719,1.86298 -43.34809,13.20653 -11.28,9.96502 -14.56625,26.23909 -7.42232,39.59208 5.09138,13.64931 21.41465,14.7775 33.79654,13.52811 13.9075,-1.85342 27.51528,-10.01159 33.65846,-22.9468 0.53475,-14.76009 1.70196,-33.92694 -12.22929,-43.19025 -1.39265,-0.60956 -3.01544,-0.69841 -4.4553,-0.18967 z"
       id="path3045"
       inkscape:connector-curvature="0" />
    <path
       style="fill:#000000;stroke:#000000;stroke-width:3;stroke-linecap:butt;stroke-linejoin:miter;stroke-opacity:1;color:#000000;fill-opacity:1;fill-rule:evenodd;stroke-miterlimit:4;stroke-dasharray:none;stroke-dashoffset:0;marker:none;visibility:visible;display:inline;overflow:visible;enable-background:accumulate"
       d="m 360.38701,628.57376 c -6.31153,5.62625 -0.12381,-2.8066 -1.48953,0.586 -14.8085,10.38962 20.12858,20.05561 9.79819,2.05394 -1.79877,-2.66266 -5.34569,-3.35903 -8.30866,-2.63994 z"
       id="path3047"
       inkscape:connector-curvature="0" />
    <path
       style="fill:#000000;stroke:#000000;stroke-width:3;stroke-linecap:butt;stroke-linejoin:miter;stroke-opacity:1;color:#000000;fill-opacity:1;fill-rule:evenodd;stroke-miterlimit:4;stroke-dasharray:none;stroke-dashoffset:0;marker:none;visibility:visible;display:inline;overflow:visible;enable-background:accumulate"
       d="m 321.45631,594.09228 c -7.13327,5.00269 2.82349,-3.21074 -5.34514,2.34988 -5.24812,12.56458 22.19624,2.70113 8.01144,-3.3262 l -2.6663,0.97632 0,0 z"
       id="path3049"
       inkscape:connector-curvature="0" />
    <path
       style="fill:#d88f14;stroke:#000000;stroke-width:3;stroke-linecap:butt;stroke-linejoin:miter;stroke-opacity:1;color:#000000;fill-opacity:1;fill-rule:evenodd;stroke-miterlimit:4;stroke-dasharray:none;stroke-dashoffset:0;marker:none;visibility:visible;display:inline;overflow:visible;enable-background:accumulate"
       d="m 306.99634,641.92142 c -7.66652,0.47365 3.40028,-0.3499 -5.25429,-0.33443 -15.60803,-6.30034 -32.07019,-10.10542 -48.67753,-9.4612 -15.85428,3.17795 -9.49196,21.81733 4.30982,21.61018 15.0597,4.43677 28.93722,-4.60073 42.87108,-8.85459 2.27963,-0.9178 4.53398,-1.89933 6.75092,-2.95996 z"
       id="path3051"
       inkscape:connector-curvature="0" />
    <path
       style="fill:#d88f14;stroke:#000000;stroke-width:3;stroke-linecap:butt;stroke-linejoin:miter;stroke-opacity:1;color:#000000;fill-opacity:1;fill-rule:evenodd;stroke-miterlimit:4;stroke-dasharray:none;stroke-dashoffset:0;marker:none;visibility:visible;display:inline;overflow:visible;enable-background:accumulate"
       d="m 395.98079,657.4937 c 8.11962,-14.15358 19.4605,-25.99414 28.35569,-39.53016 l -0.54805,1.71177"
       id="path3057"
       inkscape:connector-curvature="0" />
    <path
       style="color:#000000;fill:#ff8080;fill-opacity:1;fill-rule:evenodd;stroke:#000000;stroke-width:3;stroke-linecap:butt;stroke-linejoin:miter;stroke-miterlimit:4;stroke-opacity:1;stroke-dasharray:none;stroke-dashoffset:0;marker:none;visibility:visible;display:inline;overflow:visible;enable-background:accumulate"
       d="m 403.76693,644.14604 c 3.39242,10.8592 15.74881,31.18861 28.2563,20.46496 2.46472,-12.47859 -9.00073,-27.01796 -19.488,-31.6673 l 0.13014,1.19158"
       id="path3059"
       inkscape:connector-curvature="0" />
    <path
       style="fill:#d88f14;stroke:#000000;stroke-width:3;stroke-linecap:butt;stroke-linejoin:miter;stroke-opacity:1;color:#000000;fill-opacity:1;fill-rule:evenodd;stroke-miterlimit:4;stroke-dasharray:none;stroke-dashoffset:0;marker:none;visibility:visible;display:inline;overflow:visible;enable-background:accumulate"
       d="m 408.21615,639.69681 c 3.15278,4.57027 7.88911,7.7377 11.12305,12.23536"
       id="path3061"
       inkscape:connector-curvature="0" />
    <path
       style="color:#000000;fill:#000000;fill-opacity:1;fill-rule:evenodd;stroke:#000000;stroke-width:3;stroke-linecap:butt;stroke-linejoin:miter;stroke-miterlimit:4;stroke-opacity:1;stroke-dasharray:none;stroke-dashoffset:0;marker:none;visibility:visible;display:inline;overflow:visible;enable-background:accumulate"
       d="m 378.1839,541.81392 c -2.7338,6.73643 15.71532,18.13599 15.83299,3.2404 -2.55266,-6.24315 -10.95262,-7.32123 -15.83299,-3.2404 z"
       id="path3063"
       inkscape:connector-curvature="0" />
    <path
       style="color:#000000;fill:#000080;fill-opacity:1;fill-rule:evenodd;stroke:#000000;stroke-width:2.68328786;stroke-linecap:butt;stroke-linejoin:miter;stroke-miterlimit:4;stroke-opacity:1;stroke-dasharray:none;stroke-dashoffset:0;marker:none;visibility:visible;display:inline;overflow:visible;enable-background:accumulate"
       d="m 263.80845,589.10011 c -1.844,5.29972 -5.2104,0.14218 0,0 -14.30103,4.6614 6.91773,20.56189 8.16586,5.84575 0.38489,-3.87419 -4.63973,-12.18004 -8.16586,-5.84575 z"
       id="path3065"
       inkscape:connector-curvature="0" />
    <path
       style="fill:#000080;stroke:#000000;stroke-width:3;stroke-linecap:butt;stroke-linejoin:miter;stroke-opacity:1;color:#000000;fill-opacity:1;fill-rule:evenodd;stroke-miterlimit:4;stroke-dasharray:none;stroke-dashoffset:0;marker:none;visibility:visible;display:inline;overflow:visible;enable-background:accumulate"
       d="m 259.1672,571.84617 c -9.90737,-9.41731 -4.24277,-25.24051 7.39284,-26.55854 2.02127,-13.45114 -15.0731,-14.8812 -22.55762,-9.16017 -13.38087,-7.0983 9.01016,-25.01386 18.26855,-15.08333 12.56118,2.71844 24.38876,21.9015 10.33956,30.27474 -9.27351,2.82103 -10.15618,11.13691 -5.14126,17.90658 -1.62798,2.7026 -5.50682,2.86373 -8.30207,2.62072 z"
       id="path3067"
       inkscape:connector-curvature="0" />
    <path
       style="fill:#d88f14;stroke:#000000;stroke-width:3;stroke-linecap:butt;stroke-linejoin:miter;stroke-opacity:1;color:#000000;fill-opacity:1;fill-rule:evenodd;stroke-miterlimit:4;stroke-dasharray:none;stroke-dashoffset:0;marker:none;visibility:visible;display:inline;overflow:visible;enable-background:accumulate"
       d="m 452.70837,640.80912 c 13.94323,-12.15091 19.26977,-30.94142 23.96238,-48.13782 4.13774,-10.84653 -5.02314,-30.27059 -15.80561,-15.7734 -7.75496,14.52922 -8.83926,31.22675 -7.43126,47.3107 -0.23976,5.51379 3.9783,11.86867 -0.72551,16.60052 z"
       id="path3069"
       inkscape:connector-curvature="0" />
    <path
       style="fill:#d88f14;stroke:#000000;stroke-width:3;stroke-linecap:butt;stroke-linejoin:miter;stroke-opacity:1;color:#000000;fill-opacity:1;fill-rule:evenodd;stroke-miterlimit:4;stroke-dasharray:none;stroke-dashoffset:0;marker:none;visibility:visible;display:inline;overflow:visible;enable-background:accumulate"
       d="m 537.24359,628.57376 c 13.50206,-14.0702 23.36651,-34.58399 19.44714,-54.38759 -3.55635,-19.04764 -24.07183,-6.02498 -20.93289,8.41782 -2.37045,12.95588 1.88624,25.41816 2.39662,38.2748 -0.0266,2.58715 -0.30122,5.17786 -0.91087,7.69497 z"
       id="path3075"
       inkscape:connector-curvature="0" />
    <path
       style="fill:#ffffff;stroke:#000000;stroke-width:3;stroke-linecap:butt;stroke-linejoin:miter;stroke-opacity:1;color:#000000;fill-opacity:1;fill-rule:evenodd;stroke-miterlimit:4;stroke-dasharray:none;stroke-dashoffset:0;marker:none;visibility:visible;display:inline;overflow:visible;enable-background:accumulate"
       d="m 192.85982,426.38792 c -14.38052,2.60656 -29.72111,12.52462 -33.43965,27.27431 -3.99985,12.12054 -4.58099,31.77441 11.24013,35.12389 16.48022,3.42794 32.87823,-8.39457 37.03049,-24.29247 4.85388,-12.07042 5.74986,-30.23539 -8.3992,-36.33102 -2.04002,-0.90845 -4.221,-1.4809 -6.43177,-1.77471 z"
       id="path3276"
       inkscape:connector-curvature="0" />
    <path
       style="fill:#ffffff;stroke:#000000;stroke-width:3;stroke-linecap:butt;stroke-linejoin:miter;stroke-opacity:1;color:#000000;fill-opacity:1;fill-rule:evenodd;stroke-miterlimit:4;stroke-dasharray:none;stroke-dashoffset:0;marker:none;visibility:visible;display:inline;overflow:visible;enable-background:accumulate"
       d="m 183.03352,448.72043 c 8.76582,-15.82082 -7.14277,-34.43195 -23.59954,-34.65586 -23.8317,-1.1606 -44.40959,23.57312 -40.41113,46.70965 3.89603,17.45218 26.92795,18.03438 40.37412,12.16621 9.97432,-4.81391 20.67197,-13.30431 23.63655,-24.22 z"
       id="path3278"
       inkscape:connector-curvature="0" />
    <path
       style="fill:#000000;stroke:#000000;stroke-width:3;stroke-linecap:butt;stroke-linejoin:miter;stroke-opacity:1;color:#000000;fill-opacity:1;fill-rule:evenodd;stroke-miterlimit:4;stroke-dasharray:none;stroke-dashoffset:0;marker:none;visibility:visible;display:inline;overflow:visible;enable-background:accumulate"
       d="m 167.84741,450.50702 c -8.89968,-8.31199 -19.0518,13.05336 -3.63145,7.81506 2.58495,-1.67828 4.9271,-4.54725 3.63145,-7.81506 z"
       id="path3280"
       inkscape:connector-curvature="0" />
    <path
       style="fill:#000000;stroke:#000000;stroke-width:3;stroke-linecap:butt;stroke-linejoin:miter;stroke-opacity:1;color:#000000;fill-opacity:1;fill-rule:evenodd;stroke-miterlimit:4;stroke-dasharray:none;stroke-dashoffset:0;marker:none;visibility:visible;display:inline;overflow:visible;enable-background:accumulate"
       d="m 194.64643,463.01323 c -9.21028,-1.29866 -12.99537,14.41249 -0.59103,10.94703 7.39659,0.50992 9.09238,-13.58239 0.59103,-10.94703 z"
       id="path3282"
       inkscape:connector-curvature="0" />
    <path
       style="fill:#ff8080;stroke:#000000;stroke-width:3;stroke-linecap:butt;stroke-linejoin:miter;stroke-opacity:1;color:#000000;fill-opacity:1;fill-rule:evenodd;stroke-miterlimit:4;stroke-dasharray:none;stroke-dashoffset:0;marker:none;visibility:visible;display:inline;overflow:visible;enable-background:accumulate"
       d="m 94.596792,521.97105 c 0.119324,-3.71266 4.596045,1.82788 2.451177,-6.40452 0.248349,-10.22674 24.119361,-14.16387 12.504021,-1.41623 -5.29212,1.88803 -10.842195,3.81872 -14.955198,7.82075 z"
       id="path3288"
       inkscape:connector-curvature="0" />
    <path
       style="fill:#985262;stroke:#000000;stroke-width:3;stroke-linecap:butt;stroke-linejoin:miter;stroke-opacity:1;color:#000000;fill-opacity:1;fill-rule:evenodd;stroke-miterlimit:4;stroke-dasharray:none;stroke-dashoffset:0;marker:none;visibility:visible;display:inline;overflow:visible;enable-background:accumulate"
       d="m 228.59183,500.53184 c -8.92516,-3.40686 -9.26947,9.34391 -1.74723,1.92451 0.58241,-0.6415 1.16482,-1.28301 1.74723,-1.92451 z"
       id="path3290"
       inkscape:connector-curvature="0" />
    <path
       style="fill:#985262;stroke:#000000;stroke-width:3;stroke-linecap:butt;stroke-linejoin:miter;stroke-opacity:1;color:#000000;fill-opacity:1;fill-rule:evenodd;stroke-miterlimit:4;stroke-dasharray:none;stroke-dashoffset:0;marker:none;visibility:visible;display:inline;overflow:visible;enable-background:accumulate"
       d="m 117.8226,411.20182 c 5.02611,5.41684 11.70573,9.13609 16.07941,15.1861"
       id="path3296"
       inkscape:connector-curvature="0" />
    <path
       style="fill:#985262;stroke:#000000;stroke-width:3;stroke-linecap:butt;stroke-linejoin:miter;stroke-opacity:1;color:#000000;fill-opacity:1;fill-rule:evenodd;stroke-miterlimit:4;stroke-dasharray:none;stroke-dashoffset:0;marker:none;visibility:visible;display:inline;overflow:visible;enable-background:accumulate"
       d="m 104.4231,421.02811 c 7.23839,4.51494 14.66689,8.75729 22.3325,12.50621"
       id="path3298"
       inkscape:connector-curvature="0" />
    <path
       style="fill:#985262;stroke:#000000;stroke-width:3;stroke-linecap:butt;stroke-linejoin:miter;stroke-opacity:1;color:#000000;fill-opacity:1;fill-rule:evenodd;stroke-miterlimit:4;stroke-dasharray:none;stroke-dashoffset:0;marker:none;visibility:visible;display:inline;overflow:visible;enable-background:accumulate"
       d="m 203.57943,433.53432 c 6.49986,-4.54138 13.25339,-8.71299 19.6526,-13.39951"
       id="path3300"
       inkscape:connector-curvature="0" />
    <path
       style="fill:#985262;stroke:#000000;stroke-width:3;stroke-linecap:butt;stroke-linejoin:miter;stroke-opacity:1;color:#000000;fill-opacity:1;fill-rule:evenodd;stroke-miterlimit:4;stroke-dasharray:none;stroke-dashoffset:0;marker:none;visibility:visible;display:inline;overflow:visible;enable-background:accumulate"
       d="m 208.04593,440.68073 c 8.03439,-2.98302 13.31214,-10.60562 21.4392,-13.39951"
       id="path3302"
       inkscape:connector-curvature="0" />
    <path
       style="fill:#985262;stroke:#000000;stroke-width:3;stroke-linecap:butt;stroke-linejoin:miter;stroke-opacity:1;color:#000000;fill-opacity:1;fill-rule:evenodd;stroke-miterlimit:4;stroke-dasharray:none;stroke-dashoffset:0;marker:none;visibility:visible;display:inline;overflow:visible;enable-background:accumulate"
       d="m 138.3685,416.56162 c -0.21515,-9.90892 -9.96676,-27.35319 -22.36373,-33.28195 -7.28777,-8.90628 -17.314696,-4.38722 -11.28198,6.41449 5.30089,12.39043 22.37358,11.35001 30.52735,21.35458 1.37526,1.61877 2.43446,3.50238 3.11836,5.51288 z"
       id="path3306"
       inkscape:connector-curvature="0" />
    <path
       style="fill:#985262;stroke:#000000;stroke-width:3;stroke-linecap:butt;stroke-linejoin:miter;stroke-opacity:1;color:#000000;fill-opacity:1;fill-rule:evenodd;stroke-miterlimit:4;stroke-dasharray:none;stroke-dashoffset:0;marker:none;visibility:visible;display:inline;overflow:visible;enable-background:accumulate"
       d="M 174.99381,420.13481 C 179.4,402.3972 160.77102,392.19576 154.27326,378.16434 c -8.86294,-9.03398 -10.74213,17.27224 -2.59855,20.62514 7.18502,7.74219 16.91694,12.84622 23.3191,21.34533 z"
       id="path3308"
       inkscape:connector-curvature="0" />
    <path
       style="fill:#985262;stroke:#000000;stroke-width:3;stroke-linecap:butt;stroke-linejoin:miter;stroke-opacity:1;color:#000000;fill-opacity:1;fill-rule:evenodd;stroke-miterlimit:4;stroke-dasharray:none;stroke-dashoffset:0;marker:none;visibility:visible;display:inline;overflow:visible;enable-background:accumulate"
       d="m 133.90201,629.16709 c -3.69886,4.14212 3.30025,-1.49182 -1.51023,5.60873 -7.4063,10.331 -13.56106,26.3667 -5.57916,37.84359 7.02838,13.40032 37.34318,3.3608 21.79772,-9.46088 -15.95215,-3.54119 -22.28006,-20.13585 -14.70833,-33.99144 z"
       id="path3318"
       inkscape:connector-curvature="0" />
    <path
       style="fill:#f1ef2a;stroke:#000000;stroke-width:3;stroke-linecap:butt;stroke-linejoin:miter;stroke-opacity:1;color:#000000;fill-opacity:1;fill-rule:evenodd;stroke-miterlimit:4;stroke-dasharray:none;stroke-dashoffset:0;marker:none;visibility:visible;display:inline;overflow:visible;enable-background:accumulate"
       d="m 91.023591,527.33085 c -6.089058,27.44959 -10.407804,55.37563 -9.787817,83.56624 -0.298144,12.70022 -1.291762,25.3958 0.777125,38.045 5.974766,7.31812 20.120231,-0.3556 28.957971,-1.5329 17.75342,-7.71052 35.94838,-16.02603 50.28861,-29.26199 3.04457,-9.58029 -15.13007,-10.88539 -19.01359,-19.42028 -11.49731,-12.16231 -22.42509,-25.02547 -31.90655,-38.77147 -8.551,-9.71634 -2.7779,-30.82369 -19.315749,-32.6246 l 0,0 z"
       id="path3314"
       inkscape:connector-curvature="0" />
    <path
       style="fill:#985262;stroke:#000000;stroke-width:3;stroke-linecap:butt;stroke-linejoin:miter;stroke-opacity:1;color:#000000;fill-opacity:1;fill-rule:evenodd;stroke-miterlimit:4;stroke-dasharray:none;stroke-dashoffset:0;marker:none;visibility:visible;display:inline;overflow:visible;enable-background:accumulate"
       d="m 89.236991,555.02316 c 7.205389,12.3 21.113689,25.50812 36.499219,21.29926 13.30764,-6.97252 18.95625,-25.63 15.2313,-39.5661 -5.0948,-15.89683 -22.88735,-2.63065 -18.67908,9.8154 3.8942,15.28326 -12.37199,24.48624 -24.627948,16.53661 -3.54162,-1.74024 -6.70755,-4.47829 -8.423491,-8.08517 z"
       id="path3310"
       inkscape:connector-curvature="0" />
    <path
       style="fill:#985262;stroke:#000000;stroke-width:3;stroke-linecap:butt;stroke-linejoin:miter;stroke-opacity:1;color:#000000;fill-opacity:1;fill-rule:evenodd;stroke-miterlimit:4;stroke-dasharray:none;stroke-dashoffset:0;marker:none;visibility:visible;display:inline;overflow:visible;enable-background:accumulate"
       d="m 103.5298,648.81969 c -5.847109,5.53667 2.32184,-3.38126 -4.359656,3.35648 -13.976716,10.65591 -5.689787,35.90517 11.633866,36.1556 12.97208,0.67528 16.37751,-16.43862 2.09905,-16.99497 -8.05244,-4.2865 -8.23991,-14.62951 -9.37326,-22.51711 z"
       id="path3316"
       inkscape:connector-curvature="0" />
    <path
       style="fill:#a2a10c;stroke:#000000;stroke-width:3;stroke-linecap:butt;stroke-linejoin:miter;stroke-opacity:1;color:#000000;fill-opacity:1;fill-rule:evenodd;stroke-miterlimit:4;stroke-dasharray:none;stroke-dashoffset:0;marker:none;visibility:visible;display:inline;overflow:visible;enable-background:accumulate"
       d="m 129.4355,584.50207 c -1.6125,4.54743 -21.61909,5.25903 -30.423484,9.82142 -12.662567,-1.85092 -22.341311,10.61143 -15.238228,21.94847 13.856469,-13.13903 33.247632,-17.26843 50.440462,-24.2214 7.38215,-3.30078 -0.46981,-7.62386 -4.77875,-7.54849 z"
       id="path3324"
       inkscape:connector-curvature="0" />
  </g>
</svg>
