<?xml version="1.0" encoding="UTF-8" standalone="no"?>
<!-- Created with Inkscape (http://www.inkscape.org/) -->
<svg
   xmlns:dc="http://purl.org/dc/elements/1.1/"
   xmlns:cc="http://creativecommons.org/ns#"
   xmlns:rdf="http://www.w3.org/1999/02/22-rdf-syntax-ns#"
   xmlns:svg="http://www.w3.org/2000/svg"
   xmlns="http://www.w3.org/2000/svg"
   xmlns:sodipodi="http://sodipodi.sourceforge.net/DTD/sodipodi-0.dtd"
   xmlns:inkscape="http://www.inkscape.org/namespaces/inkscape"
   width="744.09448819"
   height="1052.3622047"
   id="svg3350"
   sodipodi:version="0.32"
   inkscape:version="0.46"
   sodipodi:docname="baconthulhu.svg"
   inkscape:output_extension="org.inkscape.output.svg.inkscape">
  <defs
     id="defs3352">
    <inkscape:perspective
       sodipodi:type="inkscape:persp3d"
       inkscape:vp_x="0 : 526.18109 : 1"
       inkscape:vp_y="0 : 1000 : 0"
       inkscape:vp_z="744.09448 : 526.18109 : 1"
       inkscape:persp3d-origin="372.04724 : 350.78739 : 1"
       id="perspective3358" />
    <filter
       inkscape:collect="always"
       id="filter5341">
      <feGaussianBlur
         inkscape:collect="always"
         stdDeviation="1.9959256"
         id="feGaussianBlur5343" />
    </filter>
    <filter
       inkscape:collect="always"
       id="filter5345">
      <feGaussianBlur
         inkscape:collect="always"
         stdDeviation="1.9959256"
         id="feGaussianBlur5347" />
    </filter>
    <filter
       inkscape:collect="always"
       id="filter5349">
      <feGaussianBlur
         inkscape:collect="always"
         stdDeviation="1.9959256"
         id="feGaussianBlur5351" />
    </filter>
    <filter
       inkscape:collect="always"
       id="filter5353">
      <feGaussianBlur
         inkscape:collect="always"
         stdDeviation="1.9959256"
         id="feGaussianBlur5355" />
    </filter>
    <filter
       inkscape:collect="always"
       id="filter5357">
      <feGaussianBlur
         inkscape:collect="always"
         stdDeviation="1.9959256"
         id="feGaussianBlur5359" />
    </filter>
    <filter
       inkscape:collect="always"
       id="filter5361">
      <feGaussianBlur
         inkscape:collect="always"
         stdDeviation="1.9959256"
         id="feGaussianBlur5363" />
    </filter>
    <filter
       inkscape:collect="always"
       id="filter5365"
       x="-0.1013651"
       width="1.2027302"
       y="-0.014169862"
       height="1.0283397">
      <feGaussianBlur
         inkscape:collect="always"
         stdDeviation="1.9959256"
         id="feGaussianBlur5367" />
    </filter>
    <filter
       inkscape:collect="always"
       id="filter5369"
       x="-0.040117502"
       width="1.080235"
       y="-0.25574123"
       height="1.5114825">
      <feGaussianBlur
         inkscape:collect="always"
         stdDeviation="1.9959256"
         id="feGaussianBlur5371" />
    </filter>
    <filter
       inkscape:collect="always"
       id="filter5373"
       x="-0.024171453"
       width="1.0483429"
       y="-0.12155239"
       height="1.2431048">
      <feGaussianBlur
         inkscape:collect="always"
         stdDeviation="1.9959256"
         id="feGaussianBlur5375" />
    </filter>
    <filter
       inkscape:collect="always"
       id="filter5377"
       x="-0.018000822"
       width="1.0360016"
       y="-0.12490427"
       height="1.2498085">
      <feGaussianBlur
         inkscape:collect="always"
         stdDeviation="1.9959256"
         id="feGaussianBlur5379" />
    </filter>
    <filter
       inkscape:collect="always"
       id="filter5381">
      <feGaussianBlur
         inkscape:collect="always"
         stdDeviation="1.9959256"
         id="feGaussianBlur5383" />
    </filter>
    <filter
       inkscape:collect="always"
       id="filter5385">
      <feGaussianBlur
         inkscape:collect="always"
         stdDeviation="1.9959256"
         id="feGaussianBlur5387" />
    </filter>
    <filter
       inkscape:collect="always"
       id="filter5389"
       x="-0.013586134"
       width="1.0271723"
       y="-0.110154"
       height="1.220308">
      <feGaussianBlur
         inkscape:collect="always"
         stdDeviation="1.9959256"
         id="feGaussianBlur5391" />
    </filter>
    <filter
       inkscape:collect="always"
       id="filter5393"
       x="-0.014020229"
       width="1.0280405"
       y="-0.10182199"
       height="1.203644">
      <feGaussianBlur
         inkscape:collect="always"
         stdDeviation="1.9959256"
         id="feGaussianBlur5395" />
    </filter>
    <filter
       inkscape:collect="always"
       id="filter5397">
      <feGaussianBlur
         inkscape:collect="always"
         stdDeviation="1.9959256"
         id="feGaussianBlur5399" />
    </filter>
    <filter
       inkscape:collect="always"
       id="filter5401"
       x="-0.015384824"
       width="1.0307696"
       y="-0.11748429"
       height="1.2349686">
      <feGaussianBlur
         inkscape:collect="always"
         stdDeviation="1.9959256"
         id="feGaussianBlur5403" />
    </filter>
  </defs>
  <sodipodi:namedview
     id="base"
     pagecolor="#ffffff"
     bordercolor="#666666"
     borderopacity="1.0"
     gridtolerance="10000"
     guidetolerance="10"
     objecttolerance="10"
     inkscape:pageopacity="0.0"
     inkscape:pageshadow="2"
     inkscape:zoom="0.6357127"
     inkscape:cx="278.18867"
     inkscape:cy="652.0241"
     inkscape:document-units="px"
     inkscape:current-layer="layer1"
     showgrid="false"
     inkscape:window-width="1280"
     inkscape:window-height="885"
     inkscape:window-x="0"
     inkscape:window-y="25" />
  <metadata
     id="metadata3355">
    <rdf:RDF>
      <cc:Work
         rdf:about="">
        <dc:format>image/svg+xml</dc:format>
        <dc:type
           rdf:resource="http://purl.org/dc/dcmitype/StillImage" />
      </cc:Work>
    </rdf:RDF>
  </metadata>
  <g
     inkscape:label="Layer 1"
     inkscape:groupmode="layer"
     id="layer1">
    <path
       style="opacity:1;fill:#fff6f6;fill-opacity:1;fill-rule:evenodd;stroke:#000000;stroke-width:5;stroke-linecap:round;stroke-linejoin:round;marker:none;marker-start:none;marker-mid:none;marker-end:none;stroke-miterlimit:4;stroke-dasharray:none;stroke-dashoffset:0;stroke-opacity:1;visibility:visible;display:inline;overflow:visible;enable-background:accumulate"
       d="M 309.88845,654.38367 C 309.64702,670.6248 311.26401,687.21104 306.43691,702.99082 C 305.31811,712.34799 306.76758,721.90386 304.05811,731.08986 C 303.06291,739.26777 304.43914,753.74457 292.16354,752.16679 C 283.68124,750.5551 274.20581,752.70498 270.61757,761.45655 C 264.44553,769.60233 264.9472,782.86617 273.93297,788.67795 C 283.97066,793.64596 296.24408,791.18353 305.16931,784.94579 C 311.65541,781.07031 316.5745,765.98458 325.15654,776.25633 C 332.77753,782.65044 341.00359,790.93236 351.96367,789.00836 C 361.89657,789.27779 366.64889,779.676 371.93639,773.00193 C 373.89176,763.49226 365.26101,755.67382 359.31844,749.29241 C 353.87639,740.99111 342.58866,742.15492 336.18934,735.51978 C 329.81992,723.214 330.53368,708.61153 330.33791,695.08602 C 330.78001,682.05509 328.65653,668.56807 333.56386,656.10661 C 335.86133,646.24559 335.23544,635.95863 336.56247,625.92785 C 337.29941,612.84915 335.31441,599.49569 337.78894,586.59917 C 343.10287,577.63222 354.8759,575.37092 362.24458,568.1352 C 374.58429,564.03622 372.25233,549.23208 372.81691,538.91177 C 376.22486,526.71322 362.27914,523.40546 353.04106,524.96893 C 341.86955,523.78846 334.81011,531.91208 332.99555,542.31776 C 330.69927,554.64857 317.2782,542.389 311.6407,538.56868 C 304.59689,532.56256 290.0675,536.02935 290.16752,546.40132 C 287.33424,557.71484 294.47959,566.08274 305.17035,568.86842 C 315.57008,571.279 322.4911,579.03404 319.05519,590.1509 C 317.20437,601.16778 311.97629,611.63099 312.98998,623.09019 C 312.57386,633.50679 314.8137,644.69542 309.88845,654.38367 z"
       id="path3911" />
    <g
       id="g3977"
       transform="translate(-923.3731,92.809221)">
      <path
         id="path3918"
         d="M 1241.1267,504.94506 C 1218.4622,486.30593 1189.0784,474.356 1173.9591,447.8228 C 1156.0793,427.70841 1137.6985,407.29564 1127.602,381.94773 C 1109.3195,347.12456 1085.0569,311.31375 1088.0486,270.21973 C 1087.3491,246.13819 1088.8447,221.60969 1097.9166,199.02895 C 1105.5339,166.60123 1108.337,131.01916 1131.1329,104.68505 C 1157.2918,73.950763 1198.7195,62.551153 1237.1217,57.035443 C 1271.3085,55.711253 1305.5878,57.021313 1339.8176,56.704403 C 1362.0387,60.012443 1385.6552,55.595853 1406.232,64.178503 C 1428.0473,79.087463 1432.3668,107.27859 1439.2402,130.94769 C 1452.154,187.5921 1448.8771,246.35795 1441.4559,303.504 C 1442.4775,344.43084 1416.9286,378.70402 1397.8114,412.76023 C 1376.1216,442.80858 1345.9208,465.91205 1314.4205,484.85986 C 1290.8367,497.33374 1264.3808,503.71672 1237.8633,505.54659 L 1241.1267,504.94506 L 1241.1267,504.94506 z"
         style="opacity:1;fill:#ee6e3b;fill-opacity:1;fill-rule:evenodd;stroke:#000000;stroke-width:5;stroke-linecap:round;stroke-linejoin:round;marker:none;marker-start:none;marker-mid:none;marker-end:none;stroke-miterlimit:4;stroke-dasharray:none;stroke-dashoffset:0;stroke-opacity:1;visibility:visible;display:inline;overflow:visible;enable-background:accumulate" />
      <path
         id="path3924"
         d="M 1212.812,86.517073 C 1208.3084,86.517073 1197.3362,94.127653 1193.9356,97.528333 C 1188.4476,103.01625 1182.0282,114.15484 1175.0591,121.1239 C 1169.598,126.58495 1166.8218,131.3063 1164.0478,136.85427 C 1160.2389,144.47219 1159.4382,153.4874 1153.0366,162.02287 C 1149.8357,166.29066 1149.8905,180.77554 1149.8905,187.19148 C 1149.8905,197.75129 1145.1714,206.23669 1145.1714,217.07919 C 1145.1714,225.80752 1150.8115,238.0665 1153.0366,246.96691 C 1155.2846,255.95881 1155.647,265.27396 1157.7557,273.70855 C 1160.0958,283.06917 1164.3949,294.23925 1168.767,305.1693 C 1172.4397,314.35127 1176.9947,320.8587 1182.9243,328.76486 C 1188.3019,335.93498 1188.0562,342.94819 1193.9356,350.78739 C 1199.9584,358.81791 1202.2,364.17023 1206.5199,372.80992 C 1211.085,381.94011 1219.3069,392.09188 1222.2502,397.97852 C 1227.4352,408.34848 1229.278,412.8715 1236.4076,420.00105 C 1243.6015,427.19501 1249.3461,435.67932 1255.284,443.59661 C 1262.2758,452.91897 1268.6605,460.90003 1277.3065,460.90003 C 1283.0217,460.90003 1292.8965,450.02918 1296.183,446.74269 C 1301.5882,441.33748 1306.4206,436.50507 1310.3403,432.58535 C 1315.4239,427.50174 1322.7715,422.08223 1327.6438,418.42801 C 1334.836,413.0338 1339.8399,407.93431 1344.9472,401.1246 C 1349.4266,395.15197 1357.322,391.89581 1363.8236,385.39422 C 1369.2921,379.92573 1373.4044,372.52481 1376.4079,366.51777 C 1380.577,358.17966 1385.6671,348.53658 1387.4192,339.77613 C 1388.722,333.26224 1395.9057,324.37605 1398.4304,319.32664 C 1402.6269,310.93377 1407.3204,301.07038 1409.4417,292.585 C 1411.7192,283.47512 1415.7339,274.60267 1415.7339,264.27032 C 1415.7339,257.1184 1418.701,246.10951 1420.453,239.10172 C 1422.4976,230.92307 1420.453,219.23798 1420.453,210.78704 C 1420.453,198.15853 1419.5767,187.52926 1417.3069,176.18021 C 1415.2218,165.75458 1413.3849,155.77304 1411.0147,146.2925 C 1408.6561,136.85776 1406.083,128.56377 1401.5765,119.55086 C 1397.5558,111.50939 1394.0201,105.05568 1392.1383,97.528333 C 1390.3479,90.366893 1377.7634,86.462683 1371.6888,84.944033 C 1360.3112,82.099643 1353.334,80.750623 1341.8011,86.517073 C 1323.8602,95.487503 1289.3571,88.090103 1269.4414,88.090103 C 1256.1048,88.090103 1246.3995,83.880673 1237.9806,88.090103 C 1232.557,90.801913 1218.0318,87.561043 1212.812,86.517073 z"
         style="opacity:1;fill:#f8946d;fill-opacity:1;fill-rule:evenodd;stroke:none;stroke-width:5;stroke-linecap:round;stroke-linejoin:round;marker:none;marker-start:none;marker-mid:none;marker-end:none;stroke-miterlimit:4;stroke-dasharray:none;stroke-dashoffset:0;stroke-opacity:1;visibility:visible;display:inline;overflow:visible;enable-background:accumulate" />
    </g>
    <g
       id="g3407"
       transform="translate(448.31573,64.494543)">
      <path
         style="fill:none;fill-opacity:1;fill-rule:evenodd;stroke:#ab2323;stroke-width:3;stroke-linecap:round;stroke-linejoin:round;marker:none;marker-start:none;marker-mid:none;marker-end:none;stroke-miterlimit:4;stroke-dasharray:none;stroke-dashoffset:0;stroke-opacity:1;visibility:visible;display:inline;overflow:visible;filter:url(#filter5341);enable-background:accumulate"
         d="M -187.19148,105.39352 C -192.78653,134.36567 -197.3163,163.57416 -200.93231,192.84077 C -203.00173,224.88692 -199.3108,257.04761 -195.43898,288.785 C -191.03772,313.15691 -190.275,338.21375 -182.6767,361.94964 C -174.5379,400.58263 -165.60046,439.46656 -148.03401,475.08705 C -142.13252,490.65215 -135.64675,506.14038 -130.90138,522.04297 L -130.63477,524.49811 L -130.56212,526.96761"
         id="path3926" />
      <path
         style="fill:none;fill-opacity:1;fill-rule:evenodd;stroke:#ab2323;stroke-width:3;stroke-linecap:round;stroke-linejoin:round;marker:none;marker-start:none;marker-mid:none;marker-end:none;stroke-miterlimit:4;stroke-dasharray:none;stroke-dashoffset:0;stroke-opacity:1;visibility:visible;display:inline;overflow:visible;filter:url(#filter5345);enable-background:accumulate"
         d="M -136.85426,88.090116 C -143.51044,106.0403 -149.67615,124.17213 -151.23382,143.37638 C -157.6233,170.83963 -155.07267,199.04938 -157.06742,226.93942 C -157.37106,246.35339 -154.87769,265.63203 -155.78829,285.07194 C -156.42037,308.84633 -151.23922,332.122 -150.54234,355.7904 C -148.18257,370.37108 -146.42308,384.93826 -143.7798,399.46756 C -135.61905,428.74557 -131.15745,458.91408 -121.67494,487.84613 C -121.64851,501.31343 -124.57489,515.02375 -121.64276,528.33746 C -111.62706,502.85933 -101.22496,475.02355 -108.21462,447.40925 C -115.11678,420.72326 -109.91541,392.99063 -111.99434,365.8219 C -112.51739,348.38855 -117.82122,331.38835 -114.11995,313.95229 C -111.9707,284.13378 -111.86208,254.17065 -108.57492,224.41458 C -110.01941,202.25299 -103.00584,180.29089 -106.90199,158.10485 C -109.51262,138.63758 -104.93679,119.56739 -103.61429,100.31263"
         id="path3928"
         sodipodi:nodetypes="cccccccccccccc" />
      <path
         style="fill:none;fill-opacity:1;fill-rule:evenodd;stroke:#ab2323;stroke-width:3;stroke-linecap:round;stroke-linejoin:round;marker:none;marker-start:none;marker-mid:none;marker-end:none;stroke-miterlimit:4;stroke-dasharray:none;stroke-dashoffset:0;stroke-opacity:1;visibility:visible;display:inline;overflow:visible;filter:url(#filter5349);enable-background:accumulate"
         d="M -70.78671,91.236176 C -77.46448,111.69224 -72.49327,127.39113 -71.80349,148.52142 C -68.07171,169.37624 -55.8807,188.6733 -57.85471,210.43569 C -54.12246,230.39894 -50.03282,250.55846 -51.95577,270.95516 C -51.29668,297.27761 -51.52076,323.82585 -56.62121,349.72162 C -58.34728,382.23544 -67.79863,413.66892 -71.58918,445.87671 C -77.15417,467.18139 -84.639,487.93217 -90.92793,509.03455 C -93.17459,515.2135 -95.81142,521.26764 -99.10139,526.9676"
         id="path3930"
         sodipodi:nodetypes="cccccccc" />
      <path
         style="fill:none;fill-opacity:1;fill-rule:evenodd;stroke:#ab2323;stroke-width:3;stroke-linecap:round;stroke-linejoin:round;marker:none;marker-start:none;marker-mid:none;marker-end:none;stroke-miterlimit:4;stroke-dasharray:none;stroke-dashoffset:0;stroke-opacity:1;visibility:visible;display:inline;overflow:visible;filter:url(#filter5353);enable-background:accumulate"
         d="M -59.7754,512.81025 C -50.59809,469.46651 -21.30781,432.07987 -18.75825,387.06007 C -18.36235,355.50159 -12.96383,324.19117 -14.0948,292.56017 C -13.50612,249.36914 -16.45071,206.24254 -15.73559,163.05969 C -16.18092,138.95508 -20.81221,114.23126 -32.81617,93.211236 C -34.27069,91.332386 -35.93907,89.623056 -37.7529,88.090106"
         id="path3932" />
      <path
         style="fill:none;fill-opacity:1;fill-rule:evenodd;stroke:#ab2323;stroke-width:3;stroke-linecap:round;stroke-linejoin:round;marker:none;marker-start:none;marker-mid:none;marker-end:none;stroke-miterlimit:4;stroke-dasharray:none;stroke-dashoffset:0;stroke-opacity:1;visibility:visible;display:inline;overflow:visible;filter:url(#filter5357);enable-background:accumulate"
         d="M -7.86516,91.236176 C -9.61572,106.14399 3.03913,114.10723 3.9195,128.82413 C 14.08561,163.00996 27.77875,197.04277 27.02735,233.30908 C 27.36679,257.48301 24.22461,281.5172 24.90127,305.68841 C 21.64302,327.16266 18.22254,348.80574 12.8751,369.87786 C 1.19485,402.3731 4.63613,438.86812 -11.60853,469.98738 C -13.91077,474.37472 -16.75997,478.43174 -18.87647,482.92256"
         id="path3934"
         sodipodi:nodetypes="ccccccc" />
      <path
         style="fill:none;fill-opacity:1;fill-rule:evenodd;stroke:#ab2323;stroke-width:3;stroke-linecap:round;stroke-linejoin:round;marker:none;marker-start:none;marker-mid:none;marker-end:none;stroke-miterlimit:4;stroke-dasharray:none;stroke-dashoffset:0;stroke-opacity:1;visibility:visible;display:inline;overflow:visible;filter:url(#filter5361);enable-background:accumulate"
         d="M -162.0229,506.51814 C -170.35859,492.82413 -169.58898,475.30812 -180.00063,462.48244 C -188.56793,442.90327 -195.3247,422.33368 -207.71219,404.68792 C -222.37848,377.65963 -227.33841,346.94977 -238.57235,318.57112 C -246.9762,293.72363 -242.95158,267.0449 -243.75807,241.32909 C -243.58971,220.51568 -245.71373,199.13991 -238.95837,179.05797 C -235.41044,157.57573 -227.51325,137.31149 -221.7983,116.40479"
         id="path3936" />
      <path
         style="fill:none;fill-opacity:1;fill-rule:evenodd;stroke:#ab2323;stroke-width:3;stroke-linecap:round;stroke-linejoin:round;marker:none;marker-start:none;marker-mid:none;marker-end:none;stroke-miterlimit:4;stroke-dasharray:none;stroke-dashoffset:0;stroke-opacity:1;visibility:visible;display:inline;overflow:visible;filter:url(#filter5365);enable-background:accumulate"
         d="M 22.02251,92.809216 C 34.47119,104.71103 42.91292,120.41961 47.232,137.00987 C 57.72022,154.08607 59.88672,174.31803 63.43662,193.60101 C 65.54482,209.80688 63.37552,226.20214 66.07412,242.35157 C 67.71282,256.28732 58.98222,268.64782 59.98142,282.64171 C 59.70492,298.9261 60.46612,315.41976 56.37822,331.32587 C 53.74176,348.68921 50.4386,366.00198 46.97779,383.18802 C 43.20588,396.82318 39.5434,410.71327 32.45386,423.07807 L 31.93333,425.46684 L 31.46076,427.86624"
         id="path3955" />
      <path
         style="fill:none;fill-opacity:1;fill-rule:evenodd;stroke:#ab2323;stroke-width:3;stroke-linecap:round;stroke-linejoin:round;marker:none;marker-start:none;marker-mid:none;marker-end:none;stroke-miterlimit:4;stroke-dasharray:none;stroke-dashoffset:0;stroke-opacity:1;visibility:visible;display:inline;overflow:visible;filter:url(#filter5369);enable-background:accumulate"
         d="M -166.74198,504.94508 C -162.15016,501.72285 -146.5606,501.14654 -138.42731,497.0799 C -131.93119,493.83184 -122.0593,493.93382 -114.83174,493.93382 C -106.44221,493.93382 -98.05267,493.93382 -89.66314,493.93382 C -79.59781,493.93382 -76.23035,498.07854 -67.64061,500.22597 C -61.37018,501.79358 -55.43035,505.84433 -50.3372,509.6642"
         id="path3959" />
      <path
         style="fill:none;fill-opacity:1;fill-rule:evenodd;stroke:#ab2323;stroke-width:3;stroke-linecap:round;stroke-linejoin:round;marker:none;marker-start:none;marker-mid:none;marker-end:none;stroke-miterlimit:4;stroke-dasharray:none;stroke-dashoffset:0;stroke-opacity:1;visibility:visible;display:inline;overflow:visible;filter:url(#filter5373);enable-background:accumulate"
         d="M -12.5843,476.63041 C -4.81948,478.57161 -25.87498,467.62551 -33.03379,464.04611 C -41.74978,459.68811 -47.14055,456.99272 -55.05631,453.03484 C -62.47582,449.32509 -68.60213,445.32253 -75.5058,443.59662 C -82.15375,441.93463 -90.37169,440.45054 -97.52833,440.45054 C -106.07902,440.45054 -112.5787,442.02358 -121.12389,442.02358 C -131.89608,442.02358 -144.36693,442.72197 -154.15768,445.16965 C -155.17506,445.424 -156.25507,445.16965 -157.30376,445.16965 C -166.90796,445.16965 -174.17338,449.80201 -182.47236,451.4618 C -189.26275,452.81988 -197.07638,457.19077 -201.34881,459.32699 C -204.77885,461.04201 -204.08852,461.15347 -206.06793,462.47307"
         id="path3961" />
      <path
         style="fill:none;fill-opacity:1;fill-rule:evenodd;stroke:#ab2323;stroke-width:3;stroke-linecap:round;stroke-linejoin:round;marker:none;marker-start:none;marker-mid:none;marker-end:none;stroke-miterlimit:4;stroke-dasharray:none;stroke-dashoffset:0;stroke-opacity:1;visibility:visible;display:inline;overflow:visible;filter:url(#filter5377);enable-background:accumulate"
         d="M -235.95564,421.57409 C -245.81557,426.50406 -216.30321,411.51087 -206.06793,407.41675 C -195.81971,403.31746 -184.69333,399.99576 -174.60717,397.97853 C -160.65903,395.1889 -148.00615,393.25941 -133.70819,393.25941 C -126.5363,393.25941 -113.59306,391.12403 -108.53959,390.11334 C -97.39369,387.88416 -84.35352,391.17526 -73.93276,393.25941 C -61.80233,395.6855 -47.75198,392.51803 -36.17986,394.83245 C -28.37858,396.39271 -19.33003,399.32477 -12.5843,402.69764 C -4.24587,406.86685 4.5704,412.02432 11.01127,416.85498 C 16.7032,421.12392 21.11236,420.66392 25.16861,424.72017"
         id="path3963" />
      <path
         style="fill:none;fill-opacity:1;fill-rule:evenodd;stroke:#ab2323;stroke-width:3;stroke-linecap:round;stroke-linejoin:round;marker:none;marker-start:none;marker-mid:none;marker-end:none;stroke-miterlimit:4;stroke-dasharray:none;stroke-dashoffset:0;stroke-opacity:1;visibility:visible;display:inline;overflow:visible;filter:url(#filter5381);enable-background:accumulate"
         d="M 53.48329,390.11334 C 59.94742,394.96141 43.01448,379.3733 29.88772,372.80992 C 19.67867,367.7054 9.55981,361.07293 -1.57303,355.50651 C -11.35901,350.61352 -22.11716,348.79744 -33.03379,346.06828 C -44.47614,343.20769 -55.71426,341.34917 -67.64061,341.34917 C -82.39151,341.34917 -98.09509,339.77613 -113.2587,339.77613 C -125.86074,339.77613 -137.45495,340.52548 -149.43857,342.92221 C -164.76899,345.98829 -181.31459,344.5783 -196.6297,347.64132 C -206.23433,349.56225 -211.04479,352.48931 -220.22526,357.07955 C -228.0148,360.97432 -237.05161,363.91968 -245.39387,368.09081 C -249.85317,370.32046 -251.62095,371.20435 -254.83209,372.80992"
         id="path3965" />
      <path
         style="fill:none;fill-opacity:1;fill-rule:evenodd;stroke:#ab2323;stroke-width:3;stroke-linecap:round;stroke-linejoin:round;marker:none;marker-start:none;marker-mid:none;marker-end:none;stroke-miterlimit:4;stroke-dasharray:none;stroke-dashoffset:0;stroke-opacity:1;visibility:visible;display:inline;overflow:visible;filter:url(#filter5385);enable-background:accumulate"
         d="M -268.98943,336.63006 C -270.89458,337.58263 -250.29344,324.9962 -224.94438,317.75361 C -211.47387,313.90489 -196.46575,307.44688 -182.47236,300.45019 C -173.25628,295.84215 -161.4693,297.30412 -151.01161,297.30412 C -133.30334,297.30412 -115.44127,292.585 -97.52833,292.585 C -76.9915,292.585 -55.6508,289.43893 -34.60682,289.43893 C -26.45016,289.43893 -15.29018,296.73769 -7.86518,300.45019 C -0.05731,304.35413 7.42443,307.30848 15.73038,311.46145 C 25.26883,316.23068 33.13126,320.16189 40.89898,324.04576 C 50.66965,328.93109 56.72352,333.57817 61.34852,338.20309"
         id="path3967" />
      <path
         style="fill:none;fill-opacity:1;fill-rule:evenodd;stroke:#ab2323;stroke-width:3;stroke-linecap:round;stroke-linejoin:round;marker:none;marker-start:none;marker-mid:none;marker-end:none;stroke-miterlimit:4;stroke-dasharray:none;stroke-dashoffset:0;stroke-opacity:1;visibility:visible;display:inline;overflow:visible;filter:url(#filter5389);enable-background:accumulate"
         d="M 72.35972,292.585 C 82.02822,297.41923 52.95894,282.62243 42.47202,280.0007 C 30.06218,276.89824 21.26126,270.96836 11.01127,265.84336 C 0.29413,260.48479 -15.25812,260.84905 -26.74163,257.97817 C -35.4202,255.80853 -44.80501,257.00166 -53.48327,254.8321 C -63.56063,252.31276 -75.89618,253.25906 -86.51707,253.25906 C -98.05267,253.25906 -109.58828,253.25906 -121.12389,253.25906 C -132.05908,253.25906 -143.79208,252.2407 -154.15768,254.8321 C -163.19122,257.09048 -172.66275,257.09881 -182.47236,259.55121 C -198.75183,263.62108 -214.20084,266.69681 -229.66349,270.56248 C -231.76087,271.08682 -233.85826,271.61117 -235.95564,272.13551 C -244.63235,274.30469 -251.08011,277.33819 -259.55121,281.57374 C -267.90433,285.7503 -270.71912,286.4495 -275.28158,291.01197"
         id="path3969" />
      <path
         style="fill:none;fill-opacity:1;fill-rule:evenodd;stroke:#ab2323;stroke-width:3;stroke-linecap:round;stroke-linejoin:round;marker:none;marker-start:none;marker-mid:none;marker-end:none;stroke-miterlimit:4;stroke-dasharray:none;stroke-dashoffset:0;stroke-opacity:1;visibility:visible;display:inline;overflow:visible;filter:url(#filter5393);enable-background:accumulate"
         d="M -272.13551,240.67476 C -282.51703,245.86552 -250.36205,232.47858 -239.10172,229.6635 C -208.19186,221.93603 -179.11176,225.39722 -149.43857,215.50616 C -140.41585,212.49858 -123.99323,212.36008 -114.83174,212.36008 C -97.91344,212.36008 -82.99612,213.93312 -66.06758,213.93312 C -56.39487,213.93312 -35.84617,219.75654 -23.59556,221.79831 C -20.95829,222.23785 -18.3521,222.847 -15.73037,223.37135 C -7.58833,224.99975 -2.16664,229.12184 6.29216,231.23654 C 16.35677,233.75269 29.17313,238.95904 37.75291,245.39387 C 43.96538,250.05322 52.61874,250.46723 58.20242,253.25906 C 61.01622,254.66597 62.52552,255.42061 64.49452,256.40514"
         id="path3971" />
      <path
         style="fill:none;fill-opacity:1;fill-rule:evenodd;stroke:#ab2323;stroke-width:3;stroke-linecap:round;stroke-linejoin:round;marker:none;marker-start:none;marker-mid:none;marker-end:none;stroke-miterlimit:4;stroke-dasharray:none;stroke-dashoffset:0;stroke-opacity:1;visibility:visible;display:inline;overflow:visible;filter:url(#filter5397);enable-background:accumulate"
         d="M 75.50582,217.0792 C 82.22072,220.43665 61.77122,210.99842 55.05632,207.64097 C 45.75635,202.99098 39.05549,193.3484 29.88772,188.76452 C 20.73485,184.18809 11.91089,182.13566 3.14608,177.75326 C -6.53549,172.91247 -18.01441,172.46313 -28.31467,169.88807 C -37.94669,167.48006 -48.1984,168.31503 -58.20239,168.31503 C -76.55449,168.31503 -94.9066,168.31503 -113.2587,168.31503 C -121.64824,168.31503 -130.03777,168.31503 -138.42731,168.31503 C -150.01931,168.31503 -156.64031,171.4611 -166.74198,171.4611 C -178.77475,171.4611 -195.43669,175.70301 -204.49489,179.32629 C -216.16967,183.9962 -224.69551,189.88208 -232.80957,191.91059 C -240.08316,193.72899 -250.30138,202.22954 -254.83209,204.4949 C -254.55333,206.96407 -257.23518,205.69644 -257.97817,206.06793"
         id="path3973" />
      <path
         style="fill:none;fill-opacity:1;fill-rule:evenodd;stroke:#ab2323;stroke-width:3;stroke-linecap:round;stroke-linejoin:round;marker:none;marker-start:none;marker-mid:none;marker-end:none;stroke-miterlimit:4;stroke-dasharray:none;stroke-dashoffset:0;stroke-opacity:1;visibility:visible;display:inline;overflow:visible;filter:url(#filter5401);enable-background:accumulate"
         d="M -251.68602,160.44984 C -252.77629,160.99498 -233.774,150.46621 -217.07919,146.2925 C -191.25519,139.8365 -164.35417,132.60142 -138.42731,127.41605 C -123.46829,124.42425 -106.38205,124.26998 -91.23618,124.26998 C -78.46856,124.26998 -65.00133,122.69694 -51.91024,122.69694 C -37.94095,122.69694 -25.51756,128.98909 -9.43822,128.98909 C -1.61788,128.98909 9.11631,134.33376 14.15734,136.85428 C 22.11726,140.83423 31.22319,143.81416 39.32595,147.86554 C 44.17353,150.28933 50.31,154.13048 53.48329,157.30377 C 54.31235,158.13283 55.58067,158.35246 56.62932,158.8768"
         id="path3975" />
    </g>
    <path
       style="opacity:1;fill:#fff6f6;fill-opacity:1;fill-rule:evenodd;stroke:#000000;stroke-width:5;stroke-linecap:round;stroke-linejoin:round;marker:none;marker-start:none;marker-mid:none;marker-end:none;stroke-miterlimit:4;stroke-dasharray:none;stroke-dashoffset:0;stroke-opacity:1;visibility:visible;display:inline;overflow:visible;enable-background:accumulate"
       d="M 546.32669,55.207949 C 537.71638,68.980938 530.5178,84.010849 518.22214,95.016267 C 512.42304,102.44451 508.71885,111.3717 501.64714,117.8304 C 496.564,124.31347 490.25089,137.41372 480.56277,129.71176 C 474.13822,123.94357 464.91744,120.88037 457.31855,126.51261 C 447.82209,130.28952 441.38822,141.89927 446.07033,151.5221 C 452.08921,160.96718 463.866,165.2107 474.73114,164.49114 C 482.28675,164.53093 494.30201,154.16703 496.3309,167.39743 C 499.54383,176.81238 502.29771,188.15586 512.67205,192.18057 C 521.03245,197.55073 530.06741,191.79327 538.04544,188.81805 C 544.63932,181.69218 541.29931,170.53591 539.51607,162.00031 C 539.15456,152.08079 528.8932,147.23603 526.8504,138.24697 C 527.76736,124.42087 535.93396,112.29453 542.76499,100.61913 C 549.88595,89.697017 555.04748,77.057109 565.69478,68.932766 C 572.7632,61.683257 577.55044,52.55661 583.87627,44.659689 C 591.27425,33.849258 596.48517,21.395285 605.27578,11.639834 C 614.46284,6.7162185 625.70736,10.872936 635.75692,8.4939625 C 648.43724,11.371361 654.1019,-2.5035213 659.9251,-11.042718 C 669.1533,-19.71791 658.93117,-29.764425 650.21694,-33.206623 C 641.26804,-39.997297 631.02368,-36.698521 624.08667,-28.733053 C 615.74131,-19.369467 610.6001,-36.804781 607.75273,-42.990951 C 604.83295,-51.775233 590.60598,-56.32662 585.32476,-47.399332 C 577.04626,-39.184124 578.83086,-28.326271 586.53779,-20.41074 C 594.18976,-12.966777 596.09952,-2.74944 587.40709,4.9856605 C 580.1228,13.455382 570.23499,19.703808 565.17305,30.034231 C 559.42705,38.732638 555.55436,49.465979 546.32669,55.207949 z"
       id="path3461" />
    <path
       style="opacity:1;fill:#d13b16;fill-opacity:1;fill-rule:evenodd;stroke:#000000;stroke-width:5.84157848;stroke-linecap:round;stroke-linejoin:round;marker:none;marker-start:none;marker-mid:none;marker-end:none;stroke-miterlimit:4;stroke-dasharray:none;stroke-dashoffset:0;stroke-opacity:1;visibility:visible;display:inline;overflow:visible;enable-background:accumulate"
       d="M 470.33826,94.382261 C 433.87817,117.91426 407.60407,170.42347 434.26754,210.33595 C 454.62128,247.52638 518.3837,252.43372 540.00175,213.75303 C 556.3014,172.71046 564.1379,128.80848 564.63352,84.833997 C 539.78638,105.45444 561.52801,47.44461 531.50846,76.53441 C 548.79425,40.421413 483.47198,108.28209 470.33826,94.382261 z"
       id="path3458" />
    <path
       style="opacity:1;fill:#fff6f6;fill-opacity:1;fill-rule:evenodd;stroke:#000000;stroke-width:5;stroke-linecap:round;stroke-linejoin:round;marker:none;marker-start:none;marker-mid:none;marker-end:none;stroke-miterlimit:4;stroke-dasharray:none;stroke-dashoffset:0;stroke-opacity:1;visibility:visible;display:inline;overflow:visible;enable-background:accumulate"
       d="M 153.69898,80.720189 C 143.64574,67.962253 131.93245,56.10827 125.72933,40.816981 C 120.69765,32.848883 113.5473,26.345946 109.85817,17.507727 C 105.47412,10.532854 95.27779,0.16432144 105.80047,-6.3512952 C 113.40031,-10.448763 119.39917,-18.092031 116.66602,-27.147159 C 116.3203,-37.361267 107.56759,-47.339794 96.92865,-46.184824 C 86.00529,-43.711642 78.03182,-34.061563 75.03754,-23.5924 C 72.44693,-16.494683 78.14103,-1.6840695 65.0033,-4.2453041 C 55.05647,-4.4028349 43.44968,-5.6440938 36.15607,2.7599756 C 28.27668,8.8139166 30.6424,19.262947 30.7467,27.777055 C 35.22522,36.390999 46.85389,37.017346 55.48997,38.223319 C 64.94816,41.235053 72.97541,33.214432 82.126,34.32934 C 94.82893,39.86443 103.48232,51.648319 112.16262,62.022823 C 120.03596,72.415663 130.18818,81.544802 134.23672,94.31114 C 138.67125,103.41349 145.64334,111.00317 150.93815,119.62539 C 158.61277,130.24121 168.57329,139.354 174.78441,150.92404 C 176.31394,161.23446 168.60202,170.41291 167.44515,180.67521 C 160.45213,191.6373 171.59665,201.65729 177.66579,210.02348 C 182.71231,221.64033 195.62208,215.41439 201.80648,208.37594 C 211.22168,202.24813 211.57869,191.49167 206.42589,182.27106 C 200.43314,171.2525 218.58015,172.30539 225.36459,171.71592 C 234.61879,171.93624 243.70998,160.08415 237.09243,152.09691 C 232.15792,141.52933 221.33572,139.53991 211.28151,144.1187 C 201.6897,148.80513 191.42806,147.14994 187.08527,136.35501 C 181.57525,126.63716 179.03564,115.21954 171.02339,106.96454 C 164.77832,98.617212 155.98501,91.345353 153.69898,80.720189 z"
       id="path3463" />
    <path
       style="opacity:1;fill:#d13b16;fill-opacity:1;fill-rule:evenodd;stroke:#000000;stroke-width:5.84157848;stroke-linecap:round;stroke-linejoin:round;marker:none;marker-start:none;marker-mid:none;marker-end:none;stroke-miterlimit:4;stroke-dasharray:none;stroke-dashoffset:0;stroke-opacity:1;visibility:visible;display:inline;overflow:visible;enable-background:accumulate"
       d="M 133.7082,106.96656 C 130.82178,110.63057 128.98909,120.40519 128.98909,130.56212 C 128.98909,137.57172 127.22027,147.07565 125.84301,152.58465 C 124.12814,159.44413 125.84301,169.06779 125.84301,176.18022 C 125.84301,182.30938 130.49078,188.47913 132.13517,195.05667 C 133.51244,200.56576 139.97475,204.44369 143.14643,210.78704 C 145.71374,215.92167 154.28752,220.29018 160.44984,223.37134 C 167.56443,226.92864 177.28519,229.54648 184.04541,231.23653 C 195.21972,234.03011 208.42551,232.80957 220.22527,232.80957 C 228.27839,232.80957 234.86,224.70569 240.67476,221.79831 C 247.18295,218.54421 250.11685,209.20627 253.25906,202.92186 C 256.39548,196.64901 256.40514,189.69079 256.40514,182.47237 C 256.40514,176.3668 257.97817,167.62328 257.97817,160.44984 C 257.97817,154.13379 250.26816,146.9132 248.53995,140.00035 C 246.5889,132.19617 241.48946,128.50232 235.95565,121.1239 C 235.25216,120.18592 234.90695,119.02651 234.38261,117.97782 C 232.1406,113.4938 217.56247,109.44693 213.93312,108.5396 C 205.68679,106.47801 202.32115,102.88379 193.48363,100.67441 C 185.40314,98.654291 179.23019,97.480281 173.03414,94.382261 C 165.59251,90.661441 164.42363,86.930921 157.30377,83.370991 C 151.40875,80.423481 154.7187,95.053251 155.73073,99.101371 C 159.16152,112.82452 146.39092,95.037821 144.71947,92.809221 C 136.70948,82.129241 138.48352,100.99741 133.7082,106.96656 C 131.61082,109.58829 140.81466,111.57454 140.00035,114.83175 C 139.18605,118.08895 135.80559,109.58829 133.7082,106.96656 z"
       id="path3456" />
    <path
       style="fill:#6e7b4a;fill-opacity:1;fill-rule:evenodd;stroke:#030000;stroke-width:5;stroke-linecap:round;stroke-linejoin:round;marker:none;marker-start:none;marker-mid:none;marker-end:none;stroke-miterlimit:4;stroke-dasharray:none;stroke-dashoffset:0;stroke-opacity:1;visibility:visible;display:inline;overflow:visible;enable-background:accumulate;opacity:1;color:#000000"
       d="M 272.13551,280.00069 C 272.13551,274.96468 260.87441,289.11505 259.55121,295.73107 C 257.31442,306.91505 262.37068,308.93859 270.56247,313.03448 C 279.68869,317.59759 288.39794,312.50243 294.15804,306.74233 C 300.53445,300.36592 302.31266,293.74272 300.45019,286.29284 C 298.28371,277.62691 287.59588,278.36015 281.57374,276.85462 C 278.3565,276.05031 275.28159,278.952 272.13551,280.00069 z"
       id="path3871" />
    <path
       style="fill:#6e7b4a;fill-opacity:1;fill-rule:evenodd;stroke:#030000;stroke-width:5;stroke-linecap:round;stroke-linejoin:round;marker:none;marker-start:none;marker-mid:none;marker-end:none;stroke-miterlimit:4;stroke-dasharray:none;stroke-dashoffset:0;stroke-opacity:1;visibility:visible;display:inline;overflow:visible;enable-background:accumulate;opacity:1;color:#000000"
       d="M 287.8659,339.77613 C 282.24654,338.37129 272.61116,345.73877 270.56248,353.93347 C 268.00675,364.15639 271.93517,367.99063 278.42767,371.23688 C 284.94574,374.49591 290.43719,374.52665 297.30412,372.80992 C 304.98002,370.89095 305.30189,361.26835 306.74235,355.50651 C 309.47249,344.58595 303.6245,340.17644 295.73109,338.20309 C 293.13726,337.55464 290.48763,339.25178 287.8659,339.77613 z"
       id="path3873" />
    <path
       style="fill:#6e7b4a;fill-opacity:1;fill-rule:evenodd;stroke:#030000;stroke-width:5;stroke-linecap:round;stroke-linejoin:round;marker:none;marker-start:none;marker-mid:none;marker-end:none;stroke-miterlimit:4;stroke-dasharray:none;stroke-dashoffset:0;stroke-opacity:1;visibility:visible;display:inline;overflow:visible;enable-background:accumulate;opacity:1;color:#000000"
       d="M 427.86625,276.85462 C 420.64193,275.04854 415.22215,286.53204 413.70891,292.585 C 411.5436,301.24624 411.84153,307.72668 415.28195,314.60753 C 418.1891,320.42182 433.48803,314.32379 437.30448,311.46145 C 442.39573,307.64301 443.56202,295.86949 445.16967,289.43892 C 447.89008,278.55725 435.99205,276.85462 427.86625,276.85462 z"
       id="path3875" />
    <path
       style="fill:#6e7b4a;fill-opacity:1;fill-rule:evenodd;stroke:#030000;stroke-width:5;stroke-linecap:round;stroke-linejoin:round;marker:none;marker-start:none;marker-mid:none;marker-end:none;stroke-miterlimit:4;stroke-dasharray:none;stroke-dashoffset:0;stroke-opacity:1;visibility:visible;display:inline;overflow:visible;enable-background:accumulate;opacity:1;color:#000000"
       d="M 416.85498,333.48398 C 416.95323,333.09099 401.82964,336.95596 399.55156,346.06829 C 397.61934,353.79719 400.33788,363.3713 402.69764,368.09081 C 406.66818,376.0319 422.89475,369.00352 424.72017,368.09081 C 432.3949,364.25345 431.01232,351.94752 431.01232,344.49525 C 431.01232,338.46708 423.65163,333.48398 416.85498,333.48398 z"
       id="path3877" />
    <path
       style="fill:#c9b9b9;fill-opacity:1;fill-rule:evenodd;stroke:#030000;stroke-width:5;stroke-linecap:round;stroke-linejoin:round;marker:none;marker-start:none;marker-mid:none;marker-end:none;stroke-miterlimit:4;stroke-dasharray:none;stroke-dashoffset:0;stroke-opacity:1;visibility:visible;display:inline;overflow:visible;enable-background:accumulate"
       d="M 311.46145,420.00104 C 307.83988,411.5757 296.97556,418.11435 290.36729,414.80529 C 283.32269,411.38029 277.50368,405.78977 271.70098,400.60825 C 261.26243,389.04455 251.2687,376.85258 238.49931,367.71479 C 231.09761,362.43278 223.82154,356.90151 218.19142,349.66552 C 211.58067,341.99859 204.47881,334.05435 195.10952,329.86912 C 186.35353,328.35553 191.9089,339.16755 192.49312,343.72854 C 194.84079,351.18713 196.66713,359.64693 192.56179,366.88248 C 189.08555,374.22004 187.83953,382.40136 189.40996,390.38581 C 190.81909,402.02802 189.75265,413.84574 191.40943,425.44057 C 192.71548,434.88859 200.92729,440.68475 207.81783,446.17992 C 214.60148,450.76743 222.61141,452.96694 229.8202,456.80441 C 237.33604,459.92842 244.56208,464.73811 253.01229,464.41785 C 259.87155,464.35822 266.91222,464.45214 273.60283,462.95542 C 285.75313,459.24654 297.28628,452.64594 305.53093,442.84614 C 306.72345,435.93199 314.47329,432.72788 319.41707,433.04152 C 320.23924,427.65614 315.89115,422.46776 311.46145,420.00104 z"
       id="path3879" />
    <path
       style="fill:#c9b9b9;fill-opacity:1;fill-rule:evenodd;stroke:#030000;stroke-width:5;stroke-linecap:round;stroke-linejoin:round;marker:none;marker-start:none;marker-mid:none;marker-end:none;stroke-miterlimit:4;stroke-dasharray:none;stroke-dashoffset:0;stroke-opacity:1;visibility:visible;display:inline;overflow:visible;enable-background:accumulate;opacity:1;color:#000000"
       d="M 372.80994,435.73144 C 381.02413,434.35332 377.8441,423.39492 382.40626,418.35052 C 389.03425,411.46344 401.06757,414.23683 406.46735,405.2902 C 412.54499,398.80633 421.13041,395.82018 427.39431,389.57493 C 434.08151,384.15745 441.83276,380.08311 447.64595,373.59018 C 458.74358,361.95132 470.22463,350.64164 483.16168,341.02802 C 485.94435,338.06375 494.67764,330.97495 493.90696,339.6732 C 492.35599,348.98191 489.38855,358.40792 491.7075,367.8957 C 493.46768,378.40621 499.40371,387.58687 501.16596,398.1076 C 504.9896,414.94147 500.21754,434.34676 486.87392,445.80735 C 477.84304,451.64002 467.28679,454.48104 458.04714,459.95967 C 447.64164,465.48173 436.49615,471.28701 424.32471,470.23674 C 413.74234,470.62798 401.6919,473.50077 392.61829,466.27506 C 384.53825,463.41186 378.09313,456.28818 381.71626,447.52662 C 382.88692,443.58459 379.29737,436.73285 375.95907,442.61964 C 372.00893,445.20409 373.18496,437.54892 372.80994,435.73144 z"
       id="path3881" />
    <path
       style="opacity:1;fill:#ff9191;fill-opacity:1;fill-rule:evenodd;stroke:#000000;stroke-width:5;stroke-linecap:round;stroke-linejoin:round;marker:none;marker-start:none;marker-mid:none;marker-end:none;stroke-miterlimit:4;stroke-dasharray:none;stroke-dashoffset:0;stroke-opacity:1;visibility:visible;display:inline;overflow:visible;enable-background:accumulate;color:#000000"
       d="M 287.86589,501.79901 C 288.20809,510.26673 281.29566,514.59187 275.28159,519.10242 C 271.1241,522.22054 255.21142,521.36715 251.68602,522.2485 C 244.82654,523.96337 235.20289,522.2485 228.09046,522.2485 C 219.92848,522.2485 212.52522,520.24091 204.49489,522.2485 C 196.55372,524.23379 186.45782,523.82153 179.32629,523.82153 C 170.72943,523.82153 164.65212,529.84963 157.30376,531.68672 C 150.63438,533.35407 146.79337,540.87451 140.00035,544.27102 C 135.39526,546.57357 132.63197,562.23649 132.13516,564.72051 C 130.69021,571.94527 128.342,577.02595 125.84301,582.02393 C 122.45484,588.80027 113.07637,588.36166 106.96656,589.88912 C 97.98506,592.13449 90.174815,588.57191 83.370995,585.17 C 76.360604,581.66481 71.512357,578.75614 67.640619,571.01266 C 64.483514,564.69846 61.639343,561.45578 59.77543,552.13621 C 57.933128,542.9247 49.482279,545.48501 45.618092,547.4171 C 39.53582,550.45824 41.403355,562.0189 42.472016,566.29355 C 44.32647,573.71137 44.045054,581.68179 44.045054,589.88912 C 44.045054,597.12803 45.669404,603.8412 44.045054,610.33861 C 42.130908,617.99519 40.898979,622.1136 40.898979,624.49594 C 40.898979,631.85549 55.781698,624.28403 62.921506,626.06898 C 71.290106,628.16113 78.588494,632.34529 84.944033,633.93417 C 92.565471,635.83953 97.895012,636.77866 105.39352,638.65328 C 113.33909,640.63968 121.97501,640.22632 130.56212,640.22632 C 138.4416,640.22632 143.48677,636.99516 149.43858,635.50721 C 158.2825,633.29623 161.98352,624.57466 165.16895,618.20379 C 168.27539,611.99093 168.20722,602.90464 169.88807,596.18127 C 172.43557,585.99126 173.30276,583.32835 179.32629,577.30481 C 184.99784,571.63326 192.31017,570.91277 198.20274,569.43963 C 206.49436,567.36672 217.6851,571.16414 223.37135,572.5857 C 233.3243,575.07394 241.48296,568.83347 246.96691,564.72051 C 252.72289,560.40353 256.88991,558.70043 264.27032,556.85533 C 271.9892,554.92561 278.04345,553.90136 284.71981,550.56317 C 293.61846,546.11385 295.35639,543.19757 300.45019,536.40584 C 305.23003,530.03271 307.98967,520.40527 309.88842,512.81027 C 312.22973,503.44502 316.61475,500.22597 303.59626,500.22597 C 299.89806,500.22597 292.32089,501.79901 287.86589,501.79901 z"
       id="path3887" />
    <path
       style="opacity:1;fill:#ff9191;fill-opacity:1;fill-rule:evenodd;stroke:#000000;stroke-width:5;stroke-linecap:round;stroke-linejoin:round;marker:none;marker-start:none;marker-mid:none;marker-end:none;stroke-miterlimit:4;stroke-dasharray:none;stroke-dashoffset:0;stroke-opacity:1;visibility:visible;display:inline;overflow:visible;enable-background:accumulate;color:#000000"
       d="M 331.91094,506.51812 C 324.07777,506.51812 318.84694,509.11753 311.46145,512.81027 C 304.3851,516.34845 301.63721,519.48844 297.30411,523.82153 C 294.95338,526.17227 297.30411,543.67943 297.30411,547.4171 C 297.30411,552.98288 290.31234,560.70102 287.86589,563.14748 C 283.16494,567.84842 277.34286,573.1281 272.13551,575.73178 C 266.35798,578.62054 255.03285,580.79396 250.11299,582.02393 C 241.17458,584.25853 236.79177,585.53846 228.09046,589.88912 C 222.36329,592.7527 218.70794,599.77742 215.50616,604.04645 C 212.1308,608.54693 214.00745,620.07413 215.50616,626.06898 C 217.83914,635.40092 217.26791,641.54774 212.36008,648.09151 C 206.98802,655.25426 205.99312,656.78062 198.20274,660.67581 C 190.85883,664.34777 182.71918,666.05803 177.75325,668.541 C 169.16167,672.83679 162.19781,676.17294 157.30376,682.69834 C 151.40818,690.55911 145.72424,696.41915 141.57339,704.72086 C 138.92324,710.02116 140.00035,719.2826 140.00035,726.74339 C 140.00035,737.30844 142.33323,740.84737 146.2925,748.76592 C 149.82492,755.83075 154.71106,760.33055 158.8768,764.49629 C 163.67623,769.29572 168.81009,774.18205 174.60718,777.0806 C 180.53362,780.04382 186.79899,787.69937 187.19148,788.09186 C 192.23448,793.13486 188.44063,772.68537 193.48363,767.64237 C 198.87007,762.25593 211.56552,761.1556 217.07919,759.77718 C 226.62407,757.39096 233.08667,755.77531 242.2478,753.48503 C 250.99762,751.29758 256.30786,751.07684 245.39387,745.61984 C 237.68019,741.763 233.07161,739.45871 226.51742,736.18162 C 218.45658,732.15119 216.57406,725.73313 213.93312,720.45124 C 208.89549,710.37599 217.17594,709.34323 223.37135,703.14783 C 228.64953,697.86964 237.88084,696.76764 243.82083,695.28264 C 251.42262,693.38219 256.26155,689.06228 262.69729,685.84441 C 270.08252,682.15179 273.5419,678.31253 276.85463,671.68707 C 280.65242,664.09148 278.82404,654.78003 273.70855,649.66455 C 268.53781,644.49381 267.4164,636.26027 267.4164,629.21506 C 267.4164,618.86453 272.53013,616.23613 276.85463,611.91164 C 280.7248,608.04146 289.39742,605.62987 295.73108,604.04645 C 304.70192,601.80374 311.98027,597.36519 317.7536,593.03519 C 324.68999,587.8329 328.18835,585.74652 333.48398,580.45089 C 337.27618,576.65869 336.63006,564.1776 336.63006,558.42836 C 336.63006,549.98075 335.03093,542.80232 336.63006,536.40584 C 338.44323,529.15312 341.34917,526.41321 341.34917,515.95635 C 341.34917,508.95261 339.36082,506.51812 331.91094,506.51812 z"
       id="path3889" />
    <path
       style="opacity:1;fill:#ff9191;fill-opacity:1;fill-rule:evenodd;stroke:#000000;stroke-width:5;stroke-linecap:round;stroke-linejoin:round;marker:none;marker-start:none;marker-mid:none;marker-end:none;stroke-miterlimit:4;stroke-dasharray:none;stroke-dashoffset:0;stroke-opacity:1;visibility:visible;display:inline;overflow:visible;enable-background:accumulate;color:#000000"
       d="M 352.36043,504.94508 C 352.36043,496.53918 352.82613,521.95876 350.78739,530.11369 C 348.72275,538.37225 346.06828,542.14657 346.06828,552.13621 C 346.06828,558.42816 353.17554,567.92378 355.50651,572.5857 C 359.18222,579.93713 362.30301,584.60566 364.94473,589.88912 C 368.80811,597.61587 368.32165,603.58478 364.94473,610.33861 C 361.20288,617.82231 355.78411,623.38555 353.93347,630.78809 C 351.63665,639.97538 347.64132,643.96623 347.64132,654.38366 C 347.64132,662.8851 354.65377,667.50819 360.22562,671.68707 C 366.05048,676.05572 369.87338,681.54436 372.80992,687.41745 C 376.07318,693.94396 374.38296,703.71995 374.38296,711.01301 C 374.38296,720.0656 375.78841,726.07306 377.52903,733.03554 C 378.41057,736.5617 384.69992,721.83985 385.39422,720.45124 C 388.34283,714.55403 394.46318,712.77069 401.1246,709.43998 C 407.49572,706.25442 412.7863,706.2939 421.57409,706.2939 C 429.33456,706.2939 438.6066,707.86694 438.8775,707.86694 C 443.11228,707.86694 432.82176,686.08082 432.58535,685.84441 C 426.28809,679.54715 424.63622,674.7492 418.42801,668.541 C 413.47845,663.59144 409.05025,653.93993 405.84371,649.66455 C 401.30753,643.61631 400.99945,639.15387 402.69764,632.36113 C 404.53226,625.02262 409.62131,618.51378 412.13586,613.48468 C 415.82879,606.09883 406.7656,598.02504 404.27067,593.03519 C 400.6507,585.79524 398.96873,580.19813 393.25941,572.5857 C 388.45913,566.18533 387.20121,560.93722 385.39422,553.70925 C 384.01529,548.19354 386.96726,536.92219 386.96726,530.11369 C 386.96726,520.65119 385.65698,514.90883 382.24815,508.09116 C 378.25985,500.11457 370.76444,500.22597 364.94473,500.22597 C 361.88659,500.22597 355.78312,504.26054 352.36043,504.94508 z"
       id="path3891" />
    <path
       style="opacity:1;fill:#ff9191;fill-opacity:1;fill-rule:evenodd;stroke:#000000;stroke-width:5;stroke-linecap:round;stroke-linejoin:round;marker:none;marker-start:none;marker-mid:none;marker-end:none;stroke-miterlimit:4;stroke-dasharray:none;stroke-dashoffset:0;stroke-opacity:1;visibility:visible;display:inline;overflow:visible;enable-background:accumulate;color:#000000"
       d="M 394.83245,520.67546 C 386.15298,520.67546 401.96214,536.50787 405.84371,544.27102 C 408.82064,550.22488 415.7825,556.83749 420.00105,560.0014 C 427.97601,565.98262 430.46844,567.26412 432.58535,575.73178 C 434.6845,584.12837 436.22313,590.87253 438.8775,596.18127 C 442.10927,602.64479 444.72889,605.5093 451.4618,607.19253 C 457.66226,608.74264 465.16725,615.61829 470.33826,618.20379 C 477.57675,621.82304 481.04641,624.85655 482.92256,632.36113 C 485.10809,641.10326 488.91809,646.90503 490.78774,654.38366 C 492.54085,661.39609 503.42936,665.43791 509.6642,670.11404 C 514.84282,673.998 524.52403,673.43573 530.11369,674.83315 C 536.97317,676.54802 546.59682,674.83315 553.70925,674.83315 C 562.84259,674.83315 569.64701,673.15642 575.73178,670.11404 C 582.59112,666.68436 587.3871,663.49985 593.03519,660.67581 C 596.18127,659.10277 599.32734,657.52973 602.47342,655.9567 C 607.71688,653.33497 596.03006,645.91365 594.60823,640.22632 C 592.98907,633.74968 588.45454,629.7689 586.74304,622.92291 C 584.66227,614.59984 586.5736,607.87029 588.31608,600.90038 C 589.61033,595.72338 572.73075,608.62052 572.5857,608.76557 C 567.54291,613.80836 561.78685,616.18439 553.70925,618.20379 C 544.35638,620.54201 538.83234,615.91118 534.8328,611.91164 C 529.50779,606.58664 525.65618,605.96831 520.67546,599.32734 C 514.46749,591.05004 509.7001,587.54751 501.79901,583.59697 C 494.64758,580.02125 488.19666,580.72839 481.34952,577.30481 C 474.05437,573.65724 472.37938,568.80276 468.76522,561.57444 C 465.4901,555.02421 466.46172,545.95618 464.0461,541.12495 C 459.82184,532.67642 452.44899,532.32678 443.59662,530.11369 C 438.33186,528.7975 430.20031,521.4365 426.2932,517.52938 C 420.9895,512.22568 415.0868,506.76502 410.56282,503.37205 C 402.25096,497.13815 402.97585,493.65561 396.40549,500.22597 C 391.22298,505.40847 393.47001,513.86329 394.83245,520.67546 z"
       id="path3893" />
    <path
       style="opacity:1;fill:#ff9191;fill-opacity:1;fill-rule:evenodd;stroke:#000000;stroke-width:5;stroke-linecap:round;stroke-linejoin:round;marker:none;marker-start:none;marker-mid:none;marker-end:none;stroke-miterlimit:4;stroke-dasharray:none;stroke-dashoffset:0;stroke-opacity:1;visibility:visible;display:inline;overflow:visible;enable-background:accumulate"
       d="M 431.01231,495.50686 C 427.83652,498.68265 432.94231,512.66508 434.15839,517.52938 C 435.72629,523.80097 442.08806,528.79857 443.59662,534.8328 C 445.18669,541.1931 448.5773,550.03644 449.88877,555.28229 C 452.31404,564.98338 454.70486,569.53661 460.90003,575.73178 C 466.09548,580.92723 469.86191,581.54758 475.05737,586.74304 C 479.90475,591.59042 491.1752,591.46215 497.07989,591.46215 C 504.94508,591.46215 512.81027,591.46215 520.67546,591.46215 C 531.35027,591.46215 541.99868,591.60201 550.56317,589.88912 C 558.98145,588.20546 564.39374,583.76035 571.01266,580.45089 C 577.76455,577.07495 581.74284,575.28309 583.59697,567.86659 C 585.3925,560.68446 585.17,552.38805 585.17,544.27102 C 585.17,537.36408 580.45089,530.34955 580.45089,522.2485 C 580.45089,512.36896 581.39565,508.40764 578.87785,503.37205 C 577.5113,500.63895 557.21822,504.4611 555.28229,504.94508 C 547.47234,506.89757 544.68457,504.73831 537.97887,508.09116 C 532.1062,511.0275 541.65182,523.30224 542.69799,525.39457 C 545.52695,531.05251 547.4171,536.11581 547.4171,544.27102 C 547.4171,547.82573 535.48532,553.38299 531.68672,555.28229 C 523.60316,559.32407 517.36743,558.78113 509.6642,556.85533 C 501.84574,554.90071 493.59863,555.59175 486.06863,553.70925 C 477.69327,551.61541 477.91662,543.69739 475.05737,537.97887 C 471.17187,530.20787 468.99743,528.77286 462.47307,522.2485 C 458.8739,518.64933 455.99424,506.14477 453.03484,500.22597 C 448.95786,492.07201 441.70375,493.36857 431.01231,495.50686 z"
       id="path3895" />
    <path
       style="opacity:1;fill:#ff9191;fill-opacity:1;fill-rule:evenodd;stroke:#000000;stroke-width:5;stroke-linecap:round;stroke-linejoin:round;marker:none;marker-start:none;marker-mid:none;marker-end:none;stroke-miterlimit:4;stroke-dasharray:none;stroke-dashoffset:0;stroke-opacity:1;visibility:visible;display:inline;overflow:visible;enable-background:accumulate;color:#000000"
       d="M 251.68602,489.21471 C 248.27173,482.38612 248.80817,504.40865 245.39387,511.23723 C 243.47465,515.07568 230.95118,521.67599 228.09046,523.82153 C 218.5804,530.95408 217.44506,533.62563 207.64097,523.82153 C 201.19727,517.37783 197.64251,515.28847 195.05667,504.94508 C 193.14056,497.28066 182.88884,490.04765 179.32629,482.92256 C 175.54922,475.36841 166.32568,484.41456 162.02288,487.64167 C 157.87479,490.75273 147.20582,492.69064 141.57339,495.50686 C 131.88449,500.35131 127.09608,502.09217 124.26997,490.78774 C 120.78046,476.82969 112.28651,497.82262 111.68567,500.22597 C 109.35046,509.56681 107.16277,511.67954 117.97782,514.38331 C 126.30695,516.46559 134.70026,512.95552 141.57339,511.23723 C 149.91388,509.15211 155.57114,506.51812 165.16895,506.51812 C 177.38486,506.51812 176.64801,508.38928 179.32629,519.10242 C 181.48642,527.74295 184.97903,530.70212 187.19148,539.55191 C 189.72081,549.66924 197.18511,555.28229 206.06793,555.28229 C 213.57778,555.28229 224.01577,551.87844 231.23653,548.99014 C 240.00018,545.48468 242.01959,543.59861 250.11299,539.55191 C 258.82923,535.19379 259.00466,529.15382 261.12425,520.67546 C 263.03271,513.0416 265.82231,506.60234 267.4164,500.22597 C 269.94696,490.10372 259.60994,489.21471 251.68602,489.21471 z"
       id="path3897" />
    <path
       style="opacity:1;fill:#f84444;fill-opacity:1;fill-rule:evenodd;stroke:#fbdfdf;stroke-width:5;stroke-linecap:round;stroke-linejoin:round;marker:none;marker-start:none;marker-mid:none;marker-end:none;stroke-miterlimit:4;stroke-dasharray:none;stroke-dashoffset:0;stroke-opacity:1;visibility:visible;display:inline;overflow:visible;enable-background:accumulate;color:#000000"
       d="M 257.97817,492.36078 C 259.85585,484.85006 248.84459,505.29955 246.96691,512.81027 C 245.43734,518.92854 238.18161,522.51569 235.95565,526.96761 C 233.6631,531.5527 225.7311,536.01248 221.79831,537.97887 C 212.68279,542.53663 209.02602,537.79089 204.49489,533.25976 C 200.0922,528.85706 198.93025,521.12112 195.05667,515.95635 C 190.15601,509.42214 188.77863,504.9592 184.0454,500.22597 C 178.72119,494.90175 173.37857,495.42075 166.74199,497.07989 C 159.79079,498.81769 151.81296,500.02563 144.71946,501.79901 C 137.27703,503.65962 128.4386,503.23442 122.69694,501.79901 C 116.55356,500.26316 113.25871,486.79372 113.25871,501.79901 C 113.25871,504.60548 132.68641,503.37205 135.28124,503.37205 C 143.67077,503.37205 152.06031,503.37205 160.44984,503.37205 C 170.25015,503.37205 176.70516,505.99407 184.0454,509.6642 C 190.19098,512.73699 188.86488,521.07693 190.33755,526.96761 C 191.53692,531.76508 199.09757,538.8737 201.34882,541.12495 C 207.53119,547.30732 205.40408,550.79047 217.07919,553.70925 C 217.40362,553.79036 231.50876,542.42576 232.80957,541.12495 C 239.72318,534.21134 242.30937,537.85573 246.96691,528.54065 C 249.41117,523.65213 253.74514,516.55723 256.40514,511.23723 C 259.86261,504.32229 259.85412,501.74054 257.97817,492.36078 z"
       id="path3899" />
    <path
       style="opacity:1;fill:#f84444;fill-opacity:1;fill-rule:evenodd;stroke:#fbdfdf;stroke-width:5;stroke-linecap:round;stroke-linejoin:round;marker:none;marker-start:none;marker-mid:none;marker-end:none;stroke-miterlimit:4;stroke-dasharray:none;stroke-dashoffset:0;stroke-opacity:1;visibility:visible;display:inline;overflow:visible;enable-background:accumulate;color:#000000"
       d="M 298.87715,503.37205 C 302.06662,496.9931 291.33585,515.63246 286.29285,520.67546 C 281.24426,525.72405 277.96565,527.19862 272.13551,530.11369 C 264.28602,534.03843 258.43412,536.40584 250.11299,536.40584 C 240.77252,536.40584 236.69397,538.55671 228.09046,536.40584 C 219.0524,534.14632 214.39296,532.75154 206.06793,534.8328 C 198.68502,536.67853 191.55926,535.79498 184.0454,539.55191 C 177.18886,542.98018 171.56204,544.19532 165.16895,548.99014 C 158.98576,553.62753 157.30376,562.11508 157.30376,569.43963 C 157.30376,579.17291 152.86132,584.61667 149.43858,591.46215 C 145.91385,598.51161 139.7675,604.10467 133.7082,605.61949 C 128.48378,606.9256 117.72642,602.14301 110.11263,604.04645 C 104.18038,605.52952 94.443247,598.94933 89.663146,597.7543 C 84.187109,596.38529 74.912543,594.16328 69.213656,589.88912 C 64.024784,585.99746 56.217909,582.1086 51.910242,578.87785 C 46.368795,574.72177 41.556202,567.34941 44.045054,577.30481 C 45.787355,584.27402 45.618092,593.95978 45.618092,600.90038 C 45.618092,611.87371 43.349919,615.82596 55.056317,613.48468 C 62.246795,612.04658 71.291708,613.48468 78.651882,613.48468 C 86.320299,613.48468 93.461648,616.95697 99.101371,619.77683 C 106.76113,623.60671 112.30109,625.82958 119.55086,627.64202 C 128.00777,629.75625 135.85633,624.99492 140.00035,622.92291 C 146.28823,619.77897 150.60593,611.14996 154.15769,604.04645 C 157.98126,596.39931 160.06768,591.41777 162.02288,583.59697 C 163.45751,577.85843 170.70244,569.40248 173.03414,566.29355 C 177.74662,560.01024 180.83552,560.41061 188.76452,558.42836 C 196.64072,556.45931 200.48097,553.70925 209.21401,553.70925 C 214.65547,553.70925 224.49981,550.33748 231.23653,548.99014 C 240.37964,547.16152 246.36644,547.96048 254.8321,545.84406 C 262.5353,543.91826 269.33221,544.18533 275.28159,542.69799 C 283.02674,540.7617 288.66667,535.60506 294.15804,530.11369 C 299.17453,525.0972 301.09796,518.45465 305.1693,514.38331 C 310.22344,509.32917 304.5562,505.64367 298.87715,503.37205 z"
       id="path3901" />
    <path
       style="opacity:1;fill:#f84444;fill-opacity:1;fill-rule:evenodd;stroke:#fbdfdf;stroke-width:5;stroke-linecap:round;stroke-linejoin:round;marker:none;marker-start:none;marker-mid:none;marker-end:none;stroke-miterlimit:4;stroke-dasharray:none;stroke-dashoffset:0;stroke-opacity:1;visibility:visible;display:inline;overflow:visible;enable-background:accumulate;color:#000000"
       d="M 320.89968,506.51812 C 325.87753,501.54027 315.38274,517.55199 309.88842,528.54065 C 307.20738,533.90272 304.59656,540.6974 302.02323,545.84406 C 299.52966,550.83121 300.52318,561.28249 298.87715,567.86659 C 296.52898,577.25928 290.81123,579.42166 283.14678,585.17 C 276.97713,589.79724 268.46871,592.77211 261.12425,594.60823 C 252.27768,596.81987 244.51151,598.19548 239.10172,600.90038 C 231.14567,604.8784 229.16147,605.18444 231.23653,613.48468 C 233.37828,622.05166 238.59007,620.8763 240.67476,629.21506 C 242.95585,638.33941 237.62425,644.7543 234.38261,651.23758 C 231.37306,657.25668 223.22483,660.7857 217.07919,665.39492 C 209.5303,671.0566 202.6201,672.30665 195.05667,677.97922 C 186.75998,684.20174 182.99449,684.62391 176.18022,693.7096 C 172.41444,698.73064 166.16951,703.7203 160.44984,709.43998 C 154.9935,714.89631 156.06305,724.9266 157.30376,729.88947 C 158.51554,734.73656 167.60164,741.04699 169.88807,745.61984 C 174.64346,755.13064 175.42318,759.02014 182.47237,766.06933 C 190.13919,773.73615 188.24422,765.54296 196.62971,761.35022 C 202.89982,758.21516 212.75169,758.79486 217.07919,756.63111 C 222.42649,753.95746 210.29534,746.70118 206.06793,742.47377 C 201.45709,737.86292 196.09821,730.39951 193.48363,725.17035 C 190.10755,718.41819 187.58346,714.15399 185.61844,706.2939 C 185.02461,703.91858 201.09153,693.96689 202.92186,692.13656 C 209.1722,685.88622 213.67385,682.82797 220.22527,679.55226 C 226.71352,676.30814 229.95403,673.90136 237.52868,670.11404 C 245.11037,666.32319 248.82691,664.46492 256.40514,660.67581 C 260.2071,658.77483 257.97817,640.91632 257.97817,637.08025 C 257.97817,629.53974 256.63207,620.68455 254.8321,613.48468 C 253.48157,608.08258 265.34689,601.39685 267.4164,599.32734 C 270.42478,596.31897 282.36331,594.21344 287.86589,591.46215 C 295.86471,587.46274 299.71458,584.75129 305.1693,582.02393 C 310.28347,579.46684 316.08966,574.24965 319.32664,571.01266 C 326.88553,563.45377 328.56609,567.46903 322.47272,555.28229 C 319.42094,549.17873 317.7536,543.26631 317.7536,534.8328 C 317.7536,524.72578 323.31994,518.61942 320.89968,506.51812 z"
       id="path3903" />
    <path
       style="opacity:1;fill:#f84444;fill-opacity:1;fill-rule:evenodd;stroke:#fbdfdf;stroke-width:5;stroke-linecap:round;stroke-linejoin:round;marker:none;marker-start:none;marker-mid:none;marker-end:none;stroke-miterlimit:4;stroke-dasharray:none;stroke-dashoffset:0;stroke-opacity:1;visibility:visible;display:inline;overflow:visible;enable-background:accumulate;color:#000000"
       d="M 363.3717,501.79901 C 363.3717,493.5917 356.03085,516.48069 352.36043,523.82153 C 348.39909,531.74421 348.75449,539.28547 350.78739,547.4171 C 352.58849,554.62146 357.53152,561.91342 363.3717,566.29355 C 368.61028,570.22249 371.64818,581.27349 374.38296,586.74304 C 377.9609,593.89892 380.67511,595.59862 380.67511,602.47342 C 380.67511,609.62414 374.66569,619.21137 372.80992,622.92291 C 369.50589,629.53097 366.51777,637.04786 366.51777,641.79936 C 366.51777,647.00603 377.46798,654.13944 379.10207,660.67581 C 380.75958,667.30585 382.24815,674.25131 382.24815,682.69834 C 382.24815,691.08287 386.96726,696.33492 386.96726,704.72086 C 386.96726,717.09891 390.69388,713.57855 396.40549,707.86694 C 400.04641,704.22602 409.59863,704.56865 415.28194,703.14783 C 421.84433,701.50723 411.47778,694.62455 407.41675,690.56352 C 402.05223,685.199 401.38198,678.49398 397.97852,671.68707 C 394.26376,664.25755 390.48247,661.41408 386.96726,654.38366 C 383.37151,647.19216 387.14573,642.51326 385.39422,635.50721 C 383.11192,626.378 381.49162,622.86292 385.39422,615.05772 C 388.70338,608.43941 391.68637,603.79211 391.68637,594.60823 C 391.68637,584.99269 390.50703,580.45264 388.5403,572.5857 C 387.69571,569.20735 376.09663,560.28267 374.38296,556.85533 C 370.46589,549.0212 366.09703,543.42955 363.3717,537.97887 C 360.83193,532.89935 366.98047,520.3977 368.09081,515.95635 C 370.16047,507.67771 371.33274,511.75031 363.3717,501.79901 z"
       id="path3905" />
    <path
       style="opacity:1;fill:#f84444;fill-opacity:1;fill-rule:evenodd;stroke:#fbdfdf;stroke-width:5;stroke-linecap:round;stroke-linejoin:round;marker:none;marker-start:none;marker-mid:none;marker-end:none;stroke-miterlimit:4;stroke-dasharray:none;stroke-dashoffset:0;stroke-opacity:1;visibility:visible;display:inline;overflow:visible;enable-background:accumulate;color:#000000"
       d="M 393.25941,500.22597 C 395.35679,491.83644 397.45418,517.00504 399.55156,525.39457 C 401.53081,533.31157 405.01643,536.96516 410.56282,541.12495 C 415.8431,545.08515 422.77604,545.75129 429.43928,547.4171 C 434.75947,548.74715 442.0087,558.93287 445.16965,563.14748 C 448.99221,568.24421 449.88877,578.56282 449.88877,585.17 C 449.88877,591.04824 459.4042,595.45265 462.47307,597.7543 C 467.83584,601.77638 472.12909,602.69121 476.63041,607.19253 C 482.68261,613.24474 487.33883,614.75488 492.36078,619.77683 C 494.88965,622.3057 496.57555,635.88344 498.65293,638.65328 C 502.52729,643.81909 510.82563,647.67991 514.38331,651.23758 C 518.70048,655.55476 534.57034,655.9567 542.69799,655.9567 C 549.50028,655.9567 557.33452,654.65712 564.72051,652.81062 C 573.4327,650.63257 579.5486,649.32917 585.17,646.51847 C 595.83062,641.18816 591.58277,638.89452 586.74304,629.21506 C 582.58842,620.90581 581.95398,618.27374 574.15874,626.06898 C 570.81437,629.41335 557.29922,631.07038 552.13621,632.36113 C 544.24596,634.3337 537.55875,635.50721 530.11369,635.50721 C 524.47532,635.50721 520.55811,624.26124 519.10242,621.34987 C 515.58226,614.30954 512.26069,610.81249 509.6642,605.61949 C 504.28584,594.86279 490.57334,602.25901 482.92256,594.60823 C 476.78031,588.46598 470.83078,589.30113 467.19218,582.02393 C 463.97748,575.59452 464.32196,568.97 462.47307,561.57444 C 460.60158,554.08848 455.96796,546.9912 453.03484,541.12495 C 450.72001,536.4953 436.44156,534.22381 432.58535,533.25976 C 427.99265,532.11158 420.99517,526.38869 416.85498,522.2485 C 407.9682,513.36173 408.81867,503.33782 393.25941,500.22597 z"
       id="path3907" />
    <path
       style="opacity:1;fill:#f84444;fill-opacity:1;fill-rule:evenodd;stroke:#fbdfdf;stroke-width:5;stroke-linecap:round;stroke-linejoin:round;marker:none;marker-start:none;marker-mid:none;marker-end:none;stroke-miterlimit:4;stroke-dasharray:none;stroke-dashoffset:0;stroke-opacity:1;visibility:visible;display:inline;overflow:visible;enable-background:accumulate"
       d="M 432.58535,493.93382 C 427.61097,488.95944 438.8775,506.51812 442.02358,512.81027 C 445.32688,519.41689 447.94502,527.05782 449.88877,534.8328 C 451.98549,543.21971 457.82095,549.12413 460.90003,555.28229 C 463.57558,560.63338 469.52301,566.23609 471.91129,571.01266 C 475.85261,578.8953 485.50592,577.30481 493.93382,577.30481 C 501.10503,577.30481 508.79878,580.45089 517.52938,580.45089 C 527.77947,580.45089 535.49997,579.49758 544.27102,577.30481 C 554.01368,574.86915 557.8143,576.34584 563.14748,571.01266 C 566.29008,567.87006 569.64495,556.44467 571.01266,553.70925 C 574.49121,546.75217 571.31702,539.19628 569.43963,531.68672 C 567.79356,525.10248 566.29355,520.47611 566.29355,511.23723 C 566.29355,500.68752 560.63246,505.49611 552.13621,503.37205 C 539.29312,500.16127 543.5888,505.15367 547.4171,512.81027 C 550.91268,519.80144 551.92336,529.26229 553.70925,536.40584 C 555.54865,543.76343 558.06785,547.54807 560.0014,555.28229 C 562.14924,563.87363 549.73919,565.91903 545.84406,567.86659 C 538.27653,571.65036 530.13631,570.61375 522.2485,572.5857 C 516.5332,574.01452 505.87514,567.70584 500.22597,566.29355 C 493.36649,564.57868 483.74283,566.29355 476.63041,566.29355 C 470.80007,566.29355 467.25029,553.82547 465.61914,550.56317 C 462.64014,544.60517 459.41289,537.56906 456.18092,533.25976 C 452.81264,528.76873 451.68571,519.55024 448.31573,512.81027 C 443.92854,504.0359 444.6381,498.75492 432.58535,493.93382 z"
       id="path3909" />
    <path
       style="fill:#ffffff;fill-opacity:1;fill-rule:evenodd;stroke:none;stroke-width:5;stroke-linecap:round;stroke-linejoin:round;stroke-opacity:1;opacity:1;color:#000000;marker:none;marker-start:none;marker-mid:none;marker-end:none;stroke-miterlimit:4;stroke-dasharray:none;stroke-dashoffset:0;visibility:visible;display:inline;overflow:visible;enable-background:accumulate"
       d="M 393.25941,437.30446 C 395.48569,443.82101 403.37251,449.21514 410.56282,454.60788 C 416.01382,458.69612 422.75099,457.75395 431.01231,457.75395 C 438.82454,457.75395 447.52709,454.41178 453.03484,453.03484 C 460.19671,451.24437 465.66889,448.30329 471.91129,446.74269 C 477.21231,445.41744 482.36505,436.84643 484.49559,432.58535 C 488.18766,425.20122 488.80556,421.63762 490.78774,413.7089 C 492.77546,405.75803 489.68575,397.34757 487.64167,393.25941 C 482.77842,383.53292 479.24762,381.71929 473.48433,375.956 C 468.94358,371.41524 454.55681,374.78899 449.88877,375.956 C 443.12196,377.6477 438.77365,382.27411 432.58535,383.82118 C 428.43589,384.85855 421.88147,392.95203 418.42801,396.40549 C 412.80716,402.02634 408.12257,403.56485 402.69764,408.98979 C 395.7104,415.97702 391.8383,428.77782 393.25941,437.30446 z"
       id="path3425" />
    <path
       style="fill:#ffffff;fill-opacity:1;fill-rule:evenodd;stroke:none;stroke-width:5;stroke-linecap:round;stroke-linejoin:round;stroke-opacity:1;opacity:1;color:#000000;marker:none;marker-start:none;marker-mid:none;marker-end:none;stroke-miterlimit:4;stroke-dasharray:none;stroke-dashoffset:0;visibility:visible;display:inline;overflow:visible;enable-background:accumulate"
       d="M 286.29285,429.43927 C 276.66319,411.92158 267.30667,392.28515 249.08294,382.17228 C 238.1212,376.60734 224.00192,373.54406 212.74869,380.05276 C 191.98452,392.7329 190.46839,427.79609 211.16763,441.29702 C 227.14854,452.05141 246.52563,460.92812 266.22108,457.63166 C 274.82953,455.73863 284.52031,451.65613 288.20529,443.05002 C 289.9203,438.55809 289.23417,433.26609 286.29285,429.43927 z"
       id="path3427" />
    <path
       style="fill:#000000;fill-opacity:1;fill-rule:evenodd;stroke:none;stroke-width:1px;stroke-linecap:butt;stroke-linejoin:miter;stroke-opacity:1;opacity:1;color:#000000;marker:none;marker-start:none;marker-mid:none;marker-end:none;stroke-miterlimit:4;stroke-dasharray:none;stroke-dashoffset:0;visibility:visible;display:inline;overflow:visible;enable-background:accumulate"
       d="M 253.25906,385.39422 C 253.25906,378.09093 247.16518,398.75848 245.39387,405.84371 C 243.84223,412.05025 239.08162,420.08142 237.52868,426.2932 C 235.34705,435.01972 239.06064,441.85927 240.67475,448.31573 C 242.66204,456.26487 245.39387,460.7095 245.39387,448.31573 C 245.39387,442.529 251.81158,435.22916 253.25906,429.43928 C 254.94641,422.68988 254.83209,415.07301 254.83209,407.41675 C 254.83209,398.35864 251.0176,396.60149 253.25906,385.39422 z"
       id="path3440" />
    <path
       style="fill:#000000;fill-opacity:1;fill-rule:evenodd;stroke:none;stroke-width:1px;stroke-linecap:butt;stroke-linejoin:miter;stroke-opacity:1"
       d="M 423.14713,394.83245 C 423.14713,398.36209 423.14713,411.6959 423.14713,420.00105 C 423.14713,422.95384 429.98559,431.62452 431.01231,435.73143 C 432.58467,442.02084 437.2678,445.02298 438.8775,451.4618 C 439.08414,452.28836 442.02358,439.45516 442.02358,434.15839 C 442.02358,427.48736 437.24941,422.92689 435.73143,416.85498 C 433.78331,409.06251 426.48735,403.183 423.14713,394.83245 z"
       id="path3442" />
    <path
       style="fill:#ff9191;fill-opacity:1;fill-rule:evenodd;stroke:#000000;stroke-width:5;stroke-linecap:round;stroke-linejoin:round;stroke-opacity:1;opacity:1;color:#000000;marker:none;marker-start:none;marker-mid:none;marker-end:none;stroke-miterlimit:4;stroke-dasharray:none;stroke-dashoffset:0;visibility:visible;display:inline;overflow:visible;enable-background:accumulate"
       d="M 232.80957,514.38331 C 236.44895,505.57886 240.17276,504.28406 250.11299,501.79901 C 259.4079,499.47528 263.23993,506.78944 268.98944,509.6642 C 269.80688,510.07292 283.3076,501.79901 289.43893,501.79901 C 295.11397,501.79901 298.87715,512.47661 298.87715,517.52938 C 298.87715,526.90007 303.56648,523.85132 308.31538,519.10242 C 312.84074,514.57706 323.33208,516.17119 328.76487,517.52938 C 333.45476,518.70186 334.78478,525.12233 338.20309,528.54065 C 340.29215,530.6297 349.40613,515.76457 350.78739,514.38331 C 356.16751,509.00319 362.44289,509.6642 371.23688,509.6642 C 377.08325,509.6642 382.20267,519.05695 385.39422,522.2485 C 390.74152,527.5958 397.50682,513.04613 404.27067,509.6642 C 413.66253,504.96827 412.73131,502.09673 421.57409,506.51812 C 431.93416,511.69815 425.90227,516.15181 435.73143,511.23723 C 444.30786,506.94902 441.84849,503.37205 451.4618,503.37205 C 459.28043,503.37205 460.08844,509.08057 470.33826,506.51812 C 472.22809,506.04566 477.92046,488.77362 478.20344,487.64167 C 480.70828,477.6223 477.65325,485.41966 468.76522,487.64167 C 460.56639,489.69138 454.41883,482.73351 451.4618,479.77648 C 447.10458,475.41926 446.74269,464.96613 446.74269,479.77648 C 446.74269,486.48624 433.10587,485.41224 429.43928,484.49559 C 420.73628,482.31984 421.0819,480.17219 418.42801,490.78774 C 415.70837,501.66633 407.4915,497.90379 402.69764,495.50686 C 395.30001,491.80804 402.08754,483.07508 390.11334,486.06863 C 385.15755,487.30758 387.76748,494.91354 379.10207,497.07989 C 369.16911,499.56314 364.06272,491.91978 358.65258,489.21471 C 351.49075,485.63379 345.75523,499.27903 344.49524,501.79901 C 341.4145,507.9605 329.86687,495.9401 327.19183,493.93382 C 317.9074,486.9705 317.30773,495.95273 313.03449,500.22597 C 305.88271,507.37775 305.08994,492.28142 300.45019,487.64167 C 295.84383,483.03531 290.2143,500.1814 286.29285,484.49559 C 283.42033,473.00552 277.54723,480.65692 272.13551,486.06863 C 265.81671,492.38743 264.61318,481.43523 257.97817,479.77648 C 253.83363,478.74034 242.42312,491.04951 240.67476,492.36078 C 236.22205,495.70032 234.32621,506.80011 232.80957,514.38331 z"
       id="path3444" />
    <path
       style="fill:#f84444;fill-opacity:1;fill-rule:evenodd;stroke:#fbdfdf;stroke-width:5;stroke-linecap:round;stroke-linejoin:round;stroke-opacity:1;opacity:1;color:#000000;marker:none;marker-start:none;marker-mid:none;marker-end:none;stroke-miterlimit:4;stroke-dasharray:none;stroke-dashoffset:0;visibility:visible;display:inline;overflow:visible;enable-background:accumulate"
       d="M 242.2478,495.50686 C 251.67447,490.02431 254.68073,490.63637 261.12425,497.07989 C 266.6249,502.58055 273.51919,494.0285 276.85463,492.36078 C 284.86072,488.35773 289.77668,493.79387 294.15804,497.07989 C 300.39411,501.75695 300.70707,506.64656 306.74234,509.6642 C 313.57274,513.0794 322.05655,512.81027 330.3379,512.81027 C 340.67219,512.81027 339.94576,518.42389 342.92221,506.51812 C 343.92575,502.50396 358.74496,501.38266 363.3717,500.22597 C 370.457,498.45464 378.45996,506.18632 382.24815,511.23723 C 388.31962,519.33254 387.96678,519.67594 394.83245,512.81027 C 400.073,507.56972 402.18367,505.20207 408.98979,501.79901 C 415.93617,498.32582 420.10163,498.70322 426.2932,501.79901 C 432.56546,504.93514 436.42181,507.7066 434.15839,498.65293 C 432.50087,492.02284 452.8201,495.05991 454.60788,495.50686 C 465.63185,498.26285 460.64892,487.97215 453.03484,486.06863 C 445.39394,484.15841 440.0129,489.21471 431.01231,489.21471 C 423.97066,489.21471 419.54744,498.09322 415.28194,500.22597 C 407.42143,504.15622 405.62011,504.83328 399.55156,501.79901 C 390.91823,497.48234 388.56056,500.21077 382.24815,504.94508 C 376.67342,509.12613 366.46907,499.42728 363.3717,498.65293 C 355.00967,496.56243 352.83529,489.83803 347.64132,500.22597 C 343.51324,508.48213 342.07379,508.45347 335.05702,504.94508 C 328.22617,501.52966 323.96893,498.67214 317.7536,500.22597 C 305.71308,503.2361 309.38552,504.44219 302.02323,497.07989 C 295.72075,490.77742 298.39986,488.36634 286.29285,490.78774 C 275.43137,492.96004 279.46986,480.82842 265.84336,487.64167 C 261.87024,489.62823 254.10979,484.85675 248.53995,487.64167 C 245.53695,489.14317 244.34518,492.88513 242.2478,495.50686 z"
       id="path3446" />
    <path
       style="opacity:1;fill:#d13b16;fill-opacity:1;fill-rule:evenodd;stroke:#000000;stroke-width:5;stroke-linecap:round;stroke-linejoin:round;marker:none;marker-start:none;marker-mid:none;marker-end:none;stroke-miterlimit:4;stroke-dasharray:none;stroke-dashoffset:0;stroke-opacity:1;visibility:visible;display:inline;overflow:visible;enable-background:accumulate"
       d="M 140.00035,410.56283 C 141.63718,406.71906 150.61743,397.98224 152.58465,390.11334 C 154.10371,384.03709 159.17295,378.50977 162.02287,372.80992 C 165.2915,366.27267 166.67983,358.90121 168.31502,352.36043 C 170.33159,344.29416 172.53457,338.62834 174.60718,330.33791 C 177.10437,320.34912 175.38021,315.11389 171.4611,309.88842 C 167.5861,304.72174 151.72039,309.53403 147.86554,311.46146 C 138.21756,316.28545 135.89961,321.23598 132.13516,328.76487 C 128.60574,335.82371 127.41605,344.35927 127.41605,352.36043 C 127.41605,359.37577 125.88462,366.35136 124.26997,372.80992 C 121.4015,384.2838 126.2418,383.04572 121.1239,372.80992 C 117.35314,365.26841 118.40792,359.08268 113.25871,353.93347 C 109.43891,350.11367 105.19602,340.55915 103.82048,335.05702 C 101.60716,326.20373 99.101372,323.64234 99.101372,313.03449 C 99.101372,302.97861 88.834216,324.13058 88.090108,325.61879 C 84.682459,332.43409 85.126349,339.04687 83.370995,346.06828 C 81.498579,353.55795 81.797958,361.58623 81.797958,369.66385 C 81.797958,378.71962 83.810007,383.12617 86.517071,388.5403 C 90.030855,395.56787 88.954019,401.98851 94.382259,407.41675 C 99.216489,412.25098 95.955296,393.8039 95.955296,386.96726 C 95.955296,378.74824 95.670553,370.80282 97.528334,363.3717 C 99.420288,355.80388 103.15622,365.18925 105.39352,369.66385 C 109.12154,377.11989 111.68567,379.20643 111.68567,388.5403 C 111.68567,393.26211 116.8249,402.80508 117.97782,407.41675 C 119.77107,414.58973 123.68596,416.70898 130.56212,418.42802 C 135.98173,419.78292 136.52333,414.9091 140.00035,410.56283 z"
       id="path3448" />
    <path
       style="opacity:1;fill:#d13b16;fill-opacity:1;fill-rule:evenodd;stroke:#000000;stroke-width:5;stroke-linecap:round;stroke-linejoin:round;marker:none;marker-start:none;marker-mid:none;marker-end:none;stroke-miterlimit:4;stroke-dasharray:none;stroke-dashoffset:0;stroke-opacity:1;visibility:visible;display:inline;overflow:visible;enable-background:accumulate"
       d="M 542.48614,415.53873 C 540.84931,411.69496 531.86906,402.95814 529.90183,395.08924 C 528.38277,389.01299 523.31353,383.48567 520.46361,377.78582 C 517.19498,371.24857 515.80665,363.87711 514.17146,357.33633 C 512.15489,349.27006 509.95191,343.60424 507.8793,335.31381 C 505.38211,325.32502 507.10627,320.08979 511.02538,314.86432 C 514.90038,309.69764 530.76609,314.50993 534.62095,316.43736 C 544.26893,321.26135 546.58688,326.21188 550.35132,333.74077 C 553.88074,340.79961 555.07044,349.33517 555.07044,357.33633 C 555.07044,364.35167 556.60187,371.32726 558.21651,377.78582 C 561.08498,389.2597 556.24469,388.02162 561.36259,377.78582 C 565.13334,370.24431 564.07857,364.05858 569.22778,358.90937 C 573.04757,355.08957 577.29047,345.53505 578.666,340.03292 C 580.87932,331.17963 583.38511,328.61824 583.38511,318.01039 C 583.38511,307.95451 593.65227,329.10648 594.39638,330.59469 C 597.80403,337.40999 597.36014,344.02277 599.11549,351.04418 C 600.98791,358.53385 600.68853,366.56213 600.68853,374.63975 C 600.68853,383.69552 598.67648,388.10207 595.96942,393.5162 C 592.45563,400.54377 593.53247,406.96441 588.10423,412.39265 C 583.27,417.22688 586.53119,398.7798 586.53119,391.94316 C 586.53119,383.72414 586.81593,375.77872 584.95815,368.3476 C 583.0662,360.77978 579.33026,370.16515 577.09296,374.63975 C 573.36494,382.09579 570.80081,384.18233 570.80081,393.5162 C 570.80081,398.23801 565.66158,407.78098 564.50866,412.39265 C 562.71542,419.56563 558.80052,421.68488 551.92436,423.40392 C 546.50476,424.75882 545.96316,419.885 542.48614,415.53873 z"
       id="path3450" />
    <path
       style="opacity:1;fill:#d13b16;fill-opacity:1;fill-rule:evenodd;stroke:#000000;stroke-width:5.84157848;stroke-linecap:round;stroke-linejoin:round;marker:none;marker-start:none;marker-mid:none;marker-end:none;stroke-miterlimit:4;stroke-dasharray:none;stroke-dashoffset:0;stroke-opacity:1;visibility:visible;display:inline;overflow:visible;enable-background:accumulate"
       d="M 125.05546,333.25666 C 128.29424,329.58807 141.28192,323.39726 146.43226,315.32195 C 150.40929,309.08633 157.9712,304.91979 163.22604,299.65231 C 169.25292,293.61096 173.59151,285.86054 177.87257,279.1482 C 183.1521,270.87035 187.70179,265.3771 193.12803,256.86922 C 199.66589,246.61841 199.84829,240.00736 197.67913,232.511 C 195.53439,225.09898 176.70103,224.05 171.83163,224.65061 C 159.64441,226.15385 155.24866,230.79308 148.30756,237.75085 C 141.79982,244.27421 137.22307,253.41923 134.12572,262.44707 C 131.41,270.3626 127.07161,277.60792 122.84435,284.23588 C 115.33447,296.01073 120.99108,296.59031 119.47921,282.95118 C 118.36529,272.90217 121.88808,266.35343 118.37365,258.4408 C 115.76655,252.57104 114.9269,240.05792 115.58553,233.28806 C 116.64529,222.39493 114.95655,218.48163 119.06298,206.51261 C 122.95573,195.16638 103.78548,214.83992 102.41345,216.21524 C 96.130239,222.51355 94.045159,230.15612 89.449509,237.3617 C 84.547364,245.04783 81.759744,254.22853 78.632804,263.34264 C 75.127214,273.56042 75.573544,279.35403 76.373224,286.56832 C 77.411234,295.93251 73.773904,302.7373 77.478784,311.07871 C 80.778244,318.50732 84.431054,296.36145 87.077594,288.64754 C 90.259279,279.37388 93.030469,270.29264 97.894289,262.66661 C 102.84758,254.90029 103.21046,267.01553 103.87138,272.9779 C 104.97266,282.91303 106.90762,286.31437 103.29436,296.84593 C 101.4665,302.17363 103.26938,315.03975 102.71735,320.71397 C 101.85873,329.53964 105.22583,333.52948 111.91534,338.27699 C 117.18781,342.01885 119.65385,336.74079 125.05546,333.25666 z"
       id="path3452" />
    <path
       style="opacity:1;fill:#d13b16;fill-opacity:1;fill-rule:evenodd;stroke:#000000;stroke-width:5.84157848;stroke-linecap:round;stroke-linejoin:round;marker:none;marker-start:none;marker-mid:none;marker-end:none;stroke-miterlimit:4;stroke-dasharray:none;stroke-dashoffset:0;stroke-opacity:1;visibility:visible;display:inline;overflow:visible;enable-background:accumulate"
       d="M 556.56178,337.25581 C 553.323,333.58722 540.33532,327.39641 535.18498,319.3211 C 531.20795,313.08548 523.64604,308.91894 518.3912,303.65146 C 512.36432,297.61011 508.02573,289.85969 503.74467,283.14735 C 498.46514,274.8695 493.91545,269.37625 488.48921,260.86837 C 481.95135,250.61756 481.76895,244.00651 483.93811,236.51015 C 486.08285,229.09813 504.91621,228.04915 509.78561,228.64976 C 521.97283,230.153 526.36858,234.79223 533.30968,241.75 C 539.81742,248.27336 544.39417,257.41838 547.49152,266.44622 C 550.20724,274.36175 554.54563,281.60707 558.77289,288.23503 C 566.28277,300.00988 560.62616,300.58946 562.13803,286.95033 C 563.25195,276.90132 559.72916,270.35258 563.24359,262.43995 C 565.85069,256.57019 566.69034,244.05707 566.03171,237.28721 C 564.97195,226.39408 566.66069,222.48078 562.55426,210.51176 C 558.66151,199.16553 577.83176,218.83907 579.20379,220.21439 C 585.487,226.5127 587.57208,234.15527 592.16773,241.36085 C 597.06987,249.04698 599.85749,258.22768 602.98443,267.34179 C 606.49002,277.55957 606.04369,283.35318 605.24401,290.56747 C 604.206,299.93166 607.84333,306.73645 604.13845,315.07786 C 600.83899,322.50647 597.18618,300.3606 594.53964,292.64669 C 591.35796,283.37303 588.58677,274.29179 583.72295,266.66576 C 578.76966,258.89944 578.40678,271.01468 577.74586,276.97705 C 576.64458,286.91218 574.70962,290.31352 578.32288,300.84508 C 580.15074,306.17278 578.34786,319.0389 578.89989,324.71312 C 579.75851,333.53879 576.39141,337.52863 569.7019,342.27614 C 564.42943,346.018 561.96339,340.73994 556.56178,337.25581 z"
       id="path3454" />
    <path
       style="fill:#ff9191;fill-opacity:1;fill-rule:evenodd;stroke:#000000;stroke-width:5;stroke-linecap:round;stroke-linejoin:round;stroke-opacity:1;opacity:1;color:#000000;marker:none;marker-start:none;marker-mid:none;marker-end:none;stroke-miterlimit:4;stroke-dasharray:none;stroke-dashoffset:0;visibility:visible;display:inline;overflow:visible;enable-background:accumulate"
       d="M 280.0007,366.51777 C 277.02178,358.22383 270.07194,356.17039 261.12425,353.93347 C 252.28376,351.72335 248.83952,350.41266 246.96691,342.92221 C 245.17579,335.75771 248.53995,329.51374 248.53995,320.89968 C 248.53995,312.01568 241.4307,310.64436 237.52868,306.74234 C 233.29013,302.50379 221.85741,303.21778 217.07919,302.02323 C 210.29097,300.32617 203.29171,296.10093 198.20274,291.01196 C 192.50378,285.31301 201.52002,279.31588 202.92186,273.70855 C 204.87816,265.88334 196.88362,260.46469 191.91059,257.97817 C 188.12948,256.08762 184.68044,253.57658 180.89933,251.68602 C 175.91391,249.19331 187.96927,243.04305 191.91059,239.10172 C 198.08969,232.92263 193.48537,221.80005 202.92186,231.23653 C 207.33346,235.64813 211.80361,241.69132 215.50616,245.39387 C 219.80297,249.69069 220.22527,259.71999 220.22527,265.84336 C 220.22527,271.02659 214.6795,280.16127 213.93312,283.14678 C 213.50232,284.86997 235.67106,287.40148 237.52868,287.86589 C 247.09087,290.25643 246.92935,292.54744 253.25906,298.87715 C 260.21044,305.82853 253.25906,313.97662 253.25906,322.47272 C 253.25906,326.87259 264.14203,333.35569 265.84336,335.05702 C 270.97726,340.19091 277.06917,343.816 281.57374,346.06828 C 288.56345,349.56314 290.87172,356.51858 292.585,363.3717 C 295.63143,375.5574 286.17277,372.68984 280.0007,366.51777 z"
       id="path3465" />
    <path
       style="fill:#f84444;fill-opacity:1;fill-rule:evenodd;stroke:#fbdfdf;stroke-width:5;stroke-linecap:round;stroke-linejoin:round;stroke-opacity:1;opacity:1;color:#000000;marker:none;marker-start:none;marker-mid:none;marker-end:none;stroke-miterlimit:4;stroke-dasharray:none;stroke-dashoffset:0;visibility:visible;display:inline;overflow:visible;enable-background:accumulate"
       d="M 287.86589,369.66385 C 289.63263,376.7308 282.00551,355.93828 276.85463,350.78739 C 272.57378,346.50655 267.16982,343.58544 262.69729,341.34917 C 256.2039,338.10248 253.25906,336.16071 253.25906,325.61879 C 253.25906,320.61765 249.74357,311.55685 248.53995,306.74234 C 247.67495,303.28235 237.44533,297.26244 234.38261,295.73108 C 228.05166,292.5656 217.89627,292.20702 212.36008,289.43893 C 204.48805,285.50291 208.11826,282.66949 213.93312,276.85463 C 218.17299,272.61476 214.99526,260.65371 213.93312,256.40514 C 211.6179,247.14427 204.04132,242.2478 195.05667,242.2478 C 190.82848,242.2478 173.88593,245.39387 187.19148,245.39387 C 193.72285,245.39387 199.68896,251.5992 202.92186,254.8321 C 206.66348,258.57373 208.1583,267.91268 209.21401,272.13551 C 210.43892,277.03517 202.84596,286.44464 201.34882,289.43893 C 197.04032,298.05592 215.54317,297.30411 220.22527,297.30411 C 228.98232,297.30411 233.5931,303.00563 242.2478,305.1693 C 249.66999,307.02485 250.11299,314.15394 250.11299,322.47272 C 250.11299,328.57828 248.53995,337.3218 248.53995,344.49524 C 248.53995,349.01879 263.09813,350.10109 265.84336,350.78739 C 273.80358,352.77745 276.86081,353.93966 281.57374,358.65258 C 285.00401,362.08285 285.40059,363.5006 287.86589,369.66385 z"
       id="path3467" />
    <path
       style="fill:#ff9191;fill-opacity:1;fill-rule:evenodd;stroke:#000000;stroke-width:5;stroke-linecap:round;stroke-linejoin:round;stroke-opacity:1;opacity:1;color:#000000;marker:none;marker-start:none;marker-mid:none;marker-end:none;stroke-miterlimit:4;stroke-dasharray:none;stroke-dashoffset:0;visibility:visible;display:inline;overflow:visible;enable-background:accumulate"
       d="M 292.585,292.585 C 297.41923,297.41923 280.11582,286.40797 275.28159,281.57374 C 269.77635,276.06851 270.39079,265.15662 268.98944,259.55121 C 267.57711,253.90189 276.66479,241.45222 278.42766,239.10172 C 282.95457,233.06584 284.71981,226.65478 284.71981,218.65223 C 284.71981,209.06208 279.66489,207.47306 273.70855,204.49489 C 268.02834,201.65479 264.91552,193.20098 262.69729,188.76452 C 260.15027,183.67048 257.48733,176.77156 254.8321,171.4611 C 251.86595,165.52881 242.39013,176.14463 235.95565,177.75325 C 229.3473,179.40534 225.01125,182.45565 218.65223,184.0454 C 214.09863,185.1838 222.6435,190.45491 224.94438,195.05667 C 228.42015,202.00821 233.98666,203.5104 239.10172,206.06793 C 247.25558,210.14486 250.72075,210.42955 254.8321,218.65223 C 258.95571,226.89946 250.82174,232.9651 248.53995,237.52868 C 245.15835,244.29187 245.39387,251.16937 245.39387,259.55121 C 245.39387,266.9476 245.11192,271.0077 246.96691,278.42766 C 248.09247,282.9299 255.42115,288.45494 257.97817,291.01196 C 261.30749,294.34128 273.65761,298.85168 276.85463,300.45019 C 284.80483,304.42529 289.12004,302.88947 292.585,302.02323 C 295.63714,301.26019 292.585,295.73108 292.585,292.585 z"
       id="path3469" />
    <path
       style="fill:#ff9191;fill-opacity:1;fill-rule:evenodd;stroke:#000000;stroke-width:5;stroke-linecap:round;stroke-linejoin:round;stroke-opacity:1;opacity:1;color:#000000;marker:none;marker-start:none;marker-mid:none;marker-end:none;stroke-miterlimit:4;stroke-dasharray:none;stroke-dashoffset:0;visibility:visible;display:inline;overflow:visible;enable-background:accumulate"
       d="M 416.85498,361.79866 C 423.77391,360.06892 423.06033,347.68472 429.43928,344.49524 C 436.08524,341.17226 443.09952,344.76423 448.31573,346.06828 C 455.50802,347.86635 456.93576,355.37982 457.75395,358.65258 C 459.71472,366.49563 470.40454,368.10738 476.63041,369.66385 C 487.64521,372.41755 483.54432,372.1509 481.34952,363.3717 C 479.89247,357.54351 479.77648,349.32255 479.77648,341.34917 C 479.77648,335.03521 466.54741,342.59982 460.90003,339.77613 C 453.72959,336.19091 453.02608,329.15594 445.16965,327.19183 C 438.46694,325.51615 433.56984,323.79963 426.2932,325.61879 C 419.8882,327.22004 418.18757,336.01879 416.85498,341.34917 C 414.553,350.55707 412.21111,350.18899 416.85498,361.79866 z"
       id="path3471" />
    <path
       style="fill:#f84444;fill-opacity:1;fill-rule:evenodd;stroke:#fbdfdf;stroke-width:5;stroke-linecap:round;stroke-linejoin:round;stroke-opacity:1;opacity:1;color:#000000;marker:none;marker-start:none;marker-mid:none;marker-end:none;stroke-miterlimit:4;stroke-dasharray:none;stroke-dashoffset:0;visibility:visible;display:inline;overflow:visible;enable-background:accumulate"
       d="M 415.28194,358.65258 C 413.5522,365.57152 418.38462,344.58204 421.57409,338.20309 C 424.58605,332.17916 432.41149,330.3379 440.45054,330.3379 C 448.09209,330.3379 450.75898,335.92723 454.60788,339.77613 C 461.16009,346.32834 461.75098,347.06754 470.33826,349.21436 C 480.36509,351.72107 479.77648,352.23833 479.77648,363.3717 C 479.77648,370.18819 465.72002,360.3265 460.90003,355.50651 C 455.16733,349.77381 451.91236,348.54243 448.31573,341.34917 C 445.07973,334.87718 436.36761,336.47101 429.43928,338.20309 C 422.41118,339.96012 417.97476,351.92053 415.28194,358.65258 z"
       id="path3473" />
    <path
       style="fill:#f84444;fill-opacity:1;fill-rule:evenodd;stroke:#fbdfdf;stroke-width:5;stroke-linecap:round;stroke-linejoin:round;stroke-opacity:1;opacity:1;color:#000000;marker:none;marker-start:none;marker-mid:none;marker-end:none;stroke-miterlimit:4;stroke-dasharray:none;stroke-dashoffset:0;visibility:visible;display:inline;overflow:visible;enable-background:accumulate"
       d="M 284.71981,297.30411 C 278.79775,298.78463 271.8517,285.72523 268.98944,280.0007 C 265.85598,273.73378 263.88814,268.60725 259.55121,264.27032 C 256.00446,260.72357 264.99747,243.93958 265.84336,242.2478 C 269.60532,234.72389 270.23754,228.41539 275.28159,223.37135 C 279.7552,218.89773 266.53192,209.90256 264.27032,207.64097 C 260.92362,204.29427 258.09068,195.50671 256.40514,188.76452 C 254.99355,183.11816 250.90662,176.97385 246.96691,173.03414 C 242.95644,169.02367 237.88247,179.93592 232.80957,182.47237 C 224.52551,186.6144 230.01108,187.36527 235.95565,190.33755 C 242.90009,193.80978 248.17449,199.10843 253.25906,202.92186 C 258.892,207.14656 261.02296,210.68575 265.84336,215.50616 C 271.95277,221.61557 260.08541,230.70233 257.97817,232.80957 C 254.58237,236.20538 250.11299,243.2038 250.11299,250.11299 C 250.11299,258.28396 249.86855,266.43864 251.68602,273.70855 C 253.25837,279.99793 259.30265,282.89821 262.69729,286.29285 C 268.80091,292.39648 275.76609,293.72262 284.71981,297.30411 z"
       id="path3475" />
    <path
       style="fill:#ff9191;fill-opacity:1;fill-rule:evenodd;stroke:#000000;stroke-width:5;stroke-linecap:round;stroke-linejoin:round;stroke-opacity:1;opacity:1;color:#000000;marker:none;marker-start:none;marker-mid:none;marker-end:none;stroke-miterlimit:4;stroke-dasharray:none;stroke-dashoffset:0;visibility:visible;display:inline;overflow:visible;enable-background:accumulate"
       d="M 426.2932,311.46145 C 431.1699,316.33815 427.76658,297.70274 429.43928,291.01196 C 429.79855,289.57485 439.4044,282.09298 442.02358,276.85463 C 444.50242,271.89693 442.02358,258.94802 442.02358,253.25906 C 442.02358,243.73635 445.93759,239.13888 449.88877,231.23653 C 453.22344,224.56718 456.14116,220.38429 457.75395,213.93312 C 459.46882,207.07364 457.75395,197.44998 457.75395,190.33755 C 457.75395,184.14043 465.37226,179.57317 468.76522,176.18022 C 473.08486,171.86058 481.40989,167.51342 484.49559,166.74199 C 490.78774,165.16895 487.64167,179.32629 489.21471,185.61844 C 490.82174,192.04659 499.17613,197.1529 501.79901,199.77578 C 509.06689,207.04366 506.4107,203.34197 495.50686,206.06793 C 488.1544,207.90605 484.21451,212.92226 481.34952,218.65223 C 478.06889,225.21348 473.74624,227.04282 471.91129,234.38261 C 469.98613,242.08327 471.91129,246.05213 471.91129,254.8321 C 471.91129,260.28058 459.61063,265.70154 456.18092,267.4164 C 451.2221,269.89581 451.4618,281.71985 451.4618,287.86589 C 451.4618,290.72891 440.24995,299.07774 438.8775,300.45019 C 434.08362,305.24407 432.78172,304.97293 426.2932,311.46145 z"
       id="path3477" />
    <path
       style="fill:#f84444;fill-opacity:1;fill-rule:evenodd;stroke:#fbdfdf;stroke-width:5;stroke-linecap:round;stroke-linejoin:round;stroke-opacity:1;opacity:1;color:#000000;marker:none;marker-start:none;marker-mid:none;marker-end:none;stroke-miterlimit:4;stroke-dasharray:none;stroke-dashoffset:0;visibility:visible;display:inline;overflow:visible;enable-background:accumulate"
       d="M 482.92256,180.89933 C 482.92256,179.11296 468.69295,193.77268 467.19218,199.77578 C 465.35811,207.11207 464.0461,213.09133 464.0461,221.79831 C 464.0461,229.6657 460.43641,235.00077 456.18092,240.67476 C 451.31437,247.16348 448.31573,249.64061 448.31573,257.97817 C 448.31573,267.1131 445.08578,273.79242 440.45054,278.42766 C 435.15406,283.72415 432.57179,289.46605 429.43928,295.73108 C 426.90044,300.80875 427.86624,310.34197 427.86624,317.7536 C 427.86624,325.7574 438.50933,305.06893 440.45054,297.30411 C 442.03484,290.9669 448.16918,285.30602 449.88877,278.42766 C 452.18017,269.26204 457.12098,265.22918 459.32699,256.40514 C 461.14104,249.14895 463.71637,242.57753 467.19218,239.10172 C 470.89743,235.39647 470.33826,221.18376 470.33826,215.50616 C 470.33826,208.10965 478.4263,205.84507 482.92256,201.34882 C 489.08919,195.18218 495.23934,196.36218 487.64167,188.76452 C 485.47974,186.60258 484.49559,183.52106 482.92256,180.89933 z"
       id="path3481" />
  </g>
</svg>
