<?xml version="1.0" encoding="UTF-8" standalone="no"?>
<!-- Created with Inkscape (http://www.inkscape.org/) -->
<svg
   xmlns:dc="http://purl.org/dc/elements/1.1/"
   xmlns:cc="http://creativecommons.org/ns#"
   xmlns:rdf="http://www.w3.org/1999/02/22-rdf-syntax-ns#"
   xmlns:svg="http://www.w3.org/2000/svg"
   xmlns="http://www.w3.org/2000/svg"
   xmlns:sodipodi="http://sodipodi.sourceforge.net/DTD/sodipodi-0.dtd"
   xmlns:inkscape="http://www.inkscape.org/namespaces/inkscape"
   width="744.09448819"
   height="1052.3622047"
   id="svg2"
   sodipodi:version="0.32"
   inkscape:version="0.46"
   sodipodi:docname="bacon.svg"
   inkscape:output_extension="org.inkscape.output.svg.inkscape">
  <defs
     id="defs4">
    <inkscape:perspective
       sodipodi:type="inkscape:persp3d"
       inkscape:vp_x="0 : 526.18109 : 1"
       inkscape:vp_y="0 : 1000 : 0"
       inkscape:vp_z="744.09448 : 526.18109 : 1"
       inkscape:persp3d-origin="372.04724 : 350.78739 : 1"
       id="perspective10" />
  </defs>
  <sodipodi:namedview
     id="base"
     pagecolor="#ffffff"
     bordercolor="#666666"
     borderopacity="1.0"
     gridtolerance="10000"
     guidetolerance="10"
     objecttolerance="10"
     inkscape:pageopacity="0.0"
     inkscape:pageshadow="2"
     inkscape:zoom="1.0208333"
     inkscape:cx="156.24756"
     inkscape:cy="477.14286"
     inkscape:document-units="px"
     inkscape:current-layer="layer1"
     showgrid="false"
     inkscape:window-width="1280"
     inkscape:window-height="885"
     inkscape:window-x="0"
     inkscape:window-y="25" />
  <metadata
     id="metadata7">
    <rdf:RDF>
      <cc:Work
         rdf:about="">
        <dc:format>image/svg+xml</dc:format>
        <dc:type
           rdf:resource="http://purl.org/dc/dcmitype/StillImage" />
      </cc:Work>
    </rdf:RDF>
  </metadata>
  <g
     inkscape:label="Layer 1"
     inkscape:groupmode="layer"
     id="layer1">
    <g
       id="g3173"
       transform="matrix(0.8530651,0.5218045,-0.5218045,0.8530651,288.41649,-32.236643)"
       inkscape:export-filename="/home/james/src/ohr/games/baconthulhu/media/bacon.png"
       inkscape:export-xdpi="36.498226"
       inkscape:export-ydpi="36.498226">
      <path
         id="path2387"
         d="M 148.57143,478.07647 C 135.90798,484.40819 175.42591,487.10397 188.57143,492.36218 C 200.79959,497.25345 217.65849,495.21933 231.42857,495.21933 C 248.22219,495.21933 256.90122,487.42259 271.42857,483.79075 C 284.64473,480.48672 294.46279,478.07647 311.42857,478.07647 C 329.82917,478.07647 339.31465,479.16236 354.28571,486.6479 C 363.5084,491.25924 380.82381,489.50504 394.28571,489.50504 C 412.44014,489.50504 424.72694,484.28443 437.14286,478.07647 C 449.8063,471.74475 426.291,451.8119 422.85714,438.07647 C 421.33071,431.97074 409.73004,446.35824 397.14286,449.50504 C 381.56061,453.4006 371.89153,450.33507 357.14286,446.6479 C 337.64087,441.7724 325.21016,435.21933 302.85714,435.21933 C 287.75195,435.21933 277.86904,440.03778 262.85714,443.79075 C 245.55421,448.11649 236.46943,452.36218 217.14286,452.36218 C 198.58091,452.36218 183.19079,447.44559 168.57143,443.79075 C 157.02811,440.90492 140,423.93665 140,446.6479 C 140,461.71477 142.32717,462.46583 148.57143,478.07647 z"
         style="fill:#ffc0c0;fill-opacity:1;fill-rule:evenodd;stroke:#000000;stroke-width:3;stroke-linecap:butt;stroke-linejoin:miter;stroke-miterlimit:4;stroke-dasharray:none;stroke-opacity:1" />
      <path
         id="path2389"
         d="M 144,448.93361 C 146.48296,453.56738 155.16055,455.49348 161.63265,458.72953 C 165.68812,460.75726 170.53262,460.68871 175.34694,460.68871 C 182.30813,460.68871 188.6679,461.66831 195.91837,461.66831 C 205.38775,461.66831 214.85714,461.66831 224.32653,461.66831 C 229.76832,461.66831 237.03343,459.96097 241.95918,458.72953 C 247.88787,457.24736 254.86873,457.68 259.59184,455.79076 C 265.8476,453.28845 275.56362,454.10408 281.14286,451.87239 C 286.20831,449.84621 289.88298,445.99484 295.83673,445.99484 C 301.23373,445.99484 305.68628,446.74294 310.53061,447.95402 C 317.57071,449.71405 324.86817,450.06902 332.08163,451.87239 C 337.1569,453.14121 342.5523,454.81116 348.73469,454.81116 C 355.74599,454.81116 360.16841,455.22061 366.36735,456.77035 C 373.02035,458.4336 382.07061,456.77035 388.89796,456.77035 C 397.29883,456.77035 407.60851,457.14252 414.36735,455.79076 C 420.1051,454.6432 421.15205,451.87239 428.08163,451.87239 C 436.65397,451.87239 423.14881,455.21695 419.26531,456.77035 C 413.36609,459.13003 410.96318,461.1541 407.5102,464.60708 C 402.55149,469.56579 390.64003,469.50504 383.02041,469.50504 C 370.62929,469.50504 361.99505,472.69469 348.73469,470.48463 C 342.0084,469.36358 335.47671,469.12932 329.14286,467.54586 C 323.2731,466.07842 317.13702,466.42049 311.5102,467.54586 C 309.87755,467.87239 308.2449,468.19892 306.61224,468.52545 C 304.97959,468.85198 303.34694,469.17851 301.71428,469.50504 C 294.20455,471.00699 290.25743,470.65497 283.10204,472.44382 C 277.29044,473.89672 270.66403,473.42341 264.4898,473.42341 C 253.9135,473.42341 247.75125,475.72337 238.04082,477.34178 C 228.05008,479.0069 221.79273,481.26014 211.59184,481.26014 C 205.9018,481.26014 201.79811,479.7913 195.91837,478.32137 C 188.55381,476.48023 181.56245,476.82161 174.36735,475.38259 C 168.44083,474.19729 162.99922,472.44382 156.73469,472.44382 C 152.51311,472.44382 148.17607,467.80357 145.95918,465.58667 C 141.99598,461.62347 142.93309,454.26817 144,448.93361 z"
         style="fill:#fe2d2d;fill-opacity:1;fill-rule:evenodd;stroke:#ffffff;stroke-width:5;stroke-linecap:butt;stroke-linejoin:miter;stroke-miterlimit:4;stroke-dasharray:none;stroke-opacity:1" />
    </g>
    <path
       style="fill:#000000;fill-opacity:0.29385966;fill-rule:evenodd;stroke:none;stroke-width:1px;stroke-linecap:butt;stroke-linejoin:miter;stroke-opacity:1"
       d="M 407.5102,465.58667 C 406.02113,465.58667 400.81501,472.40333 396.73469,473.42341 C 392.11432,474.5785 388.26849,481.08508 384,483.21933 C 378.11992,486.15936 374.02102,488.69861 367.34694,492.03565 C 362.23271,494.59277 356.69592,495.89177 352.65306,497.9132 C 346.46033,501.00957 339.98128,503.7593 334.04082,506.72953 C 328.10491,509.69749 320.20351,513.15839 315.42857,515.54586 C 309.89695,518.31167 304.68995,522.35381 301.71428,526.32137 C 298.85678,530.13138 296.84279,532.14599 294.85714,536.11729 C 292.77957,540.27243 289.40054,541.57389 286.04082,544.93361 C 282.61585,548.35858 275.36113,549.29386 272.32653,550.81116 C 267.77212,553.08837 258.58103,552.77815 254.69388,553.74994 C 246.35799,555.83391 237.30866,557.60645 229.22449,559.62749 C 225.26551,560.61723 216.72322,566.25121 214.53061,568.44382 C 209.73757,573.23686 207.58018,576.46714 204.73469,582.1581 C 202.98038,585.66672 202.1205,590.32527 199.83673,594.8928 C 197.20101,600.16425 205.52183,600.96713 208.65306,601.74994 C 213.03332,602.845 217.53421,605.70072 221.38775,607.62749 C 223.5064,608.68681 233.61795,596.87158 235.10204,594.8928 C 235.54013,594.30868 235.7551,593.58667 236.08163,592.93361 C 238.0253,589.04627 245.642,585.21465 247.83673,584.11729 C 253.24574,581.41278 258.14498,579.45296 262.53061,577.26014 C 269.10035,573.97527 278.42979,573.22892 284.08163,570.403 C 289.41119,567.73822 292.75196,566.06784 297.79592,563.54586 C 302.27206,561.30778 305.04599,558.05987 310.53061,556.68871 C 314.94369,555.58544 319.89823,551.02531 324.2449,548.85198 C 327.10004,547.42441 330.25295,542.84393 332.08163,541.01525 C 336.97105,536.12583 340.20104,536.53153 342.85714,531.21933 C 344.98853,526.95655 348.81164,524.28524 351.67347,521.42341 C 354.94541,518.15147 359.99868,514.07779 363.42857,510.6479 C 366.69622,507.38025 374.04075,502.90916 379.10204,499.87239 C 384.49845,496.63454 391.38094,494.28192 397.71428,493.01525 C 401.9711,492.16388 410.51198,485.37616 413.38775,483.21933 C 417.85805,479.86661 421.53894,478.88169 424.16326,475.38259 C 427.50054,470.93289 424.96226,466.76601 420.2449,465.58667 C 415.81838,464.48004 412.63156,464.5624 407.5102,465.58667 z"
       id="path3199"
       inkscape:export-filename="/home/james/src/ohr/games/baconthulhu/media/bacon.png"
       inkscape:export-xdpi="36.498226"
       inkscape:export-ydpi="36.498226" />
    <g
       id="g3169"
       transform="matrix(0.8444671,-0.5356074,0.5356074,0.8444671,-250.10756,207.63771)"
       inkscape:export-filename="/home/james/src/ohr/games/baconthulhu/media/bacon.png"
       inkscape:export-xdpi="36.498226"
       inkscape:export-ydpi="36.498226">
      <path
         id="path2385"
         d="M 151.42857,543.79075 C 153.60477,552.49556 153.60811,571.00698 160,583.79075 C 165.46359,594.71794 179.35325,578.39984 185.71429,575.21933 C 198.91255,568.62019 211.13239,569.50504 228.57143,569.50504 C 242.06023,569.50504 254.28462,580.93361 271.42857,580.93361 C 284.35369,580.93361 305.02867,575.35645 320,572.36218 C 335.5984,569.2425 354.69704,578.1793 365.71429,580.93361 C 379.64451,584.41617 393.77334,583.79075 408.57143,583.79075 C 426.58634,583.79075 433.4609,578.28267 445.71429,575.21933 C 454.2923,573.07482 436.1632,554.15784 434.28571,546.6479 C 429.5113,527.55024 421.37021,529.50504 414.28571,529.50504 C 394.8596,529.50504 390.09313,527.40875 377.14286,520.93361 C 365.6608,515.19258 353.57306,509.50504 340,509.50504 C 328.23394,509.50504 311.41393,520.23031 302.85714,526.6479 C 295.81533,531.92926 272.99155,529.50504 262.85714,529.50504 C 246.29484,529.50504 239.00545,520.93361 222.85714,520.93361 C 204.49668,520.93361 190.35257,520.04304 177.14286,526.6479 C 167.14379,531.64743 163.27304,536.68407 151.42857,543.79075 z"
         style="opacity:1;fill:#ffc0c0;fill-opacity:1;fill-rule:evenodd;stroke:#000000;stroke-width:3;stroke-linecap:butt;stroke-linejoin:miter;marker:none;marker-start:none;marker-mid:none;marker-end:none;stroke-miterlimit:4;stroke-dasharray:none;stroke-dashoffset:0;stroke-opacity:1;visibility:visible;display:inline;overflow:visible;enable-background:accumulate" />
      <path
         id="path2391"
         d="M 187.10204,537.09688 C 185.54572,535.54056 175.4555,539.98137 173.38775,541.01525 C 167.82788,543.79518 165.73829,544.74635 162.61224,547.87239 C 160.2422,550.24243 161.63265,558.19346 161.63265,561.58667 C 161.63265,570.36232 162.66,570.01279 167.5102,563.54586 C 170.88071,559.05185 182.25374,554.12191 188.08163,551.79076 C 198.48297,547.63022 208.17218,547.78927 219.42857,545.9132 C 224.52123,545.06443 227.54542,552.42061 232.16326,554.72953 C 237.20965,557.25272 245.22645,554.40398 249.79592,556.68871 C 256.35228,559.96689 259.5775,561.19197 266.44898,562.56627 C 272.28527,563.73352 281.2436,563.00569 286.04082,560.60708 C 293.68659,556.78419 303.14625,556.70368 310.53061,553.74994 C 315.9466,551.58354 318.16812,547.32448 325.22449,545.9132 C 334.46889,544.06432 343.05167,553.23999 351.67347,556.68871 C 359.21061,559.70357 366.9784,561.9048 375.18367,563.54586 C 383.40284,565.18969 395.04051,564.08061 402.61224,562.56627 C 412.19892,560.64893 415.6148,557.66831 425.14286,557.66831 C 428.09972,557.66831 431.00232,556.68871 433.95918,556.68871 C 439.39373,556.68871 426.46093,548.24672 425.14286,542.97443 C 424.7182,541.27582 407.94436,544.93361 405.55102,544.93361 C 398.76801,544.93361 394.91701,545.00436 388.89796,541.99484 C 380.90241,537.99706 373.99156,533.91968 365.38775,532.19892 C 360.18586,531.15854 353.38455,526.68711 348.73469,524.36218 C 342.72096,521.35532 333.10284,525.32097 329.14286,527.30096 C 323.08511,530.32983 318.54791,533.97754 313.46939,539.05606 C 311.24609,541.27935 297.12354,541.45384 293.87755,541.99484 C 289.36149,542.74751 279.92787,541.2013 275.26531,540.03565 C 267.20143,538.01968 263.49863,538.07647 255.67347,538.07647 C 246.7904,538.07647 238.91617,536.11729 230.20408,536.11729 C 222.69388,536.11729 215.18367,536.11729 207.67347,536.11729 C 202.44898,536.11729 197.22449,536.11729 192,536.11729 C 190.33501,536.11729 188.73469,536.77035 187.10204,537.09688 z"
         style="opacity:1;fill:#fe2d2d;fill-opacity:1;fill-rule:evenodd;stroke:#ffffff;stroke-width:5;stroke-linecap:butt;stroke-linejoin:miter;marker:none;marker-start:none;marker-mid:none;marker-end:none;stroke-miterlimit:4;stroke-dasharray:none;stroke-dashoffset:0;stroke-opacity:1;visibility:visible;display:inline;overflow:visible;enable-background:accumulate" />
    </g>
    <path
       style="fill:#000000;fill-opacity:0.29385968000000001;fill-rule:evenodd;stroke:none;stroke-width:1px;stroke-linecap:butt;stroke-linejoin:miter;stroke-opacity:1;opacity:1;color:#000000;marker:none;marker-start:none;marker-mid:none;marker-end:none;stroke-miterlimit:4;stroke-dasharray:none;stroke-dashoffset:0;visibility:visible;display:inline;overflow:visible;enable-background:accumulate"
       d="M 144.97959,520.44382 C 145.25253,523.53324 147.78823,530.56865 148.89796,536.11729 C 150.06441,541.94955 147.95085,545.9132 154.77551,545.9132 C 159.02725,545.9132 164.15749,540.03565 170.44898,540.03565 C 173.28872,540.03565 179.99717,536.11729 185.14286,536.11729 C 192.03014,536.11729 200.45992,537.20074 205.71429,538.07647 C 211.4977,539.04037 213.4215,541.71756 218.44898,542.97443 C 226.3349,544.94591 233.22328,549.66782 240.97959,552.77035 C 249.24034,556.07465 258.56613,554.72953 267.42857,554.72953 C 272.54009,554.72953 277.54392,554.89457 282.12245,553.74994 C 288.28031,552.21047 292.19406,551.23204 297.79592,549.83157 C 299.10204,549.50504 300.40816,549.17851 301.71428,548.85198 C 307.14981,547.4931 311.14708,545.20216 317.38775,543.95402 C 323.67756,542.69606 329.10721,540.05348 335.02041,537.09688 C 339.65216,534.781 344.44521,535.13769 350.69388,535.13769 C 358.92796,535.13769 367.04995,534.49054 375.18367,536.11729 C 383.07313,537.69518 390.57977,540.37202 398.69388,541.99484 C 403.55279,542.96662 409.67321,546.45395 415.34694,547.87239 C 419.83798,548.99515 423.1426,549.5764 428.08163,550.81116 C 434.12026,552.32082 432,544.20227 432,540.03565 C 432,538.35785 424.15086,530.22733 423.18367,529.26014 C 420.08512,526.1616 414.98159,524.17951 411.42857,522.403 C 405.75689,519.56716 398.70682,519.96049 393.79592,517.50504 C 388.42041,514.81729 379.20176,514.1014 373.22449,512.60708 C 368.11357,511.32935 360.82145,512.60708 355.59184,512.60708 C 349.87344,512.60708 344.12106,512.2911 338.93877,513.58667 C 334.74491,514.63514 327.0452,516.97267 323.26531,518.48463 C 316.15813,521.3275 303.81484,521.42341 295.83673,521.42341 C 286.41813,521.42341 277.97055,523.38259 268.40816,523.38259 C 262.53061,523.38259 256.65306,523.38259 250.77551,523.38259 C 245.36378,523.38259 239.24977,521.72565 234.12245,520.44382 C 226.89273,518.63639 220.41794,516.283 213.55102,514.56627 C 206.33032,512.76109 199.90037,511.62749 192,511.62749 C 184.27701,511.62749 176.99697,512.60708 169.46939,512.60708 C 162.63751,512.60708 157.16338,515.54586 149.87755,515.54586 C 147.56863,515.54586 146.61224,518.81116 144.97959,520.44382 z"
       id="path3197"
       inkscape:export-filename="/home/james/src/ohr/games/baconthulhu/media/bacon.png"
       inkscape:export-xdpi="36.498226"
       inkscape:export-ydpi="36.498226" />
    <g
       id="g3165"
       transform="translate(-3.9183673,-158.69388)"
       inkscape:export-filename="/home/james/src/ohr/games/baconthulhu/media/bacon.png"
       inkscape:export-xdpi="36.498226"
       inkscape:export-ydpi="36.498226">
      <path
         id="path2383"
         d="M 148.57143,703.79075 C 155.78939,699.39231 178.83301,686.93965 191.42857,683.79075 C 207.28428,679.82683 215.84172,689.17975 228.57143,692.36218 C 243.82023,696.17438 254.51743,703.79075 274.28571,703.79075 C 294.23698,703.79075 298.60585,696.99643 317.14286,692.36218 C 331.73743,688.71354 339.18517,680.93361 357.14286,680.93361 C 375.95183,680.93361 386.76212,685.48128 402.85714,689.50504 C 414.61619,692.4448 429.43553,704.2228 440,709.50504 C 462.29824,720.65416 457.2254,701.26378 454.28571,689.50504 C 450.60685,674.78957 449.44206,664.41612 445.71429,649.50504 C 442.18087,635.3714 415.88772,647.4489 402.85714,640.93361 C 389.73298,634.37153 380.12846,629.53715 368.57143,626.6479 C 351.13344,622.2884 343.22182,625.84244 328.57143,629.50504 C 316.94081,632.41269 305.08306,641.24923 294.28571,646.6479 C 285.06303,651.25924 267.74762,649.50504 254.28571,649.50504 C 240.9749,649.50504 226.46917,635.40805 214.28571,632.36218 C 198.67031,628.45833 184.86459,633.21188 177.14286,640.93361 C 168.00935,650.06712 158.02424,651.42755 142.85714,655.21933 C 123.78812,659.98658 130.01375,663.84576 134.28571,680.93361 C 135.56262,686.04122 145.5399,698.73821 148.57143,703.79075 z"
         style="opacity:1;fill:#ffc0c0;fill-opacity:1;fill-rule:evenodd;stroke:#000000;stroke-width:3;stroke-linecap:butt;stroke-linejoin:miter;marker:none;marker-start:none;marker-mid:none;marker-end:none;stroke-miterlimit:4;stroke-dasharray:none;stroke-dashoffset:0;stroke-opacity:1;visibility:visible;display:inline;overflow:visible;enable-background:accumulate" />
      <path
         id="path2393"
         d="M 142.04082,667.38259 C 136.60626,667.38259 148.42674,676.23607 150.85714,681.09688 C 154.22276,687.82811 154.53664,686.41889 161.63265,681.09688 C 170.92468,674.12786 171.45495,671.30096 185.14286,671.30096 C 192.45766,671.30096 200.17304,670.32137 207.67347,670.32137 C 217.11552,670.32137 223.3342,671.6877 232.16326,675.21933 C 238.11379,677.59953 243.54666,680.75905 248.81633,682.07647 C 254.55426,683.51095 264.29685,681.91914 268.40816,681.09688 C 276.54542,679.46943 285.505,674.12879 292.89796,672.28055 C 303.49542,669.63118 306.9569,668.81207 315.42857,665.42341 C 322.65913,662.53118 327.84217,662.48463 336,662.48463 C 344.50447,662.48463 352.42373,664.44382 361.46939,664.44382 C 369.50375,664.44382 380.8771,668.27012 386.93877,671.30096 C 396.37318,676.01816 408.65233,679.04419 419.26531,682.07647 C 423.77322,683.36444 427.13733,686.03012 430.04082,688.93361 C 433.92897,692.82177 441.29709,691.87239 441.79592,691.87239 C 443.54379,691.87239 438.511,677.46583 437.87755,676.19892 C 435.2639,670.97161 436.99918,665.8283 435.91837,661.50504 C 434.48408,655.76789 424.02287,664.89851 418.28571,663.46422 C 409.87046,661.36041 404.83659,660.16823 397.71428,656.60708 C 391.38238,653.44113 386.54717,651.51332 381.06122,648.77035 C 375.11921,645.79934 368.21552,642.8928 361.46939,642.8928 C 352.83095,642.8928 344.34931,644.72383 336,646.81116 C 327.63201,648.90316 317.97276,651.56287 309.55102,653.66831 C 302.93117,655.32327 292.58188,655.10295 285.06122,656.60708 C 278.13674,657.99198 270.70754,659.08598 263.5102,660.52545 C 252.20449,662.78659 241.6747,658.79797 232.16326,655.62749 C 223.97331,652.89751 208.56336,649.74994 199.83673,649.74994 C 192.82631,649.74994 186.36445,652.56771 182.20408,654.6479 C 175.44733,658.02627 166.81972,658.59433 161.63265,662.48463 C 157.78285,665.37199 147.45544,663.77284 142.04082,667.38259 z"
         style="opacity:1;fill:#fe2d2d;fill-opacity:1;fill-rule:evenodd;stroke:#ffffff;stroke-width:5;stroke-linecap:butt;stroke-linejoin:miter;marker:none;marker-start:none;marker-mid:none;marker-end:none;stroke-miterlimit:4;stroke-dasharray:none;stroke-dashoffset:0;stroke-opacity:1;visibility:visible;display:inline;overflow:visible;enable-background:accumulate" />
    </g>
  </g>
</svg>
